<svg id="Online_Healthcare" height="512" viewBox="0 0 64 64" width="512" xmlns="http://www.w3.org/2000/svg" data-name="Online Healthcare"><rect fill="#787680" height="58" rx="2" width="34" x="3" y="3"/><path d="m33 7h-4v1a2 2 0 0 1 -2 2h-14a2 2 0 0 1 -2-2v-1h-4a1 1 0 0 0 -1 1v47a2 2 0 0 0 2 2h24a2 2 0 0 0 2-2v-47a1 1 0 0 0 -1-1z" fill="#05b7eb"/><path d="m34 57v-6.54a5.991 5.991 0 0 0 -4.28-5.74l-2.16-.65a5.007 5.007 0 0 1 -3.56-4.79v-5.28h-8v5.28a5.007 5.007 0 0 1 -3.56 4.79l-2.16.65a5.991 5.991 0 0 0 -4.28 5.74v6.54z" fill="#f2f2f2"/><path d="m14.34 43a4.986 4.986 0 0 0 1.66-3.72v-5.28h8v5.28a4.986 4.986 0 0 0 1.66 3.72l-5.66 2z" fill="#ffcbbe"/><path d="m20 39a8 8 0 0 1 -8-8v-11h16v11a8 8 0 0 1 -8 8z" fill="#ffddce"/><path d="m10 26h2a0 0 0 0 1 0 0v5a0 0 0 0 1 0 0h-2a2 2 0 0 1 -2-2v-1a2 2 0 0 1 2-2z" fill="#ffcbbe"/><path d="m30 26h2a0 0 0 0 1 0 0v5a0 0 0 0 1 0 0h-2a2 2 0 0 1 -2-2v-1a2 2 0 0 1 2-2z" fill="#ffcbbe" transform="matrix(-1 0 0 -1 60 57)"/><path d="m23 57h-6l2-8h2z" fill="#2281c7"/><path d="m16 45h8l-3 4h-2z" fill="#235182"/><path d="m12.74 43.96 3.26 4.04 4-3-5.57-2.09-.01.01a4.757 4.757 0 0 1 -1.68 1.04z" fill="#2281c7"/><path d="m25.57 42.91-5.57 2.09 4 3 3.26-4.04a4.757 4.757 0 0 1 -1.68-1.04z" fill="#2281c7"/><circle cx="29" cy="50" fill="#acabb1" r="2"/><path d="m8 15h14a6 6 0 0 1 6 6v3a0 0 0 0 1 0 0h-12.306a7.694 7.694 0 0 1 -7.694-7.694v-1.306a0 0 0 0 1 0 0z" fill="#3e3d42"/><path d="m37 22v10l-6 6h28a2 2 0 0 0 2-2v-14a2 2 0 0 0 -2-2h-20a2 2 0 0 0 -2 2z" fill="#a7daf7"/><path d="m54 27h-3v-3h-4v3h-3v4h3v3h4v-3h3z" fill="#ec455a"/><path d="m15 6h2v2h-2z"/><path d="m19 6h2v2h-2z"/><path d="m23 6h2v2h-2z"/><path d="m59 19h-20a3 3 0 0 0 -1 .18v-14.18a3.009 3.009 0 0 0 -3-3h-30a3.009 3.009 0 0 0 -3 3v54a3.009 3.009 0 0 0 3 3h30a3.009 3.009 0 0 0 3-3v-20h21a3.009 3.009 0 0 0 3-3v-14a3.009 3.009 0 0 0 -3-3zm-23 40a1 1 0 0 1 -1 1h-30a1 1 0 0 1 -1-1v-54a1 1 0 0 1 1-1h30a1 1 0 0 1 1 1v26.59l-1 1v-24.59a2.006 2.006 0 0 0 -2-2h-4a1 1 0 0 0 -1 1v1a1 1 0 0 1 -1 1h-14a1 1 0 0 1 -1-1v-1a1 1 0 0 0 -1-1h-4a2.006 2.006 0 0 0 -2 2v49a1 1 0 0 0 1 1h28a1 1 0 0 0 1-1v-18h1zm-5.92-20.62a.987.987 0 0 0 .92.62h2v6.57a7.028 7.028 0 0 0 -2.99-1.81l-.15-.04a6.013 6.013 0 0 0 -4.86-4.63v-.61a8.995 8.995 0 0 0 3.94-6.48h1.06a3.009 3.009 0 0 0 3-3v5.59l-2.71 2.7a1 1 0 0 0 -.21 1.09zm-10.3 11.62h.44l1.5 6h-3.44zm-.94-2.88 1.16-.87 1.16.87-.66.88h-1zm1.16-3.19-3.93-1.47a5.933 5.933 0 0 0 .91-2.99 9.052 9.052 0 0 0 3.02.53 8.92 8.92 0 0 0 3.02-.53 5.933 5.933 0 0 0 .91 2.99zm-4.31-20.93a6.7 6.7 0 0 1 -6.69-6.69v-.31h13a5 5 0 0 1 5 5v2zm11.31 2v6a7 7 0 1 1 -14 0v-6.43a8.563 8.563 0 0 0 2.69.43zm-16-1.39v1.39h-1a3.009 3.009 0 0 0 -3 3v-11.69a8.689 8.689 0 0 0 4 7.3zm0 3.39v3h-1a1 1 0 0 1 -1-1v-1a1 1 0 0 1 1-1zm-1 5h1.06a8.967 8.967 0 0 0 2.57 5.37 10.32 10.32 0 0 0 1.37 1.12v.6a6.013 6.013 0 0 0 -4.86 4.63l-.15.04a7.028 7.028 0 0 0 -2.99 1.81v-16.57a3.009 3.009 0 0 0 3 3zm4.43 9.33a3.968 3.968 0 0 1 -1.84 1.61 4 4 0 0 1 1.84-1.61zm-4.25 4.5.59 2.38a4 4 0 0 0 -2.77 3.79v2a1 1 0 0 0 1 1h2v-2h-1v-1a2 2 0 0 1 4 0v1h-1v2h2a1 1 0 0 0 1-1v-2a4.011 4.011 0 0 0 -3.2-3.92l-.71-2.86.31-.09 2.82 3.5a1 1 0 0 0 1.38.17l.64-.48.67.9-1.69 6.78h-8.22a1 1 0 0 1 -1-1v-4.54a4.955 4.955 0 0 1 3.18-4.63zm5.99.79-1.88-2.33c.11-.08.23-.16.34-.24l3.31 1.24zm9.21-2.57c.1.08.22.16.33.24l-1.88 2.33-1.77-1.33zm.19-2.73a4.025 4.025 0 0 1 1.84 1.62 3.934 3.934 0 0 1 -1.84-1.62zm-2.81 7 .64.48a1 1 0 0 0 1.38-.17l2.82-3.5.4.12v1.93a3 3 0 1 0 2 0v-1.28a4.949 4.949 0 0 1 3 4.56v4.54a1 1 0 0 1 -1 1h-8.22l-1.69-6.78zm6.24.68a1 1 0 1 1 -1 1 1 1 0 0 1 1-1zm0-19v-3h1a1 1 0 0 1 1 1v1a1 1 0 0 1 -1 1zm1-5h-1v-4a7.008 7.008 0 0 0 -7-7h-14a1 1 0 0 0 -1 1v-7h3a3.009 3.009 0 0 0 3 3h14a3.009 3.009 0 0 0 3-3h3v20a3.009 3.009 0 0 0 -3-3zm30 11a1 1 0 0 1 -1 1h-25.59l4.3-4.29a1.033 1.033 0 0 0 .29-.71v-10a1 1 0 0 1 1-1h20a1 1 0 0 1 1 1z"/><path d="m54 26h-2v-2a1 1 0 0 0 -1-1h-4a1 1 0 0 0 -1 1v2h-2a1 1 0 0 0 -1 1v4a1 1 0 0 0 1 1h2v2a1 1 0 0 0 1 1h4a1 1 0 0 0 1-1v-2h2a1 1 0 0 0 1-1v-4a1 1 0 0 0 -1-1zm-1 4h-2a1 1 0 0 0 -1 1v2h-2v-2a1 1 0 0 0 -1-1h-2v-2h2a1 1 0 0 0 1-1v-2h2v2a1 1 0 0 0 1 1h2z"/><path d="m17 27a1 1 0 0 0 -1 1v1a1 1 0 0 0 2 0v-1a1 1 0 0 0 -1-1z"/><path d="m23 27a1 1 0 0 0 -1 1v1a1 1 0 0 0 2 0v-1a1 1 0 0 0 -1-1z"/></svg>