<svg id="Слой_1" data-name="Слой 1" xmlns="http://www.w3.org/2000/svg" viewBox="0 0 2977.82 990.33"><defs><style>.cls-1{fill:#e1ecfe;}.cls-2{fill:#acd29a;}.cls-3{fill:#98baf4;}.cls-4{fill:#edf4ff;}.cls-5{fill:#fff;}.cls-6{fill:#ff9e55;}.cls-7{fill:#afcdfb;}.cls-8{fill:#7fa8e5;}.cls-9{fill:#dfebfd;}.cls-10{fill:#cce1ff;}.cls-11{fill:#bdd7fd;}.cls-12{opacity:0.5;}.cls-13,.cls-14{fill:#233862;}.cls-14{opacity:0.3;}.cls-15{fill:#172944;}.cls-16{fill:#2b478b;}.cls-17{fill:#a8302d;}.cls-18{fill:#a2c2dd;}.cls-19{fill:#ea6a60;}.cls-20{fill:#163560;}.cls-21{fill:#ffb27d;}.cls-22{fill:#e8945b;}.cls-23{fill:#ebf3fa;}.cls-24{fill:#ed7d2b;}.cls-25{fill:#f99746;}.cls-26{fill:#17467f;}.cls-27{fill:#0c2442;}.cls-28{fill:#1c468a;}.cls-29{fill:#b64c41;}.cls-30{fill:#ed985f;}.cls-31{fill:#d35c2b;}.cls-32{fill:#aa443e;}.cls-33{fill:#cb7d45;}.cls-34{fill:#2e3552;}.cls-35{fill:#9db0f4;}.cls-36{fill:#e2915a;}.cls-37{fill:#aec3ff;}.cls-38{fill:#c65447;}</style></defs><title>6301</title><path class="cls-1" d="M733.94,1298.35s-94.72-23.47-131.93,35.33S490.38,1394.77,451.31,1442s-68.84,132.33,20.47,174.43,311.42-19.69,311.42-19.69l42.45-274Z" transform="translate(-94.98 -709.65)"/><path class="cls-2" d="M874.72,1033.43s-12.69-78.17-79.66-110c-40.21-19.12-161-33.36-157.25,52.22,3,68-65.12,59.68-38.45,138.78,23,68.1,101,41.7,101,41.7Z" transform="translate(-94.98 -709.65)"/><path class="cls-2" d="M2921.32,1491.62c-89-71.09-218.3,14.89-243.11-81.86s-142-104-142-104l-119.66,389.94,479-.08h57.14c12.19,0,39-81.2,43.82-93.9l1.26-3.44C2986.89,1567.78,2962.64,1524.63,2921.32,1491.62Z" transform="translate(-94.98 -709.65)"/><rect class="cls-3" x="1651.04" y="13.71" width="790.2" height="973.29"/><rect class="cls-4" x="1729.86" y="61.3" width="711.39" height="106.02"/><rect class="cls-5" x="1144.07" y="235.89" width="892.44" height="754.44"/><rect class="cls-5" x="1122.01" y="208.48" width="928.47" height="27.41"/><rect class="cls-5" x="1635.11" width="820.81" height="27.41"/><rect class="cls-6" x="1144.07" y="304.09" width="577.42" height="140.23"/><rect class="cls-7" x="605.42" y="325.27" width="538.65" height="298.76"/><rect class="cls-7" x="605.42" y="686.19" width="538.65" height="298.76"/><rect class="cls-8" x="680.08" y="624.03" width="464" height="62.16"/><path class="cls-5" d="M1317.6,1134.22a50.53,50.53,0,1,1,35.74-14.8A50.22,50.22,0,0,1,1317.6,1134.22Zm0-96.43a45.89,45.89,0,1,0,32.45,13.44A45.6,45.6,0,0,0,1317.6,1037.79Z" transform="translate(-94.98 -709.65)"/><polygon class="cls-5" points="1255.26 365.78 1230.87 365.78 1230.87 341.38 1214.38 341.38 1214.38 365.78 1189.98 365.78 1189.98 382.27 1214.38 382.27 1214.38 406.67 1230.87 406.67 1230.87 382.27 1255.26 382.27 1255.26 365.78"/><path class="cls-5" d="M1408.23,1059.47H1419v19.3h19.79v-19.3h10.73v48.77h-10.73v-19.58H1419v19.58h-10.73Z" transform="translate(-94.98 -709.65)"/><path class="cls-5" d="M1459,1083.85c0-13.86,10.94-25.22,26-25.22s25.85,11.22,25.85,25.22-10.94,25.23-26,25.23S1459,1097.86,1459,1083.85Zm40.63,0c0-8.36-6.13-15.33-14.77-15.33s-14.64,6.83-14.64,15.33,6.14,15.33,14.78,15.33S1499.65,1092.35,1499.65,1083.85Z" transform="translate(-94.98 -709.65)"/><path class="cls-5" d="M1516.72,1101.13l6.34-7.59c4.39,3.62,9,5.92,14.56,5.92,4.39,0,7-1.74,7-4.74,0-2.71-1.67-4.11-9.82-6.2-9.83-2.51-16.17-5.22-16.17-15,0-8.85,7.11-14.7,17.07-14.7a28.25,28.25,0,0,1,18.12,6.2l-5.57,8.08c-4.32-3-8.57-4.8-12.69-4.8s-6.27,1.88-6.27,4.39c0,3.2,2.09,4.25,10.52,6.41,9.9,2.57,15.47,6.13,15.47,14.77,0,9.68-7.38,15.12-17.9,15.12A31,31,0,0,1,1516.72,1101.13Z" transform="translate(-94.98 -709.65)"/><path class="cls-5" d="M1564.66,1059.47h19.93c11.64,0,18.67,6.89,18.67,17,0,11.29-8.78,17.14-19.72,17.14h-8.15v14.63h-10.73Zm19.23,24.59c5.37,0,8.5-3.2,8.5-7.52,0-4.81-3.34-7.39-8.71-7.39h-8.29v14.91Z" transform="translate(-94.98 -709.65)"/><path class="cls-5" d="M1611.7,1059.47h10.73v48.77H1611.7Z" transform="translate(-94.98 -709.65)"/><path class="cls-5" d="M1646,1069.36h-14.84v-9.89h40.41v9.89h-14.84v38.88H1646Z" transform="translate(-94.98 -709.65)"/><path class="cls-5" d="M1690.23,1059.12h9.89l20.91,49.12h-11.22l-4.46-10.94h-20.63l-4.46,10.94h-10.94Zm11.28,28.71L1695,1072l-6.49,15.82Z" transform="translate(-94.98 -709.65)"/><path class="cls-5" d="M1728.55,1059.47h10.73v39h24.32v9.75h-35Z" transform="translate(-94.98 -709.65)"/><rect class="cls-7" x="2081.36" y="629.54" width="359.88" height="237.5"/><rect class="cls-7" x="2081.36" y="279.83" width="359.88" height="237.5"/><rect class="cls-7" x="1737.35" y="66.95" width="703.9" height="93.57"/><polygon class="cls-9" points="1144.07 245.3 2036.52 272.22 2036.52 235.89 1144.07 235.89 1144.07 245.3"/><rect class="cls-5" x="571.72" y="323.49" width="572.35" height="29.58"/><path class="cls-2" d="M665.87,1572.5c-69.87,15.87-88.5,72.59-132.75,38.56S433,1599.72,402.73,1601.2s-25.63-69.55-90.84-92.24c-31.38-10.92-83.87-12.85-121.4-11.21-5,40.69.27,73.8,7.49,98.3a186.78,186.78,0,0,0,36.2,67.9c7.92,9.41,18.88,26,32,30.66h511.5C803.26,1632.94,735.73,1556.61,665.87,1572.5Z" transform="translate(-94.98 -709.65)"/><rect class="cls-3" x="1282.96" y="654.96" width="627.1" height="327.6"/><rect class="cls-5" x="1304.04" y="677.87" width="587.86" height="305.79"/><rect class="cls-7" x="1326.3" y="697.21" width="544.53" height="70.26"/><rect class="cls-7" x="1326.3" y="786.56" width="159.23" height="195.78"/><rect class="cls-7" x="1500.68" y="786.56" width="195.77" height="195.78"/><rect class="cls-7" x="1709.91" y="786.56" width="160.92" height="195.78"/><polygon class="cls-10" points="1564.82 786.56 1696.44 786.56 1696.44 859.02 1672.98 982.34 1527.58 982.34 1564.82 786.56"/><rect class="cls-5" x="1526.34" y="823.81" width="146.46" height="158.75"/><rect class="cls-3" x="1533.32" y="830.99" width="132.49" height="151.57"/><rect class="cls-5" x="1597.1" y="830.99" width="4.94" height="151.57"/><path class="cls-5" d="M1680.28,1616.43a3.13,3.13,0,1,1,3.13,3.13A3.13,3.13,0,0,1,1680.28,1616.43Z" transform="translate(-94.98 -709.65)"/><path class="cls-5" d="M1702.57,1616.43a3.13,3.13,0,1,1,3.13,3.13A3.13,3.13,0,0,1,1702.57,1616.43Z" transform="translate(-94.98 -709.65)"/><polygon class="cls-10" points="1376.95 786.56 1457.57 786.56 1431.84 982.34 1351.21 982.34 1376.95 786.56"/><polygon class="cls-10" points="1469.31 697.21 1460.07 767.48 1379.45 767.48 1388.69 697.21 1469.31 697.21"/><polygon class="cls-10" points="1748 786.56 1828.62 786.56 1802.88 982.34 1722.26 982.34 1748 786.56"/><polygon class="cls-10" points="1840.36 697.21 1831.12 767.48 1750.5 767.48 1759.73 697.21 1840.36 697.21"/><polygon class="cls-10" points="1727.23 697.21 1713.86 767.48 1568.45 767.48 1581.82 697.21 1727.23 697.21"/><polygon class="cls-10" points="1710.04 800.98 1710.33 800.98 1710.04 802.55 1710.04 800.98"/><path class="cls-2" d="M1333.79,1692.09s-3.88-34.26,30.85-42.94,48.36-39.69,88.68-13.64,27.56,56.58,27.56,56.58Z" transform="translate(-94.98 -709.65)"/><polygon class="cls-11" points="2249.57 517.34 2130.49 517.34 2182.59 279.84 2301.66 279.84 2249.57 517.34"/><polygon class="cls-10" points="2355.07 867.04 2236 867.04 2288.09 629.54 2407.17 629.54 2355.07 867.04"/><polygon class="cls-10" points="2185.73 629.54 2133.63 867.05 2081.36 867.05 2081.36 629.54 2185.73 629.54"/><polygon class="cls-10" points="2441.24 279.83 2441.24 517.34 2310.35 517.34 2368.48 279.83 2441.24 279.83"/><rect class="cls-4" x="1909.71" y="66.95" width="9.92" height="93.57"/><rect class="cls-4" x="2110.03" y="66.95" width="9.92" height="93.57"/><rect class="cls-4" x="2305.39" y="66.95" width="9.92" height="93.57"/><g class="cls-12"><rect class="cls-3" x="668.53" y="432.5" width="59.67" height="94.19"/><path class="cls-5" d="M825.65,1239.38H759.91V1139.12h65.74ZM766,1233.31h53.6v-88.12H766Z" transform="translate(-94.98 -709.65)"/><rect class="cls-5" x="670.24" y="464" width="55.12" height="4.55"/><rect class="cls-5" x="670.24" y="495.34" width="55.12" height="4.55"/><rect class="cls-5" x="745.46" y="1186.75" width="94.63" height="4.55" transform="translate(1886.82 -313.41) rotate(90)"/><rect class="cls-3" x="840.83" y="432.5" width="59.67" height="94.19"/><path class="cls-5" d="M998,1239.38H932.21V1139.12H998Zm-59.67-6.07h53.6v-88.12h-53.6Z" transform="translate(-94.98 -709.65)"/><rect class="cls-5" x="842.53" y="464" width="55.12" height="4.55"/><rect class="cls-5" x="842.53" y="495.34" width="55.12" height="4.55"/><rect class="cls-5" x="917.76" y="1186.75" width="94.63" height="4.55" transform="translate(2059.12 -485.71) rotate(90)"/><rect class="cls-3" x="1013.13" y="432.5" width="59.67" height="94.19"/><path class="cls-5" d="M1170.25,1239.38h-65.74V1139.12h65.74Zm-59.68-6.07h53.61v-88.12h-53.61Z" transform="translate(-94.98 -709.65)"/><rect class="cls-5" x="1014.83" y="464" width="55.12" height="4.55"/><rect class="cls-5" x="1014.83" y="495.34" width="55.12" height="4.55"/><rect class="cls-5" x="1090.06" y="1186.75" width="94.63" height="4.55" transform="translate(2231.42 -658.01) rotate(90)"/></g><g class="cls-12"><rect class="cls-3" x="668.53" y="755.45" width="59.67" height="94.19"/><path class="cls-5" d="M825.65,1562.33H759.91V1462.07h65.74ZM766,1556.26h53.6v-88.12H766Z" transform="translate(-94.98 -709.65)"/><rect class="cls-5" x="670.24" y="786.95" width="55.12" height="4.55"/><rect class="cls-5" x="670.24" y="818.3" width="55.12" height="4.55"/><rect class="cls-5" x="745.46" y="1509.7" width="94.63" height="4.55" transform="translate(2209.78 9.55) rotate(90)"/><rect class="cls-3" x="840.83" y="755.45" width="59.67" height="94.19"/><path class="cls-5" d="M998,1562.33H932.21V1462.07H998Zm-59.67-6.07h53.6v-88.12h-53.6Z" transform="translate(-94.98 -709.65)"/><rect class="cls-5" x="842.53" y="786.95" width="55.12" height="4.55"/><rect class="cls-5" x="842.53" y="818.3" width="55.12" height="4.55"/><rect class="cls-5" x="917.76" y="1509.7" width="94.63" height="4.55" transform="translate(2382.07 -162.75) rotate(90)"/><rect class="cls-3" x="1013.13" y="755.45" width="59.67" height="94.19"/><path class="cls-5" d="M1170.25,1562.33h-65.74V1462.07h65.74Zm-59.68-6.07h53.61v-88.12h-53.61Z" transform="translate(-94.98 -709.65)"/><rect class="cls-5" x="1014.83" y="786.95" width="55.12" height="4.55"/><rect class="cls-5" x="1014.83" y="818.3" width="55.12" height="4.55"/><rect class="cls-5" x="1090.06" y="1509.7" width="94.63" height="4.55" transform="translate(2554.37 -335.05) rotate(90)"/></g><rect class="cls-9" x="1130.21" y="555.87" width="932.61" height="32.82"/><path class="cls-2" d="M918.37,1033.14s16.13-52.47,55.82-51.27,52.09,37.73,65.74,31.87,53.33-2.48,55.82,19.4Z" transform="translate(-94.98 -709.65)"/><path class="cls-13" d="M2808.72,1511.38v22.23a12.45,12.45,0,0,1-12.46,12.45h-4a12.49,12.49,0,0,1-12.45-12.45v-22.23a12.24,12.24,0,0,1,1.81-6.4v0a12.48,12.48,0,0,1,10.64-6h4A12.5,12.5,0,0,1,2808.72,1511.38Z" transform="translate(-94.98 -709.65)"/><path class="cls-14" d="M2807.41,1539.17a12.5,12.5,0,0,1-11.15,6.89h-4a12.49,12.49,0,0,1-12.45-12.45v-22.23a12.24,12.24,0,0,1,1.81-6.4C2781.86,1506.35,2787.15,1536.86,2807.41,1539.17Z" transform="translate(-94.98 -709.65)"/><polygon class="cls-15" points="2516.25 964.46 2577.83 964.46 2577.83 902.31 2513.59 902.31 2516.25 964.46"/><path class="cls-5" d="M2805.39,1542.75l-302.51,7.46V1390.69h198.65a50.48,50.48,0,0,1,44.92,27.45l13,25.37Z" transform="translate(-94.98 -709.65)"/><path class="cls-13" d="M2633.54,1664c0,16.87,8.7,35.48,8.7,35.48H2657c13,0,23.44-15.89,23.44-35.48s-25.23-35.48-38.17-35.48S2633.54,1644.41,2633.54,1664Z" transform="translate(-94.98 -709.65)"/><path class="cls-16" d="M2618.81,1664c0,19.59,10.49,35.48,23.43,35.48s23.44-15.89,23.44-35.48-10.5-35.48-23.44-35.48S2618.81,1644.41,2618.81,1664Z" transform="translate(-94.98 -709.65)"/><path class="cls-7" d="M2624.89,1664c0,14.76,7.9,26.72,17.65,26.72s17.65-12,17.65-26.72-7.9-26.72-17.65-26.72S2624.89,1649.24,2624.89,1664Z" transform="translate(-94.98 -709.65)"/><path class="cls-13" d="M2802.92,1664c0,16.87,8.7,35.48,8.7,35.48h14.73c12.94,0,23.44-15.89,23.44-35.48s-25.23-35.48-38.17-35.48S2802.92,1644.41,2802.92,1664Z" transform="translate(-94.98 -709.65)"/><path class="cls-16" d="M2788.19,1664c0,19.59,10.49,35.48,23.43,35.48s23.43-15.89,23.43-35.48-10.49-35.48-23.43-35.48S2788.19,1644.41,2788.19,1664Z" transform="translate(-94.98 -709.65)"/><path class="cls-13" d="M2414,1664c0,16.87,8.7,35.48,8.7,35.48h14.73c12.94,0,23.43-15.89,23.43-35.48s-25.22-35.48-38.16-35.48S2414,1644.41,2414,1664Z" transform="translate(-94.98 -709.65)"/><path class="cls-16" d="M2399.23,1664c0,19.59,10.49,35.48,23.43,35.48s23.43-15.89,23.43-35.48-10.49-35.48-23.43-35.48S2399.23,1644.41,2399.23,1664Z" transform="translate(-94.98 -709.65)"/><path class="cls-5" d="M2873.12,1647.26a26.8,26.8,0,0,1-26.79,26.85H2672.81a53.35,53.35,0,0,0,.77-9c0-22.94-13.76-41.55-30.7-41.55s-30.74,18.61-30.74,41.55a53.38,53.38,0,0,0,.73,9H2511.48s-4.09-45.27-3.58-68c.4-19.76.4-58.47-.77-67.91,0-1.41,97.77-1.57,122.45-1.67,3.35,0,5.36,0,5.56,0l.34.24.36.26c4.56,3.19,30.07,21.07,45.91,31.55,14,9.21,117,13,157.45,14.09,10,.27,16.24.37,16.24.37a73.12,73.12,0,0,1,10.41,14.6c3.75,6.93,7.1,15.84,7.17,25.58,0,6.07.06,13.37.06,20.53C2873.12,1644.91,2873.12,1646.08,2873.12,1647.26Z" transform="translate(-94.98 -709.65)"/><path class="cls-3" d="M2781,1536.52H2645.05a8,8,0,0,1-7.3-4.69L2604.1,1457a3.71,3.71,0,0,1,3.38-5.22H2750.9a8,8,0,0,1,7.3,4.79l24.11,55.08,6,13.76A8,8,0,0,1,2781,1536.52Z" transform="translate(-94.98 -709.65)"/><path class="cls-9" d="M2717.67,1643.74c0,2.35-.12,4.56-.25,6.53-1,13-14.07,23.84-14.07,23.84H2672.8a52.42,52.42,0,0,0,.78-9,53.18,53.18,0,0,0-4.35-21.33c-5.4-12.12-15.17-20.23-26.35-20.23s-21,8.11-26.4,20.23a54.58,54.58,0,0,0-3.6,30.37h-110V1390.7h88.31l.42,52.81a83.39,83.39,0,0,0,4.5,15c2.7,6.32,6.29,14.73,10.19,23.89,8,18.77,17.43,40.68,23.3,54.17,2.94,6.83,5,11.48,5.55,12.49,1.65,3.14,26.15,16.42,46.87,28.2,5.16,2.94,10.1,5.79,14.38,8.35,6.1,3.68,10.86,6.78,13.12,8.82C2715.16,1599.51,2718,1626,2717.67,1643.74Z" transform="translate(-94.98 -709.65)"/><polygon class="cls-5" points="2760.45 873.38 2599.32 873.38 2540.49 827.1 2540.16 826.87 2702.69 826.87 2748.97 864.1 2760.45 873.38"/><path class="cls-17" d="M2715.17,1610.22l-14.57-1.44a11.4,11.4,0,0,1-10.11-9.34l-3.35-18.42a2.56,2.56,0,0,1-.06-.87c10.38,6,19.12,11.29,22.43,14.27C2711.92,1596.59,2713.83,1602.62,2715.17,1610.22Z" transform="translate(-94.98 -709.65)"/><path class="cls-5" d="M2759.46,1443.51H2591.6a97.21,97.21,0,0,0-4.86-23c-3.75-10.83-10.24-22.92-21.58-29.81h137.17c22.36,0,42.17,11.94,50.05,29.81a23.74,23.74,0,0,1,1,2.22A140.59,140.59,0,0,1,2759.46,1443.51Z" transform="translate(-94.98 -709.65)"/><path class="cls-18" d="M2715.2,1610.22l-14.6-1.44a11.4,11.4,0,0,1-10.11-9.34l-3.35-18.42a2.74,2.74,0,0,1-.06-.9c10.38,6,19.12,11.32,22.43,14.3C2711.92,1596.59,2713.83,1602.62,2715.2,1610.22Z" transform="translate(-94.98 -709.65)"/><path class="cls-13" d="M2873.12,1647.26c0,14.83-12.56,26.85-28.1,26.85H2672.81a54.17,54.17,0,0,0-3.58-30.37h203.85C2873.12,1644.91,2873.12,1646.08,2873.12,1647.26Z" transform="translate(-94.98 -709.65)"/><path class="cls-13" d="M2612.14,1665.07a53.38,53.38,0,0,0,.73,9h-110v-30.37h113.62A53,53,0,0,0,2612.14,1665.07Z" transform="translate(-94.98 -709.65)"/><path class="cls-13" d="M2759.67,1584.34h65.89c2.11,0,3.72,2.84,3.4,6l-2.34,22.9c-.35,3.36-2.26,5.85-4.52,5.85h-54.28c-3.48,0-6.55-3.45-7.56-8.48l-3.91-19.47C2755.67,1587.75,2757.34,1584.34,2759.67,1584.34Z" transform="translate(-94.98 -709.65)"/><path class="cls-7" d="M2782.31,1511.61c-77.72-4-130.29-45.57-146.17-59.87H2750.9a8,8,0,0,1,7.3,4.79Z" transform="translate(-94.98 -709.65)"/><rect class="cls-5" x="2145" y="681.03" width="293.98" height="283.45"/><path class="cls-9" d="M2759.46,1443.51H2591.6a97.21,97.21,0,0,0-4.86-23h165.64a23.74,23.74,0,0,1,1,2.22A140.59,140.59,0,0,1,2759.46,1443.51Z" transform="translate(-94.98 -709.65)"/><path class="cls-13" d="M2865.85,1597.63a5.42,5.42,0,0,1-3.45,2.78l-22.6,4.19c-1.91.36-3.38-2.95-2.88-6.37l2.21-15.2.07-.37.43-3.11c.41-2.68,1.58-4.72,3-5.29l1.3-.5,11.49,9.27A73.12,73.12,0,0,1,2865.85,1597.63Z" transform="translate(-94.98 -709.65)"/><rect class="cls-19" x="2145.01" y="867.59" width="469.51" height="23.89"/><rect class="cls-19" x="2145" y="730.14" width="293.98" height="23.88"/><path class="cls-19" d="M2345.13,1519.93a41.85,41.85,0,1,1,41.85,41.85A41.85,41.85,0,0,1,2345.13,1519.93Z" transform="translate(-94.98 -709.65)"/><path class="cls-5" d="M2387,1557a37,37,0,1,1,26.19-10.85A36.8,36.8,0,0,1,2387,1557Zm0-70.69a33.65,33.65,0,1,0,23.78,9.86A33.39,33.39,0,0,0,2387,1486.29Z" transform="translate(-94.98 -709.65)"/><polygon class="cls-5" points="2315.92 804.23 2298.04 804.23 2298.04 786.35 2285.95 786.35 2285.95 804.23 2268.06 804.23 2268.06 816.32 2285.95 816.32 2285.95 834.21 2298.04 834.21 2298.04 816.32 2315.92 816.32 2315.92 804.23"/><path class="cls-13" d="M2742.83,1613l-27.63-2.75h0l-14.57-1.44a11.4,11.4,0,0,1-10.11-9.34l-3.35-18.42a2.56,2.56,0,0,1-.06-.87v0a6.13,6.13,0,0,1,7.36-6.23l43,8.74a7.41,7.41,0,0,1,5.66,5.29l5.06,18.69A5,5,0,0,1,2742.83,1613Z" transform="translate(-94.98 -709.65)"/><path class="cls-3" d="M2592.16,1465.21l29,71.32h-49.69s-10.19-1.7-11.5-22.53c-1.39-22.24-1.39-60.62-1.39-60.62l21.81-.1C2588.66,1454.53,2590,1459.1,2592.16,1465.21Z" transform="translate(-94.98 -709.65)"/><path class="cls-13" d="M2606.38,1499.91s2.52,28.83-11.71,36.72h26.58Z" transform="translate(-94.98 -709.65)"/><path class="cls-13" d="M2610.29,1519.2s-6-4.27-6.52-7.81v20.16h7.85Z" transform="translate(-94.98 -709.65)"/><path class="cls-13" d="M2603.77,1511.38v22.23a12.45,12.45,0,0,1-12.46,12.45h-4a12.49,12.49,0,0,1-12.45-12.45v-22.23a12.24,12.24,0,0,1,1.81-6.4v0a12.47,12.47,0,0,1,10.64-6h4A12.5,12.5,0,0,1,2603.77,1511.38Z" transform="translate(-94.98 -709.65)"/><path class="cls-13" d="M2534.25,1665.07a29.52,29.52,0,0,0,1.36,9H2333.2v-30.37h209.06A33.76,33.76,0,0,0,2534.25,1665.07Z" transform="translate(-94.98 -709.65)"/><path class="cls-13" d="M2441,1665.07a29.52,29.52,0,0,0,1.36,9H2240v-30.37h209.06A33.76,33.76,0,0,0,2441,1665.07Z" transform="translate(-94.98 -709.65)"/><path class="cls-15" d="M2336,1674.13H2263.7c-1.53-6.53-6.13-53,34.39-53C2334.92,1621.12,2337.63,1663.53,2336,1674.13Z" transform="translate(-94.98 -709.65)"/><path class="cls-13" d="M2286.33,1664c0,16.87,8.7,35.48,8.7,35.48h14.74c12.94,0,23.43-15.89,23.43-35.48s-25.22-35.48-38.17-35.48S2286.33,1644.41,2286.33,1664Z" transform="translate(-94.98 -709.65)"/><path class="cls-16" d="M2271.6,1664c0,19.59,10.49,35.48,23.43,35.48s23.44-15.89,23.44-35.48-10.49-35.48-23.44-35.48S2271.6,1644.41,2271.6,1664Z" transform="translate(-94.98 -709.65)"/><path class="cls-7" d="M2277.68,1664c0,14.76,7.9,26.72,17.65,26.72s17.65-12,17.65-26.72-7.9-26.72-17.65-26.72S2277.68,1649.24,2277.68,1664Z" transform="translate(-94.98 -709.65)"/><path class="cls-20" d="M1812,1372.68c-1.5-2.89,32.69-13.29,33.23,15.22,0,0,64-1.57,33.45-37.26-10.58-12.36-9.49-22.57-9.17-32.08s-6.6-37.15-30.3-34.37c0,0-6.2-2.53-14,1.49C1807.62,1294.82,1768.16,1383.2,1812,1372.68Z" transform="translate(-94.98 -709.65)"/><path class="cls-21" d="M1916.66,1404.56s4.16-6.35,7.52-6.47,9.58-1.87,9.08-.62-4.35,1.36-4.72,2.11,5.72,1.87,7.46,2,5.85,0,5.72.87-7.4,4.48-12.53,4-11.48,1.5-11.48,1.5Z" transform="translate(-94.98 -709.65)"/><path class="cls-20" d="M1856.38,1406.61a61.92,61.92,0,0,0,6.37,9.64c5,6.21,12.59,13.37,22.18,14.79a23.86,23.86,0,0,0,13.18-2.14h0c11.65-5.17,20.4-17.05,20.4-17.05a9.59,9.59,0,0,0-1.31-9.4s-23.51,5.29-25.75,4.17-15.3-38.75-18.41-43.48-13.71-7.19-13.71-7.19Z" transform="translate(-94.98 -709.65)"/><path class="cls-13" d="M1768.65,1660.43s-7.17,6.55-5.77,11.2,7.87,7.76,8.75,13.44,4.37,8.79,7.52,8.79h15s2.32-4-3.28-5.21-7.71-7.89-7.36-14.09a108.89,108.89,0,0,0-.53-14.47l-11.9-2.76Z" transform="translate(-94.98 -709.65)"/><path class="cls-13" d="M1829.38,1663.21s-2.58,27.74.57,29.29l40.31-.08s0-4.65-6.47-5.69-17.85-4.82-19.78-13.27S1829.38,1663.21,1829.38,1663.21Z" transform="translate(-94.98 -709.65)"/><path class="cls-21" d="M1800.65,1464.2c8.3-18.6,13.37-23.94,12.4-29.71-.72-4.3,2.2-80.13,2.2-80.13,1-.31,3-.58,4-.82a10.14,10.14,0,0,0,7.39-6.43,51.76,51.76,0,0,0,2.51-17.11l1.06.21,17.87,3.54s-.41,5.62-.42,10.92v.13a10.28,10.28,0,0,0,7.42,9.94l4.21,1.21s6.57,18.73,7.82,38-11.93,27.6.1,66.06C1879.53,1499.25,1796.07,1474.48,1800.65,1464.2Z" transform="translate(-94.98 -709.65)"/><path class="cls-22" d="M1848.12,1333.75s-.41,5.62-.42,10.92c-10-.28-15.28-9.41-17.45-14.46Z" transform="translate(-94.98 -709.65)"/><path class="cls-21" d="M1851.46,1338.76s-23.66.39-23.68-14.34-3.08-24.61,12-25.48,18,4.74,19.24,9.66S1857.61,1338.28,1851.46,1338.76Z" transform="translate(-94.98 -709.65)"/><path class="cls-20" d="M1850.58,1298.58s-6.48,17.28-16.42,19.84-14.25-.11-14.25-.11a28.14,28.14,0,0,0,9.21-16.63S1845.7,1290.35,1850.58,1298.58Z" transform="translate(-94.98 -709.65)"/><path class="cls-20" d="M1849,1300s4.8,1.79,6.77,5.3a23.75,23.75,0,0,1,3.2,13.52s4.88-11.75-.6-18.39C1852.53,1293.36,1849,1300,1849,1300Z" transform="translate(-94.98 -709.65)"/><path class="cls-23" d="M1846.31,1329.62a6,6,0,0,0,4.9,2,4.35,4.35,0,0,0,3.64-2.41S1850,1328.05,1846.31,1329.62Z" transform="translate(-94.98 -709.65)"/><path class="cls-20" d="M1803.87,1387.9s.09,11.22.69,21.38c.4,6.74,1,13,2,15.25,2.43,5.59,5.16,6.51,5.16,6.51l21.17,5.18,7.44,1.82,23.47-7s10.69-29.84,6.4-46.64a129.72,129.72,0,0,0-10.85-28.46s-19.15,18.76-44.09-1.59Z" transform="translate(-94.98 -709.65)"/><path class="cls-24" d="M1862.3,1435.56s11.62,36.18,12.37,48.5-22.22,175-23.14,180.64c-.88,5.35-7.52,8.76-7.52,8.76a10,10,0,0,1-7.41.58c-6-1.71-8-3.76-8-3.76s-9-116-3.44-157.44a657.93,657.93,0,0,0,5.66-77.28Z" transform="translate(-94.98 -709.65)"/><path class="cls-25" d="M1813.05,1434.49s-17.72,23.78-19.38,39.86-2.59,72.57-6.11,88.24-16.46,45.85-16.46,94.74a9.77,9.77,0,0,0,5.5,4.29,43.77,43.77,0,0,0,4.83,1.34,7.59,7.59,0,0,0,8.5-4c8.75-17.61,36.61-74.41,38-86.2,1-8.35,9.81-63.57,29-96,4.61-7.78-2.82-38.72-2.82-38.72Z" transform="translate(-94.98 -709.65)"/><path class="cls-5" d="M1846.83,1330s.41,1.73,4.73,1.46c0,0,3.63-.22,3.52-2.13A11.65,11.65,0,0,0,1846.83,1330Z" transform="translate(-94.98 -709.65)"/><path class="cls-13" d="M1864.15,1430s-4.66,3.69-13.93,3.88c-11.07.22-38.51-2.83-38.51-2.83a22.72,22.72,0,0,0-1.17,7s33.51,8.45,52.92,1.23C1863.46,1439.27,1866,1434.56,1864.15,1430Z" transform="translate(-94.98 -709.65)"/><path class="cls-5" d="M1847.82,1437.68c0-3.15,2.27-5.72,5.06-5.72s5,2.57,5,5.72-2.27,5.72-5,5.72S1847.82,1440.83,1847.82,1437.68Zm1.68,0c0,2.23,1.51,4,3.38,4s3.37-1.81,3.37-4-1.51-4-3.37-4S1849.5,1435.45,1849.5,1437.68Z" transform="translate(-94.98 -709.65)"/><rect class="cls-20" x="1771.46" y="1467.45" width="53.94" height="30.23" transform="translate(3148.99 2601.23) rotate(-167.83)"/><path class="cls-26" d="M1828,1473.47s-14.74,12.35-31.12,8.06-21.6-19.43-21.6-19.43Z" transform="translate(-94.98 -709.65)"/><path class="cls-26" d="M1817.68,1471.54a2.93,2.93,0,1,1,2.93,2.93A2.93,2.93,0,0,1,1817.68,1471.54Zm1,0a2,2,0,1,0,2-2A2,2,0,0,0,1818.65,1471.54Z" transform="translate(-94.98 -709.65)"/><path class="cls-21" d="M1777.69,1475.25s0,4.28-.84,6.35-3.25,4.82-4.06,4.82.75-4.31.34-4.22-2.37,7.16-3.79,7.33-2.71-7.93-2-11.12,3.95-7,3.95-7Z" transform="translate(-94.98 -709.65)"/><path class="cls-20" d="M1815.25,1354.36a28.8,28.8,0,0,0-20.13,15.65c-5.44,10.72-9.18,44.45-13,55.08-3.67,10.16-8.74,29.81-11.57,45.55a2.61,2.61,0,0,0,1.6,2.89l4.82,1.9a2.26,2.26,0,0,0,2.79-.94c4.28-7.18,21.14-35.94,27-52.57a87,87,0,0,1,19.65-31.53Z" transform="translate(-94.98 -709.65)"/><path class="cls-27" d="M1821.57,1469.27c0-.48,3.08-48.59,2.49-75.63-.3-14.2-2.49-24.21-4.28-30.1-2-6.43-4.86-9.06-4.94-9.19l-1,.3c.07.12,8.15,12.27,8.72,39,.58,27-2.46,75-2.49,75.5Z" transform="translate(-94.98 -709.65)"/><path class="cls-21" d="M1003,1668.34l-7.47-2.43a235.18,235.18,0,0,1,1.77-44.59c2.11-15.4,6-32.08,13-45.47a58.45,58.45,0,0,1,11.55-15.75s5.73-13.31,13.33-31.11c8.44-19.79,61.28-25.59,31.13,15.86-6.18,8.51-12.83,23.48-20.79,32.57-13.6,15.54-23.2,33.69-29.8,49.66A222.05,222.05,0,0,0,1003,1668.34Z" transform="translate(-94.98 -709.65)"/><path class="cls-21" d="M986,1669.47c-2.26,3.67,2.63,7.27,8.68,10.65s3.54,3.73,11.28,9.5,12.3,5.12,13.49,4.28-2.11-4.31-5.43-8.2l-1.25-1.48c-3.7-4.44-4.25-10-6-15.79-1.65-5.47,1-19.08,1-19.08l-10.33-8.2s-2.1,12.37-3.25,17.52c-.68,3-3.16,5.57-5.17,7.44A16.82,16.82,0,0,0,986,1669.47Z" transform="translate(-94.98 -709.65)"/><path class="cls-28" d="M994.68,1680.12c6.05,3.39,3.54,3.73,11.28,9.5s12.3,5.12,13.49,4.28-2.11-4.31-5.43-8.2l-.1,0a27.06,27.06,0,0,1-13-6.24c-4.86-4.32-8.63-10.38-12-13.39a16.82,16.82,0,0,0-3,3.36C983.74,1673.14,988.63,1676.74,994.68,1680.12Z" transform="translate(-94.98 -709.65)"/><path class="cls-21" d="M958.85,1681.51l-8.61,4.46a145.47,145.47,0,0,1-9.76-14.82c-3.22-5.67-6.18-12-6.9-17.25-1.76-12.67-15.17-33.48-13.77-37s28-9.68,28-9.68,5.2,35.58,8.65,58.58C957.45,1672.5,958.31,1678.14,958.85,1681.51Z" transform="translate(-94.98 -709.65)"/><path class="cls-16" d="M952.29,1631.83a54.8,54.8,0,0,1-13.42,4.53,43.27,43.27,0,0,1-12.18.76c-.72-.07-1.11-.14-1.11-.14s-4.78-3.45-10.32-11.48c-5.09-7.36-8.86-17.89-8.86-18l40.6-4Z" transform="translate(-94.98 -709.65)"/><path class="cls-13" d="M938.87,1636.36a43.27,43.27,0,0,1-12.18.76l4.56-17.73S937.16,1628.62,938.87,1636.36Z" transform="translate(-94.98 -709.65)"/><path class="cls-5" d="M958.85,1681.51l-8.61,4.46a145.47,145.47,0,0,1-9.76-14.82,34,34,0,0,0,16-5.37C957.45,1672.5,958.31,1678.14,958.85,1681.51Z" transform="translate(-94.98 -709.65)"/><path class="cls-21" d="M939.28,1615.33a142.75,142.75,0,0,0-17.48,36.94c-1.55,5.08-6.83,11.41-12.18,17-5.18,5.46-10.42,10.25-12.36,12.61l-8.77-4.22a116.15,116.15,0,0,1,7.65-16.87,47.35,47.35,0,0,1,5.6-8.12c2.8-3.13,1.88-42.62,4.66-45.23S939.28,1615.33,939.28,1615.33Z" transform="translate(-94.98 -709.65)"/><path class="cls-16" d="M944.46,1606.19l-16.06,32.66c-.1,0-12,.37-20.42-4.36a21.87,21.87,0,0,1-7-5.91l5-22.39Z" transform="translate(-94.98 -709.65)"/><path class="cls-29" d="M915.68,1497.14s-5.46-11.49-18.66-4.65-.35,32.92-7.28,39.36,2.51,10.66,1.1,15.28,2.61,9.88,11.85,9.26,19-.12,23.15-8.2,3.22-25.87,1.61-28.37S915.68,1497.14,915.68,1497.14Z" transform="translate(-94.98 -709.65)"/><path class="cls-21" d="M914.59,1544.89l0,0S914.59,1544.89,914.59,1544.89Z" transform="translate(-94.98 -709.65)"/><path class="cls-21" d="M937.08,1558.46l-22.45-13.54c.12-.05.58-.73,2.26-5.59a27.6,27.6,0,0,0,1.28-5.29c0-.14,0-.28.05-.41a14.43,14.43,0,0,0,.06-3.27l4.92,1.78,9.09,3.3a11.36,11.36,0,0,0,.71,5,4.05,4.05,0,0,0,3.46,2.72Z" transform="translate(-94.98 -709.65)"/><path class="cls-30" d="M933,1540.48a16.86,16.86,0,0,1-14.83-6.44l-.25-.33.3-.08,5-1.49,9.09,3.3A11.36,11.36,0,0,0,933,1540.48Z" transform="translate(-94.98 -709.65)"/><path class="cls-21" d="M933.44,1537.32s-19.53,2.15-19.93-11.06-3.29-19.25,10.23-20.43,16.7,3.69,17.5,8.16C943.73,1528,938.94,1536.73,933.44,1537.32Z" transform="translate(-94.98 -709.65)"/><path class="cls-31" d="M897,1492.49l-.47-1A3.62,3.62,0,0,1,897,1492.49Z" transform="translate(-94.98 -709.65)"/><path class="cls-21" d="M939.72,1544.52s18.73-14.39,20.73-19.15,10.59-22.2,12.81-24c0,0,4.66-.6,5.33,2.63s-4.44,22.35-8,28.12-20.58,25.35-26.18,28.2Z" transform="translate(-94.98 -709.65)"/><path class="cls-21" d="M985.23,1492.58a10.2,10.2,0,0,1-1.79,4.38c-1.05,1.24-2.72,3.71-3.77,5.31-.68,1-1.11,1.73-1.11,1.73l-5.31-2.59s-.12-9,3.4-10.93a.63.63,0,0,1,.31-.12,21.57,21.57,0,0,1,4.13-1.73c1.67-.43,3-.5,3.71-.06S985.6,1490.73,985.23,1492.58Z" transform="translate(-94.98 -709.65)"/><path class="cls-29" d="M924.79,1512.29c-6.91-1.75-4.27,10.49-6,9.65-1.95-.94-5.31-.92-4.78,1.44s1.3,3.2,1.69,4.67,0,4.39-1.61,3.8-16.55-17.65-6-30.94,42-5.11,32.12,8.8C938.44,1512.15,929.71,1513.53,924.79,1512.29Z" transform="translate(-94.98 -709.65)"/><path class="cls-25" d="M949.87,1611s-5.87,3.12-15.11,3c-5.88-.09-18.38-2.65-26.42-5.55-4.58-1.65-7.71-3.41-7.34-4.89.55-2.13,4.47-18.5,8.09-33.65,3.32-13.85,6.38-26.68,6.38-26.68s9.15,6.5,14.48,4.21,4.65-4.89,4.65-4.89,3.48-1.41,5.12-.89,6.28-2.11,6.28-2.11,5.12,4,5.32,12.47a23.6,23.6,0,0,1-.27,4.08l-3.7,4.27S955.2,1585.08,949.87,1611Z" transform="translate(-94.98 -709.65)"/><path class="cls-32" d="M973.12,1692.09H947.4a32.63,32.63,0,0,1,.1-7.76,2.18,2.18,0,0,1,.63-1.18,9.31,9.31,0,0,0,6.18,0,12.7,12.7,0,0,0,4.55-2.83c.27.26,5.58,5.32,8,5.32S973.26,1686.84,973.12,1692.09Z" transform="translate(-94.98 -709.65)"/><path class="cls-5" d="M909.62,1669.31c-5.18,5.46-10.42,10.25-12.36,12.61l-8.77-4.22a116.15,116.15,0,0,1,7.65-16.87A18.76,18.76,0,0,0,909.62,1669.31Z" transform="translate(-94.98 -709.65)"/><path class="cls-32" d="M899.17,1679.65s-.33,5.58,1.54,6.32,5.33,2.57,5.33,6.12H893.15s-8.88-4.37-10.06-6.23,5.91-9.78,5.91-9.78S893.37,1680.91,899.17,1679.65Z" transform="translate(-94.98 -709.65)"/><path class="cls-21" d="M920.48,1588.91s5.64-1.06,7.85.39,2.86,3.7,1.27,4.63c-5,2.89-10-.31-10-.31Z" transform="translate(-94.98 -709.65)"/><path class="cls-21" d="M915.7,1545s-17.37,3.68-24.23,30.69a8.19,8.19,0,0,0,1.85,7.48c3.15,3.49,10.1,8.6,26.25,10.48,1.76.21,2-4.27,2-4.27-.17.36-11-7-15.57-10.91a2.55,2.55,0,0,1-.19-3.13,72.32,72.32,0,0,0,5-8.57C912.12,1563.68,920.56,1546.36,915.7,1545Z" transform="translate(-94.98 -709.65)"/><path class="cls-25" d="M915.48,1543.2s-10.22.73-18.55,11.83c0,0,2.82,10.22,16.05,13C913,1568,921.14,1549.58,915.48,1543.2Z" transform="translate(-94.98 -709.65)"/><path class="cls-29" d="M1054.75,1279.34s-18.22-2.21-27.39,14.75-8.42,41.53-17.31,53.12,1.49,22.58,1.49,22.58l69.22,2.34a48.16,48.16,0,0,0,0-28.51C1076,1328.08,1099.45,1281.7,1054.75,1279.34Z" transform="translate(-94.98 -709.65)"/><path class="cls-22" d="M1113.36,1485.2c-.71,2.7-3,8.81-4.83,8.81-1.47,0-2-7.48-3.89-9.07-2.74-2.3-5-7.13-5.33-8.31-.73-2.41-1.42-2.91-1.42-2.91h0s-21.89-40-23.6-50.25c-.56-3.34-2-10-3.68-17.52-1.83-8.15-3.95-17.25-5.55-24.07a126.93,126.93,0,0,1,21-2c1.28,8.29,2.43,16.76,3.42,24.12,1.47,11,2.59,19.45,3.28,21.27,1.9,5,7.14,31.93,12.09,45.91.57,1.38,2.17,5,3.93,6.18C1111,1478.91,1114.06,1482.49,1113.36,1485.2Z" transform="translate(-94.98 -709.65)"/><path class="cls-21" d="M1073.69,1445.7c-12.09-38.65,12.24-38.14,11-57.48s-16.23-40.13-16.23-40.13L1067,1348a1.34,1.34,0,0,1-1.13-.87c-.56-1.53-.72-4.87-.71-8.36,0-5.32.42-11,.42-11l-18-3.56-1.07-.21c0,9-1.68,15.82-3.53,19.62a6,6,0,0,1-4.58,3.31c-3.86.54-10.65,1.7-15.22,3.61-2.23.93-3.92,2-4.51,3.33-4.93,10.85-9.86,38.21-13.32,57.73-1.93,10.88-3.4,19.33-4.16,21.11-2.15,5-8.69,32.47-14.28,46l7.14,2.14s23.55-39.06,25.69-49.23c.7-3.31,2.41-9.93,4.41-17.35l.92-3.41c3.53,9.57,5.33,14,5.23,18.13-.14,5.88-4.13,11.17-12.47,29.86C1013.24,1469.18,1086,1485.17,1073.69,1445.7Z" transform="translate(-94.98 -709.65)"/><path class="cls-22" d="M1065.55,1327.75s-.41,5.65-.42,11c-10.05-.28-15.36-9.45-17.54-14.53Z" transform="translate(-94.98 -709.65)"/><path class="cls-21" d="M1068.9,1332.79s-23.77.39-23.79-14.42-3.09-24.73,12.08-25.61,18.14,4.77,19.35,9.71S1075.09,1332.3,1068.9,1332.79Z" transform="translate(-94.98 -709.65)"/><path class="cls-21" d="M1102.08,1677.92l-7.63,1.88a235,235,0,0,1-22-38.84c-6.32-14.21-11.82-30.42-12.93-45.49a58.89,58.89,0,0,1,1.52-19.47s-2.13-14.33-5-33.46c-3.23-21.27-7.43-48.46-10.72-68.45l2-.59,32.46-19s14.92,34,11.11,85.11c-.79,10.49,1.45,26.71-.53,38.64-3.38,20.37-2,40.86.81,57.91A221.34,221.34,0,0,0,1102.08,1677.92Z" transform="translate(-94.98 -709.65)"/><path class="cls-33" d="M1023.67,1407c4.46,12.31,6.75,17.32,6.64,22,14.2-22,39.85-25.31,39.85-25.31l-48.71-5.57A46.18,46.18,0,0,0,1023.67,1407Z" transform="translate(-94.98 -709.65)"/><path class="cls-29" d="M1075.83,1294.24c-3.67-4.45-6.44-3.48-8-2.14-12.75-7.07-21.38,3.42-21.38,3.42a28.26,28.26,0,0,1-9.25,16.71s4.23,2.25,14.32.11c12-2.54,15.27-16,15.75-17.79,1.45,1.3,4.31,4.13,5.19,6.91,1.18,3.77,1.71,11.53,4,11.27C1076.44,1312.73,1081.34,1300.92,1075.83,1294.24Z" transform="translate(-94.98 -709.65)"/><path class="cls-21" d="M987.43,1477.52s-2.17,5.12-4.43,6.54-5.47,4.88-4.87,7.61,1.19,7,4,7,9.51-12.6,10.34-15,1.55-2.86,1.55-2.86Z" transform="translate(-94.98 -709.65)"/><path class="cls-5" d="M1099.45,1589.91c-28.7,16.41-104.28-9.71-104.2-11.22.4-8,7.66-56.36,16.19-102.48,5.24-28.37,19.2-39,17-40.75l0,0c-8.61-6.11-4.89-16.59-4.32-20.35a28.61,28.61,0,0,1-20.94-3.06c4-19.66,9.76-47.22,15.5-58.14a4.36,4.36,0,0,1,1.41-1.49l-.06-.06c5.38-3.92,16.36-5.12,16.36-5.12s5.92,14.49,7.73,16.75c11.71,14.64,32.76,8,29.89-1.08-1-3.32-6.35-13.77-7-14.94a13.34,13.34,0,0,1,1.49.14c3.53.47,6,.83,7.83,1.14,3.53.6,4.4,1,5.28,1.7,3.1,3.09,7.13,10.79,7.45,24.53.13,5.11,5.44,61.51-11.77,60.53-.39,0,0,.9.69,2.65,2.43,5.58,9.33,19.6,11.33,37.58C1095.76,1534.7,1099.45,1589.91,1099.45,1589.91Z" transform="translate(-94.98 -709.65)"/><path class="cls-5" d="M1062.07,1324s.45,1.83,5,1.49c0,0,3.81-.28,3.67-2.29A12.32,12.32,0,0,0,1062.07,1324Z" transform="translate(-94.98 -709.65)"/><path class="cls-21" d="M992.51,1483.71s-.78,5.75-2.29,7.08-1.74,3.72-3.3,2.43S992.51,1483.71,992.51,1483.71Z" transform="translate(-94.98 -709.65)"/><path class="cls-21" d="M1088.21,1687.84c0,4.32,6.06,4.8,13,4.49s5,1.31,14.59,2.13,13.15-2.12,13.72-3.46-4.06-2.55-8.93-4.11c-.62-.19-1.23-.4-1.84-.6-5.49-1.82-8.89-6.27-13.41-10.27-4.29-3.78-9.23-16.72-9.23-16.72l-13.1-1.54s4.73,11.62,6.46,16.61c1,2.94.25,6.4-.48,9A17,17,0,0,0,1088.21,1687.84Z" transform="translate(-94.98 -709.65)"/><path class="cls-28" d="M1101.2,1692.33c6.92-.3,5,1.31,14.59,2.13s13.15-2.12,13.72-3.46-4.06-2.55-8.93-4.11l-.07.09a27,27,0,0,1-14.3,1.51c-6.41-1.11-12.81-4.28-17.23-5.08a17,17,0,0,0-.77,4.43C1088.22,1692.16,1094.27,1692.64,1101.2,1692.33Z" transform="translate(-94.98 -709.65)"/><path class="cls-25" d="M1099.45,1589.91c-28.7,16.41-104.28-9.71-104.2-11.22.4-8,7.66-56.36,16.19-102.48,5.24-28.37,19.2-39,17-40.75.53.43,8.63,7,23.48,6.08a247,247,0,0,0,26-2.91c2.43,5.58,9.33,19.6,11.33,37.58C1095.76,1534.7,1099.45,1589.91,1099.45,1589.91Z" transform="translate(-94.98 -709.65)"/><path class="cls-24" d="M1028.38,1435.43s23.5,9.81,48.86.55l1.29,4s-26.09,9.06-51.17-1.25Z" transform="translate(-94.98 -709.65)"/><rect class="cls-34" y="982.43" width="2977.82" height="7.9" rx="3.37"/><path class="cls-13" d="M2064.52,1694.9h-25.46a61.77,61.77,0,0,1,2-9.14,26.72,26.72,0,0,1,1.45-3.67c2.47-4.94,18.2-1.8,18.2-1.8s1.46,1.26,2.6,6A51,51,0,0,1,2064.52,1694.9Z" transform="translate(-94.98 -709.65)"/><path class="cls-35" d="M2017.78,1306s-20.28,3.56-24.87,15.54-30.5,205.41-30.5,205.41,12.83,10.16,40.37,6.51S2017.78,1306,2017.78,1306Z" transform="translate(-94.98 -709.65)"/><path class="cls-13" d="M1987.58,1686.87c-.07,3.46-.5,6.74-1.76,8h-50.36c.64-1.82,2.46-4.56,7.62-5.4,5.88-1,15-3.78,20.38-9.43a15.14,15.14,0,0,0,4-7.15c2.37-10.55,19.59,3.23,19.59,3.23A84,84,0,0,1,1987.58,1686.87Z" transform="translate(-94.98 -709.65)"/><path class="cls-13" d="M1965.9,1681.74c5.63,1.79,16.38,7.27,23.21,4.69,4.42-1.66,29.1-73.06,30.7-104.29a80.33,80.33,0,0,1,1.27-9.3c1.46-8.06,4-19.14,7-31.36,7.9-32.75,18.59-73.72,18.35-86.81-.35-20.32-60.56-4.26-60.56-4.26s-4.14,16.67-5,40.81c-1.63,47.91-6.13,128.83-18.35,185A4.82,4.82,0,0,0,1965.9,1681.74Z" transform="translate(-94.98 -709.65)"/><path class="cls-16" d="M2007.68,1454.74l31.83,230.68s14,3.37,24.85.68c0,0,9.32-122.69,8.54-152.35s6.69-79.37-1.7-84.85S2007.68,1454.74,2007.68,1454.74Z" transform="translate(-94.98 -709.65)"/><path class="cls-5" d="M2075.22,1316.57s-33.45-21.63-57.44-10.57c-3.82,1.76-8.18,6.68-11.3,10.12-8.68,9.56-25.62,161.35-25.62,161.35s48.1,16.29,94.36-5.53Z" transform="translate(-94.98 -709.65)"/><path class="cls-35" d="M2015.88,1305.45s-33.86,13.88-38.45,24.54-19.49,76.14-19.49,83.82,26,1.72,30.13-10.67c3.47-10.28,15.17-41.87,21.34-61.85Z" transform="translate(-94.98 -709.65)"/><path class="cls-21" d="M2022.91,1316c7.39,1.45,18.25-.1,26.2-5.34a75.13,75.13,0,0,1-5.58-19.72c0-.24,0-.46-.08-.68a20.63,20.63,0,0,1-.09-4.52h-19.11s-5.22,2.39-5.22,4c0,.89,0,1.73,0,2.54q-.06,3.29-.24,5.76a51.76,51.76,0,0,1-1,7.89S2015.45,1314.56,2022.91,1316Z" transform="translate(-94.98 -709.65)"/><path class="cls-36" d="M2018.76,1298.11c14.48,2.8,22.88-5.11,24.77-7.14a5.53,5.53,0,0,0,.4-.47l-.48-.21c-5.39-2.18-17.62-.45-24.45,2.06Q2018.94,1295.64,2018.76,1298.11Z" transform="translate(-94.98 -709.65)"/><path class="cls-21" d="M2048.26,1282.63c-2.59,13.93-20.56,13.47-28.32,12.59-2.19-.24-3.56-.52-3.56-.52-2.46-.66-3.84-4.54-4.48-9.62-1.27-10.06.34-24.83,2-28.61,2.56-5.68,7.38-11.83,25.47-7.39S2051.58,1264.79,2048.26,1282.63Z" transform="translate(-94.98 -709.65)"/><path class="cls-13" d="M2013.26,1248.71c2.47-3.43,7.72-7.61,12.48-10.19,10.23-5.53,23.33.18,23.38.2,14.78,6.5,18.64,17.81,10.8,35.42-8.28,18.63-16.17,16.53-16.17,16.53s1.67-1,1.52-6.85c0-.33,0-.6,0-.84a3.9,3.9,0,0,1,1.23-3.18c1.83-1.63,2.73-6.59,1.19-8-1.85-1.66-4.46.36-5.29,1.91a2.27,2.27,0,0,1-3.25.72c-4.6-2.91-1.61-8.72-6-12.28s-13.32-.57-19.91-3.41C2004.58,1255.55,2011.4,1251.29,2013.26,1248.71Z" transform="translate(-94.98 -709.65)"/><path class="cls-37" d="M2011.2,1541.16c2.92.75,5.8,1.36,8.66,1.84,2.54.43,5.06.75,7.59,1,14.31,1.25,28.69-.77,45.5-5.59q5.67-1.62,11.75-3.68c.43-.14-1.11-44.58-2.88-90.42-.18-4.73-.37-9.48-.55-14.2l-.24-6c-1.61-40.54-3.2-77.16-3.54-79.13-.76-4.46-1.48-8.26-2.27-11.56-2.29-9.6-5.13-14.87-11.33-19.4-.6-.46-5.56-3-9.93-5.13-3.63-1.8-6.84-3.37-6.84-3.37h0c-1.44.7-3.17,4-5,8.64-3.33,8.55-6.92,21.64-9.42,31.41l0,0h0c-1.61,6.31-2.76,11.23-3.09,12.64-.56,2.38-1.29,7-2.16,13.24-1.18,8.5-2.58,20-4.07,33.15-.16,1.34-.31,2.71-.46,4.08-.18,1.57-.36,3.16-.53,4.77-.06.51-.12,1-.17,1.55-.57,5.18-1.15,10.54-1.72,16-.48,4.5-7.3,7.75-7.77,12.33-.28,2.68-.84,27.47-1.57,35.39C2010.62,1484.38,2011,1538.5,2011.2,1541.16Z" transform="translate(-94.98 -709.65)"/><path class="cls-35" d="M2060.57,1361.32c0,.09,1.16,41-29.61,46s-10.33,6.28-10.33,6.28,57.9-2.46,58.85-4S2060.57,1361.32,2060.57,1361.32Z" transform="translate(-94.98 -709.65)"/><path class="cls-35" d="M2034.57,1424.84s.58.41,1.69,1.12l0,0a145,145,0,0,0,38.91,16.64q3.2.87,6.6,1.63c-.18-4.73-.37-9.48-.55-14.2a58.72,58.72,0,0,0,7.63-1.06c-.08-.62-.17-1.24-.25-1.87-2.58-1.05-5.14-2.07-7.62-3-2-.79-4-1.54-5.81-2.23-8.33-3.17-14.51-5.31-14.51-5.31l-24.66,7.81Z" transform="translate(-94.98 -709.65)"/><path class="cls-37" d="M2028,1424.16s3.17.79,8.22,1.8h0c9.3,1.87,24.94,4.5,38.91,4.35,2.06,0,4.09-.1,6.05-.25a58.72,58.72,0,0,0,7.63-1.06c5.1-1.07,9.38-2.9,12.18-5.75,20.78-21.17-11.34-97.14-18.1-104.53-7.88-8.63-22.27-11.66-30.22-12.7l-1-.12c-2.79-.33-4.59-.4-4.68-.4h0l1.67,5.4,1.39,4.54c4.88,16,14.3,47.4,18.45,65.11,1.52,6.49,2.33,11.13,2,12.52-1.62,6.05-18.41,9.16-29,10.54-4.44.57-7.81.84-8.56.9h-.16l-.61,2.52-1.48,6.06-1.44,5.94Z" transform="translate(-94.98 -709.65)"/><polygon class="cls-25" points="1875.1 750.92 1946.47 747.91 1931.99 658.97 1860.62 661.97 1875.1 750.92"/><path class="cls-21" d="M2032.82,1404.53s-13.89-1-14.59,2.27c-1.62,7.55,11.94,13.75,16.34,13.33S2036,1404,2032.82,1404.53Z" transform="translate(-94.98 -709.65)"/><path class="cls-21" d="M1959.5,1389.69s13.3-4.16,14.72-1.17c3.33,7-8.44,16.14-12.81,16.74S1956.28,1389.94,1959.5,1389.69Z" transform="translate(-94.98 -709.65)"/><path class="cls-35" d="M2045.67,1301s6.59,1.14,9.52,5.35c0,0-22.59,39.57-22.49,39.22S2040.08,1305.9,2045.67,1301Z" transform="translate(-94.98 -709.65)"/><path class="cls-35" d="M2018.46,1301.58c-1.93.72-5.62,4.5-6.45,6.59l-2.6,33.12s5.55-24.3,8.37-35.29A18.54,18.54,0,0,0,2018.46,1301.58Z" transform="translate(-94.98 -709.65)"/><path class="cls-38" d="M2003.31,1369.62s-.56-2.47-3.81-2.19-21.5,1.19-21.5,1.19-3.52-.06-3.19,2.2Z" transform="translate(-94.98 -709.65)"/></svg>