<?xml version="1.0"?>
<svg xmlns="http://www.w3.org/2000/svg" id="icons" enable-background="new 0 0 64 64" height="30px" viewBox="0 0 64 64" width="30px"><g><path d="m40.557 9.443c-4.156-4.155-9.68-6.443-15.557-6.443s-11.401 2.288-15.557 6.443c-4.155 4.155-6.443 9.679-6.443 15.556 0 5.878 2.288 11.402 6.443 15.556.885.885 1.842 1.665 2.841 2.376.029.03.067.049.101.075 3.128 2.2 6.752 3.546 10.592 3.894.008 0 .015.004.022.004.006 0 .012-.002.018-.002.656.059 1.316.097 1.983.097.666 0 1.326-.038 1.982-.097.006 0 .011.002.017.002.008 0 .014-.004.021-.004 3.841-.348 7.466-1.692 10.595-3.894.032-.026.071-.045.101-.075.999-.711 1.956-1.491 2.841-2.376 8.577-8.577 8.577-22.534 0-31.112zm-22.557 28.557h2.2l1.507 6.708c-2.751-.453-5.358-1.458-7.679-2.987.147-2.075 1.862-3.721 3.972-3.721zm-1-14.962h16v1.964c0 4.41-3.589 7.998-8 7.998s-8-3.588-8-7.998zm16.021-2.138c-.004.036-.021.066-.021.102v.036h-15.986v-7.04c0-.552.448-1 1-1h14.007c.552 0 1 .448 1 1zm-1.021 17.1c2.11 0 3.825 1.646 3.972 3.721-2.32 1.529-4.929 2.534-7.68 2.988l1.508-6.709zm-7-3c1.045 0 2.053-.162 3-.461v1.843l-1 .5-1.553-.776c-.021-.011-.045-.009-.067-.019-.064-.026-.129-.04-.197-.053-.062-.012-.121-.023-.183-.023s-.12.012-.182.023c-.068.013-.134.026-.198.054-.022.009-.046.007-.067.018l-1.553.776-1-.5v-1.843c.947.299 1.955.461 3 .461zm-1.191 9.94-1.371-6.104.115.058c.014.007.029.004.044.011.126.056.26.094.399.094.001 0 .002.001.003.001h.001.001c.001 0 .002-.001.003-.001.14 0 .273-.038.399-.094.015-.007.03-.004.044-.011l1.553-.776 1.553.776c.014.007.029.004.044.011.126.056.26.094.399.094.001 0 .002.001.003.001h.001.001c.001 0 .002-.001.003-.001.14 0 .273-.038.399-.094.015-.007.03-.004.044-.011l.114-.058-1.372 6.104c-.395.023-.789.058-1.189.058s-.795-.035-1.191-.058zm13.963-4.556c-.708-2.526-3.024-4.384-5.772-4.384h-2v-2.353c2.983-1.732 5-4.955 5-8.646v-2.861c.004-.035.021-.065.021-.102v-8.04c0-1.654-1.346-3-3-3h-14.007c-1.654 0-3 1.346-3 3v6.937c-.002.023-.014.043-.014.067v4.049c0 .006.003.011.003.017.024 3.663 2.031 6.857 4.997 8.58v2.352h-2c-2.748 0-5.064 1.858-5.772 4.384-.472-.394-.931-.804-1.37-1.243-3.778-3.777-5.858-8.799-5.858-14.142s2.08-10.365 5.857-14.142c3.778-3.777 8.8-5.857 14.143-5.857s10.365 2.08 14.143 5.857c7.798 7.798 7.798 20.485 0 28.283-.44.44-.899.85-1.371 1.244z" data-original="#000000" class="active-path" data-old_color="#000000" fill="#038DFE"/><path d="m62.535 55.466-11.58-11.583c-.391-.391-1.023-.391-1.414 0l-.708.708-4.166-4.167c7.698-9.803 7.04-24.072-1.989-33.102-4.722-4.721-11-7.322-17.678-7.322-6.677 0-12.955 2.601-17.678 7.322-4.721 4.721-7.322 10.999-7.322 17.677.001 6.678 2.601 12.956 7.322 17.678s11 7.321 17.678 7.321c5.666 0 11.041-1.879 15.426-5.331l4.166 4.167-.707.707c-.391.391-.391 1.023 0 1.414l11.58 11.58c.944.944 2.2 1.465 3.536 1.465s2.591-.521 3.534-1.465c.944-.944 1.465-2.2 1.465-3.536 0-1.335-.52-2.589-1.465-3.533zm-53.799-14.203c-4.343-4.344-6.735-10.12-6.736-16.264 0-6.144 2.393-11.919 6.736-16.263 4.345-4.343 10.121-6.736 16.264-6.736 6.144 0 11.92 2.393 16.264 6.736 8.967 8.967 8.967 23.559 0 32.526-4.345 4.344-10.121 6.736-16.264 6.736-6.144 0-11.92-2.392-16.264-6.735zm33.217 2.103c.244-.226.488-.453.725-.689.237-.237.464-.48.689-.725l4.052 4.053-1.413 1.415zm19.167 17.755c-1.131 1.136-3.108 1.132-4.241 0l-10.873-10.873.705-.706c.001 0 .002-.001.002-.001s.001-.001.001-.002l2.823-2.823c.001-.001.003-.002.004-.003s.002-.003.003-.004l.704-.705 10.873 10.876h.001v.001c.566.565.878 1.317.878 2.118 0 .802-.312 1.556-.88 2.122z" data-original="#000000" class="active-path" data-old_color="#000000" fill="#038DFE"/><path d="m27.004 16.018h-1.001v-1.019c0-.553-.447-1-1-1s-1 .447-1 1v1.019h-1.001c-.553 0-1 .447-1 1s.447 1 1 1h1.001v.993c0 .553.447 1 1 1s1-.447 1-1v-.993h1.001c.553 0 1-.447 1-1s-.447-1-1-1z" data-original="#000000" class="active-path" data-old_color="#000000" fill="#038DFE"/></g> </svg>
