<svg xmlns="http://www.w3.org/2000/svg" width="58" height="63" viewBox="0 0 58 63">
  <g fill="none" fill-rule="evenodd" transform="translate(1.1 .43)">
    <path stroke="#2571AD" stroke-linecap="round" stroke-linejoin="round" stroke-width="1.6" d="M12.3727625,42.5672758 L12.3727625,3.73593332 C12.3727625,1.91361205 13.8523875,0.436361205 15.6776375,0.436361205 L40.4515125,0.436361205 C42.2767625,0.436361205 43.7563875,1.91361205 43.7563875,3.73593332 L43.7563875,42.5672758"/>
    <line x1="12.373" x2="43.756" y1="7.816" y2="7.816" stroke="#2571AD" stroke-linecap="round" stroke-linejoin="round" stroke-width="1.6"/>
    <line x1="18.737" x2="37.323" y1="46.327" y2="46.327" stroke="#2571AD" stroke-linecap="round" stroke-linejoin="round" stroke-width="1.6"/>
    <line x1="18.332" x2="37.669" y1="53.428" y2="53.428" stroke="#2571AD" stroke-linecap="round" stroke-linejoin="round" stroke-width="1.6"/>
    <polygon stroke="#1ab9b9" stroke-linecap="round" stroke-linejoin="round" stroke-width="1.6" points="16.747 20.389 39.381 20.389 39.381 12.185 16.747 12.185"/>
    <polygon stroke="#1ab9b9" stroke-linecap="round" stroke-linejoin="round" stroke-width="1.6" points="16.747 31.213 39.381 31.213 39.381 23.009 16.747 23.009"/>
    <polyline stroke="#1ab9b9" stroke-linecap="round" stroke-linejoin="round" stroke-width="1.6" points="39.381 38.27 39.381 33.834 35.089 33.834"/>
    <line x1="22.845" x2="33.217" y1="42.038" y2="42.038" stroke="#1ab9b9" stroke-linecap="round" stroke-linejoin="round" stroke-width="1.6"/>
    <polyline stroke="#1ab9b9" stroke-linecap="round" stroke-linejoin="round" stroke-width="1.6" points="20.972 33.834 16.747 33.834 16.747 38.202"/>
    <line x1="30.12" x2="25.942" y1="33.984" y2="33.984" stroke="#2571AD" stroke-linecap="round" stroke-linejoin="round" stroke-width="1.6"/>
    <line x1="19.373" x2="26.484" y1="15.995" y2="15.995" stroke="#1ab9b9" stroke-linecap="round" stroke-linejoin="round" stroke-width="1.6"/>
    <line x1="19.373" x2="26.484" y1="26.82" y2="26.82" stroke="#1ab9b9" stroke-linecap="round" stroke-linejoin="round" stroke-width="1.6"/>
    <path stroke="#2571AD" stroke-linecap="round" stroke-linejoin="round" stroke-width="1.6" d="M.4375875 58.3849545L.4375875 41.4476752C.4375875 37.1530772 2.5577125 33.5241594 5.4662125 30.318062 8.3738375 27.1119647 12.3725875 22.6959369 12.3725875 22.6959369M9.81435 45.1240292L20.971475 33.9848066C22.34435 32.6141344 24.5686 32.6141344 25.941475 33.9848066 27.313475 35.3546051 27.313475 37.5761597 25.941475 38.9459583L19.721975 45.1554787C18.552975 46.3470636 18.39285 46.8319094 18.39285 47.5578677L18.39285 52.7592583C18.39285 54.453161 16.916725 58.4454947 13.099975 61.3484543M55.6233125 58.3849545L55.6233125 41.4476752C55.6233125 37.1530772 53.5031875 33.5241594 50.5946875 30.318062 47.6870625 27.1119647 43.6883125 22.6959369 43.6883125 22.6959369M46.2464625 45.1240292L35.0893375 33.9848066C33.7164625 32.6141344 31.4922125 32.6141344 30.1193375 33.9848066 28.7473375 35.3546051 28.7473375 37.5761597 30.1193375 38.9459583L36.3388375 45.1554787C37.5087125 46.3470636 37.6679625 46.8319094 37.6679625 47.5578677L37.6679625 52.7592583C37.6679625 54.453161 39.1440875 58.4454947 42.9608375 61.3484543"/>
    <path fill="#2571AD" d="M30.1647913,5.07043858 L25.9646921,5.07043858 C25.6538144,5.07043858 25.4025125,4.66421644 25.4025125,4.16277233 C25.4025125,3.66220182 25.6538144,3.25597968 25.9646921,3.25597968 L30.1647913,3.25597968 C30.475669,3.25597968 30.7275125,3.66220182 30.7275125,4.16277233 C30.7275125,4.66421644 30.475669,5.07043858 30.1647913,5.07043858 Z"/>
  </g>
</svg>
