<svg xmlns="http://www.w3.org/2000/svg" width="69" height="63" viewBox="0 0 69 63">
  <g fill="none" fill-rule="evenodd" stroke-width="1.6" transform="translate(.775 .43)">
    <path stroke="#2571AD" stroke-linecap="round" d="M13.5776625 34.2692469L13.5776625 8.56587092C13.5776625 6.80382778 15.0082875 5.37462471 16.7731625 5.37462471L23.1921625 5.37462471M56.9171125 5.37488679L63.3352375 5.37488679C65.1009875 5.37488679 66.5316125 6.80321626 66.5316125 8.5652594L66.5316125 48.7567909C66.5316125 50.5197076 65.1009875 51.9480371 63.3352375 51.9480371L26.9773132 51.9480371"/>
    <line x1="28.436" x2="51.673" y1="5.375" y2="5.375" stroke="#2571AD" stroke-linecap="round"/>
    <path stroke="#2571AD" stroke-linecap="round" d="M54.2950875 10.4966055L54.2950875 10.4966055C52.8469625 10.4966055 51.6735875 9.32511321 51.6735875 7.87931182L51.6735875 3.05444108C51.6735875 1.60863969 52.8469625.436273846 54.2950875.436273846 55.7432125.436273846 56.9174625 1.60863969 56.9174625 3.05444108L56.9174625 7.87931182C56.9174625 9.32511321 55.7432125 10.4966055 54.2950875 10.4966055zM25.81445 10.4966055L25.81445 10.4966055C24.366325 10.4966055 23.192075 9.32511321 23.192075 7.87931182L23.192075 3.05444108C23.192075 1.60863969 24.366325.436273846 25.81445.436273846 27.262575.436273846 28.43595 1.60863969 28.43595 3.05444108L28.43595 7.87931182C28.43595 9.32511321 27.262575 10.4966055 25.81445 10.4966055z"/>
    <line x1="13.578" x2="66.532" y1="16.059" y2="16.059" stroke="#2571AD" stroke-linecap="round"/>
    <polygon stroke="#2571AD" points="35.972 38.822 35.972 37.272 44.136 37.272 44.136 45.423 37.275 45.423 35.972 45.423"/>
    <polygon stroke="#2571AD" stroke-linecap="round" points="50.213 30.903 58.377 30.903 58.377 22.752 50.213 22.752"/>
    <polygon stroke="#2571AD" stroke-linecap="round" points="35.972 30.903 44.136 30.903 44.136 22.752 35.972 22.752"/>
    <polygon stroke="#2571AD" stroke-linecap="round" points="21.773 30.903 29.936 30.903 29.936 22.752 21.773 22.752"/>
    <polygon stroke="#2571AD" stroke-linecap="round" points="50.213 45.423 58.377 45.423 58.377 37.272 50.213 37.272"/>
    <g stroke="#1ab9b9" stroke-linecap="round" transform="translate(.438 30.274)">
      <path d="M22.6372375,15.801808 C22.6372375,19.717004 19.4582795,22.8908611 15.5376837,22.8908611 C11.6161955,22.8908611 8.4372375,19.717004 8.4372375,15.801808 C8.4372375,11.886612 11.6161955,8.71364593 15.5376837,8.71364593 C19.4582795,8.71364593 22.6372375,11.886612 22.6372375,15.801808 Z"/>
      <path d="M30.6247375,17.9095263 L30.6247375,13.6949807 L27.2221301,12.7083761 C26.9431424,11.6549567 26.5285719,10.6588071 25.9914553,9.73814971 L27.6984083,6.64036755 L24.7129788,3.66059614 L21.6102181,5.36394247 C20.6889502,4.82855547 19.6911997,4.41465012 18.6360872,4.13524232 L17.647897,0.738962382 L13.426578,0.738962382 L12.4383878,4.13524232 C11.3832753,4.41465012 10.3855248,4.82855547 9.46425693,5.36394247 L6.36149619,3.66059614 L3.37606674,6.64036755 L5.08215059,9.73814971 C4.54590314,10.6588071 4.13133259,11.6549567 3.85147574,12.7083761 L0.4497375,13.6949807 L0.4497375,17.9095263 L3.85147574,18.8961309 C4.13133259,19.9495504 4.54590314,20.9456999 5.08215059,21.8654896 L3.37606674,24.9632718 L6.36149619,27.9430432 L9.46425693,26.2405646 C10.3855248,26.7759516 11.3832753,27.1898569 12.4383878,27.468397 L13.426578,30.8655447 L17.647897,30.8655447 L18.6360872,27.468397 C19.6911997,27.1898569 20.6889502,26.7759516 21.6102181,26.2405646 L24.7129788,27.9430432 L27.6984083,24.9632718 L25.9914553,21.8654896 C26.5285719,20.9456999 26.9431424,19.9495504 27.2221301,18.8961309 L30.6247375,17.9095263 Z"/>
    </g>
  </g>
</svg>
