<svg xmlns="http://www.w3.org/2000/svg" width="65" height="63" viewBox="0 0 65 63">
  <g fill="none" fill-rule="evenodd" stroke-linecap="round" stroke-linejoin="round" stroke-width="1.6" transform="translate(.438 .43)">
    <path stroke="#2571AD" d="M42.0378,7.03209841 L59.164175,7.03209841 C61.2493,7.03209841 62.940675,8.7198859 62.940675,10.8025388 L62.940675,48.8223106 C62.940675,50.9040899 61.2493,52.5927509 59.164175,52.5927509 L4.2133,52.5927509 C2.128175,52.5927509 0.437675,50.9040899 0.437675,48.8223106 L0.437675,10.8025388 C0.437675,8.7198859 2.128175,7.03209841 4.2133,7.03209841 L21.290675,7.03209841"/>
    <line x1="20.154" x2="43.224" y1="61.35" y2="61.35" stroke="#2571AD"/>
    <line x1="26.006" x2="23.698" y1="52.593" y2="61.35" stroke="#2571AD"/>
    <line x1="37.372" x2="39.68" y1="52.593" y2="61.35" stroke="#2571AD"/>
    <path stroke="#1ab9b9" d="M42.0378 13.8216866L42.0378 2.01765734C42.0378 1.15454448 41.18905 1.00952755 40.323675 1.58610091 39.459175 2.16180068 38.741675 2.5933571 36.863925 2.5933571 34.19605 2.5933571 28.789425-1.14912819 24.463425 1.22617935 20.1383 3.6014869 21.290675 13.8216866 21.290675 13.8216866M10.8138625 44.4355482L10.8138625 40.2370458C10.8138625 38.150025 12.1114875 31.0241023 22.4216125 29.1528597 25.5934875 28.5046515 27.1789875 27.7131735 27.1789875 26.2018524L27.1789875 23.8842022M52.627575 44.4355482L52.627575 40.2370458C52.627575 38.150025 51.32995 31.0241023 41.019825 29.1528597 37.84795 28.5046515 36.26245 27.7131735 36.26245 26.2018524L36.26245 23.8842022"/>
    <path stroke="#1ab9b9" d="M38.7163875,28.5525245 C38.7163875,28.5525245 37.6436375,44.4353735 31.5947625,44.4353735 C25.5450125,44.4353735 24.4731375,28.5525245 24.4731375,28.5525245 C24.6332625,32.5125352 27.7605125,35.6705848 31.5947625,35.6705848 C35.4281375,35.6705848 38.5545125,32.5134088 38.7163875,28.5542717 L38.7163875,28.5525245 Z"/>
    <path stroke="#2571AD" d="M45.83005 36.3922624C45.83005 37.8406846 44.653175 39.0147976 43.202425 39.0147976 41.751675 39.0147976 40.5748 37.8406846 40.5748 36.3922624 40.5748 34.9429667 41.751675 33.7688536 43.202425 33.7688536 44.653175 33.7688536 45.83005 34.9429667 45.83005 36.3922624zM20.9540625 39.4690676L22.6139375 39.4690676 22.6139375 36.3922624C22.6139375 34.9429667 21.4379375 33.7688536 19.9871875 33.7688536 18.5355625 33.7688536 17.3595625 34.9429667 17.3595625 36.3922624L17.3595625 39.4690676 19.0194375 39.4690676M36.922025 23.4991211C40.527025 25.441125 43.029525 29.2936834 43.194025 33.7691157M19.995325 33.7693778C20.159825 29.262496 22.69645 25.3889713 26.340825 23.4591977"/>
    <path stroke="#1ab9b9" d="M42.0378,13.8216866 C42.0378,20.0233446 37.3933,25.050016 31.664675,25.050016 C25.935175,25.050016 21.290675,20.0233446 21.290675,13.8216866 C21.290675,7.62090212 25.935175,7.27146372 31.664675,7.27146372 C37.3933,7.27146372 42.0378,7.62090212 42.0378,13.8216866 Z"/>
    <line x1=".438" x2="62.941" y1="44.436" y2="44.436" stroke="#2571AD"/>
  </g>
</svg>
