<svg width="22" height="22" viewBox="0 0 22 22" fill="none" xmlns="http://www.w3.org/2000/svg">
<path fill-rule="evenodd" clip-rule="evenodd" d="M6.60286 4.46364H4.45637V3.39062H2.30958V6.61013H19.4815V3.39062H17.3353V4.46364H15.1888V3.39062H6.60286V4.46364ZM19.4815 8.75662H2.30958V19.4893H19.4815V8.75662ZM15.1888 1.24392H6.60286V0.170654H4.45637V1.24392H2.30958C1.1241 1.24392 0.163086 2.20494 0.163086 3.39041V19.4891C0.163086 20.6746 1.1241 21.6356 2.30958 21.6356H19.4815C20.667 21.6356 21.628 20.6746 21.628 19.4891V3.39041C21.628 2.20494 20.667 1.24392 19.4815 1.24392H17.3353V0.170654H15.1888V1.24392ZM5.52962 13.0496V10.9031H7.67611V13.0496H5.52962ZM9.8226 13.0496H11.9691V10.9031H9.8226V13.0496ZM14.1156 13.0496V10.9031H16.2621V13.0496H14.1156ZM5.52962 15.1961V17.3426H7.67611V15.1961H5.52962ZM11.9691 17.3426H9.8226V15.1961H11.9691V17.3426Z" fill="white"/>
</svg>
