<svg width="122" height="122" viewBox="0 0 122 122" fill="none" xmlns="http://www.w3.org/2000/svg">
<circle cx="61.034" cy="60.5594" r="60.5594" fill="url(#paint0_linear_1729_30)"/>
<path d="M72.4851 44.814C72.4741 44.8169 72.4522 44.8169 72.4303 44.814H49.9458C48.3924 44.814 47.1353 43.5569 47.1353 42.0035C47.1353 34.2553 53.4399 27.9507 61.1881 27.9507C68.7277 27.9507 74.8977 33.9175 75.2271 41.3776C75.2737 41.578 75.2957 41.7893 75.2957 42.0035C75.2957 43.5569 74.0388 44.814 72.4851 44.814ZM53.2367 39.1929H69.1394C67.9784 35.9211 64.8522 33.5718 61.1881 33.5718C57.5239 33.5718 54.3977 35.9211 53.2367 39.1929Z" fill="#61788E"/>
<path d="M89.2942 47.6245V75.7301C89.2942 80.3676 85.4999 84.1618 80.8625 84.1618H41.5147C36.8773 84.1618 33.083 80.3676 33.083 75.7301V47.6245C33.083 42.9871 36.8773 39.1929 41.5147 39.1929H80.8625C85.4999 39.1929 89.2942 42.9871 89.2942 47.6245Z" fill="#C75548"/>
<path d="M69.6202 58.8667H63.9991V53.2456C63.9991 51.6922 62.7419 50.4351 61.1885 50.4351C59.6351 50.4351 58.378 51.6922 58.378 53.2456V58.8667H52.7568C51.2035 58.8667 49.9463 60.1239 49.9463 61.6773C49.9463 63.2307 51.2035 64.4879 52.7568 64.4879H58.378V70.109C58.378 71.6624 59.6351 72.9195 61.1885 72.9195C62.7419 72.9195 63.9991 71.6624 63.9991 70.109V64.4879H69.6202C71.1736 64.4879 72.4308 63.2307 72.4308 61.6773C72.4308 60.1239 71.1736 58.8667 69.6202 58.8667Z" fill="white"/>
<defs>
<linearGradient id="paint0_linear_1729_30" x1="61.034" y1="0" x2="61.034" y2="121.119" gradientUnits="userSpaceOnUse">
<stop stop-color="#AFE5E2"/>
<stop offset="1" stop-color="#1AB9B9"/>
</linearGradient>
</defs>
</svg>
