<svg width="146" height="28" viewBox="0 0 146 28" fill="none" xmlns="http://www.w3.org/2000/svg">
<path d="M4.00391 20.9169L3.86719 22.738C3.86719 23.6861 4.02995 24.4435 4.35547 25.0101C4.69401 25.5766 5.30599 25.8599 6.19141 25.8599C6.69922 25.8599 7.1875 25.7096 7.65625 25.409C8.125 25.0968 8.5026 24.6574 8.78906 24.0908C9.7526 22.3333 10.7031 19.7259 11.6406 16.2687L13.9648 5.61946C14.1341 5.16851 14.974 4.94304 16.4844 4.94304H18.3203C18.151 5.79868 17.9297 7.12839 17.6562 8.93216C17.3828 10.7244 17.1419 12.1697 16.9336 13.2682C16.7383 14.3666 16.3672 15.731 15.8203 17.3613C15.2865 18.9917 14.6224 20.5353 13.8281 21.9922C14.2057 23.0097 14.9414 23.8596 16.0352 24.5418C17.1289 25.2124 18.2552 25.5477 19.4141 25.5477C20.5859 25.5477 21.7318 25.2586 22.8516 24.6805C23.9844 24.0908 24.9935 23.2872 25.8789 22.2697C26.7773 21.2522 27.5 19.9803 28.0469 18.454C28.5938 16.9277 28.8672 15.4246 28.8672 13.9446C28.8672 12.453 28.7305 11.1695 28.457 10.0942C28.1966 9.01888 27.7669 8.00715 27.168 7.05901C26.582 6.11087 25.8529 5.2957 24.9805 4.6135C23.1055 3.14505 20.5924 2.41082 17.4414 2.41082C15.5534 2.41082 13.6719 2.74613 11.7969 3.41677C9.9349 4.0874 8.41797 4.93726 7.24609 5.96634C6.08724 6.99541 5.50781 8.00137 5.50781 8.98419C5.50781 10.337 6.57552 11.3777 8.71094 12.1061C8.71094 12.638 8.65234 13.1988 8.53516 13.7885C8.41797 14.3666 8.30729 14.7424 8.20312 14.9158C6.26302 14.3724 4.80469 13.5977 3.82812 12.5917C2.85156 11.5742 2.36328 10.5452 2.36328 9.50451C2.36328 8.45231 2.57812 7.50995 3.00781 6.67744C3.4375 5.83337 4.12109 5.02398 5.05859 4.24928C6.00911 3.46302 7.15495 2.77504 8.49609 2.18534C11.4648 0.890325 15.2995 0.242816 20 0.242816C21.875 0.242816 23.5938 0.485632 25.1562 0.971264C26.7318 1.4569 28.0469 2.09862 29.1016 2.89645C30.1562 3.69427 31.0547 4.6135 31.7969 5.65414C33.2031 7.64292 33.9062 9.75311 33.9062 11.9847C33.9062 14.2047 33.5352 16.2629 32.793 18.1592C32.0638 20.0439 31.0677 21.6742 29.8047 23.0502C28.5547 24.4261 27.0378 25.5246 25.2539 26.3455C23.4831 27.1549 21.5951 27.5596 19.5898 27.5596C16.6211 27.5596 14.2383 26.4612 12.4414 24.2643C11.4258 25.5593 10.332 26.4265 9.16016 26.8659C7.98828 27.3052 6.65365 27.5249 5.15625 27.5249C3.65885 27.5249 2.42188 27.0913 1.44531 26.2241C0.481771 25.3454 0 24.3972 0 23.3797C0 21.7378 1.33464 20.9169 4.00391 20.9169Z" fill="#1AB9B9"/>
<path d="M48.1055 12.2275C48.1055 12.5628 47.9622 12.8114 47.6758 12.9733C45.0846 12.9733 43.1055 13.6324 41.7383 14.9505C40.4622 16.1993 39.8242 17.6042 39.8242 19.1651C39.8242 20.7145 40.2083 21.9517 40.9766 22.8767C41.7578 23.8018 42.7083 24.2643 43.8281 24.2643C44.9479 24.2643 46.0286 23.7439 47.0703 22.7033C46.0938 22.1599 45.3385 21.443 44.8047 20.5526C44.2839 19.6623 44.0234 18.7604 44.0234 17.847C44.0234 16.922 44.3359 16.1762 44.9609 15.6096C45.5859 15.0315 46.4909 14.7424 47.6758 14.7424C48.8607 14.7424 49.7201 15.0257 50.2539 15.5923C50.8008 16.1588 51.0742 16.8526 51.0742 17.6735C51.0742 19.3617 50.4688 20.8591 49.2578 22.1656C49.5833 22.2813 49.8633 22.3391 50.0977 22.3391C50.332 22.3391 50.5729 22.2928 50.8203 22.2003C51.0807 22.0963 51.3737 21.9228 51.6992 21.68C52.0247 21.4256 52.3112 21.1886 52.5586 20.9689C52.806 20.7492 53.1641 20.4197 53.6328 19.9803C54.1016 19.5409 54.4987 19.1825 54.8242 18.905V20.8128C53.7435 21.8303 52.8646 22.553 52.1875 22.9808C51.5234 23.4086 50.8659 23.6225 50.2148 23.6225C49.5768 23.6225 48.9909 23.5416 48.457 23.3797C47.4544 24.4666 46.263 25.3569 44.8828 26.0507C43.5156 26.7329 42.0964 27.074 40.625 27.074C38.5156 27.074 37.0117 26.1894 36.1133 24.4204C35.6055 23.426 35.3516 22.3102 35.3516 21.073C35.3516 18.2632 36.4714 16.049 38.7109 14.4302C40.9635 12.8114 43.9518 12.0021 47.6758 12.0021C47.9362 12.0021 48.0794 12.0772 48.1055 12.2275ZM49.2188 18.0031C49.2188 16.9393 48.6849 16.4074 47.6172 16.4074C46.5625 16.4074 46.0352 16.9682 46.0352 18.0898C46.0352 18.6795 46.2109 19.2923 46.5625 19.9283C46.9271 20.5526 47.4154 21.0498 48.0273 21.4198C48.2878 21.0383 48.5482 20.5122 48.8086 19.8415C49.082 19.1593 49.2188 18.5465 49.2188 18.0031Z" fill="#1AB9B9"/>
<path d="M56.9141 27.074C55.4167 27.074 54.2904 26.6577 53.5352 25.8252C52.7799 24.9927 52.4023 23.9636 52.4023 22.738C52.4023 21.5008 52.6562 20.2694 53.1641 19.0437C53.6719 17.8065 54.349 16.6676 55.1953 15.6269C56.0547 14.5747 57.1224 13.7075 58.3984 13.0253C59.6745 12.3431 61.0091 12.0021 62.4023 12.0021C64.2513 12.0021 65.4492 12.3952 65.9961 13.1814C66.1914 13.4589 66.2891 13.8174 66.2891 14.2568C66.2891 14.6846 66.0417 15.0662 65.5469 15.4015C65.0651 15.7252 64.4531 15.8871 63.7109 15.8871C63.3073 15.8871 62.9297 15.5171 62.5781 14.7771C62.4479 14.5111 62.2331 14.2626 61.9336 14.0313C61.6471 13.8 61.3086 13.6844 60.918 13.6844C60.1628 13.6844 59.4531 14.0602 58.7891 14.8118C58.125 15.5634 57.6042 16.4768 57.2266 17.5521C56.862 18.6275 56.6797 19.6797 56.6797 20.7087C56.6797 21.7263 56.888 22.553 57.3047 23.1889C57.7214 23.8133 58.3529 24.1255 59.1992 24.1255C61.4648 24.1255 64.5833 22.3853 68.5547 18.905V20.8475C65.0391 23.8885 62.1354 25.7963 59.8438 26.571C58.8281 26.9063 57.8516 27.074 56.9141 27.074Z" fill="#1AB9B9"/>
<path d="M69.1211 13.8232C68.9388 13.8232 68.7826 13.8232 68.6523 13.8232C68.5352 13.8232 68.418 13.8232 68.3008 13.8232C68.1836 13.8116 68.0924 13.8 68.0273 13.7885C67.9622 13.7769 67.8841 13.7596 67.793 13.7365C67.7148 13.7133 67.6497 13.6844 67.5977 13.6497C67.5456 13.615 67.4935 13.5746 67.4414 13.5283C67.3503 13.4358 67.3047 13.3144 67.3047 13.1641C67.3047 13.0022 67.3112 12.8982 67.3242 12.8519C67.3763 12.7363 67.6107 12.6553 68.0273 12.6091L69.668 12.4703C70.2799 10.6666 70.7096 9.52186 70.957 9.03623C71.2044 8.53903 71.4388 8.09387 71.6602 7.70074C71.8945 7.30761 72.1159 7.0012 72.3242 6.78151C72.5456 6.56181 72.7995 6.32478 73.0859 6.0704C73.3724 5.81602 73.6719 5.62524 73.9844 5.49805C74.7266 5.19742 75.4883 5.0471 76.2695 5.0471L76.3477 5.11648C76.3477 5.16273 76.1784 5.61368 75.8398 6.46931C74.7201 9.31373 73.9714 11.3141 73.5938 12.4703L79.5508 12.2275L79.1211 12.8519C78.7956 13.3838 76.849 13.6497 73.2812 13.6497C73.2682 13.6497 73.0664 14.2915 72.6758 15.5749C71.5039 19.4022 70.918 21.7205 70.918 22.5299C70.918 23.3508 71.0221 23.8249 71.2305 23.9521C71.4388 24.0677 71.6536 24.1255 71.875 24.1255C72.5781 24.1255 75.0586 22.3333 79.3164 18.7489V20.7087C78.8737 21.0672 78.2617 21.5702 77.4805 22.2177C76.6992 22.8652 76.0807 23.3739 75.625 23.7439C75.1823 24.1024 74.6224 24.5244 73.9453 25.0101C73.2812 25.4957 72.7148 25.8657 72.2461 26.1201C71.0482 26.756 69.9935 27.074 69.082 27.074C67.5326 27.074 66.7578 26.1143 66.7578 24.1949C66.7578 23.1427 66.9401 21.9055 67.3047 20.4833C67.6823 19.0495 68.0013 17.8817 68.2617 16.9798C68.5221 16.0663 68.8086 15.0141 69.1211 13.8232Z" fill="#1AB9B9"/>
<path d="M89.707 12.2275C89.707 12.5628 89.5638 12.8114 89.2773 12.9733C86.6862 12.9733 84.707 13.6324 83.3398 14.9505C82.0638 16.1993 81.4258 17.6042 81.4258 19.1651C81.4258 20.7145 81.8099 21.9517 82.5781 22.8767C83.3594 23.8018 84.3099 24.2643 85.4297 24.2643C86.5495 24.2643 87.6302 23.7439 88.6719 22.7033C87.6953 22.1599 86.9401 21.443 86.4062 20.5526C85.8854 19.6623 85.625 18.7604 85.625 17.847C85.625 16.922 85.9375 16.1762 86.5625 15.6096C87.1875 15.0315 88.0924 14.7424 89.2773 14.7424C90.4622 14.7424 91.3216 15.0257 91.8555 15.5923C92.4023 16.1588 92.6758 16.8526 92.6758 17.6735C92.6758 19.3617 92.0703 20.8591 90.8594 22.1656C91.1849 22.2813 91.4648 22.3391 91.6992 22.3391C91.9336 22.3391 92.1745 22.2928 92.4219 22.2003C92.6823 22.0963 92.9753 21.9228 93.3008 21.68C93.6263 21.4256 93.9128 21.1886 94.1602 20.9689C94.4076 20.7492 94.7656 20.4197 95.2344 19.9803C95.7031 19.5409 96.1003 19.1825 96.4258 18.905V20.8128C95.3451 21.8303 94.4661 22.553 93.7891 22.9808C93.125 23.4086 92.4674 23.6225 91.8164 23.6225C91.1784 23.6225 90.5924 23.5416 90.0586 23.3797C89.056 24.4666 87.8646 25.3569 86.4844 26.0507C85.1172 26.7329 83.6979 27.074 82.2266 27.074C80.1172 27.074 78.6133 26.1894 77.7148 24.4204C77.207 23.426 76.9531 22.3102 76.9531 21.073C76.9531 18.2632 78.0729 16.049 80.3125 14.4302C82.5651 12.8114 85.5534 12.0021 89.2773 12.0021C89.5378 12.0021 89.681 12.0772 89.707 12.2275ZM90.8203 18.0031C90.8203 16.9393 90.2865 16.4074 89.2188 16.4074C88.1641 16.4074 87.6367 16.9682 87.6367 18.0898C87.6367 18.6795 87.8125 19.2923 88.1641 19.9283C88.5286 20.5526 89.0169 21.0498 89.6289 21.4198C89.8893 21.0383 90.1497 20.5122 90.4102 19.8415C90.6836 19.1593 90.8203 18.5465 90.8203 18.0031Z" fill="#1AB9B9"/>
<path d="M107.324 1.99456C106.413 1.99456 105.521 3.12192 104.648 5.37664C103.789 7.63136 102.799 11.1233 101.68 15.8524C102.656 14.9621 103.574 13.8925 104.434 12.6438C105.293 11.3834 105.983 10.1636 106.504 8.98419C107.611 6.49822 108.164 4.71179 108.164 3.6249C108.164 2.53801 107.884 1.99456 107.324 1.99456ZM97.5977 27.074C97.1419 27.074 96.8294 26.9699 96.6602 26.7618C96.4909 26.5537 96.3607 26.3802 96.2695 26.2415C96.1784 26.0912 96.1068 25.8946 96.0547 25.6518C96.0026 25.409 95.957 25.2008 95.918 25.0274C95.8919 24.854 95.8724 24.6227 95.8594 24.3336C95.8464 24.033 95.8398 23.8075 95.8398 23.6572V22.9808C95.8398 20.7492 96.1849 18.2806 96.875 15.5749C97.5781 12.8693 98.4701 10.3717 99.5508 8.0823C100.645 5.7929 101.921 3.87349 103.379 2.3241C104.837 0.774699 106.257 0 107.637 0C108.483 0 109.147 0.26016 109.629 0.78048C110.124 1.28924 110.371 2.05237 110.371 3.06989C110.371 4.07584 110.195 5.20898 109.844 6.46931C109.505 7.71808 109.062 8.86857 108.516 9.92077C107.969 10.9614 107.363 11.9789 106.699 12.9733C106.035 13.9561 105.371 14.8233 104.707 15.5749C103.353 17.1012 102.298 18.1765 101.543 18.8009L101.035 19.2518C100.267 21.0556 99.8828 22.3911 99.8828 23.2583C99.8828 24.1139 100.111 24.5418 100.566 24.5418C100.892 24.5418 101.784 23.9058 103.242 22.6339C104.701 21.362 106.035 20.1306 107.246 18.9397V20.8822C105.007 23.0213 103.151 24.5707 101.68 25.5304C100.221 26.4785 98.8607 26.993 97.5977 27.074Z" fill="#1AB9B9"/>
<path d="M109.414 23.1196C109.414 23.8827 109.642 24.2643 110.098 24.2643C110.384 24.2643 111.283 23.6052 112.793 22.287C114.316 20.9573 115.527 19.8531 116.426 18.9743V20.9169C113.861 23.16 112.142 24.6054 111.27 25.2529C109.681 26.4207 108.32 27.0277 107.188 27.074C106.615 27.074 106.185 26.8485 105.898 26.3976C105.612 25.9351 105.469 25.3454 105.469 24.6285C105.469 23.9116 105.833 22.2292 106.562 19.5814C107.292 16.9335 107.773 15.3321 108.008 14.7771C108.255 14.2221 108.457 13.8347 108.613 13.615C108.77 13.3954 108.965 13.2219 109.199 13.0947C109.434 12.9675 109.635 12.8693 109.805 12.7999C109.987 12.7189 110.26 12.6611 110.625 12.6264C111.133 12.5917 111.758 12.5744 112.5 12.5744C110.443 18.4251 109.414 21.9402 109.414 23.1196ZM112.773 7.9609C111.849 7.9609 111.387 7.54464 111.387 6.71213C111.387 6.134 111.628 5.57899 112.109 5.0471C112.604 4.50366 113.184 4.23194 113.848 4.23194C114.512 4.23194 115.007 4.34756 115.332 4.57882C115.658 4.81007 115.82 5.16273 115.82 5.6368C115.82 6.09931 115.508 6.60228 114.883 7.14573C114.271 7.68917 113.568 7.9609 112.773 7.9609Z" fill="#1AB9B9"/>
<path d="M126.328 21.9228C126.562 22.316 126.693 22.6339 126.719 22.8767C127.057 22.8767 127.467 22.6744 127.949 22.2697C128.431 21.865 128.815 21.5355 129.102 21.2811C129.388 21.0152 129.811 20.6278 130.371 20.119C130.931 19.6103 131.406 19.1825 131.797 18.8356V20.7781C129.674 22.7322 128.34 23.8422 127.793 24.1082C127.259 24.3741 126.849 24.5071 126.562 24.5071C126.133 24.5071 125.638 23.9752 125.078 22.9114C124.01 24.5765 123.197 25.6113 122.637 26.016C121.908 26.5248 121.237 26.8254 120.625 26.9179C120.026 27.022 119.447 27.074 118.887 27.074C118.092 27.074 117.402 26.5941 116.816 25.6344C115.71 23.8075 115.156 20.9805 115.156 17.1532C115.156 15.7079 115.241 14.4649 115.41 13.4243C115.488 12.8577 116.51 12.5744 118.477 12.5744H120.039C119.635 14.4822 119.434 16.3207 119.434 18.0898C119.434 19.8473 119.635 21.362 120.039 22.6339C120.456 23.9058 120.911 24.5418 121.406 24.5418C121.797 24.5418 122.52 23.7497 123.574 22.1656C124.069 21.4256 124.31 21.0556 124.297 21.0556C124.284 21.0441 124.277 20.7434 124.277 20.1537C124.277 19.564 124.336 18.8009 124.453 17.8643C124.583 16.9277 124.772 16.0085 125.02 15.1066C125.267 14.2047 125.605 13.4647 126.035 12.8866C126.478 12.2969 126.973 12.0021 127.52 12.0021C128.184 12.0021 128.516 12.5686 128.516 13.7018C128.516 14.8233 128.242 16.2687 127.695 18.0378C127.148 19.8069 126.693 21.1019 126.328 21.9228Z" fill="#1AB9B9"/>
<path d="M135.195 16.7717C136.185 17.9048 137.279 18.4714 138.477 18.4714C139.232 18.4714 139.883 18.1418 140.43 17.4828C140.99 16.8237 141.27 16.1299 141.27 15.4015C141.27 14.673 141.113 14.1874 140.801 13.9446C140.501 13.6902 140.059 13.563 139.473 13.563C138.9 13.563 138.359 13.6786 137.852 13.9099C137.357 14.1411 136.934 14.4302 136.582 14.7771C135.905 15.4593 135.443 16.1241 135.195 16.7717ZM145.918 18.9743V20.8822C143.848 22.9056 141.999 24.4435 140.371 25.4957C138.743 26.5479 137.194 27.074 135.723 27.074C132.78 27.074 130.944 26.2241 130.215 24.5244C129.941 23.8538 129.805 23.0444 129.805 22.0963C129.805 20.4081 130.202 18.8009 130.996 17.2746C131.79 15.7368 132.93 14.4765 134.414 13.4936C135.911 12.4992 137.572 12.0021 139.395 12.0021C142.467 12.0021 144.004 13.0196 144.004 15.0546C144.004 16.3727 143.405 17.5232 142.207 18.5061C141.009 19.4773 139.661 19.9629 138.164 19.9629C137.565 19.9629 136.94 19.8069 136.289 19.4947C135.638 19.1825 135.085 18.7142 134.629 18.0898C134.069 19.1304 133.789 20.1479 133.789 21.1423C133.789 23.8133 134.883 25.1488 137.07 25.1488C137.643 25.1488 138.346 24.906 139.18 24.4204C140.026 23.9347 140.768 23.426 141.406 22.8941C142.057 22.3506 142.878 21.6395 143.867 20.7608C144.857 19.8704 145.54 19.275 145.918 18.9743Z" fill="#1AB9B9"/>
</svg>
