<svg width="112" height="24" viewBox="0 0 112 24" fill="none" xmlns="http://www.w3.org/2000/svg">
<path fill-rule="evenodd" clip-rule="evenodd" d="M79.7102 16.3589C79.8046 16.311 79.8991 16.2632 79.9935 16.311C80.0875 16.311 79.1528 18.4429 77.3754 17.9454C77.8442 18.1314 77.1667 20.8086 74.9402 20.8086C73.1928 20.8086 71.7759 19.2775 71.0675 18.3206C70.8314 18.9904 70.0757 20.8086 68.2338 20.8086C66.489 20.8086 65.3888 18.6862 65.0449 18.0226C65.0164 17.9677 64.9932 17.9228 64.9751 17.89C64.9751 17.89 64.9279 17.9378 64.9279 17.9856L64.9223 17.9969C64.7168 18.4138 63.5362 20.8086 61.1969 20.8086C59.7329 20.8086 58.6466 18.7034 58.4577 17.8421C58.4321 17.7903 58.4204 17.7245 58.4075 17.6522C58.3966 17.591 58.3849 17.5252 58.3633 17.4593C57.9854 17.9856 57.3715 18.512 56.4269 18.6077C56.0963 18.6555 55.9546 18.9904 55.813 19.3254C55.7185 19.5646 54.8684 20.9522 52.6959 20.9522C51.3837 20.9522 50.4436 19.7272 50.1062 19.2876L50.0984 19.2775C50.0984 19.2536 50.0866 19.2416 50.0748 19.2297C50.063 19.2177 50.0512 19.2057 50.0512 19.1818C49.815 19.6603 49.4844 20.0431 49.1066 20.4258C48.7288 20.8086 48.3038 21 47.8315 21C46.8869 21 46.0841 20.7129 45.4701 20.1866C44.8089 19.6603 44.2894 18.9904 43.9116 18.177C43.9116 18.107 43.8863 18.0626 43.8542 18.0063C43.8424 17.9856 43.8298 17.9634 43.8171 17.9378C43.4393 18.7034 41.9752 21 39.3777 20.9522C36.6385 20.9522 35.1745 18.1292 34.8911 17.3636C34.5133 17.9378 33.8993 18.512 32.9075 18.6077C32.5769 18.6555 32.4353 18.9904 32.2936 19.3254C32.1991 19.5646 31.349 20.9522 29.1765 20.9522C27.8644 20.9522 26.9242 19.7272 26.5868 19.2876L26.579 19.2775C26.2012 18.8469 26.0123 18.3206 26.0123 17.7943C25.9651 17.2679 26.0595 16.7416 26.2012 16.1675C26.3429 15.6411 26.579 15.1148 26.8624 14.6364C27.1458 14.1579 27.5236 13.7751 27.9486 13.488C28.3737 13.201 28.8459 13.0574 29.4127 13.0574C29.7433 13.0574 30.0739 13.1531 30.4045 13.3445C30.6878 13.488 30.924 13.7751 31.0184 14.0622C31.6796 14.2057 32.2463 14.5407 32.5769 15.0191C32.9075 15.4976 33.1437 16.0718 33.1909 16.6938C33.5687 16.7416 34.1827 16.5024 34.6077 15.9761V15.7847C34.6077 15.3062 34.655 14.8756 34.7966 14.4928C34.9383 14.0622 35.08 13.823 35.2689 13.6316C35.2863 13.614 35.3088 13.5855 35.3377 13.549C35.624 13.1871 36.5383 12.0316 39.2833 12.7703C42.1642 13.5359 41.4085 15.7847 41.2196 16.1196C41.0107 16.4466 40.6492 16.1163 40.2148 15.7193C39.5687 15.1289 38.7613 14.3912 38.0553 15.4498C37.8192 15.7847 36.9691 18.5598 38.811 19.3732C40.9362 20.3301 42.3531 17.9856 43.2032 13.1531C43.2976 12.3876 43.4393 11.5742 43.581 10.7608C40.2278 10.8086 41.4085 9.85168 41.4085 9.85168C42.2586 9.80383 43.0143 9.75598 43.8171 9.66029C44.2894 7.50718 44.8089 5.68899 44.9034 5.5933C45.0923 5.35407 45.3284 5.25837 45.6118 5.25837C45.7598 5.25837 45.9636 5.33362 46.2114 5.42513C46.3589 5.47957 46.5219 5.53976 46.698 5.5933C48.7288 6.26316 48.2565 7.36364 48.2565 7.36364C48.2565 7.36364 48.0676 8.08134 47.8315 9.13397C48.1305 9.10643 48.4139 9.06304 48.6816 9.02205C48.879 8.99182 49.0679 8.96289 49.2483 8.94258C49.9567 8.84689 50.3818 8.79904 50.5235 8.79904C50.8068 8.79904 51.1846 8.84689 51.5625 8.94258C51.6757 8.98559 51.7889 9.0243 51.9008 9.06258C52.1625 9.15206 52.4172 9.23916 52.6487 9.37321C52.9793 9.51675 53.2627 9.70813 53.4988 9.89952C53.6877 10.0909 53.7822 10.2345 53.6877 10.4258C53.6405 10.5215 53.3099 10.5694 52.6959 10.6172C52.327 10.6439 51.9139 10.6557 51.4403 10.6693C51.0652 10.68 50.6521 10.6918 50.1929 10.7129C49.7891 10.7129 49.3747 10.7237 48.9396 10.735C48.4585 10.7476 47.952 10.7608 47.4064 10.7608C46.698 13.7751 45.8007 17.7464 45.7535 17.9856C45.6118 18.9904 45.6118 19.4689 46.4146 19.756C47.5481 20.1388 48.5399 18.2727 48.5399 18.2727C48.8222 17.6436 49.0144 17.1436 49.1675 16.7455C49.3987 16.1445 49.5405 15.7757 49.7678 15.5455L49.7678 15.5454C49.9095 15.2105 50.0512 14.8756 50.2401 14.5885C50.5235 14.11 50.9013 13.7273 51.3263 13.4402C51.7514 13.1531 52.2237 13.0096 52.7904 13.0096C53.121 13.0096 53.4988 13.1531 53.7822 13.2967C54.0655 13.4402 54.3017 13.7273 54.3961 14.0144C55.0573 14.1579 55.5768 14.4928 55.9546 14.9713C56.2852 15.4498 56.5214 16.0239 56.5686 16.6459C56.9464 16.6938 57.4659 16.4545 57.891 16.0239C57.2298 11.8134 57.0881 4.8756 58.0327 2.72249C58.2688 2.10048 58.93 0.665072 61.6692 1.14354C64.2667 1.57416 63.9834 4.11005 63.8889 4.7799C62.8629 10.8002 60.5985 14.0761 59.8631 15.1399C59.7861 15.2513 59.7259 15.3384 59.6856 15.4019C59.5912 15.4976 59.0244 18.1292 60.583 18.9426C61.9053 19.6603 63.5583 16.2632 63.9361 14.7799C63.9361 14.5885 63.9361 14.3971 63.9834 14.2536C63.9361 14.2057 63.9834 14.2057 63.9834 14.2057C64.0306 14.0144 64.1723 13.9187 64.3612 13.9187C64.3976 13.9279 64.4357 13.9371 64.4752 13.9466C64.641 13.9867 64.8317 14.0328 65.0224 14.11C65.2113 14.1738 65.3582 14.2376 65.5051 14.3014C65.5786 14.3333 65.6521 14.3652 65.7308 14.3971C65.9669 14.4928 66.1558 14.6364 66.3447 14.7799C66.5336 14.9234 66.6753 15.067 66.7698 15.2584C66.8642 15.4976 66.9587 15.7368 67.0059 16.1196C67.027 16.2691 67.0575 16.4281 67.089 16.5923C67.128 16.7962 67.1687 17.0081 67.1948 17.2201C67.2245 17.4604 67.2727 17.7006 67.3162 17.9172C67.342 18.0457 67.3662 18.1658 67.3837 18.2727C67.431 18.6077 67.5254 18.799 67.6671 18.8469C67.7616 18.8947 67.9033 18.8469 68.0922 18.7512C68.2247 18.6841 68.3572 18.5698 68.5061 18.4415C68.5694 18.387 68.6357 18.3298 68.7061 18.2727C68.895 18.0814 69.1311 17.7943 69.3673 17.5072L69.3673 17.5072C69.5562 17.2679 69.7451 16.9809 69.8868 16.6459L69.7451 15.9282C69.6035 15.1148 69.4618 14.11 69.3673 12.9617C69.2729 11.8134 69.2256 10.6172 69.2256 9.32536C69.2729 8.08134 69.3673 6.88517 69.509 5.73684C69.6979 4.58852 69.934 3.63158 70.3119 2.77033C70.6897 1.90909 71.162 1.33493 71.7287 1.09569C71.9176 1 72.201 1 72.626 1C72.667 1.00519 72.7091 1.01038 72.7522 1.0157C73.1063 1.05936 73.5274 1.11127 73.9484 1.23923C74.4207 1.38278 74.8457 1.57416 75.318 1.8134C75.743 2.05263 76.0736 2.33971 76.3098 2.67464C76.5459 3.05742 76.6876 3.53589 76.7348 4.20574C76.7821 4.8756 76.7348 5.5933 76.5931 6.4067C76.4515 7.2201 76.2626 8.08134 75.9792 8.99043C75.743 9.89952 75.4125 10.8086 75.0819 11.7177C74.7513 12.6268 74.3734 13.5359 73.9484 14.3493C73.5233 15.1627 73.0983 15.9282 72.6732 16.5502C72.6732 16.9808 72.7205 17.3636 72.7677 17.7463L72.7677 17.7464C72.8149 18.0813 72.9094 18.4163 73.0038 18.7034C73.0983 18.9904 73.24 19.2297 73.4289 19.3254C73.6178 19.4689 73.7595 19.4211 73.9012 19.2775C74.0429 19.134 74.1845 18.8947 74.279 18.6555C74.3734 18.3684 74.4679 18.0813 74.5151 17.7943L74.5151 17.7942C74.5624 17.5071 74.6096 17.2201 74.6096 17.0287C74.4207 16.7895 74.279 16.5024 74.1845 16.2632C74.0901 15.9761 74.0901 15.7368 74.1373 15.5455C74.1845 15.3541 74.279 15.1627 74.4679 15.0191C74.6568 14.8756 74.8457 14.8278 75.1291 14.7799C75.3765 14.7799 75.6598 14.8528 75.9792 14.935C76.0257 14.947 76.0729 14.9591 76.1209 14.9713C76.4987 15.1148 76.7821 15.3062 77.0182 15.5455C77.2543 15.7847 77.396 16.0239 77.4905 16.311C77.5849 16.5981 77.6322 16.8852 77.6322 17.1722C78.0572 17.2679 78.435 17.3158 78.7184 17.2201C79.0018 17.1244 79.2379 16.933 79.4268 16.5981L79.4268 16.5981C79.5213 16.5024 79.6157 16.4067 79.7102 16.3589ZM60.0635 8.12919C60.1107 7.45933 60.1579 6.74163 60.1579 6.07177C60.2051 5.40191 60.2524 4.82775 60.394 4.30144C60.4143 4.22624 60.4336 4.153 60.4523 4.08185L60.4523 4.08179C60.5647 3.65497 60.6572 3.30347 60.8191 3.05742C61.008 2.77033 61.1969 2.62679 61.4331 2.62679C61.8109 2.67464 62.047 2.91388 62.1887 3.39234C62.3304 3.87081 62.3776 4.49282 62.3304 5.21053C62.2832 5.92823 62.1887 6.74163 61.9998 7.65072C61.8109 8.55981 61.622 9.37321 61.3858 10.1866C61.0552 11.3828 60.394 12.9139 60.2051 13.1531C60.1799 12.5005 60.1546 11.9334 60.1321 11.4272C60.0703 10.0406 60.0289 9.11059 60.0635 8.12919ZM72.4608 7.2434L72.4607 7.24403V7.24407C72.4371 7.59094 72.4135 7.93781 72.3899 8.27273C72.2954 9.89952 72.3427 11.8134 72.4843 13.9187L72.4844 13.9185C72.6261 13.6314 72.8622 13.153 73.1455 12.5311C73.4289 11.8612 73.665 11.1435 73.9012 10.3301C74.0325 9.87775 74.1492 9.41056 74.2676 8.93681C74.362 8.55875 74.4576 8.1765 74.5624 7.79426C74.7513 6.88517 74.8929 6.07177 74.9402 5.35407C74.9874 4.63636 74.9402 4.01435 74.7985 3.53589C74.6568 3.05742 74.3734 2.81818 73.9484 2.77033C73.665 2.77033 73.4289 2.91388 73.24 3.20096C73.0511 3.48804 72.8622 3.91866 72.7677 4.44498C72.6732 4.97129 72.5788 5.54545 72.5316 6.21531C72.5081 6.54866 72.4846 6.89387 72.4611 7.23913L72.4608 7.2434ZM75.8611 16.3589C75.8965 16.3947 75.932 16.4306 75.9792 16.4545C76.1175 16.5946 76.2558 16.7091 76.4311 16.8542C76.4953 16.9074 76.5644 16.9646 76.6404 17.0287C76.6404 16.9991 76.6223 16.9696 76.5974 16.9287C76.582 16.9034 76.564 16.8739 76.5459 16.8373C76.4987 16.7416 76.4515 16.6459 76.357 16.5502C76.3098 16.5024 76.2744 16.4545 76.2389 16.4067C76.2035 16.3589 76.1681 16.311 76.1209 16.2632C76.1041 16.2377 76.0889 16.2138 76.0746 16.1914C76.0082 16.0872 75.9625 16.0154 75.8847 15.9761C75.7903 15.9282 75.6958 15.8804 75.6486 15.8325C75.5541 15.7847 75.5069 15.7847 75.4597 15.8325V15.9282C75.4597 15.9761 75.5069 16.0239 75.5541 16.0718C75.5684 16.0863 75.5827 16.1051 75.5983 16.1257C75.6343 16.1732 75.6772 16.2298 75.743 16.2632C75.7903 16.2871 75.8257 16.323 75.8611 16.3589ZM53.0738 19.756C52.507 20.0431 52.1292 20.0431 51.8931 19.756C51.5152 19.3732 51.3736 18.7512 51.468 17.89C51.6097 17.0287 51.8931 16.1675 52.4126 15.2584C52.6487 15.9282 52.9321 16.5502 53.3099 17.0766C53.6877 17.6029 54.1128 17.9856 54.585 18.3206C54.1128 18.9904 53.5933 19.4689 53.0738 19.756ZM28.2792 19.756C28.5154 20.0431 28.8932 20.0431 29.4599 19.756C29.9794 19.4689 30.4989 18.9904 30.9712 18.3206C30.4989 17.9856 30.0739 17.6029 29.696 17.0766C29.3182 16.5502 29.0349 15.9282 28.7987 15.2584C28.2792 16.1675 27.9958 17.0287 27.8542 17.89C27.7597 18.7512 27.9014 19.3732 28.2792 19.756Z" fill="#0596DE"/>
<path d="M65.4998 12.6853C66.1715 12.6853 66.6851 12.1717 66.6851 11.5C66.6851 10.8283 66.1715 10.3147 65.4998 10.3147C64.8281 10.3147 64.3145 10.8283 64.3145 11.5C64.3145 12.1717 64.8281 12.6853 65.4998 12.6853Z" fill="#0596DE"/>
<path d="M25.9143 7.48222C25.8671 7.24123 25.8198 6.95204 25.7725 6.71105C25.7252 6.42187 25.6306 6.18088 25.5833 5.93989C25.4415 5.40971 25.205 4.92774 24.9686 4.44576C24.6848 3.96378 24.4011 3.53 24.0701 3.09622C23.739 2.71064 23.3607 2.32506 22.9351 2.03587C22.5095 1.74669 22.1312 1.4575 21.7056 1.21651C21.5165 1.12012 21.28 1.02372 21.0909 0.927324C20.9017 0.830929 20.6653 0.734533 20.4761 0.686336C19.6249 0.397149 18.821 0.204358 18.0644 0.107963C16.5038 -0.084828 15.1325 0.0115675 13.9502 0.156161C12.768 0.300754 11.7277 0.58994 10.9237 0.830929C10.1198 1.07192 9.50508 1.31291 9.07948 1.5057C8.65388 1.69849 8.41743 1.79488 8.41743 1.79488L8.27557 1.89128L8.32285 2.13227H8.51201C8.51201 2.13227 8.74846 2.13227 9.17406 2.13227C9.59966 2.13227 10.2617 2.13227 11.0656 2.13227C11.8222 2.13227 12.768 2.13227 13.9029 2.27686C14.9906 2.37326 16.2201 2.56605 17.4496 2.90343C18.6791 3.24082 19.8614 3.81919 20.7598 4.63855C20.9963 4.83134 21.1854 5.07233 21.3746 5.31332C21.5638 5.55431 21.7056 5.84349 21.8948 6.08448C22.1785 6.66286 22.415 7.28943 22.5568 8.01239C22.8406 9.45832 22.7933 11.1452 22.4622 12.8804C22.415 13.0732 22.3677 13.3141 22.3677 13.5069C22.3204 13.7479 22.2731 13.9407 22.2258 14.1817C22.1785 14.4227 22.1312 14.6155 22.0839 14.8083L22.0366 15.1457L21.9421 15.483C21.8475 15.965 21.7529 16.3506 21.611 16.7844C21.4692 17.2182 21.3273 17.6037 21.1854 17.9893C20.8544 18.7605 20.3815 19.5317 19.8141 20.2064C19.2466 20.833 18.5373 21.4114 17.7334 21.7969C17.355 21.9897 16.9294 22.1825 16.5038 22.2789C16.0782 22.4235 15.6526 22.5199 15.227 22.5681C14.3758 22.7127 13.4773 22.6645 12.6734 22.5681C10.971 22.3271 9.45779 21.7005 8.08641 21.0258C6.76232 20.351 5.53281 19.6762 4.53974 18.9533C3.54667 18.2303 2.83734 17.4109 2.60089 16.7362C2.5536 16.6398 2.5536 16.5434 2.50631 16.4952C2.50631 16.447 2.45903 16.3506 2.45903 16.2542C2.41174 16.0132 2.41174 15.8204 2.41174 15.6276C2.41174 15.1939 2.41174 14.8083 2.45903 14.4709C2.5536 13.7479 2.74276 13.1695 2.93191 12.7358C3.02649 12.543 3.07378 12.3502 3.12107 12.2538C3.16836 12.1574 3.21565 12.061 3.21565 12.061L3.26294 11.9164L3.12107 11.7718L2.9792 11.8682C2.9792 11.8682 2.93191 11.9164 2.83734 11.9646C2.79005 12.0128 2.69547 12.0128 2.64818 12.061C2.5536 12.1092 2.45902 12.1574 2.36445 12.2538C1.89156 12.4948 1.32409 12.9768 0.803912 13.8443C0.567467 14.2781 0.331023 14.7601 0.189156 15.3384C0.141867 15.483 0.0945779 15.6276 0.0945779 15.7722C0.0472889 15.9168 0.0472889 16.0614 0 16.2542C0 16.3988 0 16.5916 0 16.7844C0 16.9772 0.0472889 17.17 0.0945779 17.3628C0.236445 18.1821 0.614756 18.9051 1.04036 19.5317C1.51325 20.1582 2.03342 20.7848 2.69547 21.2668C3.92498 22.2789 5.48552 23.0983 7.14063 23.5321C8.84303 23.9658 10.6873 24.0622 12.5316 23.9658C13.4773 23.9176 14.3758 23.7731 15.3216 23.5803C15.7945 23.4839 16.2674 23.3875 16.693 23.2429C16.9294 23.1947 17.1659 23.0983 17.4023 23.0019C17.6388 22.9055 17.8752 22.8573 18.0644 22.7609C18.9629 22.3753 19.8614 21.8933 20.6653 21.2668C21.4692 20.6402 22.2258 19.9172 22.8406 19.0497C23.1716 18.6159 23.4553 18.1821 23.6918 17.7001C23.8336 17.4591 23.9282 17.2182 24.0228 16.9772L24.3065 16.3024C24.3538 16.206 24.4011 16.0614 24.4484 15.965L24.5903 15.6276C24.6848 15.3866 24.7794 15.1457 24.874 14.9047C24.9686 14.6637 25.0159 14.4227 25.1104 14.1817C25.1577 13.9407 25.2523 13.6997 25.2996 13.4587C25.5833 12.4948 25.7725 11.4826 25.8671 10.4705C26.0089 9.60292 26.0562 8.54257 25.9143 7.48222Z" fill="#0596DE"/>
<path d="M12.016 17.4936C11.793 18.7923 13.9777 17.2858 14.1115 16.4027C14.7357 12.4546 15.3599 8.45451 15.984 4.5064C16.207 3.20768 14.0223 4.7142 13.8885 5.59733C13.2643 9.54543 12.6401 13.5455 12.016 17.4936Z" fill="#0596DE"/>
<path fill-rule="evenodd" clip-rule="evenodd" d="M104 4H90C85.5817 4 82 7.58172 82 12C82 16.4183 85.5817 20 90 20H104C108.418 20 112 16.4183 112 12C112 7.58172 108.418 4 104 4ZM83.4951 12C83.4951 8.27072 86.5183 5.24754 90.2475 5.24754H103.752C107.482 5.24754 110.505 8.27072 110.505 12C110.505 15.7293 107.482 18.7525 103.752 18.7525H90.2475C86.5183 18.7525 83.4951 15.7293 83.4951 12Z" fill="#7791A2"/>
<path fill-rule="evenodd" clip-rule="evenodd" d="M92.3784 8.70001C92.9364 8.70001 93.4209 8.79301 93.8319 8.97901C94.2429 9.16501 94.5594 9.42901 94.7814 9.77101C95.0034 10.113 95.1144 10.518 95.1144 10.986C95.1144 11.448 95.0034 11.8515 94.7814 12.1965C94.5594 12.5415 94.2429 12.8055 93.8319 12.9885C93.4209 13.1715 92.9364 13.263 92.3784 13.263H91.1094V15H89.6514V8.70001H92.3784ZM92.2974 12.075C92.7354 12.075 93.0684 11.9805 93.2964 11.7915C93.5244 11.6025 93.6384 11.334 93.6384 10.986C93.6384 10.632 93.5244 10.3605 93.2964 10.1715C93.0684 9.98251 92.7354 9.88801 92.2974 9.88801H91.1094V12.075H92.2974ZM98.0709 10.266C97.7859 10.386 97.5594 10.563 97.3914 10.797V10.158H96.0504V15H97.4544V12.714C97.4544 12.264 97.5684 11.9265 97.7964 11.7015C98.0244 11.4765 98.3394 11.364 98.7414 11.364C98.7954 11.364 98.9004 11.37 99.0564 11.382V10.086C98.6844 10.086 98.3559 10.146 98.0709 10.266ZM102.152 15.072C101.642 15.072 101.185 14.9655 100.78 14.7525C100.375 14.5395 100.058 14.244 99.8304 13.866C99.6024 13.488 99.4884 13.059 99.4884 12.579C99.4884 12.099 99.6024 11.67 99.8304 11.292C100.058 10.914 100.375 10.6185 100.78 10.4055C101.185 10.1925 101.642 10.086 102.152 10.086C102.662 10.086 103.118 10.1925 103.52 10.4055C103.922 10.6185 104.237 10.914 104.465 11.292C104.693 11.67 104.807 12.099 104.807 12.579C104.807 13.059 104.693 13.488 104.465 13.866C104.237 14.244 103.922 14.5395 103.52 14.7525C103.118 14.9655 102.662 15.072 102.152 15.072ZM103.039 13.5555C102.808 13.7985 102.512 13.92 102.152 13.92C101.792 13.92 101.495 13.7985 101.261 13.5555C101.027 13.3125 100.91 12.987 100.91 12.579C100.91 12.171 101.027 11.8455 101.261 11.6025C101.495 11.3595 101.792 11.238 102.152 11.238C102.512 11.238 102.808 11.3595 103.039 11.6025C103.27 11.8455 103.385 12.171 103.385 12.579C103.385 12.987 103.27 13.3125 103.039 13.5555Z" fill="#7791A2"/>
</svg>
