<svg width="122" height="122" viewBox="0 0 122 122" fill="none" xmlns="http://www.w3.org/2000/svg">
<circle cx="61.4109" cy="60.5594" r="60.5594" fill="url(#paint0_linear_1729_29)"/>
<path d="M61.8431 78.7664C61.8431 82.0175 55.0451 84.6545 46.6591 84.6545C38.2735 84.6545 31.4751 82.0175 31.4751 78.7664V72.8777H46.6591H61.8431V78.7664Z" fill="#EDB937"/>
<path d="M46.6591 68.0046C55.0451 68.0046 61.8431 70.414 61.8431 73.3849C61.8431 76.3563 55.0451 78.7651 46.6591 78.7651C38.2735 78.7651 31.4751 76.3557 31.4751 73.3849C31.4753 70.4136 38.2731 68.0046 46.6591 68.0046Z" fill="#FAD24D"/>
<path d="M61.8441 71.3826C61.8441 74.6337 55.0457 77.2707 46.6601 77.2707C38.2744 77.2707 31.4761 74.6337 31.4761 71.3826V65.4939H46.6601H61.8441V71.3826Z" fill="#EDB937"/>
<path d="M46.6601 60.6211C55.0457 60.6211 61.8441 63.0305 61.8441 66.0013C61.8441 68.9728 55.0457 71.3816 46.6601 71.3816C38.2744 71.3816 31.4761 68.9722 31.4761 66.0013C31.4763 63.0301 38.2744 60.6211 46.6601 60.6211Z" fill="#FAD24D"/>
<path d="M61.8431 63.9297C61.8431 67.1808 55.0451 69.8178 46.6591 69.8178C38.2735 69.8178 31.4751 67.1808 31.4751 63.9297V58.041H46.6591H61.8431V63.9297Z" fill="#EDB937"/>
<path d="M46.6591 53.1685C55.0451 53.1685 61.8431 55.5778 61.8431 58.5487C61.8431 61.5201 55.0451 63.9289 46.6591 63.9289C38.2735 63.9289 31.4751 61.5196 31.4751 58.5487C31.4753 55.5771 38.2731 53.1685 46.6591 53.1685Z" fill="#FAD24D"/>
<path d="M61.8441 56.4788C61.8441 59.7299 55.0461 62.3669 46.6601 62.3669C38.274 62.3669 31.4761 59.7299 31.4761 56.4788V50.5901H46.6601H61.8441V56.4788Z" fill="#EDB937"/>
<path d="M46.6601 45.7168C55.0457 45.7168 61.8441 48.1262 61.8441 51.097C61.8441 54.0685 55.0461 56.4773 46.6601 56.4773C38.274 56.4773 31.4761 54.0679 31.4761 51.097C31.4763 48.1258 38.2739 45.7168 46.6601 45.7168Z" fill="#FAD24D"/>
<path d="M61.8431 49.0257C61.8431 52.2768 55.0451 54.9138 46.6591 54.9138C38.2735 54.9138 31.4751 52.2768 31.4751 49.0257V43.137H46.6591H61.8431V49.0257Z" fill="#EDB937"/>
<path d="M46.6591 38.2642C55.0451 38.2642 61.8431 40.6735 61.8431 43.6444C61.8431 46.6158 55.0451 49.0246 46.6591 49.0246C38.2735 49.0246 31.4751 46.6153 31.4751 43.6444C31.4753 40.673 38.2731 38.2642 46.6591 38.2642Z" fill="#FAD24D"/>
<path d="M61.8431 41.5738C61.8431 44.8249 55.0451 47.4619 46.6591 47.4619C38.2735 47.4619 31.4751 44.8249 31.4751 41.5738V35.6851H46.6591H61.8431V41.5738Z" fill="#EDB937"/>
<path d="M46.6591 30.8123C55.0451 30.8123 61.8431 33.2216 61.8431 36.1929C61.8431 39.1641 55.0451 41.5731 46.6591 41.5731C38.2735 41.5731 31.4751 39.1637 31.4751 36.1929C31.4753 33.2214 38.2731 30.8123 46.6591 30.8123Z" fill="#FAD24D"/>
<path d="M61.8431 34.1216C61.8431 37.3727 55.0451 40.0097 46.6591 40.0097C38.2731 40.0097 31.4751 37.3727 31.4751 34.1216V28.2329H46.6591H61.8431V34.1216Z" fill="#EDB937"/>
<path d="M46.6601 23.3594C55.0457 23.3594 61.8441 25.7687 61.8441 28.74C61.8441 31.7113 55.0457 34.1204 46.6601 34.1204C38.274 34.1204 31.4761 31.7111 31.4761 28.7402C31.4763 25.7689 38.2739 23.3594 46.6601 23.3594Z" fill="#FAD24D"/>
<path d="M42.2707 31.3889C43.2209 31.6064 44.1682 31.7334 45.1157 31.7733C46.0687 31.8113 46.9456 31.7683 47.7551 31.6406C48.5622 31.5141 49.234 31.3258 49.7749 31.075C50.2066 30.8752 50.4965 30.6626 50.6521 30.4375C50.8009 30.2123 50.8124 29.9858 50.6842 29.7592C50.5744 29.5435 50.3528 29.3421 50.0224 29.156C49.6954 28.9693 49.2224 28.7309 48.6056 28.4462L51.5624 27.0767C52.159 27.3808 52.2601 27.6995 51.8772 28.0303C51.5543 28.3121 51.7026 28.5384 52.3193 28.7062C52.6456 28.7953 53.0088 28.8296 53.4112 28.8125C53.8124 28.7947 54.1322 28.7311 54.3704 28.6207C54.5834 28.5222 54.7408 28.3929 54.844 28.2323C54.9441 28.0725 54.9761 27.8972 54.9372 27.708C54.8955 27.463 54.7134 27.241 54.3903 27.0365C54.0674 26.8346 53.595 26.6292 52.9776 26.4218L53.7461 26.0657C54.1342 25.8861 54.1301 25.7419 53.7293 25.6325C53.3341 25.5247 52.9369 25.5627 52.5388 25.7475L51.7844 26.097C50.4037 25.7837 49.1088 25.6541 47.9012 25.7089C46.6964 25.7629 45.6831 25.9795 44.868 26.3574C44.2421 26.6473 43.9068 26.9326 43.8596 27.2119C43.81 27.4916 43.9633 27.7577 44.3123 28.0118C44.6602 28.2652 45.1662 28.5457 45.8288 28.8561L42.5246 30.387C42.1946 30.2313 41.9891 30.0788 41.9048 29.9306C41.8213 29.7833 41.8219 29.6442 41.8992 29.5136C41.9816 29.3836 42.1315 29.2054 42.3535 28.9803C42.4548 28.8755 42.4613 28.7739 42.3687 28.6757C42.2721 28.576 42.0835 28.489 41.8007 28.4122C41.4521 28.3177 41.0685 28.2807 40.6522 28.3009C40.2327 28.3208 39.9111 28.3844 39.6849 28.4892C39.3772 28.6319 39.1481 28.8015 39.004 28.9982C38.8603 29.1925 38.8254 29.4096 38.8917 29.6473C38.9619 29.8841 39.1726 30.1233 39.5227 30.3648C39.8716 30.6067 40.3828 30.8418 41.053 31.0691L41.0444 31.0731L40.6046 31.277C40.3542 31.3929 40.4204 31.5613 40.7508 31.6514H40.7514C41.0824 31.7415 41.5574 31.7201 41.8072 31.6043L42.2702 31.3898L42.2707 31.3889ZM47.6774 27.999L50.3998 26.7378C49.7548 26.6498 49.1885 26.6097 48.6997 26.6193C48.2106 26.629 47.7671 26.7262 47.374 26.9083C47.0011 27.0813 46.8549 27.2499 46.9392 27.4138C47.0231 27.5778 47.2681 27.773 47.677 27.9987L47.6774 27.999ZM46.7595 29.3012L43.6449 30.744C44.3721 30.8721 45.051 30.9161 45.6858 30.8768C46.3208 30.8351 46.8281 30.7277 47.2137 30.5488C47.6267 30.3577 47.7773 30.1648 47.667 29.969C47.5582 29.7738 47.2561 29.5506 46.7593 29.3016V29.3012H46.7595Z" fill="#EDB937"/>
<path d="M96.6683 78.7664C96.6683 82.0175 89.8699 84.6545 81.4843 84.6545C73.0983 84.6545 66.3003 82.0175 66.3003 78.7664V72.8777H81.4843H96.6683V78.7664Z" fill="#EDB937"/>
<path d="M81.4853 68.0046C89.8709 68.0046 96.6692 70.414 96.6692 73.3849C96.6692 76.3563 89.8709 78.7651 81.4853 78.7651C73.0992 78.7651 66.3013 76.3557 66.3013 73.3849C66.3013 70.4136 73.0992 68.0046 81.4853 68.0046Z" fill="#FAD24D"/>
<path d="M96.6692 71.3826C96.6692 74.6337 89.8713 77.2707 81.4853 77.2707C73.0996 77.2707 66.3013 74.6337 66.3013 71.3826V65.4939H81.4853H96.6692V71.3826Z" fill="#EDB937"/>
<path d="M81.4853 60.6211C89.8713 60.6211 96.6692 63.0305 96.6692 66.0013C96.6692 68.9728 89.8713 71.3816 81.4853 71.3816C73.0996 71.3816 66.3013 68.9722 66.3013 66.0013C66.3013 63.0301 73.0992 60.6211 81.4853 60.6211Z" fill="#FAD24D"/>
<path d="M96.6692 63.9297C96.6692 67.1808 89.8709 69.8178 81.4853 69.8178C73.0992 69.8178 66.3013 67.1808 66.3013 63.9297V58.041H81.4853H96.6692V63.9297Z" fill="#EDB937"/>
<path d="M81.4853 53.1685C89.8709 53.1685 96.6692 55.5778 96.6692 58.5487C96.6692 61.5201 89.8709 63.9289 81.4853 63.9289C73.0992 63.9289 66.3013 61.5196 66.3013 58.5487C66.3013 55.5771 73.0992 53.1685 81.4853 53.1685Z" fill="#FAD24D"/>
<path d="M96.6692 56.4788C96.6692 59.7299 89.8713 62.3669 81.4853 62.3669C73.0996 62.3669 66.3013 59.7299 66.3013 56.4788V50.5901H81.4853H96.6692V56.4788Z" fill="#EDB937"/>
<path d="M81.4853 45.7173C89.8713 45.7173 96.6692 48.1267 96.6692 51.0975C96.6692 54.069 89.8713 56.4778 81.4853 56.4778C73.0996 56.4778 66.3013 54.0684 66.3013 51.0975C66.3013 48.1263 73.0998 45.7173 81.4853 45.7173Z" fill="#FAD24D"/>
<path d="M77.0958 53.7469C78.046 53.9645 78.9933 54.0914 79.9407 54.1313C80.8938 54.1693 81.7701 54.1263 82.5796 53.9986C83.3867 53.8721 84.0585 53.6838 84.5994 53.4335C85.0311 53.2336 85.321 53.0211 85.4766 52.796C85.6257 52.5707 85.6369 52.3442 85.5087 52.118C85.3993 51.9023 85.1773 51.7009 84.8469 51.5148C84.5205 51.3281 84.0469 51.0897 83.4301 50.805L86.3863 49.4349C86.9833 49.7395 87.084 50.0577 86.7011 50.3885C86.3782 50.6703 86.5265 50.896 87.1434 51.064C87.4698 51.1531 87.833 51.1875 88.2357 51.1703C88.6369 51.1526 88.9567 51.0889 89.1949 50.978C89.4079 50.8794 89.5653 50.7502 89.6679 50.5895C89.768 50.4298 89.8006 50.2545 89.7611 50.0653C89.7194 49.8203 89.5373 49.5983 89.2142 49.3938C88.8913 49.1919 88.419 48.9864 87.8015 48.7791L88.57 48.423C88.9581 48.2434 88.954 48.0991 88.5532 47.9898C88.158 47.8819 87.7608 47.9205 87.3627 48.1047L86.6083 48.4543C85.2276 48.141 83.9333 48.0114 82.7251 48.0662C81.5203 48.1202 80.5071 48.3368 79.6919 48.7146C79.066 49.0046 78.7302 49.2898 78.6835 49.5691C78.6339 49.8484 78.7873 50.115 79.1362 50.3691C79.4842 50.6225 79.9901 50.903 80.6527 51.2133L77.3485 52.7443C77.0185 52.5886 76.813 52.436 76.7291 52.2879C76.6456 52.1405 76.6462 52.0011 76.723 51.8709C76.8053 51.7409 76.9552 51.5623 77.1772 51.3375C77.2779 51.2334 77.285 51.1312 77.1919 51.033C77.0952 50.9338 76.9066 50.8463 76.6238 50.7699C76.2753 50.6748 75.8916 50.6383 75.4759 50.6586C75.056 50.6783 74.7343 50.7425 74.5086 50.8472C74.201 50.99 73.9718 51.1595 73.8277 51.3563C73.684 51.5505 73.6491 51.7677 73.7155 52.0047C73.7857 52.2416 73.9967 52.4808 74.347 52.7223C74.6959 52.9642 75.2065 53.1989 75.877 53.4261L75.8683 53.4302L75.4285 53.6337C75.1781 53.75 75.2443 53.918 75.5749 54.0081H75.5755C75.9065 54.0982 76.381 54.0773 76.6313 53.961L77.0947 53.746H77.0956V53.7469H77.0958ZM82.5019 50.3575L85.2243 49.0962C84.5793 49.0086 84.0136 48.9681 83.5242 48.9777C83.0351 48.988 82.5916 49.0846 82.1985 49.2671C81.8251 49.4401 81.6792 49.6087 81.7637 49.7726C81.8482 49.9366 82.0936 50.132 82.5019 50.3575ZM81.5847 51.6599L78.4702 53.1027C79.1968 53.2307 79.8763 53.2747 80.5111 53.2354C81.1457 53.1937 81.6534 53.0863 82.0392 52.9075C82.4516 52.7167 82.6028 52.5234 82.4919 52.3276C82.3829 52.1322 82.0816 51.9093 81.5847 51.6599Z" fill="#EDB937"/>
<path d="M76.1307 88.8631C76.1307 92.1142 69.3323 94.7512 60.9467 94.7512C52.561 94.7512 45.7627 92.1142 45.7627 88.8631V82.9744H60.9467H76.1307V88.8631Z" fill="#EDB937"/>
<path d="M60.9472 78.1008C69.3328 78.1008 76.1312 80.5102 76.1312 83.4815C76.1312 86.4529 69.3328 88.8617 60.9472 88.8617C52.5615 88.8617 45.7632 86.4523 45.7632 83.4815C45.7632 80.5102 52.5617 78.1008 60.9472 78.1008Z" fill="#FAD24D"/>
<path d="M56.5584 86.1303C57.5086 86.3479 58.4558 86.4748 59.4033 86.5147C60.3564 86.5527 61.2327 86.5097 62.0422 86.382C62.8493 86.2555 63.5211 86.0672 64.062 85.8164C64.4936 85.6166 64.7835 85.404 64.9392 85.1789C65.0879 84.9537 65.0995 84.7272 64.9712 84.5009C64.8619 84.2853 64.6398 84.0839 64.3094 83.8978C63.9831 83.7111 63.5095 83.4727 62.8927 83.188L65.8489 81.8179C66.4459 82.1224 66.5465 82.4407 66.1637 82.7715C65.8408 83.0533 65.9891 83.2796 66.606 83.4474C66.9323 83.5365 67.2955 83.5708 67.6983 83.5537C68.0989 83.5359 68.4193 83.4723 68.6575 83.3619C68.8705 83.2634 69.0279 83.1341 69.1305 82.9735C69.2306 82.8136 69.2632 82.6384 69.2236 82.4492C69.182 82.2042 68.9999 81.9818 68.6768 81.7777C68.3539 81.5758 67.8815 81.3704 67.2641 81.163L68.0326 80.8069C68.4207 80.6274 68.4166 80.4831 68.0158 80.3737C67.6205 80.2659 67.2234 80.3039 66.8253 80.4887L66.0709 80.8382C64.6902 80.5249 63.3959 80.3953 62.1877 80.4501C60.9829 80.5041 59.9696 80.7207 59.1545 81.0986C58.528 81.3885 58.1927 81.6738 58.1461 81.9531C58.0965 82.2328 58.2498 82.499 58.5988 82.753C58.9467 83.0064 59.4523 83.2869 60.1153 83.5973L56.8111 85.1282C56.481 84.9726 56.2756 84.82 56.1917 84.6718C56.1078 84.5245 56.1088 84.3854 56.1855 84.2548C56.2679 84.1248 56.4178 83.9466 56.6398 83.7215C56.7405 83.6167 56.7476 83.5151 56.6545 83.4169C56.5578 83.3172 56.3692 83.2302 56.0864 83.1534C55.7378 83.0583 55.3542 83.0219 54.9385 83.0421C54.5186 83.062 54.1969 83.1257 53.9712 83.2304C53.6635 83.3731 53.4344 83.5427 53.2903 83.7394C53.1466 83.9337 53.1113 84.1509 53.178 84.3885C53.2482 84.6254 53.4589 84.8645 53.8095 85.106C54.1585 85.3479 54.6691 85.5831 55.3393 85.8103L55.3307 85.8143L54.8909 86.0182C54.6405 86.1341 54.7067 86.3025 55.0373 86.3926H55.0379C55.3689 86.4827 55.8434 86.4613 56.0937 86.3457L56.557 86.1312L56.5584 86.1303ZM61.9645 82.7405L64.6869 81.4792C64.0419 81.3912 63.4761 81.3511 62.9868 81.3607C62.4976 81.3709 62.0542 81.468 61.6611 81.6501C61.2882 81.8231 61.142 81.9917 61.2263 82.1554C61.311 82.3196 61.5561 82.515 61.9645 82.7405ZM61.0471 84.0428L57.9325 85.4856C58.6591 85.6137 59.3387 85.6577 59.9735 85.6183C60.6081 85.5769 61.1154 85.4692 61.5014 85.2904C61.9138 85.0993 62.065 84.9064 61.9541 84.7106C61.8453 84.5154 61.5432 84.2922 61.0469 84.0432L61.0471 84.0428Z" fill="#EDB937"/>
<defs>
<linearGradient id="paint0_linear_1729_29" x1="61.4109" y1="0" x2="61.4109" y2="121.119" gradientUnits="userSpaceOnUse">
<stop stop-color="#AFE5E2"/>
<stop offset="1" stop-color="#1AB9B9"/>
</linearGradient>
</defs>
</svg>
