<svg width="478" height="478" viewBox="0 0 478 478" fill="none" xmlns="http://www.w3.org/2000/svg">
<path d="M218.614 153.393H232.065V156.328V173.564V176.499H203.538V156.328H217.658L218.614 153.393Z" fill="#5AA9AD"/>
<path d="M218.614 197.369H232.065V200.304V217.54V220.475H203.538V200.304H217.658L218.614 197.369Z" fill="#5AA9AD"/>
<path d="M218.614 241.345H232.065V244.28V261.516V264.451H203.538V244.28H217.658L218.614 241.345Z" fill="#5AA9AD"/>
<path d="M218.614 285.321H232.065V288.256V305.493V308.427H203.538V288.256H217.658L218.614 285.321Z" fill="#5AA9AD"/>
<path d="M218.614 329.297H232.065V332.232V349.468V352.403H203.538V332.232H217.658L218.614 329.297Z" fill="#5AA9AD"/>
<path d="M132.422 153.393H145.864V156.328V173.564V176.499H117.346V156.328H131.466L132.422 153.393Z" fill="#5AA9AD"/>
<path d="M76.495 156.328L77.451 153.393H90.8923V156.328V173.564V176.499H62.3749V156.328H76.495Z" fill="#5AA9AD"/>
<path d="M132.422 197.369H145.864V200.304V217.54V220.475H117.346V200.304H131.466L132.422 197.369Z" fill="#5AA9AD"/>
<path d="M77.451 241.345H90.8923V244.28V261.516V264.451H62.3749V244.28H76.495L77.451 241.345Z" fill="#5AA9AD"/>
<path d="M77.451 197.369H90.8923V200.304V217.54V220.475H62.3749V200.304H76.495L77.451 197.369Z" fill="#5AA9AD"/>
<path d="M132.422 241.345H145.864V244.28V261.516V264.451H117.346V244.28H131.466L132.422 241.345Z" fill="#5AA9AD"/>
<path d="M132.422 285.321H145.864V288.256V305.493V308.427H117.346V288.256H131.466L132.422 285.321Z" fill="#5AA9AD"/>
<path d="M77.451 285.321H90.8923V288.256V305.493V308.427H62.3749V288.256H76.495L77.451 285.321Z" fill="#5AA9AD"/>
<path d="M132.422 329.297H145.864V332.232V349.468V352.403H117.346V332.232H131.466L132.422 329.297Z" fill="#5AA9AD"/>
<path d="M77.451 329.297H90.8923V332.232V349.468V352.403H62.3749V332.232H76.495L77.451 329.297Z" fill="#5AA9AD"/>
<g opacity="0.5">
<path d="M218.614 153.393H232.065V156.328V173.564V176.499H203.538V156.328H217.658L218.614 153.393Z" fill="white"/>
<path d="M218.614 197.369H232.065V200.304V217.54V220.475H203.538V200.304H217.658L218.614 197.369Z" fill="white"/>
<path d="M218.614 241.345H232.065V244.28V261.516V264.451H203.538V244.28H217.658L218.614 241.345Z" fill="white"/>
<path d="M218.614 285.321H232.065V288.256V305.492V308.427H203.538V288.256H217.658L218.614 285.321Z" fill="white"/>
<path d="M218.614 329.297H232.065V332.232V349.468V352.403H203.538V332.232H217.658L218.614 329.297Z" fill="white"/>
<path d="M132.422 153.393H145.863V156.328V173.564V176.499H117.346V156.328H131.466L132.422 153.393Z" fill="white"/>
<path d="M76.4944 156.328L77.4504 153.393H90.8917V156.328V173.564V176.499H62.3743V156.328H76.4944Z" fill="white"/>
<path d="M132.422 197.369H145.863V200.304V217.54V220.475H117.346V200.304H131.466L132.422 197.369Z" fill="white"/>
<path d="M77.4504 241.345H90.8917V244.28V261.516V264.451H62.3743V244.28H76.4944L77.4504 241.345Z" fill="white"/>
<path d="M77.4504 197.369H90.8917V200.304V217.54V220.475H62.3743V200.304H76.4944L77.4504 197.369Z" fill="white"/>
<path d="M132.422 241.345H145.863V244.28V261.516V264.451H117.346V244.28H131.466L132.422 241.345Z" fill="white"/>
<path d="M132.422 285.321H145.863V288.256V305.492V308.427H117.346V288.256H131.466L132.422 285.321Z" fill="white"/>
<path d="M77.4504 285.321H90.8917V288.256V305.492V308.427H62.3743V288.256H76.4944L77.4504 285.321Z" fill="white"/>
<path d="M132.422 329.297H145.863V332.232V349.468V352.403H117.346V332.232H131.466L132.422 329.297Z" fill="white"/>
<path d="M77.4504 329.297H90.8917V332.232V349.468V352.403H62.3743V332.232H76.4944L77.4504 329.297Z" fill="white"/>
</g>
<path d="M232.177 411.487C154.568 411.487 91.6542 407.284 91.6542 402.099C91.6542 396.914 154.568 392.711 232.177 392.711C309.785 392.711 372.699 396.914 372.699 402.099C372.699 407.284 309.785 411.487 232.177 411.487Z" fill="#5AA9AD"/>
<path opacity="0.5" d="M232.177 411.487C154.568 411.487 91.6542 407.284 91.6542 402.099C91.6542 396.914 154.568 392.711 232.177 392.711C309.785 392.711 372.699 396.914 372.699 402.099C372.699 407.284 309.785 411.487 232.177 411.487Z" fill="white"/>
<path d="M317.988 288.226H141.3V402.462H317.988V288.226Z" fill="#5AA9AD"/>
<path d="M262.309 276.393H317.988V288.226H259.107L262.309 276.393Z" fill="#5AA9AD"/>
<g opacity="0.1">
<path d="M317.989 288.226H141.301V402.462H317.989V288.226Z" fill="black"/>
<path d="M262.309 276.393H317.989V288.226H259.108L262.309 276.393Z" fill="black"/>
</g>
<path d="M169 213.108C168.572 211.261 168.572 209.341 169 207.494C169.229 208.412 169.336 209.355 169.319 210.301C169.333 211.246 169.226 212.19 169 213.108Z" fill="#263238"/>
<path d="M174.716 214.756C174.979 213.848 175.358 212.978 175.842 212.166C176.299 211.339 176.862 210.575 177.516 209.894C177.256 210.803 176.877 211.673 176.39 212.484C175.932 213.31 175.369 214.074 174.716 214.756Z" fill="#263238"/>
<path d="M178.847 219.027C179.527 218.373 180.289 217.808 181.113 217.347C181.92 216.869 182.784 216.493 183.684 216.227C182.305 217.515 180.651 218.472 178.847 219.027Z" fill="#263238"/>
<path d="M180.279 224.813C181.195 224.59 182.136 224.484 183.079 224.495C184.025 224.478 184.969 224.585 185.886 224.813C184.97 225.035 184.029 225.142 183.086 225.131C182.14 225.145 181.197 225.038 180.279 224.813Z" fill="#263238"/>
<path d="M178.63 230.535C179.538 230.796 180.409 231.173 181.221 231.655C182.046 232.118 182.809 232.682 183.493 233.335C181.682 232.78 180.02 231.822 178.63 230.535Z" fill="#263238"/>
<path d="M174.347 234.659C174.999 235.344 175.564 236.107 176.027 236.931C176.511 237.741 176.89 238.61 177.153 239.516C175.86 238.132 174.9 236.471 174.347 234.659Z" fill="#263238"/>
<path d="M168.568 236.091C168.996 237.938 168.996 239.858 168.568 241.705C168.339 240.787 168.232 239.844 168.249 238.898C168.236 237.953 168.343 237.01 168.568 236.091Z" fill="#263238"/>
<path d="M162.852 234.443C162.589 235.351 162.21 236.221 161.726 237.033C161.269 237.862 160.707 238.628 160.052 239.312C160.315 238.402 160.694 237.529 161.178 236.715C161.641 235.892 162.203 235.128 162.852 234.443Z" fill="#263238"/>
<path d="M158.727 230.159C158.043 230.812 157.28 231.377 156.455 231.839C155.645 232.329 154.774 232.71 153.865 232.972C155.254 231.681 156.916 230.72 158.727 230.159Z" fill="#263238"/>
<path d="M157.296 224.386C156.377 224.608 155.434 224.715 154.489 224.705C153.544 224.72 152.6 224.616 151.682 224.393C152.6 224.166 153.543 224.056 154.489 224.068C155.434 224.058 156.377 224.164 157.296 224.386Z" fill="#263238"/>
<path d="M158.937 218.671C158.03 218.406 157.159 218.027 156.347 217.544C155.524 217.082 154.76 216.519 154.075 215.87C154.982 216.132 155.853 216.508 156.665 216.99C157.492 217.45 158.256 218.015 158.937 218.671Z" fill="#263238"/>
<path d="M163.227 214.572C162.572 213.891 162.008 213.13 161.546 212.306C161.057 211.496 160.676 210.625 160.413 209.715C161.07 210.397 161.634 211.161 162.094 211.988C162.578 212.798 162.958 213.666 163.227 214.572Z" fill="#263238"/>
<path d="M305.558 232.508H190.64V380.02H305.558V232.508Z" fill="#A7D9D4"/>
<path d="M305.551 380.02L190.64 380.223H190.436V380.02L190.328 232.508V232.196H190.64L305.551 232.266H305.793V232.508L305.551 380.02ZM305.551 380.02L305.316 232.508L305.551 232.743L190.64 232.82L190.952 232.508L190.837 380.02L190.64 379.822L305.551 380.02Z" fill="#DBDBDB"/>
<path d="M203.211 264.033L248.096 263.918L292.981 264.033L248.096 264.148L203.211 264.033Z" fill="#C7C7C7"/>
<path d="M203.211 267.693L248.096 267.578L292.981 267.693L248.096 267.807L203.211 267.693Z" fill="#C7C7C7"/>
<path d="M203.211 271.359L248.096 271.244L292.981 271.359L248.096 271.467L203.211 271.359Z" fill="#C7C7C7"/>
<path d="M203.211 275.019L248.096 274.904L292.981 275.019L248.096 275.133L203.211 275.019Z" fill="#C7C7C7"/>
<path d="M203.211 278.678L248.096 278.564L292.981 278.678L248.096 278.793L203.211 278.678Z" fill="#C7C7C7"/>
<path d="M203.211 282.338L248.096 282.224L292.981 282.338L248.096 282.453L203.211 282.338Z" fill="#C7C7C7"/>
<path d="M203.211 285.998L248.096 285.884L292.981 285.998L248.096 286.113L203.211 285.998Z" fill="#C7C7C7"/>
<path d="M203.211 289.658L248.096 289.55L292.981 289.658L248.096 289.772L203.211 289.658Z" fill="#C7C7C7"/>
<path d="M203.211 293.324L248.096 293.209L292.981 293.324L248.096 293.432L203.211 293.324Z" fill="#C7C7C7"/>
<path d="M203.211 296.984L248.096 296.869L292.981 296.984L248.096 297.092L203.211 296.984Z" fill="#C7C7C7"/>
<path d="M203.211 300.644L248.096 300.529L292.981 300.644L248.096 300.758L203.211 300.644Z" fill="#C7C7C7"/>
<path d="M203.211 304.303L248.096 304.189L292.981 304.303L248.096 304.418L203.211 304.303Z" fill="#C7C7C7"/>
<path d="M203.211 307.963L248.096 307.849L292.981 307.963L248.096 308.078L203.211 307.963Z" fill="#C7C7C7"/>
<path d="M203.211 311.623L248.096 311.515L292.981 311.623L248.096 311.737L203.211 311.623Z" fill="#C7C7C7"/>
<path d="M203.211 315.283L248.096 315.174L292.981 315.283L248.096 315.397L203.211 315.283Z" fill="#C7C7C7"/>
<path d="M219.511 304.189H212.701V319.553H219.511V304.189Z" fill="#FFC727"/>
<path d="M232.139 295.997H225.329V319.553H232.139V295.997Z" fill="#FFC727"/>
<path d="M244.767 286.819H237.956V319.553H244.767V286.819Z" fill="#FFC727"/>
<path d="M257.402 282.879H250.592V319.554H257.402V282.879Z" fill="#FFC727"/>
<path d="M270.03 275.859H263.219V319.553H270.03V275.859Z" fill="#FFC727"/>
<path d="M282.658 268.921H275.847V319.554H282.658V268.921Z" fill="#FFC727"/>
<path d="M205.642 261.468L205.821 275.986L205.942 290.511C206.024 300.192 206.05 309.873 206.069 319.553L205.642 319.133H227.48L249.312 319.184L271.149 319.324L292.981 319.573L271.149 319.821L249.312 319.961L227.48 320.012H205.642H205.222V319.592C205.222 309.911 205.26 300.23 205.343 290.549L205.471 276.024L205.642 261.468Z" fill="#C7C7C7"/>
<path d="M219.511 322.621H212.701V323.239H219.511V322.621Z" fill="#C7C7C7"/>
<path d="M232.139 322.621H225.329V323.239H232.139V322.621Z" fill="#C7C7C7"/>
<path d="M244.767 322.621H237.956V323.239H244.767V322.621Z" fill="#C7C7C7"/>
<path d="M257.402 322.621H250.592V323.239H257.402V322.621Z" fill="#C7C7C7"/>
<path d="M270.03 322.621H263.219V323.239H270.03V322.621Z" fill="#C7C7C7"/>
<path d="M282.658 322.621H275.847V323.239H282.658V322.621Z" fill="#C7C7C7"/>
<path d="M213.471 306.13C216.797 306.079 220.117 305.826 223.413 305.373C226.706 304.952 229.975 304.363 233.208 303.61C239.68 302.153 245.958 299.942 251.914 297.022C257.884 294.145 263.391 290.393 268.253 285.89L269.176 285.056L270.048 284.171L271.785 282.396C272.855 281.123 274.007 279.939 274.968 278.577C277.027 275.959 278.891 273.194 280.543 270.302H280.601C277.593 276.293 273.592 281.731 268.769 286.386C266.363 288.727 263.761 290.856 260.991 292.751C258.236 294.665 255.34 296.367 252.328 297.843C240.212 303.646 226.888 306.483 213.458 306.117L213.471 306.13Z" fill="#263238"/>
<path d="M282.486 275.076L281.544 275.311L280.385 270.665L275.834 272.161L275.535 271.238L281.073 269.418L282.486 275.076Z" fill="#263238"/>
<path d="M201.289 346.184H294.903V342.397H201.289V346.184Z" fill="#DBDBDB"/>
<path d="M201.296 355.744H253.997V351.957H201.296V355.744Z" fill="#DBDBDB"/>
<path d="M221.745 252.595H274.446V248.808H221.745V252.595Z" fill="#DBDBDB"/>
<path d="M283.701 372.127L168.783 372.07L168.86 224.558L254.181 224.603L283.758 252.723L283.701 372.127Z" fill="#F37667"/>
<path opacity="0.6" d="M283.701 372.127L168.783 372.07L168.86 224.558L254.181 224.603L283.758 252.723L283.701 372.127Z" fill="white"/>
<path d="M254.181 224.603L283.758 252.723L254.168 252.71L254.181 224.603Z" fill="#F37667"/>
<path opacity="0.4" d="M254.181 224.603L283.758 252.723L254.168 252.71L254.181 224.603Z" fill="white"/>
<path d="M179.992 253.27H243.882V249.483H179.992V253.27Z" fill="white"/>
<path d="M180.059 262.658L243.95 262.691L243.952 258.904L180.061 258.871L180.059 262.658Z" fill="white"/>
<path d="M180.044 272.218L243.935 272.251L243.937 268.464L180.046 268.431L180.044 272.218Z" fill="white"/>
<path d="M180.036 281.775L273.651 281.824L273.652 278.037L180.038 277.988L180.036 281.775Z" fill="white"/>
<path d="M180.035 291.341L273.649 291.39L273.651 287.603L180.037 287.554L180.035 291.341Z" fill="white"/>
<path d="M180.034 300.901L273.648 300.95L273.65 297.163L180.036 297.114L180.034 300.901Z" fill="white"/>
<path d="M180.026 310.461L273.641 310.51L273.643 306.723L180.028 306.674L180.026 310.461Z" fill="white"/>
<path d="M180.019 320.021L273.633 320.07L273.635 316.283L180.021 316.234L180.019 320.021Z" fill="white"/>
<path d="M180.018 329.588L273.632 329.637L273.634 325.85L180.02 325.801L180.018 329.588Z" fill="white"/>
<path d="M180.016 339.148L273.631 339.197L273.633 335.41L180.018 335.361L180.016 339.148Z" fill="white"/>
<path d="M180.008 348.701L273.622 348.75L273.624 344.963L180.01 344.914L180.008 348.701Z" fill="white"/>
<path d="M180 358.261L273.615 358.31L273.616 354.523L180.002 354.474L180 358.261Z" fill="white"/>
<path d="M141.714 402.462H318.402L330.559 297.703H153.871L141.714 402.462Z" fill="#5AA9AD"/>
<path d="M276.133 286.851H331.819L330.559 297.703H271.678L276.133 286.851Z" fill="#5AA9AD"/>
</svg>
