<svg width="320" height="320" viewBox="0 0 320 320" fill="none" xmlns="http://www.w3.org/2000/svg">
<path d="M275.817 191.232C276.653 187.066 278.026 183.026 279.9 179.212C285.02 168.729 288.7 159.558 285.442 147.852C277.462 119.264 245.001 115.923 228.988 94.3611C204.233 61.0427 143.407 58.1499 114.351 86.9435C105.442 95.7691 101.27 108.236 92.2647 116.966C78.9975 129.836 59.2983 131.494 45.6727 144.326C23.4583 165.26 21.3015 200.736 41.0199 224.275C61.8455 249.132 91.2407 245.056 119.791 239.769C133.839 237.171 148.444 234.355 162.761 236.352C193.295 240.652 229.526 257.427 259.119 240.729C274.882 231.833 275.286 217.958 274.921 201.772C274.832 198.237 275.132 194.702 275.817 191.232Z" fill="#A6A6A6"/>
<path opacity="0.6" d="M275.817 191.232C276.653 187.066 278.026 183.026 279.9 179.212C285.02 168.729 288.7 159.558 285.442 147.852C277.462 119.264 245.001 115.923 228.988 94.3611C204.233 61.0427 143.407 58.1499 114.351 86.9435C105.442 95.7691 101.27 108.236 92.2647 116.966C78.9975 129.836 59.2983 131.494 45.6727 144.326C23.4583 165.26 21.3015 200.736 41.0199 224.275C61.8455 249.132 91.2407 245.056 119.791 239.769C133.839 237.171 148.444 234.355 162.761 236.352C193.295 240.652 229.526 257.427 259.119 240.729C274.882 231.833 275.286 217.958 274.921 201.772C274.832 198.237 275.132 194.702 275.817 191.232Z" fill="white"/>
<path d="M164.799 272.64C232.487 272.64 287.359 261.035 287.359 246.72C287.359 232.405 232.487 220.8 164.799 220.8C97.1109 220.8 42.2389 232.405 42.2389 246.72C42.2389 261.035 97.1109 272.64 164.799 272.64Z" fill="#A6A6A6"/>
<path opacity="0.3" d="M164.799 272.64C232.487 272.64 287.359 261.035 287.359 246.72C287.359 232.405 232.487 220.8 164.799 220.8C97.1109 220.8 42.2389 232.405 42.2389 246.72C42.2389 261.035 97.1109 272.64 164.799 272.64Z" fill="white"/>
<path d="M17.4257 75.3214C17.2764 74.7814 17.2424 74.2161 17.3258 73.6621C17.4093 73.1081 17.6084 72.5778 17.9102 72.1058C18.212 71.6338 18.6098 71.2306 19.0776 70.9223C19.5454 70.6141 20.0729 70.4077 20.6257 70.3166C23.9729 69.8622 28.0817 74.355 29.3873 77.075C29.4961 77.3118 30.8337 81.1902 30.7697 81.1902C30.7057 81.1902 24.8369 81.3246 22.4497 80.2622C20.3569 79.3598 17.9825 77.6382 17.4257 75.3214ZM103.39 64.9918C102.898 67.3214 100.568 69.107 98.5329 70.067C96.4977 71.027 91.6657 71.1934 90.4817 71.2126C89.8417 71.9742 89.1569 72.7998 88.4209 73.7214C87.1409 75.3598 85.7201 77.2222 84.3121 79.347C83.9345 79.9166 83.5505 80.5374 83.1665 81.139C84.0241 80.2622 85.2081 79.0782 85.3361 78.9758C87.6977 77.1006 93.3553 74.8542 96.1649 76.723C96.6234 77.0455 97.0088 77.4609 97.2962 77.9422C97.5836 78.4235 97.7664 78.9598 97.8328 79.5164C97.8992 80.073 97.8477 80.6374 97.6816 81.1727C97.5156 81.7081 97.2386 82.2025 96.8689 82.6238C95.3521 84.467 92.4657 84.979 90.2129 84.8894C87.9601 84.7998 83.4609 82.6558 82.5009 82.1758C81.6753 83.5134 80.8561 84.9086 80.0881 86.4126C78.6582 89.1238 77.4737 91.9575 76.5489 94.8798L76.7217 94.963C77.4065 94.0606 78.8977 92.1982 79.0385 92.0638C81.1761 89.9326 86.5585 87.0846 89.5601 88.627C90.0456 88.8991 90.469 89.2695 90.8032 89.7146C91.1374 90.1596 91.375 90.6695 91.5009 91.2116C91.6268 91.7538 91.6382 92.3162 91.5343 92.863C91.4304 93.4097 91.2136 93.9288 90.8977 94.387C89.6177 96.3902 86.7825 97.2158 84.5361 97.3694C81.9761 97.555 76.5937 95.5326 76.3889 95.4494C75.5583 98.3769 74.917 101.355 74.4689 104.365C74.1233 106.592 73.8609 108.845 73.6177 111.142C74.0849 110.502 76.0433 108.051 76.1777 107.891C78.3153 105.766 83.6977 102.912 86.6929 104.461C87.1843 104.731 87.6133 105.102 87.9518 105.549C88.2903 105.997 88.5308 106.51 88.6576 107.057C88.7844 107.603 88.7947 108.17 88.6877 108.721C88.5808 109.271 88.359 109.793 88.0369 110.253C86.7569 112.249 83.9217 113.075 81.6753 113.229C79.1473 113.408 73.9953 111.494 73.5729 111.309C73.4641 112.345 73.3553 113.376 73.2529 114.419C72.9201 117.805 72.6129 121.209 72.1905 124.557C72.0433 125.715 71.8641 126.854 71.6849 127.993C72.4145 127.046 73.7713 125.35 73.9057 125.216C76.0433 123.091 81.4257 120.237 84.4273 121.785C84.9135 122.057 85.3377 122.427 85.6724 122.872C86.0072 123.317 86.2452 123.827 86.3711 124.369C86.4971 124.912 86.5082 125.475 86.4038 126.021C86.2994 126.568 86.0818 127.088 85.7649 127.545C84.4849 129.542 81.6497 130.368 79.4033 130.528C77.1569 130.688 72.7921 129.171 71.5697 128.723C71.2561 130.643 70.9297 132.493 70.4689 134.317C70.2641 135.104 70.1105 135.917 69.8673 136.659L69.2273 138.893C68.7153 140.403 68.2481 141.805 67.7361 143.2C67.4801 143.904 67.2305 144.563 66.9745 145.248C67.5697 144.173 68.5425 142.496 68.6449 142.349C70.4369 139.923 75.3201 136.294 78.5201 137.369C79.047 137.561 79.5275 137.862 79.9302 138.253C80.333 138.643 80.6488 139.114 80.8572 139.634C81.0656 140.155 81.1618 140.714 81.1395 141.274C81.1173 141.834 80.9771 142.384 80.7281 142.886C79.7425 145.062 77.0865 146.304 74.8849 146.797C72.4657 147.347 67.2689 146.291 66.6353 146.157C65.9953 147.827 65.3553 149.44 64.7537 150.944C62.8337 155.699 61.0097 159.59 59.7105 162.297L59.4993 162.733H68.9649L65.6945 226.477C65.6049 228.833 64.6041 231.063 62.9028 232.696C61.2016 234.329 58.9328 235.239 56.5745 235.232C54.239 235.233 51.9923 234.337 50.2985 232.729C48.6048 231.121 47.5935 228.924 47.4737 226.592L44.2033 162.848H54.3665C54.3153 162.406 54.2641 161.939 54.2065 161.414C53.8673 158.47 53.3169 154.259 52.4337 149.254C52.1841 147.808 51.8961 146.278 51.5761 144.71C50.9361 144.793 45.6753 145.459 43.3009 144.71C41.1505 144.07 38.5905 142.611 37.7713 140.371C37.5613 139.851 37.4631 139.293 37.483 138.733C37.5029 138.173 37.6404 137.623 37.8867 137.12C38.133 136.617 38.4825 136.171 38.9125 135.811C39.3425 135.452 39.8434 135.187 40.3825 135.033C43.6529 134.195 48.2545 138.189 49.8609 140.736C49.9633 140.902 50.9553 142.969 51.4417 144.038C51.2497 143.091 51.0641 142.15 50.8465 141.165C50.5393 139.75 50.2065 138.265 49.8289 136.819C49.6241 136.077 49.4129 135.328 49.1889 134.573C48.9649 133.817 48.7089 133.101 48.4721 132.345C48.1009 131.257 47.6593 130.15 47.1921 129.043C45.7713 129.44 41.5729 130.521 39.4161 130.208C37.2593 129.894 34.4369 128.851 33.2913 126.765C33.0041 126.283 32.8218 125.745 32.7561 125.188C32.6905 124.631 32.743 124.066 32.9103 123.53C33.0775 122.995 33.3558 122.5 33.7269 122.08C34.098 121.659 34.5536 121.321 35.0641 121.088C38.1681 119.763 43.3201 123.008 45.3041 125.293C45.3681 125.363 45.7393 125.888 46.1681 126.515C45.7073 125.453 45.2529 124.384 44.7537 123.315C43.3329 120.294 41.7905 117.254 40.2737 114.208C39.9537 113.568 39.6337 112.928 39.3265 112.288C38.1297 112.627 33.5665 113.843 31.3329 113.517C29.0993 113.19 26.3537 112.16 25.2081 110.067C24.9257 109.585 24.7476 109.049 24.6852 108.494C24.6227 107.939 24.6774 107.377 24.8457 106.845C25.014 106.312 25.2921 105.821 25.6621 105.403C26.0321 104.984 26.4857 104.648 26.9937 104.416C30.0977 103.097 35.2497 106.336 37.2337 108.627C37.3041 108.704 37.7457 109.331 38.2257 110.041C37.4193 108.371 36.6321 106.701 35.9025 105.011C34.6425 102.128 33.5735 99.1644 32.7025 96.1406C32.2865 96.2622 26.9937 97.7982 24.4785 97.4206C22.2513 97.1006 19.5057 96.0638 18.3601 93.9774C18.0727 93.4958 17.8901 92.959 17.824 92.402C17.7579 91.845 17.8098 91.2804 17.9765 90.7448C18.1431 90.2093 18.4207 89.7149 18.7911 89.2937C19.1616 88.8726 19.6166 88.5342 20.1265 88.3006C23.2369 86.9822 28.3889 90.2206 30.3665 92.5054C30.5073 92.6718 32.0689 94.9502 32.6001 95.7886C32.5973 95.7524 32.5973 95.716 32.6001 95.6798C31.8173 92.6873 31.3033 89.6309 31.0641 86.547C30.8288 83.7953 30.7519 81.0324 30.8337 78.2718C30.8977 75.7118 31.1089 73.3694 31.3137 71.3022C31.4353 70.1822 31.5633 69.1582 31.6977 68.2046L31.6401 68.243C31.5825 68.2814 30.4561 64.339 30.4113 64.083C29.9121 61.107 30.7057 55.0718 33.7009 53.5166C34.2064 53.273 34.7574 53.1385 35.3183 53.1218C35.8792 53.105 36.4373 53.2065 36.9564 53.4196C37.4755 53.6326 37.9439 53.9525 38.3313 54.3585C38.7187 54.7644 39.0163 55.2473 39.2049 55.7758C40.0753 57.9966 39.1153 60.7678 37.9249 62.6942C36.7345 64.6206 32.8049 67.4174 31.8449 68.0894C31.7297 69.0814 31.6145 70.1438 31.5121 71.2894C31.3521 73.3566 31.1921 75.6926 31.1857 78.2462C31.1857 78.931 31.1857 79.6606 31.2177 80.371C31.4481 79.1678 31.7873 77.5294 31.8577 77.3694C32.7857 74.5022 36.2673 69.5102 39.6465 69.5166C40.207 69.5329 40.7578 69.6671 41.263 69.9104C41.7683 70.1537 42.2166 70.5007 42.5788 70.9287C42.9411 71.3568 43.2091 71.8563 43.3655 72.3948C43.5219 72.9333 43.5631 73.4987 43.4865 74.0542C43.2433 76.4286 41.1121 78.4446 39.1857 79.6158C37.2593 80.787 32.2993 81.5102 31.2369 81.6318C31.2881 83.2062 31.3713 84.8318 31.5633 86.4958C31.8669 89.5445 32.4408 92.5601 33.2785 95.507H33.4705C33.5473 94.3742 33.7649 91.9998 33.8033 91.8014C34.4433 88.851 37.3233 83.4814 40.6833 83.1422C41.2422 83.0971 41.8043 83.1702 42.3331 83.3567C42.8619 83.5432 43.3455 83.8389 43.7524 84.2247C44.1593 84.6105 44.4804 85.0776 44.6949 85.5958C44.9093 86.1139 45.0122 86.6713 44.9969 87.2318C44.9969 89.6126 43.1217 91.859 41.3361 93.2286C39.2753 94.8094 33.6945 96.0766 33.4833 96.1214C34.3949 99.0277 35.496 101.871 36.7793 104.633C37.7201 106.681 38.7505 108.723 39.8065 110.758C39.8449 109.958 40.1265 106.841 40.1713 106.617C40.8113 103.667 43.6913 98.2974 47.0513 97.9518C47.61 97.9077 48.1717 97.9815 48.7 98.1684C49.2284 98.3552 49.7115 98.651 50.1182 99.0366C50.5249 99.4222 50.8461 99.8889 51.0608 100.407C51.2756 100.924 51.3792 101.481 51.3649 102.041C51.3649 104.429 49.4833 106.669 47.6977 108.038C45.6881 109.581 40.3505 110.822 39.8961 110.925C40.3761 111.846 40.8561 112.774 41.3425 113.696C42.9361 116.71 44.5425 119.718 46.0529 122.739C46.5713 123.789 47.0449 124.838 47.5249 125.888C47.6081 124.691 47.8129 122.528 47.8449 122.342C48.4849 119.392 51.3713 114.022 54.7249 113.677C55.2838 113.631 55.8459 113.705 56.3747 113.891C56.9035 114.078 57.3871 114.373 57.794 114.759C58.2009 115.145 58.522 115.612 58.7365 116.13C58.9509 116.648 59.0538 117.206 59.0385 117.766C59.0385 120.153 57.1633 122.393 55.3777 123.763C53.5921 125.133 49.1121 126.278 47.8513 126.585C48.6385 128.352 49.3937 130.08 50.0337 131.846C50.2961 132.614 50.6097 133.376 50.8209 134.125L51.4993 136.358C51.9025 137.901 52.2865 139.328 52.6321 140.774C52.8113 141.504 52.9585 142.195 53.1249 142.899C53.0289 141.683 52.9137 139.744 52.9201 139.565C53.0801 136.557 55.1473 130.829 58.4113 129.965C58.9571 129.835 59.5241 129.823 60.0752 129.927C60.6263 130.031 61.1492 130.251 61.6099 130.571C62.0706 130.891 62.4587 131.304 62.749 131.784C63.0392 132.264 63.2251 132.8 63.2945 133.357C63.3396 133.649 63.3588 133.944 63.3521 134.24C64.6663 136.542 65.3692 139.141 65.3937 141.792C65.3937 141.984 65.0801 144.256 64.8945 145.414C65.2593 144.518 65.6177 143.629 65.9761 142.694C66.5073 141.344 67.0193 139.904 67.5313 138.509L68.2481 136.288C68.5041 135.539 68.6577 134.797 68.8881 134.035C69.1825 132.921 69.4257 131.75 69.6689 130.592C68.2673 130.131 64.1649 128.723 62.5393 127.27C60.9137 125.817 59.1409 123.392 59.3393 121.017C59.3668 120.458 59.5116 119.91 59.7644 119.409C60.0173 118.909 60.3724 118.467 60.8069 118.113C61.2414 117.759 61.7455 117.5 62.2865 117.353C62.8275 117.206 63.3933 117.175 63.9473 117.261C67.2689 117.901 69.7777 123.424 70.1617 126.413C70.1617 126.509 70.1937 127.149 70.2065 127.91C70.4113 126.771 70.6225 125.625 70.7889 124.461C71.2753 121.158 71.6593 117.773 72.0689 114.387C72.1521 113.677 72.2481 112.973 72.3313 112.269C71.1473 111.891 66.6929 110.406 64.9905 108.883C63.2881 107.36 61.5921 105.005 61.7905 102.63C61.816 102.07 61.9595 101.521 62.2117 101.019C62.464 100.518 62.8192 100.076 63.2541 99.721C63.6891 99.3664 64.194 99.1076 64.7358 98.9616C65.2777 98.8155 65.8442 98.7855 66.3985 98.8734C69.7201 99.5134 72.2225 105.037 72.6129 108.025C72.6129 108.128 72.6129 108.896 72.6577 109.753C72.9009 107.91 73.1697 106.086 73.4961 104.275C74.0271 101.161 74.7691 98.0857 75.7169 95.0718C75.2945 94.9438 70.0401 93.3054 68.1457 91.6158C66.4625 90.1118 64.7409 87.7374 64.9457 85.363C64.9712 84.8024 65.1147 84.2535 65.3669 83.7522C65.6192 83.2509 65.9744 82.8084 66.4093 82.4538C66.8443 82.0992 67.3492 81.8404 67.891 81.6944C68.4329 81.5483 68.9994 81.5183 69.5537 81.6062C72.8689 82.2462 75.3777 87.7694 75.7681 90.7582C75.7681 90.9694 75.8385 93.7342 75.8193 94.7262C75.8193 94.6878 75.8193 94.6494 75.8513 94.6174C76.8513 91.6897 78.1085 88.8563 79.6081 86.1502C80.9397 83.7211 82.4099 81.3706 84.0113 79.1102C85.4769 77.0046 86.9425 75.1742 88.2609 73.5614C88.9777 72.691 89.6497 71.9102 90.2833 71.187H90.2129C90.1489 71.187 91.3841 67.2702 91.4929 67.0334C92.7217 64.2814 96.7089 59.6798 100.062 60.0382C100.621 60.1143 101.157 60.3078 101.636 60.606C102.114 60.9042 102.524 61.3002 102.838 61.7682C103.153 62.2361 103.364 62.7652 103.459 63.3209C103.555 63.8765 103.531 64.4459 103.39 64.9918ZM64.6769 146.016C64.1009 145.741 59.6785 143.552 57.9505 141.677C56.4548 142.491 54.9118 143.216 53.3297 143.846C53.7201 145.587 54.0913 147.283 54.4049 148.877C55.4033 153.92 56.0497 158.157 56.4593 161.133C56.5425 161.773 56.6193 162.329 56.6833 162.848H56.9073L57.6497 161.408C58.9873 158.765 60.8497 154.95 62.8849 150.278C63.4737 148.934 64.0753 147.501 64.6769 146.016ZM82.3665 81.5678C82.4177 81.5678 83.4417 77.6318 83.4801 77.3694C83.8961 74.387 82.9425 68.371 79.9025 66.899C79.3903 66.6694 78.8355 66.5502 78.2742 66.5491C77.7129 66.548 77.1577 66.665 76.6446 66.8926C76.1315 67.1202 75.672 67.4532 75.2961 67.87C74.9201 68.2868 74.6361 68.7781 74.4625 69.3118C73.6497 71.5518 74.6865 74.2974 75.9089 76.1854C77.3425 78.4318 82.3601 81.5678 82.3665 81.5678Z" fill="#A6A6A6"/>
<path opacity="0.3" d="M17.4257 75.3214C17.2764 74.7814 17.2424 74.2161 17.3258 73.6621C17.4093 73.1081 17.6084 72.5778 17.9102 72.1058C18.212 71.6338 18.6098 71.2306 19.0776 70.9223C19.5454 70.6141 20.0729 70.4077 20.6257 70.3166C23.9729 69.8622 28.0817 74.355 29.3873 77.075C29.4961 77.3118 30.8337 81.1902 30.7697 81.1902C30.7057 81.1902 24.8369 81.3246 22.4497 80.2622C20.3569 79.3598 17.9825 77.6382 17.4257 75.3214ZM103.39 64.9918C102.898 67.3214 100.568 69.107 98.5329 70.067C96.4977 71.027 91.6657 71.1934 90.4817 71.2126C89.8417 71.9742 89.1569 72.7998 88.4209 73.7214C87.1409 75.3598 85.7201 77.2222 84.3121 79.347C83.9345 79.9166 83.5505 80.5374 83.1665 81.139C84.0241 80.2622 85.2081 79.0782 85.3361 78.9758C87.6977 77.1006 93.3553 74.8542 96.1649 76.723C96.6234 77.0455 97.0088 77.4609 97.2962 77.9422C97.5836 78.4235 97.7664 78.9598 97.8328 79.5164C97.8992 80.073 97.8477 80.6374 97.6816 81.1727C97.5156 81.7081 97.2386 82.2025 96.8689 82.6238C95.3521 84.467 92.4657 84.979 90.2129 84.8894C87.9601 84.7998 83.4609 82.6558 82.5009 82.1758C81.6753 83.5134 80.8561 84.9086 80.0881 86.4126C78.6582 89.1238 77.4737 91.9575 76.5489 94.8798L76.7217 94.963C77.4065 94.0606 78.8977 92.1982 79.0385 92.0638C81.1761 89.9326 86.5585 87.0846 89.5601 88.627C90.0456 88.8991 90.469 89.2695 90.8032 89.7146C91.1374 90.1596 91.375 90.6695 91.5009 91.2116C91.6268 91.7538 91.6382 92.3162 91.5343 92.863C91.4304 93.4097 91.2136 93.9288 90.8977 94.387C89.6177 96.3902 86.7825 97.2158 84.5361 97.3694C81.9761 97.555 76.5937 95.5326 76.3889 95.4494C75.5583 98.3769 74.917 101.355 74.4689 104.365C74.1233 106.592 73.8609 108.845 73.6177 111.142C74.0849 110.502 76.0433 108.051 76.1777 107.891C78.3153 105.766 83.6977 102.912 86.6929 104.461C87.1843 104.731 87.6133 105.102 87.9518 105.549C88.2903 105.997 88.5308 106.51 88.6576 107.057C88.7844 107.603 88.7947 108.17 88.6877 108.721C88.5808 109.271 88.359 109.793 88.0369 110.253C86.7569 112.249 83.9217 113.075 81.6753 113.229C79.1473 113.408 73.9953 111.494 73.5729 111.309C73.4641 112.345 73.3553 113.376 73.2529 114.419C72.9201 117.805 72.6129 121.209 72.1905 124.557C72.0433 125.715 71.8641 126.854 71.6849 127.993C72.4145 127.046 73.7713 125.35 73.9057 125.216C76.0433 123.091 81.4257 120.237 84.4273 121.785C84.9135 122.057 85.3377 122.427 85.6724 122.872C86.0072 123.317 86.2452 123.827 86.3711 124.369C86.4971 124.912 86.5082 125.475 86.4038 126.021C86.2994 126.568 86.0818 127.088 85.7649 127.545C84.4849 129.542 81.6497 130.368 79.4033 130.528C77.1569 130.688 72.7921 129.171 71.5697 128.723C71.2561 130.643 70.9297 132.493 70.4689 134.317C70.2641 135.104 70.1105 135.917 69.8673 136.659L69.2273 138.893C68.7153 140.403 68.2481 141.805 67.7361 143.2C67.4801 143.904 67.2305 144.563 66.9745 145.248C67.5697 144.173 68.5425 142.496 68.6449 142.349C70.4369 139.923 75.3201 136.294 78.5201 137.369C79.047 137.561 79.5275 137.862 79.9302 138.253C80.333 138.643 80.6488 139.114 80.8572 139.634C81.0656 140.155 81.1618 140.714 81.1395 141.274C81.1173 141.834 80.9771 142.384 80.7281 142.886C79.7425 145.062 77.0865 146.304 74.8849 146.797C72.4657 147.347 67.2689 146.291 66.6353 146.157C65.9953 147.827 65.3553 149.44 64.7537 150.944C62.8337 155.699 61.0097 159.59 59.7105 162.297L59.4993 162.733H68.9649L65.6945 226.477C65.6049 228.833 64.6041 231.063 62.9028 232.696C61.2016 234.329 58.9328 235.239 56.5745 235.232C54.239 235.233 51.9923 234.337 50.2985 232.729C48.6048 231.121 47.5935 228.924 47.4737 226.592L44.2033 162.848H54.3665C54.3153 162.406 54.2641 161.939 54.2065 161.414C53.8673 158.47 53.3169 154.259 52.4337 149.254C52.1841 147.808 51.8961 146.278 51.5761 144.71C50.9361 144.793 45.6753 145.459 43.3009 144.71C41.1505 144.07 38.5905 142.611 37.7713 140.371C37.5613 139.851 37.4631 139.293 37.483 138.733C37.5029 138.173 37.6404 137.623 37.8867 137.12C38.133 136.617 38.4825 136.171 38.9125 135.811C39.3425 135.452 39.8434 135.187 40.3825 135.033C43.6529 134.195 48.2545 138.189 49.8609 140.736C49.9633 140.902 50.9553 142.969 51.4417 144.038C51.2497 143.091 51.0641 142.15 50.8465 141.165C50.5393 139.75 50.2065 138.265 49.8289 136.819C49.6241 136.077 49.4129 135.328 49.1889 134.573C48.9649 133.817 48.7089 133.101 48.4721 132.345C48.1009 131.257 47.6593 130.15 47.1921 129.043C45.7713 129.44 41.5729 130.521 39.4161 130.208C37.2593 129.894 34.4369 128.851 33.2913 126.765C33.0041 126.283 32.8218 125.745 32.7561 125.188C32.6905 124.631 32.743 124.066 32.9103 123.53C33.0775 122.995 33.3558 122.5 33.7269 122.08C34.098 121.659 34.5536 121.321 35.0641 121.088C38.1681 119.763 43.3201 123.008 45.3041 125.293C45.3681 125.363 45.7393 125.888 46.1681 126.515C45.7073 125.453 45.2529 124.384 44.7537 123.315C43.3329 120.294 41.7905 117.254 40.2737 114.208C39.9537 113.568 39.6337 112.928 39.3265 112.288C38.1297 112.627 33.5665 113.843 31.3329 113.517C29.0993 113.19 26.3537 112.16 25.2081 110.067C24.9257 109.585 24.7476 109.049 24.6852 108.494C24.6227 107.939 24.6774 107.377 24.8457 106.845C25.014 106.312 25.2921 105.821 25.6621 105.403C26.0321 104.984 26.4857 104.648 26.9937 104.416C30.0977 103.097 35.2497 106.336 37.2337 108.627C37.3041 108.704 37.7457 109.331 38.2257 110.041C37.4193 108.371 36.6321 106.701 35.9025 105.011C34.6425 102.128 33.5735 99.1644 32.7025 96.1406C32.2865 96.2622 26.9937 97.7982 24.4785 97.4206C22.2513 97.1006 19.5057 96.0638 18.3601 93.9774C18.0727 93.4958 17.8901 92.959 17.824 92.402C17.7579 91.845 17.8098 91.2804 17.9765 90.7448C18.1431 90.2093 18.4207 89.7149 18.7911 89.2937C19.1616 88.8726 19.6166 88.5342 20.1265 88.3006C23.2369 86.9822 28.3889 90.2206 30.3665 92.5054C30.5073 92.6718 32.0689 94.9502 32.6001 95.7886C32.5973 95.7524 32.5973 95.716 32.6001 95.6798C31.8173 92.6873 31.3033 89.6309 31.0641 86.547C30.8288 83.7953 30.7519 81.0324 30.8337 78.2718C30.8977 75.7118 31.1089 73.3694 31.3137 71.3022C31.4353 70.1822 31.5633 69.1582 31.6977 68.2046L31.6401 68.243C31.5825 68.2814 30.4561 64.339 30.4113 64.083C29.9121 61.107 30.7057 55.0718 33.7009 53.5166C34.2064 53.273 34.7574 53.1385 35.3183 53.1218C35.8792 53.105 36.4373 53.2065 36.9564 53.4196C37.4755 53.6326 37.9439 53.9525 38.3313 54.3585C38.7187 54.7644 39.0163 55.2473 39.2049 55.7758C40.0753 57.9966 39.1153 60.7678 37.9249 62.6942C36.7345 64.6206 32.8049 67.4174 31.8449 68.0894C31.7297 69.0814 31.6145 70.1438 31.5121 71.2894C31.3521 73.3566 31.1921 75.6926 31.1857 78.2462C31.1857 78.931 31.1857 79.6606 31.2177 80.371C31.4481 79.1678 31.7873 77.5294 31.8577 77.3694C32.7857 74.5022 36.2673 69.5102 39.6465 69.5166C40.207 69.5329 40.7578 69.6671 41.263 69.9104C41.7683 70.1537 42.2166 70.5007 42.5788 70.9287C42.9411 71.3568 43.2091 71.8563 43.3655 72.3948C43.5219 72.9333 43.5631 73.4987 43.4865 74.0542C43.2433 76.4286 41.1121 78.4446 39.1857 79.6158C37.2593 80.787 32.2993 81.5102 31.2369 81.6318C31.2881 83.2062 31.3713 84.8318 31.5633 86.4958C31.8669 89.5445 32.4408 92.5601 33.2785 95.507H33.4705C33.5473 94.3742 33.7649 91.9998 33.8033 91.8014C34.4433 88.851 37.3233 83.4814 40.6833 83.1422C41.2422 83.0971 41.8043 83.1702 42.3331 83.3567C42.8619 83.5432 43.3455 83.8389 43.7524 84.2247C44.1593 84.6105 44.4804 85.0776 44.6949 85.5958C44.9093 86.1139 45.0122 86.6713 44.9969 87.2318C44.9969 89.6126 43.1217 91.859 41.3361 93.2286C39.2753 94.8094 33.6945 96.0766 33.4833 96.1214C34.3949 99.0277 35.496 101.871 36.7793 104.633C37.7201 106.681 38.7505 108.723 39.8065 110.758C39.8449 109.958 40.1265 106.841 40.1713 106.617C40.8113 103.667 43.6913 98.2974 47.0513 97.9518C47.61 97.9077 48.1717 97.9815 48.7 98.1684C49.2284 98.3552 49.7115 98.651 50.1182 99.0366C50.5249 99.4222 50.8461 99.8889 51.0608 100.407C51.2756 100.924 51.3792 101.481 51.3649 102.041C51.3649 104.429 49.4833 106.669 47.6977 108.038C45.6881 109.581 40.3505 110.822 39.8961 110.925C40.3761 111.846 40.8561 112.774 41.3425 113.696C42.9361 116.71 44.5425 119.718 46.0529 122.739C46.5713 123.789 47.0449 124.838 47.5249 125.888C47.6081 124.691 47.8129 122.528 47.8449 122.342C48.4849 119.392 51.3713 114.022 54.7249 113.677C55.2838 113.631 55.8459 113.705 56.3747 113.891C56.9035 114.078 57.3871 114.373 57.794 114.759C58.2009 115.145 58.522 115.612 58.7365 116.13C58.9509 116.648 59.0538 117.206 59.0385 117.766C59.0385 120.153 57.1633 122.393 55.3777 123.763C53.5921 125.133 49.1121 126.278 47.8513 126.585C48.6385 128.352 49.3937 130.08 50.0337 131.846C50.2961 132.614 50.6097 133.376 50.8209 134.125L51.4993 136.358C51.9025 137.901 52.2865 139.328 52.6321 140.774C52.8113 141.504 52.9585 142.195 53.1249 142.899C53.0289 141.683 52.9137 139.744 52.9201 139.565C53.0801 136.557 55.1473 130.829 58.4113 129.965C58.9571 129.835 59.5241 129.823 60.0752 129.927C60.6263 130.031 61.1492 130.251 61.6099 130.571C62.0706 130.891 62.4587 131.304 62.749 131.784C63.0392 132.264 63.2251 132.8 63.2945 133.357C63.3396 133.649 63.3588 133.944 63.3521 134.24C64.6663 136.542 65.3692 139.141 65.3937 141.792C65.3937 141.984 65.0801 144.256 64.8945 145.414C65.2593 144.518 65.6177 143.629 65.9761 142.694C66.5073 141.344 67.0193 139.904 67.5313 138.509L68.2481 136.288C68.5041 135.539 68.6577 134.797 68.8881 134.035C69.1825 132.921 69.4257 131.75 69.6689 130.592C68.2673 130.131 64.1649 128.723 62.5393 127.27C60.9137 125.817 59.1409 123.392 59.3393 121.017C59.3668 120.458 59.5116 119.91 59.7644 119.409C60.0173 118.909 60.3724 118.467 60.8069 118.113C61.2414 117.759 61.7455 117.5 62.2865 117.353C62.8275 117.206 63.3933 117.175 63.9473 117.261C67.2689 117.901 69.7777 123.424 70.1617 126.413C70.1617 126.509 70.1937 127.149 70.2065 127.91C70.4113 126.771 70.6225 125.625 70.7889 124.461C71.2753 121.158 71.6593 117.773 72.0689 114.387C72.1521 113.677 72.2481 112.973 72.3313 112.269C71.1473 111.891 66.6929 110.406 64.9905 108.883C63.2881 107.36 61.5921 105.005 61.7905 102.63C61.816 102.07 61.9595 101.521 62.2117 101.019C62.464 100.518 62.8192 100.076 63.2541 99.721C63.6891 99.3664 64.194 99.1076 64.7358 98.9616C65.2777 98.8155 65.8442 98.7855 66.3985 98.8734C69.7201 99.5134 72.2225 105.037 72.6129 108.025C72.6129 108.128 72.6129 108.896 72.6577 109.753C72.9009 107.91 73.1697 106.086 73.4961 104.275C74.0271 101.161 74.7691 98.0857 75.7169 95.0718C75.2945 94.9438 70.0401 93.3054 68.1457 91.6158C66.4625 90.1118 64.7409 87.7374 64.9457 85.363C64.9712 84.8024 65.1147 84.2535 65.3669 83.7522C65.6192 83.2509 65.9744 82.8084 66.4093 82.4538C66.8443 82.0992 67.3492 81.8404 67.891 81.6944C68.4329 81.5483 68.9994 81.5183 69.5537 81.6062C72.8689 82.2462 75.3777 87.7694 75.7681 90.7582C75.7681 90.9694 75.8385 93.7342 75.8193 94.7262C75.8193 94.6878 75.8193 94.6494 75.8513 94.6174C76.8513 91.6897 78.1085 88.8563 79.6081 86.1502C80.9397 83.7211 82.4099 81.3706 84.0113 79.1102C85.4769 77.0046 86.9425 75.1742 88.2609 73.5614C88.9777 72.691 89.6497 71.9102 90.2833 71.187H90.2129C90.1489 71.187 91.3841 67.2702 91.4929 67.0334C92.7217 64.2814 96.7089 59.6798 100.062 60.0382C100.621 60.1143 101.157 60.3078 101.636 60.606C102.114 60.9042 102.524 61.3002 102.838 61.7682C103.153 62.2361 103.364 62.7652 103.459 63.3209C103.555 63.8765 103.531 64.4459 103.39 64.9918ZM64.6769 146.016C64.1009 145.741 59.6785 143.552 57.9505 141.677C56.4548 142.491 54.9118 143.216 53.3297 143.846C53.7201 145.587 54.0913 147.283 54.4049 148.877C55.4033 153.92 56.0497 158.157 56.4593 161.133C56.5425 161.773 56.6193 162.329 56.6833 162.848H56.9073L57.6497 161.408C58.9873 158.765 60.8497 154.95 62.8849 150.278C63.4737 148.934 64.0753 147.501 64.6769 146.016ZM82.3665 81.5678C82.4177 81.5678 83.4417 77.6318 83.4801 77.3694C83.8961 74.387 82.9425 68.371 79.9025 66.899C79.3903 66.6694 78.8355 66.5502 78.2742 66.5491C77.7129 66.548 77.1577 66.665 76.6446 66.8926C76.1315 67.1202 75.672 67.4532 75.2961 67.87C74.9201 68.2868 74.6361 68.7781 74.4625 69.3118C73.6497 71.5518 74.6865 74.2974 75.9089 76.1854C77.3425 78.4318 82.3601 81.5678 82.3665 81.5678Z" fill="white"/>
<path d="M78.196 96.8256L59.7128 253.818C59.6878 254.044 59.7267 254.272 59.825 254.477C59.9234 254.682 60.0773 254.856 60.2693 254.978C60.4613 255.1 60.6836 255.166 60.9111 255.168C61.1386 255.169 61.362 255.108 61.556 254.989L73.4344 247.68C74.1395 247.243 74.9866 247.097 75.7973 247.272C76.608 247.448 77.3189 247.931 77.78 248.621L92.7048 270.81L98.932 177.472L78.196 96.8256Z" fill="#5AA9AD" stroke="#455A64" stroke-width="0.64" stroke-linecap="round" stroke-linejoin="round"/>
<path d="M78.0802 100.774L61.3762 249.894C61.3401 250.216 61.3987 250.542 61.5449 250.831C61.6911 251.12 61.9184 251.36 62.199 251.522C62.4796 251.683 62.8014 251.76 63.1247 251.741C63.4481 251.723 63.759 251.61 64.0194 251.418L72.7042 245.018C73.1559 244.684 73.671 244.445 74.218 244.317C74.7649 244.189 75.3323 244.174 75.8853 244.273C76.4383 244.372 76.9653 244.583 77.4341 244.892C77.9028 245.202 78.3035 245.604 78.6114 246.074L88.7746 261.587C88.8847 261.76 89.0494 261.89 89.2424 261.958C89.4353 262.026 89.6455 262.027 89.8392 261.961C90.0329 261.896 90.1991 261.767 90.3113 261.596C90.4234 261.425 90.475 261.221 90.4578 261.018L78.5922 100.781C78.5799 100.723 78.5481 100.67 78.502 100.632C78.4559 100.595 78.3984 100.574 78.3388 100.573C78.2792 100.572 78.2211 100.592 78.1741 100.628C78.1271 100.665 78.094 100.716 78.0802 100.774Z" fill="#5AA9AD" stroke="#455A64" stroke-width="0.64" stroke-linecap="round" stroke-linejoin="round"/>
<path opacity="0.6" d="M78.311 98.6112L61.3638 249.882C61.3277 250.204 61.3863 250.529 61.5325 250.818C61.6786 251.107 61.9059 251.347 62.1866 251.509C62.4672 251.671 62.7889 251.747 63.1123 251.728C63.4356 251.71 63.7466 251.597 64.007 251.405L72.6918 245.005C73.1434 244.671 73.6585 244.432 74.2055 244.304C74.7525 244.176 75.3199 244.161 75.8729 244.26C76.4259 244.359 76.9529 244.57 77.4216 244.879C77.8904 245.189 78.291 245.591 78.599 246.061L88.7622 261.574C88.8723 261.747 89.037 261.877 89.2299 261.945C89.4229 262.013 89.633 262.014 89.8268 261.949C90.0205 261.883 90.1867 261.754 90.2988 261.583C90.4109 261.412 90.4625 261.209 90.4454 261.005L78.4326 98.6112C78.4284 98.5984 78.4202 98.5873 78.4093 98.5794C78.3984 98.5715 78.3852 98.5672 78.3718 98.5672C78.3583 98.5672 78.3451 98.5715 78.3342 98.5794C78.3233 98.5873 78.3152 98.5984 78.311 98.6112Z" fill="#38869C"/>
<path d="M75.221 244.186C75.8934 244.197 76.5527 244.373 77.1416 244.698C77.7305 245.022 78.2313 245.486 78.6002 246.048L88.7634 261.562C88.8735 261.734 89.0382 261.864 89.2312 261.932C89.4241 262 89.6343 262.001 89.828 261.936C90.0218 261.87 90.188 261.742 90.3001 261.571C90.4122 261.4 90.4638 261.196 90.4466 260.992L88.9938 241.382L75.0034 244.122C75.0778 244.136 75.1506 244.158 75.221 244.186Z" fill="#5AA9AD" stroke="#455A64" stroke-width="0.64" stroke-linecap="round" stroke-linejoin="round"/>
<path opacity="0.3" d="M75.221 244.186C75.8934 244.197 76.5527 244.373 77.1416 244.698C77.7305 245.022 78.2313 245.486 78.6002 246.048L88.7634 261.562C88.8735 261.734 89.0382 261.864 89.2312 261.932C89.4241 262 89.6343 262.001 89.828 261.936C90.0218 261.87 90.188 261.742 90.3001 261.571C90.4122 261.4 90.4638 261.196 90.4466 260.992L88.9938 241.382L75.0034 244.122C75.0778 244.136 75.1506 244.158 75.221 244.186Z" fill="#7DC1BF"/>
<path d="M78.5742 96.7296L92.699 270.81L257.403 239.424L218.696 103.661L78.5742 96.7296Z" fill="#38869C" stroke="#263238" stroke-width="0.64" stroke-linecap="round" stroke-linejoin="round"/>
<path d="M86.2096 100.486L95.912 261.606L250.792 233.446L218.146 108.269L86.2096 100.486Z" fill="#5AA9AD" stroke="#263238" stroke-width="0.64" stroke-linecap="round" stroke-linejoin="round"/>
<path d="M95.6742 179.776L103.041 256.147L243.764 230.56L230.689 173.158L95.6742 179.776Z" fill="white" stroke="#455A64" stroke-width="0.64" stroke-linecap="round" stroke-linejoin="round"/>
<path d="M122.837 252.346L120.501 227.814" stroke="#455A64" stroke-width="0.64" stroke-linecap="round" stroke-linejoin="round"/>
<path d="M144.373 248.55L142.12 228.102" stroke="#455A64" stroke-width="0.64" stroke-linecap="round" stroke-linejoin="round"/>
<path d="M165.486 244.461L162.855 228.102" stroke="#455A64" stroke-width="0.64" stroke-linecap="round" stroke-linejoin="round"/>
<path d="M187.239 240.73L184.11 221.229" stroke="#455A64" stroke-width="0.64" stroke-linecap="round" stroke-linejoin="round"/>
<path d="M206.401 237.274L203.733 218.24" stroke="#455A64" stroke-width="0.64" stroke-linecap="round" stroke-linejoin="round"/>
<path d="M224.776 233.875L220.801 210.989" stroke="#455A64" stroke-width="0.64" stroke-linecap="round" stroke-linejoin="round"/>
<g style="mix-blend-mode:multiply" opacity="0.49">
<path d="M86.9888 144.998C86.9888 144.998 90.24 191.789 93.2288 208.851C96.2176 225.914 101.76 251.45 101.76 251.45C101.76 251.45 197.76 236.589 245.12 216.531L241.28 198.189L86.9888 144.998Z" fill="#5AA9AD"/>
</g>
<path d="M82.6512 98.7329L217.48 105.997C217.48 105.997 230.606 145.325 243.669 167.533C256.731 189.741 278.274 188.294 278.274 188.294C278.274 188.294 228.866 215.309 190.382 229.69C150.331 244.646 115.598 247.334 115.598 247.334C115.598 247.334 83.9632 204.122 82.6512 98.7329Z" fill="#5AA9AD" stroke="#263238" stroke-width="0.64" stroke-linecap="round" stroke-linejoin="round"/>
<path d="M98.0866 91.7312C95.5842 91.7312 93.773 93.952 93.2034 97.4336L95.7634 97.5744C96.1602 95.5648 96.9474 94.2912 98.0802 94.2912C99.3986 94.2912 100.864 96.4096 100.864 99.456C100.864 102.502 99.3986 104.627 98.0802 104.627C97.7407 104.627 97.4151 104.762 97.1751 105.002C96.935 105.242 96.8002 105.568 96.8002 105.907C96.8002 106.247 96.935 106.572 97.1751 106.812C97.4151 107.052 97.7407 107.187 98.0802 107.187C101.075 107.187 103.424 103.789 103.424 99.456C103.424 95.1232 101.082 91.7312 98.0866 91.7312Z" fill="white" stroke="#455A64" stroke-width="0.64" stroke-miterlimit="10"/>
<path d="M101.76 101.53C101.638 101.981 101.479 102.422 101.287 102.848" stroke="#455A64" stroke-width="0.48" stroke-linecap="round" stroke-linejoin="round"/>
<path d="M94.4722 96.2816C94.4722 96.2816 95.4322 92.8128 98.2674 93.0048C100.495 93.1584 102.331 96.4672 102.024 100.006" stroke="#455A64" stroke-width="0.48" stroke-linecap="round" stroke-linejoin="round"/>
<path d="M120.322 92.8512C117.82 92.8512 116.008 95.072 115.439 98.5536L117.999 98.6944C118.396 96.6848 119.183 95.4112 120.316 95.4112C121.634 95.4112 123.1 97.5296 123.1 100.576C123.1 103.622 121.634 105.747 120.316 105.747C119.976 105.747 119.65 105.882 119.41 106.122C119.17 106.362 119.036 106.688 119.036 107.027C119.036 107.367 119.17 107.692 119.41 107.932C119.65 108.172 119.976 108.307 120.316 108.307C123.311 108.307 125.66 104.909 125.66 100.576C125.66 96.2432 123.324 92.8512 120.322 92.8512Z" fill="white" stroke="#455A64" stroke-width="0.64" stroke-miterlimit="10"/>
<path d="M124 102.65C123.877 103.101 123.719 103.542 123.526 103.968" stroke="#455A64" stroke-width="0.48" stroke-linecap="round" stroke-linejoin="round"/>
<path d="M116.712 97.4016C116.712 97.4016 117.672 93.9328 120.507 94.1248C122.734 94.2784 124.571 97.5872 124.264 101.126" stroke="#455A64" stroke-width="0.48" stroke-linecap="round" stroke-linejoin="round"/>
<path d="M142.568 93.9712C140.065 93.9712 138.254 96.192 137.685 99.6736L140.245 99.8144C140.641 97.8048 141.429 96.5312 142.561 96.5312C143.88 96.5312 145.345 98.6496 145.345 101.696C145.345 104.742 143.88 106.867 142.561 106.867C142.222 106.867 141.896 107.002 141.656 107.242C141.416 107.482 141.281 107.808 141.281 108.147C141.281 108.487 141.416 108.812 141.656 109.052C141.896 109.292 142.222 109.427 142.561 109.427C145.557 109.427 147.905 106.029 147.905 101.696C147.905 97.3632 145.563 93.9712 142.568 93.9712Z" fill="white" stroke="#455A64" stroke-width="0.64" stroke-miterlimit="10"/>
<path d="M146.239 103.77C146.117 104.221 145.959 104.662 145.766 105.088" stroke="#455A64" stroke-width="0.48" stroke-linecap="round" stroke-linejoin="round"/>
<path d="M138.951 98.5216C138.951 98.5216 139.911 95.0528 142.746 95.2448C144.974 95.3984 146.81 98.7072 146.503 102.246" stroke="#455A64" stroke-width="0.48" stroke-linecap="round" stroke-linejoin="round"/>
<path d="M164.807 95.0913C162.305 95.0913 160.494 97.3121 159.924 100.794L162.484 100.934C162.881 98.9249 163.668 97.6513 164.801 97.6513C166.119 97.6513 167.585 99.7697 167.585 102.816C167.585 105.862 166.119 107.987 164.801 107.987C164.462 107.987 164.136 108.122 163.896 108.362C163.656 108.602 163.521 108.928 163.521 109.267C163.521 109.607 163.656 109.932 163.896 110.172C164.136 110.412 164.462 110.547 164.801 110.547C167.796 110.547 170.145 107.149 170.145 102.816C170.145 98.4833 167.803 95.0913 164.807 95.0913Z" fill="white" stroke="#455A64" stroke-width="0.64" stroke-miterlimit="10"/>
<path d="M168.481 104.89C168.359 105.341 168.2 105.782 168.008 106.208" stroke="#455A64" stroke-width="0.48" stroke-linecap="round" stroke-linejoin="round"/>
<path d="M161.191 99.6416C161.191 99.6416 162.151 96.1728 164.986 96.3648C167.213 96.5184 169.05 99.8272 168.743 103.366" stroke="#455A64" stroke-width="0.48" stroke-linecap="round" stroke-linejoin="round"/>
<path d="M187.451 96.0833C184.949 96.0833 183.137 98.304 182.574 101.792L185.134 101.933C185.537 99.9232 186.325 98.6432 187.451 98.6432C188.769 98.6432 190.241 100.768 190.241 103.814C190.241 106.861 188.769 108.979 187.451 108.979C187.112 108.979 186.786 109.114 186.546 109.354C186.306 109.594 186.171 109.92 186.171 110.259C186.171 110.599 186.306 110.924 186.546 111.164C186.786 111.404 187.112 111.539 187.451 111.539C190.453 111.539 192.801 108.147 192.801 103.814C192.801 99.4817 190.453 96.0833 187.451 96.0833Z" fill="white" stroke="#455A64" stroke-width="0.64" stroke-miterlimit="10"/>
<path d="M191.125 105.888C191.003 106.338 190.845 106.776 190.651 107.2" stroke="#455A64" stroke-width="0.48" stroke-linecap="round" stroke-linejoin="round"/>
<path d="M183.835 100.64C183.835 100.64 184.801 97.1648 187.63 97.3568C189.863 97.5104 191.694 100.826 191.393 104.365" stroke="#455A64" stroke-width="0.48" stroke-linecap="round" stroke-linejoin="round"/>
<path d="M209.203 97.28C206.701 97.28 204.889 99.5008 204.326 102.982L206.886 103.13C207.289 101.12 208.077 99.84 209.203 99.84C210.521 99.84 211.993 101.965 211.993 105.005C211.993 108.045 210.521 110.176 209.203 110.176C208.864 110.176 208.538 110.311 208.298 110.551C208.058 110.791 207.923 111.117 207.923 111.456C207.923 111.795 208.058 112.121 208.298 112.361C208.538 112.601 208.864 112.736 209.203 112.736C212.205 112.736 214.553 109.338 214.553 105.005C214.553 100.672 212.205 97.28 209.203 97.28Z" fill="white" stroke="#455A64" stroke-width="0.64" stroke-miterlimit="10"/>
<path d="M212.877 107.046C212.756 107.498 212.598 107.939 212.403 108.365" stroke="#455A64" stroke-width="0.48" stroke-linecap="round" stroke-linejoin="round"/>
<path d="M205.589 101.805C205.589 101.805 206.555 98.3297 209.384 98.5217C211.618 98.6753 213.448 101.984 213.147 105.523" stroke="#455A64" stroke-width="0.48" stroke-linecap="round" stroke-linejoin="round"/>
<path d="M239.209 167.635C229.935 151.866 220.194 126.963 216.732 117.798L96.2389 112.915C96.1621 201.971 123.119 238.765 123.119 238.765C123.119 238.765 153.807 236.39 189.199 223.168C223.209 210.464 263.772 189.139 263.772 189.139C263.772 189.139 250.748 187.264 239.209 167.635Z" fill="white" stroke="#C75548" stroke-width="0.64" stroke-linecap="round" stroke-linejoin="round"/>
<path d="M216.732 117.798L96.2388 112.915C96.2388 121.677 96.4884 129.92 96.9492 137.683L224.194 136.493C220.898 128.64 218.242 121.76 216.732 117.798Z" fill="#C75548" stroke="#C75548" stroke-width="0.64" stroke-linecap="round" stroke-linejoin="round"/>
<path d="M218.862 144.346L224.558 144.147" stroke="#455A64" stroke-width="1.92" stroke-linecap="round" stroke-linejoin="round"/>
<path d="M202.12 144.915L214.594 144.486" stroke="#455A64" stroke-width="1.92" stroke-linecap="round" stroke-linejoin="round"/>
<path d="M181.851 145.6L197.883 145.056" stroke="#455A64" stroke-width="1.92" stroke-linecap="round" stroke-linejoin="round"/>
<path d="M161.228 146.298L178.31 145.722" stroke="#455A64" stroke-width="1.92" stroke-linecap="round" stroke-linejoin="round"/>
<path d="M141.295 146.976L156.956 146.445" stroke="#455A64" stroke-width="1.92" stroke-linecap="round" stroke-linejoin="round"/>
<path d="M120.289 147.693L135.962 147.155" stroke="#455A64" stroke-width="1.92" stroke-linecap="round" stroke-linejoin="round"/>
<path d="M101.799 148.32L116.385 147.821" stroke="#455A64" stroke-width="1.92" stroke-linecap="round" stroke-linejoin="round"/>
<path d="M99.4263 162.048L231.989 153.971" stroke="#455A64" stroke-width="0.64" stroke-linecap="round" stroke-linejoin="round"/>
<path d="M120.372 160.909C120.372 160.909 122.548 196.16 145.786 235.29" stroke="#455A64" stroke-width="0.64" stroke-linecap="round" stroke-linejoin="round"/>
<path d="M141.76 159.494C141.76 159.494 144.211 199.814 169.689 229.338" stroke="#455A64" stroke-width="0.64" stroke-linecap="round" stroke-linejoin="round"/>
<path d="M161.126 158.304C161.126 158.304 162.406 195.424 191.046 222.099" stroke="#455A64" stroke-width="0.64" stroke-linecap="round" stroke-linejoin="round"/>
<path d="M181.203 157.44C181.203 157.44 184.365 198.707 212.083 213.242" stroke="#455A64" stroke-width="0.64" stroke-linecap="round" stroke-linejoin="round"/>
<path d="M202.241 155.782C202.241 155.782 204.468 186.995 232.82 204.09" stroke="#455A64" stroke-width="0.64" stroke-linecap="round" stroke-linejoin="round"/>
<path d="M218.803 154.771C218.803 154.771 226.432 186.771 247.776 197.133" stroke="#455A64" stroke-width="0.64" stroke-linecap="round" stroke-linejoin="round"/>
<path d="M102.33 180.23L237.729 165.338" stroke="#455A64" stroke-width="0.64" stroke-linecap="round" stroke-linejoin="round"/>
<path d="M105.864 196.16C105.864 196.16 134.773 195.027 244.027 174.893" stroke="#455A64" stroke-width="0.64" stroke-linecap="round" stroke-linejoin="round"/>
<path d="M110.964 213.024C110.964 213.024 139.124 216.224 249.447 181.094" stroke="#455A64" stroke-width="0.64" stroke-linecap="round" stroke-linejoin="round"/>
<path d="M117.057 227.738C117.057 227.738 140.533 235.514 255.848 186.138" stroke="#455A64" stroke-width="0.64" stroke-linecap="round" stroke-linejoin="round"/>
<path d="M148.283 130.336L104.879 129.754C104.527 129.748 104.189 129.616 103.928 129.38C103.667 129.145 103.5 128.823 103.458 128.474L103.087 124.966C103.065 124.765 103.086 124.56 103.149 124.367C103.212 124.174 103.316 123.997 103.452 123.847C103.589 123.697 103.756 123.578 103.942 123.497C104.129 123.416 104.33 123.376 104.533 123.379L147.413 124.122C147.73 124.127 148.036 124.237 148.285 124.433C148.533 124.63 148.711 124.903 148.789 125.21L149.659 128.544C149.714 128.755 149.72 128.975 149.676 129.189C149.633 129.402 149.541 129.603 149.408 129.776C149.276 129.948 149.106 130.089 148.911 130.186C148.716 130.283 148.501 130.334 148.283 130.336Z" fill="white"/>
</svg>
