<svg width="428" height="482" viewBox="0 0 428 482" fill="none" xmlns="http://www.w3.org/2000/svg">
<path d="M131.53 37.74V124.52H6.89039L2.40039 38.35L131.53 37.74Z" fill="#E0E0E0"/>
<path d="M2.40039 38.35L2.40039 124.34L127.04 124.34V38.35L2.40039 38.35Z" fill="white"/>
<path d="M127.64 124.93H1.81006V37.75H127.64V124.93ZM3.00006 123.75H126.45V38.94H3.00006V123.75Z" fill="#E0E0E0"/>
<path d="M113.54 49.03H15.9004V113.65H113.54V49.03Z" fill="white"/>
<path d="M113.54 49H113.06H111.67H106.31L86.1901 49.07L15.9001 49.21L16.1901 48.93C16.1901 68.67 16.1901 90.55 16.1901 113.55L15.8801 113.24L113.52 113.31L113.28 113.55C113.28 93.89 113.38 77.76 113.41 66.55C113.41 60.94 113.41 56.55 113.47 53.55C113.47 52.07 113.47 50.93 113.47 50.14C113.47 49.35 113.47 48.95 113.47 48.95C113.47 48.95 113.47 49.33 113.47 50.08C113.47 50.83 113.47 51.99 113.47 53.45C113.47 56.45 113.47 60.81 113.53 66.45C113.53 77.72 113.61 93.89 113.66 113.62V113.87H113.41L15.9001 114H15.6001V113.69C15.6001 90.69 15.6001 68.81 15.6001 49.07V48.79H15.8801L86.3601 48.93L106.41 49H111.72H113.08H113.54Z" fill="#E0E0E0"/>
<path d="M2.40037 38.1C3.16952 38.4766 3.89124 38.9432 4.55037 39.49C5.82037 40.41 7.55037 41.72 9.43037 43.22C11.3104 44.72 12.9604 46.14 14.1204 47.22C14.7858 47.7366 15.3838 48.3346 15.9004 49C15.7904 49.13 12.7904 46.66 9.05037 43.67C5.31037 40.68 2.29037 38.24 2.40037 38.1Z" fill="#E0E0E0"/>
<path d="M127 38.35C127.11 38.48 124.17 40.98 120.45 43.93C116.73 46.88 113.61 49.16 113.45 49.03C115.507 47.0221 117.698 45.1577 120.01 43.45C123.83 40.5 126.94 38.21 127 38.35Z" fill="#E0E0E0"/>
<path d="M127 124.35L113.1 113.09L127 124.35Z" fill="white"/>
<path d="M113.05 113.09C113.16 112.95 116.35 115.37 120.19 118.48C122.573 120.283 124.831 122.244 126.95 124.35C126.84 124.48 123.64 122.07 119.8 118.96C115.96 115.85 112.94 113.22 113.05 113.09Z" fill="#E0E0E0"/>
<path d="M2.39997 124.34C2.29997 124.2 5.19997 121.73 8.88997 118.81C12.58 115.89 15.66 113.64 15.77 113.81C13.7413 115.803 11.5724 117.647 9.27997 119.33C5.58997 122.21 2.50997 124.47 2.39997 124.34Z" fill="#E0E0E0"/>
<path d="M35.7202 69.16V90.8H97.1602V69.16H35.7202Z" fill="#D3EFEF"/>
<path d="M408.95 12H201.46V458.45H408.95V12Z" fill="#EBEBEB"/>
<path d="M397.89 24.24H212.98V458.45H397.89V24.24Z" fill="#F0F7F7"/>
<path d="M377.74 255.55C383.357 255.55 387.91 250.997 387.91 245.38C387.91 239.763 383.357 235.21 377.74 235.21C372.124 235.21 367.57 239.763 367.57 245.38C367.57 250.997 372.124 255.55 377.74 255.55Z" fill="#E0B3A8"/>
<path d="M368.68 71.63H247.08V120.4H368.68V71.63Z" fill="#E0B3A8"/>
<path d="M368.68 120.4C368.68 120.4 368.68 120.09 368.68 119.52C368.68 118.95 368.68 118.09 368.68 116.99C368.68 114.76 368.68 111.49 368.63 107.29C368.63 98.87 368.63 86.7 368.54 71.63L368.72 71.81L247.13 71.89L247.39 71.63C247.39 88.7 247.39 105.18 247.39 120.4L247.14 120.15L334.29 120.26L359.6 120.33H366.37H368.13H368.74H368.16H366.43H359.71L334.46 120.4L247.14 120.52H246.89V120.27C246.89 105.05 246.89 88.57 246.89 71.5V71.24H247.16L368.75 71.32H368.93V71.5C368.93 86.62 368.85 98.82 368.83 107.27C368.83 111.46 368.83 114.71 368.83 116.93C368.83 118.02 368.83 118.85 368.83 119.43C368.83 120.01 368.68 120.4 368.68 120.4Z" fill="#E0E0E0"/>
<path d="M21.1503 168.9H-16.4897V206.54H21.1503V168.9Z" fill="#F5F5F5"/>
<path d="M21.1503 212.53H-16.4897V250.17H21.1503V212.53Z" fill="#F5F5F5"/>
<path d="M63.66 168.9H26.02V206.54H63.66V168.9Z" fill="#A7D9D4"/>
<path d="M63.66 212.53H26.02V250.17H63.66V212.53Z" fill="#5AA9AD"/>
<path d="M106.24 168.93H68.6001V206.57H106.24V168.93Z" fill="#5AA9AD"/>
<path d="M106.24 212.56H68.6001V250.2H106.24V212.56Z" fill="#A7D9D4"/>
<path d="M148.82 168.93H111.18V206.57H148.82V168.93Z" fill="#A7D9D4"/>
<path d="M148.82 212.56H111.18V250.2H148.82V212.56Z" fill="#38869C"/>
<path d="M192.94 168.93H155.3V206.57H192.94V168.93Z" fill="#F5F5F5"/>
<path d="M192.94 212.56H155.3V250.2H192.94V212.56Z" fill="#F5F5F5"/>
</svg>
