<svg width="21" height="22" viewBox="0 0 21 22" fill="none" xmlns="http://www.w3.org/2000/svg">
<path fill-rule="evenodd" clip-rule="evenodd" d="M4.03778 4.81712H5.96612V3.85294H13.6796V4.81712H15.6079V3.85294H17.5362V6.74546H2.10949V3.85294H4.03778V4.81712ZM2.10949 8.67379V18.3155H11.7512V20.2438H2.10949C1.0445 20.2438 0.181152 19.3804 0.181152 18.3155V3.85294C0.181152 2.78795 1.0445 1.92461 2.10949 1.92461H4.03778V0.960449H5.96612V1.92461H13.6796V0.960449H15.6079V1.92461H17.5362C18.6012 1.92461 19.4645 2.78795 19.4645 3.85294V12.5305H17.5362V8.67379H2.10949ZM14.6439 19.2796V17.3512H16.572V15.4229H18.5003V17.3512H20.4289V19.2796H18.5003V21.2079H16.572V19.2796H14.6439Z" fill="white"/>
</svg>
