<svg width="34" height="33" viewBox="0 0 34 33" fill="none" xmlns="http://www.w3.org/2000/svg">
<g id="instagram-svgrepo-com 1" clip-path="url(#clip0_1338_679)">
<g id="XMLID_13_">
<path id="XMLID_17_" d="M23.9015 0H10.1591C4.57402 0 0.0302734 4.41011 0.0302734 9.83088V23.1691C0.0302734 28.5899 4.57402 33 10.1591 33H23.9015C29.4865 33 34.0303 28.5899 34.0303 23.1691V9.83088C34.0302 4.41011 29.4865 0 23.9015 0ZM30.6099 23.1691C30.6099 26.7651 27.6064 29.6802 23.9015 29.6802H10.1591C6.45415 29.6802 3.45067 26.7651 3.45067 23.1691V9.83088C3.45067 6.23488 6.45415 3.3198 10.1591 3.3198H23.9015C27.6064 3.3198 30.6099 6.23488 30.6099 9.83088V23.1691Z" fill="#1AB9B9"/>
<path id="XMLID_81_" d="M16.0002 7.96509C11.1513 7.96509 7.20654 11.7939 7.20654 16.5C7.20654 21.2061 11.1513 25.035 16.0002 25.035C20.849 25.035 24.7938 21.2062 24.7938 16.5C24.7938 11.7938 20.849 7.96509 16.0002 7.96509ZM16.0002 21.7152C13.0326 21.7152 10.6269 19.3803 10.6269 16.5001C10.6269 13.6198 13.0326 11.2849 16.0002 11.2849C18.9677 11.2849 21.3734 13.6198 21.3734 16.5001C21.3734 19.3803 18.9677 21.7152 16.0002 21.7152Z" fill="url(#paint0_linear_1338_679)"/>
<path id="XMLID_83_" d="M24.8107 10.0746C25.9744 10.0746 26.9177 9.15895 26.9177 8.02947C26.9177 6.9 25.9744 5.98438 24.8107 5.98438C23.647 5.98438 22.7036 6.9 22.7036 8.02947C22.7036 9.15895 23.647 10.0746 24.8107 10.0746Z" fill="#1AB9B9"/>
</g>
</g>
<defs>
<linearGradient id="paint0_linear_1338_679" x1="16.0002" y1="32.9039" x2="16.0002" y2="0.256368" gradientUnits="userSpaceOnUse">
<stop stop-color="#1AB9B9"/>
</linearGradient>
<clipPath id="clip0_1338_679">
<rect width="34" height="33" fill="white"/>
</clipPath>
</defs>
</svg>
