<svg width="24" height="26" viewBox="0 0 24 26" fill="none" xmlns="http://www.w3.org/2000/svg">
<path d="M12.2835 0.362305C8.41168 0.362305 5.26172 3.51226 5.26172 7.38406C5.26172 8.59683 5.57643 9.79284 6.17178 10.8428L11.8518 20.3856H12.7151L18.388 10.8552L18.3952 10.8428C18.9905 9.79284 19.3052 8.59683 19.3052 7.38406C19.3052 3.51226 16.1553 0.362305 12.2835 0.362305ZM12.2835 9.19613C11.2827 9.19613 10.4714 8.38482 10.4714 7.38406C10.4714 6.3833 11.2827 5.57199 12.2835 5.57199C13.2842 5.57199 14.0955 6.3833 14.0955 7.38406C14.0955 8.38482 13.2842 9.19613 12.2835 9.19613Z" fill="#61788E"/>
<path d="M19.7393 16.7917H17.276L13.2312 23.587H10.8227L6.77822 16.7917H4.26692L0.429688 24.5147V25.3991H23.6241V24.5129L19.7393 16.7917Z" fill="#61788E"/>
</svg>
