<svg width="23" height="27" viewBox="0 0 23 27" fill="none" xmlns="http://www.w3.org/2000/svg">
<path d="M21.5558 15.0878H12.6381C12.3077 15.0878 12.0399 15.3311 12.0399 15.6314C12.0399 15.9316 12.3077 16.175 12.6381 16.175H13.6915C13.2748 16.4502 12.7954 16.6299 12.2677 16.7048C11.335 16.8369 10.3387 16.6204 9.4611 16.0952C8.61011 15.5867 8.02833 14.8078 7.82277 13.9018C7.61722 12.9959 7.81248 12.071 8.37249 11.2978C8.79718 10.7117 9.86007 9.92086 10.615 9.61268L11.8252 11.733C11.8983 11.861 12.0244 11.9574 12.1757 12.0009C12.2346 12.0179 12.2955 12.0263 12.3563 12.0263C12.4514 12.0263 12.546 12.0057 12.6319 11.9651L12.7473 11.9107L13.5608 13.3362C13.6673 13.5227 13.8761 13.6296 14.0924 13.6296C14.1851 13.6296 14.2792 13.61 14.3672 13.5686L16.317 12.6503C16.4578 12.584 16.5639 12.4695 16.612 12.332C16.6599 12.1946 16.6458 12.0454 16.5728 11.9175L15.7584 10.49L16.0245 10.3645C16.3176 10.2262 16.4319 9.89814 16.2799 9.63171L12.4938 2.99791C12.4206 2.86989 12.2947 2.7735 12.1434 2.72996C11.992 2.68636 11.828 2.69924 11.687 2.76573L11.5713 2.82031L10.4151 0.793473C10.3421 0.665396 10.216 0.568958 10.0647 0.525414C9.91331 0.481761 9.74916 0.494753 9.60821 0.561238L7.65849 1.4817C7.36548 1.62005 7.25115 1.94807 7.40329 2.21444L8.56034 4.2409L8.29418 4.36647C8.00111 4.50477 7.88672 4.83279 8.03879 5.09922L8.73054 6.311C7.27072 6.86212 6.04397 7.78508 5.16863 8.99507C2.77346 12.304 3.78682 16.7678 7.42781 18.9458C7.88583 19.2195 8.36424 19.4431 8.85491 19.6203V22.0337H4.03946C3.83947 22.0337 3.6527 22.1245 3.54178 22.2757L0.99311 25.7485C0.870651 25.9154 0.859284 26.1298 0.963318 26.3066C1.06741 26.4834 1.27015 26.5938 1.49078 26.5938H20.818C21.0428 26.5938 21.2486 26.4793 21.3508 26.2974C21.453 26.1155 21.4344 25.8968 21.3026 25.7314L18.5365 22.2586C18.424 22.1174 18.2438 22.0337 18.0519 22.0337H13.8728V19.8669C15.6601 19.4208 17.2835 18.4073 18.3801 16.8937C18.3838 16.8885 18.3874 16.8833 18.391 16.878L18.8634 16.1749H21.5559C21.8863 16.1749 22.1542 15.9316 22.1542 15.6313C22.154 15.3311 21.8862 15.0878 21.5558 15.0878ZM14.3477 12.353L13.8362 11.4568L14.7233 11.0378L15.2352 11.9351L14.3477 12.353ZM14.9425 9.64981L12.6119 10.7495L11.2802 8.41661L13.602 7.30132L14.9425 9.64981ZM11.592 4.03818C11.6076 4.03084 11.6227 4.02263 11.6374 4.01415L11.7071 3.98126L13.0512 6.33617L10.7292 7.45146L9.37621 5.08106L9.63256 4.96011C9.63579 4.95869 9.63902 4.95766 9.64225 4.95619L11.592 4.03818ZM9.62849 1.77694L10.5095 3.32136L9.62227 3.73995L8.74071 2.19601L9.62849 1.77694ZM17.7465 23.121L19.6465 25.5066H2.60883L4.35951 23.121H9.45315H13.2746H17.7465ZM10.0513 22.0338V20.1295H12.6763V22.0338H10.0513ZM17.3752 16.3035C16.0864 18.0767 13.9454 19.0395 11.7638 19.0393C10.4985 19.0393 9.21912 18.7152 8.08546 18.0376C4.99562 16.1892 4.13553 12.4009 6.16834 9.59246C6.92984 8.53979 8.00476 7.74399 9.28415 7.28093L10.0638 8.64683C9.10414 9.05781 7.91191 9.95625 7.37314 10.7C6.63736 11.7159 6.3809 12.9309 6.651 14.1214C6.92111 15.3119 7.68566 16.3355 8.8034 17.0034C9.70925 17.5456 10.7247 17.8298 11.726 17.8298C11.9694 17.8298 12.2122 17.813 12.4521 17.779C13.6211 17.6134 14.6465 17.047 15.3732 16.175H17.4615L17.3752 16.3035Z" fill="#61788E"/>
</svg>
