<svg xmlns="http://www.w3.org/2000/svg" width="63" height="63" viewBox="0 0 63 63">
  <g fill="none" fill-rule="evenodd" transform="translate(1.325 .43)">
    <path fill="#1ab9b9" d="M9.75695,21.6033428 C9.75695,22.7538688 8.82245,23.6877429 7.6692,23.6877429 C6.51595,23.6877429 5.582325,22.7538688 5.582325,21.6033428 C5.582325,20.4519433 6.51595,19.5189428 7.6692,19.5189428 C8.82245,19.5189428 9.75695,20.4519433 9.75695,21.6033428 Z"/>
    <path stroke="#2571AD" stroke-linecap="round" stroke-linejoin="round" stroke-width="1.6" d="M48.0869375 31.0126582L48.0869375 4.11061865C48.0869375 2.08125513 46.4401875.436273846 44.4075625.436273846L16.8240625.436273846C14.7914375.436273846 13.1438125 2.08125513 13.1438125 4.11061865L13.1438125 14.2930915M13.1441625 29.7989713L13.1441625 57.8169424C13.1441625 59.8463059 14.7917875 61.4904136 16.8244125 61.4904136L44.4070375 61.4904136C46.4405375 61.4904136 48.0872875 59.8463059 48.0872875 57.8169424L48.0872875 46.5337636"/>
    <line x1="29.731" x2="41.935" y1="17.278" y2="17.278" stroke="#2571AD" stroke-linecap="round" stroke-linejoin="round" stroke-width="1.6"/>
    <line x1="18.194" x2="30.397" y1="39.43" y2="39.43" stroke="#2571AD" stroke-linecap="round" stroke-linejoin="round" stroke-width="1.6"/>
    <line x1="30.616" x2="41.935" y1="21.709" y2="21.709" stroke="#2571AD" stroke-linecap="round" stroke-linejoin="round" stroke-width="1.6"/>
    <line x1="18.194" x2="32.688" y1="43.861" y2="43.861" stroke="#2571AD" stroke-linecap="round" stroke-linejoin="round" stroke-width="1.6"/>
    <line x1="13.144" x2="48.087" y1="8.653" y2="8.653" stroke="#2571AD" stroke-linecap="round" stroke-linejoin="round" stroke-width="1.6"/>
    <line x1="13.144" x2="48.087" y1="54.012" y2="54.012" stroke="#2571AD" stroke-linecap="round" stroke-linejoin="round" stroke-width="1.6"/>
    <path fill="#2571AD" d="M34.3937125,5.59634338 L26.8380875,5.59634338 C26.2798375,5.59634338 25.8265875,5.14382065 25.8265875,4.5855928 C25.8265875,4.02823855 26.2798375,3.57571581 26.8380875,3.57571581 L34.3937125,3.57571581 C34.9528375,3.57571581 35.4052125,4.02823855 35.4052125,4.5855928 C35.4052125,5.14382065 34.9528375,5.59634338 34.3937125,5.59634338 Z"/>
    <path fill="#1ab9b9" d="M16.9432375 21.6033428C16.9432375 22.7538688 16.0087375 23.6877429 14.8554875 23.6877429 13.7031125 23.6877429 12.7686125 22.7538688 12.7686125 21.6033428 12.7686125 20.4519433 13.7031125 19.5189428 14.8554875 19.5189428 16.0087375 19.5189428 16.9432375 20.4519433 16.9432375 21.6033428zM24.1304 21.6033428C24.1304 22.7538688 23.1959 23.6877429 22.04265 23.6877429 20.8894 23.6877429 19.955775 22.7538688 19.955775 21.6033428 19.955775 20.4519433 20.8894 19.5189428 22.04265 19.5189428 23.1959 19.5189428 24.1304 20.4519433 24.1304 21.6033428z"/>
    <path stroke="#1ab9b9" stroke-linecap="round" stroke-linejoin="round" stroke-width="1.6" d="M30.6159875,21.6033428 C30.6159875,17.5655821 27.3382375,14.2930915 23.2948625,14.2930915 L7.7592375,14.2930915 C3.7158625,14.2930915 0.4381125,17.5655821 0.4381125,21.6033428 C0.4381125,25.64023 3.7158625,28.9127206 7.7592375,28.9127206 L19.9016125,28.9127206 L24.1996125,33.2038242 L24.1996125,28.8550633 C27.8159875,28.4104029 30.6159875,25.3344714 30.6159875,21.6033428 Z"/>
    <path fill="#1ab9b9" d="M50.8041625 38.7279711C50.8041625 39.8793707 51.7386625 40.8123712 52.8919125 40.8123712 54.0442875 40.8123712 54.9787875 39.8793707 54.9787875 38.7279711 54.9787875 37.5774452 54.0442875 36.643571 52.8919125 36.643571 51.7386625 36.643571 50.8041625 37.5774452 50.8041625 38.7279711zM43.617875 38.7279711C43.617875 39.8793707 44.5515 40.8123712 45.705625 40.8123712 46.858 40.8123712 47.7925 39.8793707 47.7925 38.7279711 47.7925 37.5774452 46.858 36.643571 45.705625 36.643571 44.5515 36.643571 43.617875 37.5774452 43.617875 38.7279711zM36.4308 38.7279711C36.4308 39.8793707 37.3653 40.8123712 38.51855 40.8123712 39.670925 40.8123712 40.605425 39.8793707 40.605425 38.7279711 40.605425 37.5774452 39.670925 36.643571 38.51855 36.643571 37.3653 36.643571 36.4308 37.5774452 36.4308 38.7279711z"/>
    <path stroke="#1ab9b9" stroke-linecap="round" stroke-linejoin="round" stroke-width="1.6" d="M30.6159875,38.7279711 C30.6159875,34.691084 33.8937375,31.4177197 37.9371125,31.4177197 L53.4727375,31.4177197 C57.5161125,31.4177197 60.7938625,34.691084 60.7938625,38.7279711 C60.7938625,42.7657319 57.5161125,46.0382225 53.4727375,46.0382225 L41.3303625,46.0382225 L37.0323625,50.3284525 L37.0323625,45.9805652 C33.4159875,45.5350312 30.6159875,42.4590997 30.6159875,38.7279711 Z"/>
  </g>
</svg>
