<svg width="146" height="32" viewBox="0 0 146 32" fill="none" xmlns="http://www.w3.org/2000/svg">
<path d="M4.00391 23.5547L3.86719 25.6055C3.86719 26.6732 4.02995 27.526 4.35547 28.1641C4.69401 28.8021 5.30599 29.1211 6.19141 29.1211C6.69922 29.1211 7.1875 28.9518 7.65625 28.6133C8.125 28.2617 8.5026 27.7669 8.78906 27.1289C9.7526 25.1497 10.7031 22.2135 11.6406 18.3203L13.9648 6.32812C14.1341 5.82031 14.974 5.56641 16.4844 5.56641H18.3203C18.151 6.52995 17.9297 8.02734 17.6562 10.0586C17.3828 12.0768 17.1419 13.7044 16.9336 14.9414C16.7383 16.1784 16.3672 17.7148 15.8203 19.5508C15.2865 21.3867 14.6224 23.125 13.8281 24.7656C14.2057 25.9115 14.9414 26.8685 16.0352 27.6367C17.1289 28.3919 18.2552 28.7695 19.4141 28.7695C20.5859 28.7695 21.7318 28.444 22.8516 27.793C23.9844 27.1289 24.9935 26.224 25.8789 25.0781C26.7773 23.9323 27.5 22.5 28.0469 20.7812C28.5938 19.0625 28.8672 17.3698 28.8672 15.7031C28.8672 14.0234 28.7305 12.5781 28.457 11.3672C28.1966 10.1562 27.7669 9.01693 27.168 7.94922C26.582 6.88151 25.8529 5.96354 24.9805 5.19531C23.1055 3.54167 20.5924 2.71484 17.4414 2.71484C15.5534 2.71484 13.6719 3.09245 11.7969 3.84766C9.9349 4.60286 8.41797 5.5599 7.24609 6.71875C6.08724 7.8776 5.50781 9.01042 5.50781 10.1172C5.50781 11.6406 6.57552 12.8125 8.71094 13.6328C8.71094 14.2318 8.65234 14.8633 8.53516 15.5273C8.41797 16.1784 8.30729 16.6016 8.20312 16.7969C6.26302 16.1849 4.80469 15.3125 3.82812 14.1797C2.85156 13.0339 2.36328 11.875 2.36328 10.7031C2.36328 9.51823 2.57812 8.45703 3.00781 7.51953C3.4375 6.56901 4.12109 5.65755 5.05859 4.78516C6.00911 3.89974 7.15495 3.125 8.49609 2.46094C11.4648 1.0026 15.2995 0.273438 20 0.273438C21.875 0.273438 23.5938 0.546875 25.1562 1.09375C26.7318 1.64062 28.0469 2.36328 29.1016 3.26172C30.1562 4.16016 31.0547 5.19531 31.7969 6.36719C33.2031 8.60677 33.9062 10.9831 33.9062 13.4961C33.9062 15.9961 33.5352 18.3138 32.793 20.4492C32.0638 22.5716 31.0677 24.4076 29.8047 25.957C28.5547 27.5065 27.0378 28.7435 25.2539 29.668C23.4831 30.5794 21.5951 31.0352 19.5898 31.0352C16.6211 31.0352 14.2383 29.7982 12.4414 27.3242C11.4258 28.7826 10.332 29.7591 9.16016 30.2539C7.98828 30.7487 6.65365 30.9961 5.15625 30.9961C3.65885 30.9961 2.42188 30.5078 1.44531 29.5312C0.481771 28.5417 0 27.474 0 26.3281C0 24.4792 1.33464 23.5547 4.00391 23.5547Z" fill="#F27B68"/>
<path d="M54.8242 21.2891C54.4987 21.6016 54.1016 22.0052 53.6328 22.5C53.1774 22.9807 52.8264 23.3447 52.5799 23.5919C52.4615 24.2616 52.4023 24.9328 52.4023 25.6055C52.4023 25.6436 52.4026 25.6816 52.4032 25.7194C53.0478 25.2259 53.8548 24.4653 54.8242 23.4375V21.2891Z" fill="white"/>
<path d="M68.5547 23.4766V21.2891C68.1892 21.6498 67.8308 21.9939 67.4798 22.3215C67.4229 22.5623 67.3645 22.8106 67.3047 23.0664C67.1493 23.7491 67.027 24.3939 66.9378 25.0008C67.4616 24.5244 68.0005 24.0163 68.5547 23.4766Z" fill="white"/>
<path d="M79.3164 23.3203V21.1133C78.4588 21.9263 77.6733 22.6574 76.96 23.3067C76.9554 23.4466 76.9531 23.5878 76.9531 23.7305C76.9531 24.3069 76.9966 24.86 77.0835 25.3896C77.2108 25.2711 77.3431 25.1477 77.4805 25.0195C78.2617 24.2904 78.8737 23.724 79.3164 23.3203Z" fill="white"/>
<path d="M96.4258 23.4375V21.2891C96.3368 21.3745 96.2425 21.4667 96.1428 21.5657C96.0323 22.3948 95.9521 23.2006 95.902 23.983C96.071 23.8104 96.2456 23.6285 96.4258 23.4375Z" fill="white"/>
<path d="M107.246 23.5156V21.3281C107.02 21.5788 106.789 21.831 106.554 22.0849C106.286 23.1819 106.068 24.1309 105.899 24.9319C106.331 24.4885 106.78 24.0164 107.246 23.5156Z" fill="white"/>
<path d="M116.426 23.5547V21.3672C116.088 21.7393 115.706 22.1473 115.28 22.5912C115.334 23.253 115.406 23.8786 115.495 24.4681C115.792 24.1779 116.102 23.8735 116.426 23.5547Z" fill="white"/>
<path fill-rule="evenodd" clip-rule="evenodd" d="M107.324 2.24609C106.413 2.24609 105.521 3.51562 104.648 6.05469C103.789 8.59375 102.799 12.526 101.68 17.8516C102.656 16.849 103.574 15.6445 104.434 14.2383C105.293 12.819 105.983 11.4453 106.504 10.1172C107.611 7.31771 108.164 5.30599 108.164 4.08203C108.164 2.85807 107.884 2.24609 107.324 2.24609ZM97.5977 30.4883C97.1419 30.4883 96.8294 30.3711 96.6602 30.1367C96.4909 29.9023 96.3607 29.707 96.2695 29.5508C96.1784 29.3815 96.1068 29.1602 96.0547 28.8867C96.0026 28.6133 95.957 28.3789 95.918 28.1836C95.8919 27.9883 95.8724 27.7279 95.8594 27.4023C95.8464 27.0638 95.8398 26.8099 95.8398 26.6406V25.8789C95.8398 25.263 95.8606 24.631 95.902 23.983C96.071 23.8104 96.2456 23.6285 96.4258 23.4375V21.2891C96.3368 21.3745 96.2425 21.4667 96.1428 21.5657C96.3142 20.2797 96.5583 18.9375 96.875 17.5391C97.5781 14.4922 98.4701 11.6797 99.5508 9.10156C100.645 6.52344 101.921 4.36198 103.379 2.61719C104.837 0.872396 106.257 0 107.637 0C108.483 0 109.147 0.292969 109.629 0.878906C110.124 1.45182 110.371 2.3112 110.371 3.45703C110.371 4.58984 110.195 5.86589 109.844 7.28516C109.505 8.69141 109.062 9.98698 108.516 11.1719C107.969 12.3438 107.363 13.4896 106.699 14.6094C106.035 15.7161 105.371 16.6927 104.707 17.5391C103.353 19.2578 102.298 20.4688 101.543 21.1719L101.035 21.6797C100.267 23.7109 99.8828 25.2148 99.8828 26.1914C99.8828 27.1549 100.111 27.6367 100.566 27.6367C100.892 27.6367 101.784 26.9206 103.242 25.4883C104.428 24.3237 105.532 23.1892 106.554 22.0849C106.286 23.1819 106.068 24.1309 105.899 24.9319C104.252 26.6213 102.845 27.894 101.68 28.75C100.221 29.8177 98.8607 30.3971 97.5977 30.4883ZM115.495 24.4681C113.44 26.4772 112.032 27.8004 111.27 28.4375C109.681 29.7526 108.32 30.4362 107.188 30.4883C106.615 30.4883 106.185 30.2344 105.898 29.7266C105.612 29.2057 105.469 28.5417 105.469 27.7344C105.469 27.228 105.612 26.2938 105.899 24.9319C106.331 24.4885 106.78 24.0164 107.246 23.5156V21.3281C107.02 21.5788 106.789 21.831 106.554 22.0849L106.562 22.0508C107.292 19.069 107.773 17.2656 108.008 16.6406C108.255 16.0156 108.457 15.5794 108.613 15.332C108.77 15.0846 108.965 14.8893 109.199 14.7461C109.434 14.6029 109.635 14.4922 109.805 14.4141C109.987 14.3229 110.26 14.2578 110.625 14.2188C111.133 14.1797 111.758 14.1602 112.5 14.1602C110.443 20.7487 109.414 24.707 109.414 26.0352C109.414 26.8945 109.642 27.3242 110.098 27.3242C110.384 27.3242 111.283 26.582 112.793 25.0977C113.744 24.1633 114.572 23.3278 115.28 22.5912C115.334 23.253 115.406 23.8786 115.495 24.4681ZM129.923 23.116C129.579 23.4684 129.306 23.7514 129.102 23.9648C128.815 24.2513 128.431 24.6224 127.949 25.0781C127.467 25.5339 127.057 25.7617 126.719 25.7617C126.693 25.4883 126.562 25.1302 126.328 24.6875C126.693 23.763 127.148 22.3047 127.695 20.3125C128.242 18.3203 128.516 16.6927 128.516 15.4297C128.516 14.1536 128.184 13.5156 127.52 13.5156C126.973 13.5156 126.478 13.8477 126.035 14.5117C125.605 15.1628 125.267 15.9961 125.02 17.0117C124.772 18.0273 124.583 19.0625 124.453 20.1172C124.336 21.1719 124.277 22.0312 124.277 22.6953C124.277 23.3594 124.284 23.6979 124.297 23.7109C124.31 23.7109 124.069 24.1276 123.574 24.9609C122.52 26.7448 121.797 27.6367 121.406 27.6367C120.911 27.6367 120.456 26.9206 120.039 25.4883C119.635 24.056 119.434 22.3503 119.434 20.3711C119.434 18.3789 119.635 16.3086 120.039 14.1602H118.477C116.51 14.1602 115.488 14.4792 115.41 15.1172C115.241 16.2891 115.156 17.6888 115.156 19.3164C115.156 20.4918 115.197 21.5834 115.28 22.5912C115.706 22.1473 116.088 21.7393 116.426 21.3672V23.5547C116.102 23.8735 115.792 24.1779 115.495 24.4681C115.769 26.273 116.21 27.7393 116.816 28.8672C117.402 29.9479 118.092 30.4883 118.887 30.4883C119.447 30.4883 120.026 30.4297 120.625 30.3125C121.237 30.2083 121.908 29.8698 122.637 29.2969C123.197 28.8411 124.01 27.6758 125.078 25.8008C125.638 26.9987 126.133 27.5977 126.562 27.5977C126.849 27.5977 127.259 27.4479 127.793 27.1484C128.144 26.9565 128.818 26.3738 129.816 25.4006C129.854 26.2482 129.987 26.9871 130.215 27.6172C130.944 29.5312 132.78 30.4883 135.723 30.4883C137.194 30.4883 138.743 29.8958 140.371 28.7109C141.999 27.526 143.848 25.7943 145.918 23.5156V21.3672C145.54 21.7057 144.857 22.3763 143.867 23.3789C142.878 24.3685 142.057 25.1693 141.406 25.7812C140.768 26.3802 140.026 26.9531 139.18 27.5C138.346 28.0469 137.643 28.3203 137.07 28.3203C134.883 28.3203 133.789 26.8164 133.789 23.8086C133.789 22.6888 134.069 21.543 134.629 20.3711C135.085 21.0742 135.638 21.6016 136.289 21.9531C136.94 22.3047 137.565 22.4805 138.164 22.4805C139.661 22.4805 141.009 21.9336 142.207 20.8398C143.405 19.7331 144.004 18.4375 144.004 16.9531C144.004 14.6615 142.467 13.5156 139.395 13.5156C137.572 13.5156 135.911 14.0755 134.414 15.1953C132.93 16.3021 131.79 17.7214 130.996 19.4531C130.452 20.6313 130.094 21.8522 129.923 23.116ZM129.923 23.116C129.844 23.6959 129.805 24.2849 129.805 24.8828C129.805 25.0597 129.808 25.2323 129.816 25.4006C130.375 24.8557 131.035 24.1883 131.797 23.3984V21.2109C131.406 21.6016 130.931 22.0833 130.371 22.6562C130.21 22.8208 130.061 22.974 129.923 23.116ZM76.96 23.3067C77.0564 20.343 78.1739 17.9907 80.3125 16.25C82.5651 14.4271 85.5534 13.5156 89.2773 13.5156C89.5378 13.5156 89.681 13.6003 89.707 13.7695C89.707 14.1471 89.5638 14.4271 89.2773 14.6094C86.6862 14.6094 84.707 15.3516 83.3398 16.8359C82.0638 18.2422 81.4258 19.8242 81.4258 21.582C81.4258 23.3268 81.8099 24.7201 82.5781 25.7617C83.3594 26.8034 84.3099 27.3242 85.4297 27.3242C86.5495 27.3242 87.6302 26.7383 88.6719 25.5664C87.6953 24.9544 86.9401 24.1471 86.4062 23.1445C85.8854 22.1419 85.625 21.1263 85.625 20.0977C85.625 19.056 85.9375 18.2161 86.5625 17.5781C87.1875 16.9271 88.0924 16.6016 89.2773 16.6016C90.4622 16.6016 91.3216 16.9206 91.8555 17.5586C92.4023 18.1966 92.6758 18.9779 92.6758 19.9023C92.6758 21.8034 92.0703 23.4896 90.8594 24.9609C91.1849 25.0911 91.4648 25.1562 91.6992 25.1562C91.9336 25.1562 92.1745 25.1042 92.4219 25C92.6823 24.8828 92.9753 24.6875 93.3008 24.4141C93.6263 24.1276 93.9128 23.8607 94.1602 23.6133C94.4076 23.3659 94.7656 22.9948 95.2344 22.5C95.575 22.1404 95.8778 21.829 96.1428 21.5657C96.0323 22.3948 95.9521 23.2006 95.902 23.983C95.0576 24.8455 94.3533 25.4775 93.7891 25.8789C93.125 26.3607 92.4674 26.6016 91.8164 26.6016C91.1784 26.6016 90.5924 26.5104 90.0586 26.3281C89.056 27.5521 87.8646 28.5547 86.4844 29.3359C85.1172 30.1042 83.6979 30.4883 82.2266 30.4883C80.1172 30.4883 78.6133 29.4922 77.7148 27.5C77.4171 26.8435 77.2067 26.1401 77.0835 25.3896C77.2108 25.2711 77.3431 25.1477 77.4805 25.0195C78.2617 24.2904 78.8737 23.724 79.3164 23.3203V21.1133C78.4588 21.9263 77.6733 22.6574 76.96 23.3067ZM67.4798 22.3215C67.7819 21.0426 68.0426 19.9758 68.2617 19.1211C68.5221 18.0924 68.8086 16.9076 69.1211 15.5664H68.6523H68.3008C68.1836 15.5534 68.0924 15.5404 68.0273 15.5273C67.9622 15.5143 67.8841 15.4948 67.793 15.4688C67.7148 15.4427 67.6497 15.4102 67.5977 15.3711C67.5456 15.332 67.4935 15.2865 67.4414 15.2344C67.3503 15.1302 67.3047 14.9935 67.3047 14.8242C67.3047 14.6419 67.3112 14.5247 67.3242 14.4727C67.3763 14.3424 67.6107 14.2513 68.0273 14.1992L69.668 14.043C70.2799 12.0117 70.7096 10.7227 70.957 10.1758C71.2044 9.61589 71.4388 9.11458 71.6602 8.67188C71.8945 8.22917 72.1159 7.88411 72.3242 7.63672C72.5456 7.38932 72.7995 7.1224 73.0859 6.83594C73.3724 6.54948 73.6719 6.33464 73.9844 6.19141C74.7266 5.85286 75.4883 5.68359 76.2695 5.68359L76.3477 5.76172C76.3477 5.8138 76.1784 6.32161 75.8398 7.28516C74.7201 10.4883 73.9714 12.7409 73.5938 14.043L79.5508 13.7695L79.1211 14.4727C78.7956 15.0716 76.849 15.3711 73.2812 15.3711C73.2682 15.3711 73.0664 16.0938 72.6758 17.5391C71.5039 21.849 70.918 24.4596 70.918 25.3711C70.918 26.2956 71.0221 26.8294 71.2305 26.9727C71.4388 27.1029 71.6536 27.168 71.875 27.168C72.4365 27.168 74.1315 25.8809 76.96 23.3067C76.9554 23.4466 76.9531 23.5878 76.9531 23.7305C76.9531 24.3069 76.9966 24.86 77.0835 25.3896C76.4868 25.9453 76.0006 26.3949 75.625 26.7383C75.1823 27.1419 74.6224 27.6172 73.9453 28.1641C73.2812 28.7109 72.7148 29.1276 72.2461 29.4141C71.0482 30.1302 69.9935 30.4883 69.082 30.4883C67.5326 30.4883 66.7578 29.4076 66.7578 27.2461C66.7578 26.5662 66.8178 25.8178 66.9378 25.0008C67.4616 24.5244 68.0005 24.0163 68.5547 23.4766V21.2891C68.1892 21.6498 67.8308 21.9939 67.4798 22.3215ZM52.5799 23.5919C52.7067 22.8746 52.9014 22.1591 53.1641 21.4453C53.6719 20.0521 54.349 18.7695 55.1953 17.5977C56.0547 16.4128 57.1224 15.4362 58.3984 14.668C59.6745 13.8997 61.0091 13.5156 62.4023 13.5156C64.2513 13.5156 65.4492 13.9583 65.9961 14.8438C66.1914 15.1562 66.2891 15.5599 66.2891 16.0547C66.2891 16.5365 66.0417 16.9661 65.5469 17.3438C65.0651 17.7083 64.4531 17.8906 63.7109 17.8906C63.3073 17.8906 62.9297 17.474 62.5781 16.6406C62.4479 16.3411 62.2331 16.0612 61.9336 15.8008C61.6471 15.5404 61.3086 15.4102 60.918 15.4102C60.1628 15.4102 59.4531 15.8333 58.7891 16.6797C58.125 17.526 57.6042 18.5547 57.2266 19.7656C56.862 20.9766 56.6797 22.1615 56.6797 23.3203C56.6797 24.4661 56.888 25.3971 57.3047 26.1133C57.7214 26.8164 58.3529 27.168 59.1992 27.168C61.2563 27.168 64.0165 25.5525 67.4798 22.3215C67.4229 22.5623 67.3645 22.8106 67.3047 23.0664C67.1493 23.7491 67.027 24.3939 66.9378 25.0008C64.1389 27.5466 61.7742 29.187 59.8438 29.9219C58.8281 30.2995 57.8516 30.4883 56.9141 30.4883C55.4167 30.4883 54.2904 30.0195 53.5352 29.082C52.8008 28.1704 52.4235 27.0496 52.4032 25.7194C53.0478 25.2259 53.8548 24.4653 54.8242 23.4375V21.2891C54.4987 21.6016 54.1016 22.0052 53.6328 22.5C53.1774 22.9807 52.8264 23.3447 52.5799 23.5919ZM52.5799 23.5919L52.5586 23.6133C52.3112 23.8607 52.0247 24.1276 51.6992 24.4141C51.3737 24.6875 51.0807 24.8828 50.8203 25C50.5729 25.1042 50.332 25.1562 50.0977 25.1562C49.8633 25.1562 49.5833 25.0911 49.2578 24.9609C50.4688 23.4896 51.0742 21.8034 51.0742 19.9023C51.0742 18.9779 50.8008 18.1966 50.2539 17.5586C49.7201 16.9206 48.8607 16.6016 47.6758 16.6016C46.4909 16.6016 45.5859 16.9271 44.9609 17.5781C44.3359 18.2161 44.0234 19.056 44.0234 20.0977C44.0234 21.1263 44.2839 22.1419 44.8047 23.1445C45.3385 24.1471 46.0938 24.9544 47.0703 25.5664C46.0286 26.7383 44.9479 27.3242 43.8281 27.3242C42.7083 27.3242 41.7578 26.8034 40.9766 25.7617C40.2083 24.7201 39.8242 23.3268 39.8242 21.582C39.8242 19.8242 40.4622 18.2422 41.7383 16.8359C43.1055 15.3516 45.0846 14.6094 47.6758 14.6094C47.9622 14.4271 48.1055 14.1471 48.1055 13.7695C48.0794 13.6003 47.9362 13.5156 47.6758 13.5156C43.9518 13.5156 40.9635 14.4271 38.7109 16.25C36.4714 18.0729 35.3516 20.5664 35.3516 23.7305C35.3516 25.1237 35.6055 26.3802 36.1133 27.5C37.0117 29.4922 38.5156 30.4883 40.625 30.4883C42.0964 30.4883 43.5156 30.1042 44.8828 29.3359C46.263 28.5547 47.4544 27.5521 48.457 26.3281C48.9909 26.5104 49.5768 26.6016 50.2148 26.6016C50.8659 26.6016 51.5234 26.3607 52.1875 25.8789C52.2573 25.8293 52.3292 25.7761 52.4032 25.7194C52.4026 25.6816 52.4023 25.6436 52.4023 25.6055C52.4023 24.9328 52.4615 24.2616 52.5799 23.5919ZM47.6172 18.4766C48.6849 18.4766 49.2188 19.0755 49.2188 20.2734C49.2188 20.8854 49.082 21.5755 48.8086 22.3438C48.5482 23.099 48.2878 23.6914 48.0273 24.1211C47.4154 23.7044 46.9271 23.1445 46.5625 22.4414C46.2109 21.7253 46.0352 21.0352 46.0352 20.3711C46.0352 19.1081 46.5625 18.4766 47.6172 18.4766ZM89.2188 18.4766C90.2865 18.4766 90.8203 19.0755 90.8203 20.2734C90.8203 20.8854 90.6836 21.5755 90.4102 22.3438C90.1497 23.099 89.8893 23.6914 89.6289 24.1211C89.0169 23.7044 88.5286 23.1445 88.1641 22.4414C87.8125 21.7253 87.6367 21.0352 87.6367 20.3711C87.6367 19.1081 88.1641 18.4766 89.2188 18.4766ZM111.387 7.55859C111.387 8.49609 111.849 8.96484 112.773 8.96484C113.568 8.96484 114.271 8.65885 114.883 8.04688C115.508 7.4349 115.82 6.86849 115.82 6.34766C115.82 5.8138 115.658 5.41667 115.332 5.15625C115.007 4.89583 114.512 4.76562 113.848 4.76562C113.184 4.76562 112.604 5.07161 112.109 5.68359C111.628 6.28255 111.387 6.90755 111.387 7.55859ZM138.477 20.8008C137.279 20.8008 136.185 20.1628 135.195 18.8867C135.443 18.1576 135.905 17.4089 136.582 16.6406C136.934 16.25 137.357 15.9245 137.852 15.6641C138.359 15.4036 138.9 15.2734 139.473 15.2734C140.059 15.2734 140.501 15.4167 140.801 15.7031C141.113 15.9766 141.27 16.5234 141.27 17.3438C141.27 18.1641 140.99 18.9453 140.43 19.6875C139.883 20.4297 139.232 20.8008 138.477 20.8008Z" fill="white"/>
<path d="M131.797 21.2109C131.406 21.6016 130.931 22.0833 130.371 22.6562C130.21 22.8208 130.061 22.974 129.923 23.116C129.844 23.6959 129.805 24.2849 129.805 24.8828C129.805 25.0597 129.808 25.2323 129.816 25.4006C130.375 24.8557 131.035 24.1883 131.797 23.3984V21.2109Z" fill="white"/>
</svg>
