<svg width="33" height="33" viewBox="0 0 33 33" fill="none" xmlns="http://www.w3.org/2000/svg">
<g id="facebook-logo-svgrepo-com 1" clip-path="url(#clip0_1338_676)">
<g id="Group">
<path id="Vector" d="M31.2447 0H1.75532C0.786032 0 0 0.786032 0 1.75532V31.2447C0 32.214 0.786032 33 1.75532 33H31.2447C32.2143 33 33 32.214 33 31.2447V1.75532C33 0.786032 32.2143 0 31.2447 0ZM23.4967 7.50013L20.9599 7.50118C18.9715 7.50118 18.5864 8.44624 18.5864 9.8333V12.8914H23.3296L23.3282 17.6813H18.5864V29.9728H13.6395V17.6813H9.5033V12.8914H13.6395V9.35901C13.6395 5.25964 16.1437 3.02722 19.8 3.02722L23.4967 3.03319V7.50013Z" fill="#1AB9B9"/>
</g>
</g>
<defs>
<clipPath id="clip0_1338_676">
<rect width="33" height="33" fill="white"/>
</clipPath>
</defs>
</svg>
