<svg xmlns="http://www.w3.org/2000/svg" width="73" height="63" viewBox="0 0 73 63">
  <g fill="none" fill-rule="evenodd" stroke-linecap="round" stroke-linejoin="round" stroke-width="1.6" transform="translate(1 .544)">
    <path stroke="#2571AD" d="M66.4474125,0.436798003 C68.7924125,0.436798003 70.6929125,2.33424853 70.6929125,4.67548583 L70.6929125,47.4100553 C70.6929125,49.750419 68.7924125,51.6478695 66.4474125,51.6478695 L4.6820375,51.6478695 C2.3379125,51.6478695 0.4382875,49.750419 0.4382875,47.4100553 L0.4382875,4.67548583 C0.4382875,2.33424853 2.3379125,0.436798003 4.6820375,0.436798003 L66.4474125,0.436798003 Z"/>
    <line x1=".438" x2="70.692" y1="42.479" y2="42.479" stroke="#2571AD"/>
    <line x1="22.6" x2="48.531" y1="61.491" y2="61.491" stroke="#2571AD"/>
    <line x1="29.177" x2="26.584" y1="51.648" y2="61.491" stroke="#2571AD"/>
    <line x1="41.952" x2="44.546" y1="51.648" y2="61.491" stroke="#2571AD"/>
    <path stroke="#1ab9b9" d="M16.7083 30.2635497C16.7083 32.7899893 14.6573 34.8376983 12.127675 34.8376983 9.597175 34.8376983 7.5453 32.7899893 7.5453 30.2635497 7.5453 27.73711 9.597175 25.689401 12.127675 25.689401 14.6573 25.689401 16.7083 27.73711 16.7083 30.2635497zM31.9370625 17.7816099C31.9370625 20.3080496 29.8860625 22.3557586 27.3564375 22.3557586 24.8259375 22.3557586 22.7740625 20.3080496 22.7740625 17.7816099 22.7740625 15.2551703 24.8259375 13.2074612 27.3564375 13.2074612 29.8860625 13.2074612 31.9370625 15.2551703 31.9370625 17.7816099zM48.1698 26.9295579C48.1698 29.4559975 46.1188 31.5037065 43.589175 31.5037065 41.058675 31.5037065 39.0068 29.4559975 39.0068 26.9295579 39.0068 24.4031182 41.058675 22.3554092 43.589175 22.3554092 46.1188 22.3554092 48.1698 24.4031182 48.1698 26.9295579z"/>
    <line x1="46.828" x2="63.306" y1="23.695" y2="9.446" stroke="#1ab9b9"/>
    <line x1="31.301" x2="39.643" y1="20.069" y2="24.642" stroke="#1ab9b9"/>
    <line x1="15.881" x2="23.6" y1="27.652" y2="20.394" stroke="#1ab9b9"/>
    <polyline stroke="#1ab9b9" points="56.487 9.446 63.306 9.446 63.306 16.255"/>
  </g>
</svg>
