<svg xmlns="http://www.w3.org/2000/svg" width="63" height="63" viewBox="0 0 63 63">
  <g fill="none" fill-rule="evenodd" stroke-linecap="round" stroke-width="1.6" transform="translate(.438 .544)">
    <path stroke="#2571AD" d="M47.4959625,30.9639116 C47.4959625,40.0519308 40.1162125,47.4198395 31.0135875,47.4198395 C21.9109625,47.4198395 14.5312125,40.0519308 14.5312125,30.9639116 C14.5312125,21.8758923 21.9109625,14.5079836 31.0135875,14.5079836 C40.1162125,14.5079836 47.4959625,21.8758923 47.4959625,30.9639116 Z"/>
    <path stroke="#2571AD" d="M61.5895875,35.2342236 L61.5895875,26.693949 L54.6945875,24.6942878 C54.1284625,22.5583455 53.2884625,20.5403387 52.2008375,18.6760849 L55.6588375,12.3975504 L49.6099625,6.35838117 L43.3213375,9.80995899 C41.4540875,8.72495275 39.4319625,7.88630059 37.2934625,7.32108397 L35.2905875,0.436273846 L26.7357125,0.436273846 L24.7337125,7.32108397 C22.5952125,7.88630059 20.5730875,8.72495275 18.7058375,9.80995899 L12.4172125,6.35838117 L6.3683375,12.3975504 L9.8263375,18.6760849 C8.7387125,20.5403387 7.8987125,22.5583455 7.3325875,24.6942878 L0.4375875,26.693949 L0.4375875,35.2342236 L7.3325875,37.2338848 C7.8987125,39.3689535 8.7387125,41.3869602 9.8263375,43.2520877 L6.3683375,49.5297486 L12.4172125,55.5689178 L18.7058375,52.11734 C20.5730875,53.2023462 22.5952125,54.041872 24.7337125,54.606215 L26.7357125,61.4910251 L35.2905875,61.4910251 L37.2934625,54.606215 C39.4319625,54.041872 41.4540875,53.2023462 43.3213375,52.11734 L49.6099625,55.5689178 L55.6588375,49.5297486 L52.2008375,43.2520877 C53.2884625,41.3869602 54.1284625,39.3689535 54.6945875,37.2338848 L61.5895875,35.2342236 Z"/>
    <line x1="31.014" x2="31.014" y1="21.173" y2="36.879" stroke="#1ab9b9"/>
    <polyline stroke="#1ab9b9" points="36.224 31.677 31.013 36.879 25.804 31.677"/>
    <line x1="23.836" x2="38.191" y1="39.869" y2="39.869" stroke="#1ab9b9"/>
  </g>
</svg>
