<svg width="31" height="31" viewBox="0 0 31 31" fill="none" xmlns="http://www.w3.org/2000/svg">
<g id="tiktok-logo-logo-svgrepo-com 1" clip-path="url(#clip0_1338_690)">
<g id="Group">
<path id="Vector" fill-rule="evenodd" clip-rule="evenodd" d="M3.1 0H27.9C29.6122 0 31 1.38781 31 3.1V27.9C31 29.6122 29.6122 31 27.9 31H3.1C1.38781 31 0 29.6122 0 27.9V3.1C0 1.38781 1.38781 0 3.1 0Z" fill="#1AB9B9"/>
<path id="Vector_2" fill-rule="evenodd" clip-rule="evenodd" d="M19.4653 28.5199C20.4086 28.5199 21.1733 27.7614 21.1733 26.8258C21.1733 25.8902 20.4086 25.1316 19.4653 25.1316H19.208C20.1513 25.1316 20.916 25.8902 20.916 26.8258C20.916 27.7614 20.1513 28.5199 19.208 28.5199H19.4653Z" fill="#EE1D51"/>
<path id="Vector_3" fill-rule="evenodd" clip-rule="evenodd" d="M19.1851 25.1316H18.9278C17.9846 25.1316 17.2197 25.8902 17.2197 26.8258C17.2197 27.7614 17.9846 28.5199 18.9278 28.5199H19.1851C18.2417 28.5199 17.477 27.7614 17.477 26.8258C17.477 25.8902 18.2417 25.1316 19.1851 25.1316V25.1316Z" fill="#66C8CF"/>
<path id="Vector_4" d="M19.1969 27.6494C19.6557 27.6494 20.0276 27.2806 20.0276 26.8257C20.0276 26.3707 19.6557 26.002 19.1969 26.002C18.7381 26.002 18.3662 26.3707 18.3662 26.8257C18.3662 27.2806 18.7381 27.6494 19.1969 27.6494Z" fill="#1AB9B9"/>
<path id="Vector_5" fill-rule="evenodd" clip-rule="evenodd" d="M6.2002 24.366V25.2247H7.20608V28.4968H8.21234V25.2479H9.03112L9.31185 24.366H6.2002ZM14.4357 24.366V25.2247H15.4415V28.4968H16.4478V25.2479H17.2666L17.5473 24.366H14.4357ZM9.49922 24.8533C9.49922 24.5842 9.71882 24.366 9.99013 24.366C10.2617 24.366 10.4815 24.5842 10.4815 24.8533C10.4815 25.1224 10.2618 25.3406 9.99013 25.3406C9.71882 25.3405 9.49922 25.1224 9.49922 24.8533ZM9.49922 25.6888H10.4815V28.4968H9.49922V25.6888ZM10.9028 24.366V28.4968H11.8855V27.4294L12.1896 27.1506L13.1488 28.52H14.2015L12.8211 26.5242L14.0611 25.3173H12.8679L11.8855 26.2919V24.366H10.9028ZM21.5011 24.366V28.4968H22.4839V27.4294L22.7879 27.1506L23.7473 28.52H24.8002L23.4197 26.5242L24.6597 25.3173H23.4666L22.4839 26.2919V24.366H21.5011Z" fill="white"/>
<path id="Vector_6" fill-rule="evenodd" clip-rule="evenodd" d="M19.9845 10.0671C21.3416 11.0367 23.0042 11.6072 24.7997 11.6072V8.1537C24.4599 8.15384 24.1209 8.11839 23.7885 8.04793V10.7664C21.9931 10.7664 20.3307 10.1959 18.9733 9.2263V16.2738C18.9733 19.7994 16.1139 22.6572 12.5867 22.6572C11.2707 22.6572 10.0474 22.2596 9.03125 21.5776C10.191 22.7628 11.8084 23.4981 13.5977 23.4981C17.1251 23.4981 19.9847 20.6403 19.9847 17.1146V10.0671H19.9845ZM21.232 6.58299C20.5384 5.82573 20.0831 4.84699 19.9845 3.76497V3.3208H19.0263C19.2674 4.69596 20.0902 5.87086 21.232 6.58299V6.58299ZM11.2621 18.8723C10.8747 18.3645 10.6653 17.7432 10.6662 17.1045C10.6662 15.492 11.9741 14.1847 13.5878 14.1847C13.8884 14.1845 14.1874 14.2306 14.474 14.3215V10.7908C14.1391 10.7449 13.8011 10.7255 13.4631 10.7327V13.4807C13.1764 13.3899 12.8773 13.3438 12.5765 13.344C10.9629 13.344 9.65509 14.6513 9.65509 16.2639C9.65509 17.4041 10.3088 18.3914 11.2621 18.8723V18.8723Z" fill="#EE1D52"/>
<path id="Vector_7" fill-rule="evenodd" clip-rule="evenodd" d="M18.9733 9.2263C20.3308 10.1959 21.9931 10.7664 23.7885 10.7664V8.04793C22.7863 7.83465 21.8991 7.31112 21.232 6.58299C20.0902 5.87086 19.2675 4.69596 19.0263 3.3208H16.5092V17.1144C16.5035 18.7225 15.1978 20.0245 13.5876 20.0245C12.6388 20.0245 11.7958 19.5725 11.262 18.8723C10.3087 18.3914 9.65498 17.4041 9.65498 16.2639C9.65498 14.6513 10.9628 13.344 12.5764 13.344C12.8856 13.344 13.1835 13.3921 13.463 13.4807V10.7327C9.99784 10.8042 7.21094 13.6341 7.21094 17.1146C7.21094 18.8519 7.90497 20.427 9.03126 21.5777C10.0474 22.2597 11.2707 22.6574 12.5867 22.6574C16.1139 22.6574 18.9733 19.7994 18.9733 16.274V9.2263Z" fill="white"/>
<path id="Vector_8" fill-rule="evenodd" clip-rule="evenodd" d="M23.7888 8.04783V7.31276C22.8851 7.31412 21.9991 7.06115 21.2323 6.58277C21.9111 7.3255 22.8049 7.8377 23.7888 8.04783V8.04783ZM19.0266 3.3207C19.0036 3.18929 18.9859 3.057 18.9737 2.92415V2.47998H15.4982V16.2737C15.4926 17.8816 14.187 19.1836 12.5768 19.1836C12.104 19.1836 11.6577 19.0716 11.2624 18.8722C11.7962 19.5724 12.6391 20.0244 13.588 20.0244C15.198 20.0244 16.5039 18.7224 16.5096 17.1143V3.3207H19.0266ZM13.4635 10.7326V9.94999C13.1731 9.91028 12.8803 9.89044 12.5872 9.89059C9.05964 9.89059 6.2002 12.7485 6.2002 16.2737C6.2002 18.4839 7.32401 20.4317 9.03173 21.5775C7.90544 20.4267 7.21142 18.8517 7.21142 17.1143C7.21142 13.634 9.99819 10.8041 13.4635 10.7326V10.7326Z" fill="#69C9D0"/>
<path id="Vector_9" fill-rule="evenodd" clip-rule="evenodd" d="M19.2079 28.5199C20.1511 28.5199 20.916 27.7614 20.916 26.8258C20.916 25.8902 20.1511 25.1316 19.2079 25.1316H19.1845C18.2413 25.1316 17.4766 25.8902 17.4766 26.8258C17.4766 27.7614 18.2413 28.5199 19.1845 28.5199H19.2079ZM18.3656 26.8258C18.3656 26.3707 18.7376 26.0021 19.1964 26.0021C19.6549 26.0021 20.0269 26.3707 20.0269 26.8258C20.0269 27.2809 19.6549 27.6498 19.1964 27.6498C18.7376 27.6497 18.3656 27.2809 18.3656 26.8258Z" fill="white"/>
</g>
</g>
<defs>
<clipPath id="clip0_1338_690">
<rect width="31" height="31" fill="white"/>
</clipPath>
</defs>
</svg>
