<svg xmlns="http://www.w3.org/2000/svg" width="59" height="63" viewBox="0 0 59 63">
  <g fill="none" fill-rule="evenodd" stroke-linecap="round" stroke-linejoin="round" stroke-width="1.6" transform="translate(1.1 .43)">
    <path stroke="#2571AD" d="M56.2029125,33.5117543 C56.2029125,48.8861704 43.7192875,61.3497647 28.3201625,61.3497647 C12.9210375,61.3497647 0.4374125,48.8861704 0.4374125,33.5117543 C0.4374125,18.1373382 12.9210375,5.67374398 28.3201625,5.67374398 C43.7192875,5.67374398 56.2029125,18.1373382 56.2029125,33.5117543 Z"/>
    <path stroke="#2571AD" d="M31.495275,33.5117543 C31.495275,35.2624407 30.0734,36.6811606 28.320775,36.6811606 C26.5664,36.6811606 25.1454,35.2624407 25.1454,33.5117543 C25.1454,31.7610679 26.5664,30.3414744 28.320775,30.3414744 C30.0734,30.3414744 31.495275,31.7610679 31.495275,33.5117543 Z"/>
    <path fill="#1ab9b9" stroke="#1ab9b9" d="M48.47265 44.7933732C48.47265 45.6556124 47.77265 46.3553628 46.90815 46.3553628 46.044525 46.3553628 45.34365 45.6556124 45.34365 44.7933732 45.34365 43.9302603 46.044525 43.2313835 46.90815 43.2313835 47.77265 43.2313835 48.47265 43.9302603 48.47265 44.7933732zM11.485325 44.7933732C11.485325 45.6556124 10.78445 46.3553628 9.920825 46.3553628 9.0572 46.3553628 8.356325 45.6556124 8.356325 44.7933732 8.356325 43.9302603 9.0572 43.2313835 9.920825 43.2313835 10.78445 43.2313835 11.485325 43.9302603 11.485325 44.7933732zM11.485325 22.2325816C11.485325 23.0948208 10.78445 23.7945712 9.920825 23.7945712 9.0572 23.7945712 8.356325 23.0948208 8.356325 22.2325816 8.356325 21.3703423 9.0572 20.6705919 9.920825 20.6705919 10.78445 20.6705919 11.485325 21.3703423 11.485325 22.2325816zM8.35405 33.5117543C8.35405 34.3739936 7.653175 35.073744 6.78955 35.073744 5.925925 35.073744 5.22505 34.3739936 5.22505 33.5117543 5.22505 32.6495151 5.925925 31.9497647 6.78955 31.9497647 7.653175 31.9497647 8.35405 32.6495151 8.35405 33.5117543zM41.220725 52.0264985C41.220725 52.8887377 40.520725 53.5884881 39.656225 53.5884881 38.7926 53.5884881 38.091725 52.8887377 38.091725 52.0264985 38.091725 51.1642592 38.7926 50.4645088 39.656225 50.4645088 40.520725 50.4645088 41.220725 51.1642592 41.220725 52.0264985zM18.7607875 52.0264985C18.7607875 52.8887377 18.0607875 53.5884881 17.1962875 53.5884881 16.3326625 53.5884881 15.6317875 52.8887377 15.6317875 52.0264985 15.6317875 51.1642592 16.3326625 50.4645088 17.1962875 50.4645088 18.0607875 50.4645088 18.7607875 51.1642592 18.7607875 52.0264985zM19.6482875 14.0938117C19.6482875 14.956051 18.9482875 15.6558014 18.0837875 15.6558014 17.2201625 15.6558014 16.5192875 14.956051 16.5192875 14.0938117 16.5192875 13.2315725 17.2201625 12.5318221 18.0837875 12.5318221 18.9482875 12.5318221 19.6482875 13.2315725 19.6482875 14.0938117zM29.884575 55.0077322C29.884575 55.8699715 29.184575 56.5697219 28.320075 56.5697219 27.45645 56.5697219 26.755575 55.8699715 26.755575 55.0077322 26.755575 54.145493 27.45645 53.4457426 28.320075 53.4457426 29.184575 53.4457426 29.884575 54.145493 29.884575 55.0077322z"/>
    <path stroke="#1ab9b9" d="M31.495275,33.5117543 L50.738275,33.5117543 C50.738275,21.1503708 40.70115,11.129351 28.320775,11.129351"/>
    <line x1="20.959" x2="25.145" y1="33.512" y2="33.512" stroke="#1ab9b9"/>
    <polyline stroke="#2571AD" points="45.934 11.931 49.621 8.249 53.069 11.693 49.431 15.326"/>
    <polyline stroke="#2571AD" points="10.318 12.253 6.629 8.569 3.179 12.012 6.883 15.71"/>
    <line x1="31.081" x2="31.081" y1=".437" y2="5.674" stroke="#2571AD"/>
    <line x1="25.56" x2="25.56" y1="5.674" y2=".436" stroke="#2571AD"/>
    <line x1="21.85" x2="34.543" y1=".437" y2=".437" stroke="#2571AD"/>
  </g>
</svg>
