<svg width="130" height="130" viewBox="0 0 130 130" fill="none" xmlns="http://www.w3.org/2000/svg">
<g filter="url(#filter0_d_1729_31)">
<circle cx="64.5896" cy="60.5594" r="60.5594" fill="url(#paint0_linear_1729_31)"/>
<path d="M64.8689 25.1553C66.192 25.1553 67.4854 25.5476 68.5855 26.2827C69.6856 27.0178 70.5431 28.0626 71.0494 29.285C71.5557 30.5074 71.6882 31.8525 71.4301 33.1501C71.172 34.4478 70.5348 35.6398 69.5993 36.5754C68.6637 37.511 67.4717 38.1481 66.174 38.4063C64.8763 38.6644 63.5312 38.5319 62.3088 38.0256C61.0864 37.5192 60.0416 36.6618 59.3065 35.5617C58.5715 34.4615 58.1791 33.1681 58.1791 31.845C58.1791 30.0708 58.8839 28.3692 60.1385 27.1147C61.3931 25.8601 63.0946 25.1553 64.8689 25.1553ZM94.2704 40.3611L74.1543 41.8797H55.5801L35.4707 40.3611C34.856 40.3227 34.2499 40.5212 33.777 40.916C33.3042 41.3107 33.0006 41.8716 32.9286 42.4833C32.8566 43.0951 33.0218 43.7111 33.3901 44.2048C33.7584 44.6985 34.3019 45.0323 34.9088 45.1376L55.3326 48.3821C55.6714 48.4361 55.9834 48.5987 56.2217 48.8455C56.46 49.0922 56.6117 49.4097 56.6538 49.7502L58.1791 61.949L47.6929 95.6219C47.5259 96.1239 47.5391 96.6683 47.7301 97.1616C47.9212 97.6549 48.2783 98.0661 48.7398 98.3246L48.9773 98.4584C49.2664 98.6197 49.5861 98.7185 49.9158 98.7485C50.2454 98.7784 50.5777 98.7388 50.8911 98.6323C51.2045 98.5257 51.492 98.3545 51.7351 98.1298C51.9782 97.9051 52.1713 97.6319 52.3021 97.3278L64.8689 68.3511L77.4356 97.3278C77.5664 97.6319 77.7596 97.9051 78.0026 98.1298C78.2457 98.3545 78.5333 98.5257 78.8466 98.6323C79.16 98.7388 79.4923 98.7784 79.822 98.7485C80.1517 98.7185 80.4714 98.6197 80.7604 98.4584L80.9945 98.3246C81.4567 98.0667 81.8145 97.6556 82.0062 97.1623C82.1979 96.669 82.2116 96.1242 82.0448 95.6219L71.5586 61.949L73.0839 49.7502C73.126 49.4097 73.2777 49.0922 73.516 48.8455C73.7543 48.5987 74.0664 48.4361 74.4051 48.3821L94.829 45.1376C95.4359 45.0323 95.9793 44.6985 96.3476 44.2048C96.716 43.7111 96.8811 43.0951 96.8091 42.4833C96.7372 41.8716 96.4336 41.3107 95.9607 40.916C95.4879 40.5212 94.8818 40.3227 94.267 40.3611H94.2704Z" fill="#EEF9FE" stroke="#C6E8EE" stroke-width="0.000802772"/>
</g>
<defs>
<filter id="filter0_d_1729_31" x="0.0302734" y="0" width="129.119" height="129.119" filterUnits="userSpaceOnUse" color-interpolation-filters="sRGB">
<feFlood flood-opacity="0" result="BackgroundImageFix"/>
<feColorMatrix in="SourceAlpha" type="matrix" values="0 0 0 0 0 0 0 0 0 0 0 0 0 0 0 0 0 0 127 0" result="hardAlpha"/>
<feOffset dy="4"/>
<feGaussianBlur stdDeviation="2"/>
<feComposite in2="hardAlpha" operator="out"/>
<feColorMatrix type="matrix" values="0 0 0 0 0 0 0 0 0 0 0 0 0 0 0 0 0 0 0.25 0"/>
<feBlend mode="normal" in2="BackgroundImageFix" result="effect1_dropShadow_1729_31"/>
<feBlend mode="normal" in="SourceGraphic" in2="effect1_dropShadow_1729_31" result="shape"/>
</filter>
<linearGradient id="paint0_linear_1729_31" x1="64.5896" y1="0" x2="64.5896" y2="121.119" gradientUnits="userSpaceOnUse">
<stop stop-color="#AFE5E2"/>
<stop offset="1" stop-color="#1AB9B9"/>
</linearGradient>
</defs>
</svg>
