<svg width="23" height="23" viewBox="0 0 23 23" fill="none" xmlns="http://www.w3.org/2000/svg">
<path fill-rule="evenodd" clip-rule="evenodd" d="M21.296 3.02869V13.7612C21.296 14.9466 20.335 15.9076 19.1495 15.9076H12.71V17.4465L17.5552 20.3536L16.4508 22.1942L12.71 19.9497V22.3471H10.5635V19.9497L6.82271 22.1942L5.71835 20.3536L10.5635 17.4465V15.9076H4.12404C2.93856 15.9076 1.97754 14.9466 1.97754 13.7612V3.02869H0.904297V0.882202H22.3692V3.02869H21.296ZM4.12395 3.02871V13.7612H19.1494V3.02871H4.12395ZM7.34369 11.6147H9.49018V7.32169H7.34369V11.6147ZM12.7099 11.6147H10.5634V5.1752H12.7099V11.6147ZM13.7832 11.6147H15.9297V8.39494H13.7832V11.6147Z" fill="white"/>
</svg>
