<svg width="30" height="30" viewBox="0 0 30 30" fill="none" xmlns="http://www.w3.org/2000/svg">
<path fill-rule="evenodd" clip-rule="evenodd" d="M11.9988 7.5H6.28807C8.32891 4.61804 11.4083 3 14.999 3C21.6268 3 26.9997 8.37258 26.9997 15H29.9999C29.9999 6.71573 23.2837 0 14.999 0C10.7924 0 7.08618 1.77377 4.49837 4.90552V0H1.4982V10.5H11.9988V7.5ZM18.001 22.5H23.7118C21.6709 25.382 18.5915 27 15.0009 27C8.37307 27 3.00017 21.6274 3.00017 15H0C0 23.2843 6.71612 30 15.0009 30C19.2075 30 22.9137 28.2262 25.5015 25.0945V30H28.5017V19.5H18.001V22.5Z" fill="white"/>
</svg>
