<svg width="34" height="34" viewBox="0 0 34 34" fill="none" xmlns="http://www.w3.org/2000/svg">
<path fill-rule="evenodd" clip-rule="evenodd" d="M16.6807 33.3134C7.56797 33.3134 0.180664 25.9261 0.180664 16.8134C0.180664 7.70066 7.56797 0.313354 16.6807 0.313354C25.7934 0.313354 33.1807 7.70066 33.1807 16.8134C33.1807 25.9261 25.7934 33.3134 16.6807 33.3134ZM27.7794 24.5009C29.2934 22.3193 30.1807 19.6699 30.1807 16.8132C30.1807 9.35734 24.1365 3.31319 16.6807 3.31319C9.22482 3.31319 3.18066 9.35734 3.18066 16.8132C3.18066 19.6693 4.06758 22.3182 5.58103 24.4996C7.26952 22.2703 11.2362 21.3134 16.6797 21.3134C22.1243 21.3134 26.0915 22.2706 27.7794 24.5009ZM25.6269 26.9236C25.1884 25.3446 22.0344 24.3134 16.6797 24.3134C11.3266 24.3134 8.17281 25.344 7.73291 26.9222C10.115 29.0322 13.2482 30.3132 16.6807 30.3132C20.1124 30.3132 23.245 29.0327 25.6269 26.9236ZM16.6797 7.81329C13.0483 7.81329 10.6797 10.4469 10.6797 13.8133C10.6797 18.9544 13.321 21.3133 16.6797 21.3133C20.0068 21.3133 22.6797 19.0327 22.6797 14.1133C22.6797 10.6957 20.301 7.81329 16.6797 7.81329ZM13.6802 13.8134C13.6802 17.2172 14.9075 18.3134 16.6802 18.3134C18.4467 18.3134 19.6802 17.261 19.6802 14.1134C19.6802 12.239 18.5037 10.8134 16.6802 10.8134C14.7808 10.8134 13.6802 12.0371 13.6802 13.8134Z" fill="white"/>
</svg>
