<?xml version="1.0" standalone="no"?>
<!DOCTYPE svg PUBLIC "-//W3C//DTD SVG 20010904//EN"
 "http://www.w3.org/TR/2001/REC-SVG-20010904/DTD/svg10.dtd">
<svg version="1.0" xmlns="http://www.w3.org/2000/svg"
 width="605.000000pt" height="605.000000pt" viewBox="0 0 605.000000 605.000000"
 preserveAspectRatio="xMidYMid meet">
<metadata>
Created by potrace 1.11, written by Peter Selinger 2001-2013
</metadata>
<g transform="translate(0.000000,605.000000) scale(0.100000,-0.100000)"
fill="#000000" stroke="none">
<path d="M4608 3865 c-2 -2 -21 -5 -43 -8 -85 -11 -150 -36 -220 -83 -113 -75
-183 -183 -211 -329 -20 -100 -11 -207 25 -311 12 -32 21 -61 21 -64 0 -3 -81
-5 -181 -5 l-181 0 -25 -80 c-14 -44 -35 -111 -48 -150 l-22 -70 -13 45 c-7
25 -14 54 -16 65 -2 11 -20 85 -39 165 -20 80 -37 152 -39 160 -2 8 -7 34 -11
57 -13 82 -88 151 -152 139 -58 -12 -100 -50 -118 -106 -7 -23 -60 -142 -87
-197 -14 -28 12 -25 -245 -27 l-213 -1 -26 -27 c-32 -32 -27 -69 12 -95 22
-14 60 -16 291 -17 146 -1 268 1 273 4 10 6 38 71 81 182 34 88 49 108 49 66
0 -13 9 -57 19 -98 11 -41 22 -91 25 -110 8 -46 14 -78 20 -98 5 -17 9 -35 27
-134 24 -127 125 -203 214 -161 47 22 73 69 119 215 l43 133 184 1 c150 1 190
4 216 17 51 27 53 69 7 152 -64 116 -82 269 -45 379 27 77 53 117 108 165 69
61 139 84 253 84 85 0 102 -3 164 -31 47 -22 92 -54 142 -102 41 -38 82 -71
92 -72 9 0 24 -2 32 -3 27 -3 74 27 120 75 85 88 179 131 295 135 162 5 283
-61 344 -188 34 -70 56 -178 47 -234 -14 -92 -18 -110 -28 -143 -6 -19 -14
-39 -18 -45 -4 -5 -12 -25 -18 -42 -12 -36 -91 -162 -122 -196 -11 -11 -20
-23 -20 -26 0 -3 28 -24 61 -45 l61 -40 29 35 c27 31 123 177 125 189 0 3 13
31 28 64 39 85 54 164 54 280 0 115 -8 165 -40 234 -71 152 -194 246 -378 289
-43 10 -163 8 -224 -4 -109 -20 -244 -92 -297 -156 -16 -20 -18 -19 -75 30
-50 42 -167 111 -184 107 -3 -1 -15 2 -28 7 -42 16 -203 34 -214 24z"/>
<path d="M4918 3321 c-48 -21 -69 -50 -113 -152 -20 -46 -48 -110 -61 -142
-46 -106 -42 -163 16 -205 31 -23 32 -35 7 -95 -21 -49 -14 -140 14 -202 30
-66 96 -140 209 -237 25 -22 124 -81 135 -81 10 0 93 53 220 141 110 76 257
199 369 308 36 35 38 38 20 51 -11 7 -26 19 -35 26 -8 6 -28 20 -45 29 l-29
17 -45 -48 c-87 -90 -250 -222 -403 -326 -48 -32 -60 -37 -67 -25 -6 8 -10 12
-10 7 0 -17 -171 110 -205 152 -48 60 -60 122 -35 181 12 30 15 31 49 24 78
-16 142 1 183 51 39 48 152 197 173 230 57 88 59 119 10 169 -19 20 -35 41
-35 47 0 12 -41 28 -58 21 -20 -7 -55 -83 -44 -94 8 -8 36 -14 76 -17 21 -2
-9 -69 -65 -144 -33 -45 -76 -103 -96 -130 -43 -58 -59 -67 -103 -60 -43 6
-119 44 -143 71 -18 20 -18 22 2 78 12 31 31 77 43 103 11 25 33 74 49 108 24
54 46 79 71 82 4 0 19 -11 32 -24 31 -31 51 -24 77 27 25 48 16 62 -39 64 -20
1 -48 4 -62 7 -14 2 -42 -3 -62 -12z"/>
<path d="M33 3152 c-22 -3 -23 -6 -20 -135 l2 -132 70 1 c92 1 120 9 156 44
74 70 32 200 -69 216 -41 6 -114 9 -139 6z m119 -62 c47 -13 63 -52 45 -107
-12 -33 -92 -57 -108 -31 -9 13 -10 127 -2 141 6 10 21 9 65 -3z"/>
<path d="M418 3137 c-80 -41 -101 -117 -52 -192 38 -59 147 -78 216 -38 31 19
68 79 68 111 0 103 -130 170 -232 119z m128 -55 c25 -15 36 -67 22 -98 -11
-24 -48 -44 -81 -44 -36 1 -68 32 -73 73 -8 70 68 110 132 69z"/>
<path d="M782 3137 c-48 -24 -73 -64 -74 -117 -1 -100 111 -164 214 -123 40
16 82 59 72 74 -9 15 -66 10 -86 -8 -29 -26 -73 -25 -104 4 -22 20 -26 30 -21
61 8 48 39 74 80 66 18 -3 38 -11 47 -18 8 -7 32 -14 52 -14 31 -1 36 1 31 16
-24 68 -133 99 -211 59z"/>
<path d="M1079 3150 c-16 -3 -24 -12 -24 -25 0 -16 8 -21 42 -23 l41 -3 0 -87
c-1 -135 -2 -128 35 -127 l32 1 3 107 3 107 38 0 c39 0 56 16 42 39 -8 12
-166 20 -212 11z"/>
<path d="M1420 3136 c-48 -24 -82 -85 -74 -130 18 -99 132 -150 230 -103 108
51 104 191 -6 239 -43 18 -108 16 -150 -6z m134 -57 c34 -27 37 -86 5 -115
-51 -46 -139 -12 -139 53 0 70 78 106 134 62z"/>
<path d="M1744 3152 c-21 -3 -22 -7 -20 -135 l1 -132 83 0 82 -1 0 27 c0 26
-2 27 -40 25 -23 -2 -43 1 -46 6 -4 5 -6 54 -7 108 0 105 -3 110 -53 102z"/>
<path d="M1964 3148 c-7 -11 -7 -245 0 -256 6 -10 52 -10 62 1 5 5 9 217 5
257 -1 8 -62 6 -67 -2z"/>
<path d="M2118 3151 l-26 -6 51 -125 c28 -69 55 -128 60 -131 13 -9 76 -4 86
7 4 5 18 36 31 69 13 33 34 84 47 113 29 66 29 79 1 76 -13 -1 -31 -3 -40 -3
-10 -1 -18 -6 -18 -13 0 -25 -63 -179 -71 -171 -4 4 -14 28 -22 53 -28 83 -48
128 -60 132 -7 3 -24 2 -39 -1z"/>
<path d="M2479 3150 c-24 -5 -24 -5 -23 -125 1 -66 2 -125 3 -130 1 -6 39 -10
91 -10 l90 0 0 27 c0 27 -1 28 -58 28 l-59 0 5 30 c4 29 6 30 53 30 45 0 49 2
49 24 0 22 -4 24 -38 21 -46 -4 -59 3 -64 30 -3 18 3 20 55 23 53 3 57 5 57
27 0 14 -6 25 -12 26 -56 4 -128 3 -149 -1z"/>
</g>
</svg>
