<?xml version="1.0"?>
<svg xmlns="http://www.w3.org/2000/svg" xmlns:xlink="http://www.w3.org/1999/xlink" xmlns:svgjs="http://svgjs.com/svgjs" version="1.1" width="512" height="512" x="0" y="0" viewBox="0 0 64 64" style="enable-background:new 0 0 512 512" xml:space="preserve" class=""><g><path xmlns="http://www.w3.org/2000/svg" d="m44 32h-24c-2.761 0-5-2.239-5-5 0-2.761 2.239-5 5-5h24c2.761 0 5 2.239 5 5 0 2.761-2.239 5-5 5z" fill="#94f3f6" data-original="#cadfdc" style="" class=""/><path xmlns="http://www.w3.org/2000/svg" d="m49 27c0 .17-.01.33-.03.49-.25-2.52-2.38-4.49-4.97-4.49h-24c-1.38 0-2.63.56-3.54 1.46-.79.8-1.31 1.85-1.43 3.03-.02-.16-.03-.32-.03-.49 0-1.38.56-2.63 1.46-3.54.91-.9 2.16-1.46 3.54-1.46h24c2.76 0 5 2.24 5 5z" fill="#e3eeec" data-original="#e3eeec" style="" class=""/><path xmlns="http://www.w3.org/2000/svg" d="m30 15v17h-4v-6s.02-2.2-.39-4.55c-.47.19-.98.34-1.5.43-.42.08-.86.12-1.31.12-5.12 0-6.97-2.49-7.58-3.48-.15-.24-.22-.51-.22-.79v-5.46c0-.28.07-.55.22-.79.61-.99 2.46-3.48 7.58-3.48 3.98 0 7.2 3.13 7.2 7z" fill="#f4f8f7" data-original="#f4f8f7" style="" class=""/><g xmlns="http://www.w3.org/2000/svg" fill="#e3eeec"><path d="m25.61 21.45c-.47.19-.98.34-1.5.43.81-.96.89-2.88.89-2.88.27.77.46 1.62.61 2.45z" fill="#e3eeec" data-original="#e3eeec" style="" class=""/><circle cx="18.5" cy="15.5" r=".5" fill="#e3eeec" data-original="#e3eeec" style="" class=""/><path d="m27 13.5c-.18 0-.353-.097-.442-.268-.553-1.05-1.8-1.795-1.812-1.802-.238-.141-.317-.447-.177-.685.142-.238.45-.315.685-.177.062.036 1.506.899 2.188 2.198.129.244.035.546-.21.675-.074.04-.153.059-.232.059z" fill="#e3eeec" data-original="#e3eeec" style="" class=""/></g><path xmlns="http://www.w3.org/2000/svg" d="m34 15v17h4v-6s-.02-2.2.39-4.55c.47.19.98.34 1.5.43.42.08.86.12 1.31.12 5.12 0 6.97-2.49 7.58-3.48.15-.24.22-.51.22-.79v-5.46c0-.28-.07-.55-.22-.79-.61-.99-2.46-3.48-7.58-3.48-3.98 0-7.2 3.13-7.2 7z" fill="#f4f8f7" data-original="#f4f8f7" style="" class=""/><path xmlns="http://www.w3.org/2000/svg" d="m38.39 21.45c.47.19.98.34 1.5.43-.81-.96-.89-2.88-.89-2.88-.27.77-.46 1.62-.61 2.45z" fill="#e3eeec" data-original="#e3eeec" style="" class=""/><circle xmlns="http://www.w3.org/2000/svg" cx="45.5" cy="15.5" fill="#e3eeec" r=".5" data-original="#e3eeec" style="" class=""/><path xmlns="http://www.w3.org/2000/svg" d="m37 13.5c.18 0 .353-.097.442-.268.553-1.05 1.8-1.795 1.812-1.802.238-.141.317-.447.177-.685-.142-.238-.45-.315-.685-.177-.062.036-1.506.899-2.188 2.198-.129.244-.035.546.21.675.074.04.153.059.232.059z" fill="#e3eeec" data-original="#e3eeec" style="" class=""/><path xmlns="http://www.w3.org/2000/svg" d="m49 34v14c0 4.42-3.58 8-8 8h-18c-4.42 0-8-3.58-8-8v-14c0-1.1.9-2 2-2h30c1.1 0 2 .9 2 2z" fill="#94f3f6" data-original="#cadfdc" style="" class=""/><path xmlns="http://www.w3.org/2000/svg" d="m49 34v1c0-1.1-.9-2-2-2h-30c-1.1 0-2 .9-2 2v-1c0-1.1.9-2 2-2h30c1.1 0 2 .9 2 2z" fill="#e3eeec" data-original="#e3eeec" style="" class=""/><circle xmlns="http://www.w3.org/2000/svg" cx="32.006" cy="36.5" fill="#027273" r=".5" data-original="#8cb5ad" style="" class=""/><path xmlns="http://www.w3.org/2000/svg" d="m30 30.5c.276 0 .5-.224.5-.5v-15c0-4.136-3.454-7.5-7.7-7.5-4.723 0-6.96 2.021-8.004 3.716-.193.31-.296.674-.296 1.054v5.461c0 .38.103.744.294 1.052 1.046 1.696 3.283 3.717 8.006 3.717.823 0 1.629-.131 2.408-.379.299 2.046.292 3.85.292 3.879v4c0 .276.224.5.5.5s.5-.224.5-.5v-3.996c.001-.168.02-4.152-1.027-7.168-.092-.262-.374-.396-.637-.309-.261.091-.398.376-.309.637.215.618.38 1.288.51 1.958-.722.246-1.471.378-2.237.378-3.373 0-5.847-1.121-7.156-3.245-.095-.153-.144-.329-.144-.524v-5.461c0-.195.049-.371.146-.526 1.307-2.123 3.781-3.244 7.154-3.244 3.694 0 6.7 2.916 6.7 6.5v15c0 .276.224.5.5.5z" fill="#1ab9b9" data-original="#000000" style="" class=""/><circle xmlns="http://www.w3.org/2000/svg" cx="18.5" cy="15.5" r=".5" fill="#1ab9b9" data-original="#000000" style="" class=""/><path xmlns="http://www.w3.org/2000/svg" d="m25.254 10.569c-.234-.139-.543-.062-.685.177-.141.237-.062.544.177.685.012.007 1.259.752 1.812 1.802.089.17.262.267.442.267.079 0 .158-.019.232-.058.245-.129.339-.431.21-.675-.682-1.298-2.127-2.162-2.188-2.198z" fill="#1ab9b9" data-original="#000000" style="" class=""/><path xmlns="http://www.w3.org/2000/svg" d="m49.5 12.27c0-.38-.103-.744-.294-1.052-1.046-1.697-3.283-3.718-8.006-3.718-4.246 0-7.7 3.364-7.7 7.5v15c0 .276.224.5.5.5s.5-.224.5-.5v-15c0-3.584 3.006-6.5 6.7-6.5 3.373 0 5.847 1.121 7.156 3.245.095.153.144.329.144.524v5.461c0 .195-.049.371-.146.526-1.307 2.123-3.781 3.244-7.154 3.244-.766 0-1.516-.132-2.238-.378.13-.67.296-1.339.511-1.958.09-.261-.048-.546-.309-.637-.262-.087-.545.049-.637.309-1.047 3.016-1.028 7-1.027 7.164v4c0 .276.224.5.5.5s.5-.224.5-.5v-4.004c0-.026-.008-1.829.291-3.875.779.248 1.586.379 2.409.379 4.723 0 6.96-2.021 8.004-3.716.193-.31.296-.674.296-1.054z" fill="#1ab9b9" data-original="#000000" style="" class=""/><circle xmlns="http://www.w3.org/2000/svg" cx="45.5" cy="15.5" r=".5" fill="#1ab9b9" data-original="#000000" style="" class=""/><path xmlns="http://www.w3.org/2000/svg" d="m37 13.5c.18 0 .353-.097.442-.268.549-1.043 1.8-1.795 1.813-1.803.237-.141.315-.447.175-.685-.14-.235-.447-.316-.684-.176-.062.036-1.506.899-2.188 2.198-.129.244-.035.546.21.675.074.04.153.059.232.059z" fill="#1ab9b9" data-original="#000000" style="" class=""/><circle xmlns="http://www.w3.org/2000/svg" cx="32.006" cy="36.5" r=".5" fill="#1ab9b9" data-original="#000000" style="" class=""/><path xmlns="http://www.w3.org/2000/svg" d="m49.5 27c0-1.746-.802-3.35-2.198-4.399-.222-.167-.535-.121-.7.099-.166.221-.122.534.099.7 1.144.859 1.8 2.172 1.8 3.601 0 2.481-2.019 4.5-4.5 4.5h-24.001c-2.481 0-4.5-2.019-4.5-4.5 0-1.429.656-2.741 1.8-3.601.221-.166.265-.479.099-.7-.165-.22-.479-.267-.7-.099-1.397 1.049-2.199 2.653-2.199 4.399 0 1.868.938 3.519 2.366 4.514-1.315.071-2.366 1.153-2.366 2.486v14c0 4.687 3.813 8.5 8.5 8.5h18c4.687 0 8.5-3.813 8.5-8.5v-14c0-1.333-1.051-2.415-2.366-2.486 1.428-.995 2.366-2.646 2.366-4.514zm-1 7v14c0 4.136-3.364 7.5-7.5 7.5h-18c-4.136 0-7.5-3.364-7.5-7.5v-14c0-.827.673-1.5 1.5-1.5h3 24 3c.827 0 1.5.673 1.5 1.5z" fill="#1ab9b9" data-original="#000000" style="" class=""/></g></svg>
