<svg id="OBJECTS" xmlns="http://www.w3.org/2000/svg" viewBox="0 0 318.43 266.09"><defs><style>.cls-1{opacity:0.41;}.cls-2{fill:#09e3e6;}.cls-3{opacity:0.88;}.cls-4{fill:#c5d9ff;opacity:0.31;}.cls-5{fill:#86dfe8;}.cls-6{fill:#264990;}.cls-7{fill:#fff;}.cls-8{fill:#cae5e5;}.cls-9{fill:#af9cda;opacity:0.33;}.cls-10{fill:#ffb607;}.cls-11{fill:#243762;opacity:0.29;}.cls-12{fill:#a0895c;}.cls-13{fill:#f9db9d;opacity:0.35;}</style></defs><title>2742877</title><g class="cls-1"><path class="cls-2" d="M415.09,289.61a91.21,91.21,0,0,0-.42-15.59c-2.75-24.31-15.22-47.23-33.57-63.4-6.55-5.77-14-10.94-18.26-18.55-7.18-12.83-6.64-27.57-15.54-40.23a75.27,75.27,0,0,0-36.57-27.64c-43.69-15.14-104.86,9.51-99.35,62.15,0,.19,0,.46.07.81a19.17,19.17,0,0,1-18.78,20.39c-40.31.95-75,32-82.43,71.4-4.78,25.32,3,53.07,21.56,71,13.83,13.37,32.38,20.72,50.93,25.76,37.21,10.12,76.37,12.24,114.74,8.37,35.91-3.62,73.79-13.94,97-41.57A90.74,90.74,0,0,0,415.09,289.61Z" transform="translate(-96.82 -119.79)"/></g><g class="cls-3"><path class="cls-2" d="M381.94,292.09a71.15,71.15,0,0,0-.33-12.21c-2.15-19-11.92-37-26.3-49.67-5.13-4.52-11-8.57-14.3-14.53-5.63-10.05-5.2-21.6-12.18-31.52a59,59,0,0,0-28.64-21.65C266,150.65,218,170,222.36,211.2c0,.15,0,.36,0,.63a15,15,0,0,1-14.71,16c-31.58.75-58.76,25.1-64.58,55.94-3.74,19.84,2.39,41.57,16.9,55.61,10.83,10.47,25.36,16.22,39.9,20.18,29.15,7.92,59.82,9.59,89.88,6.56,28.13-2.84,57.8-10.93,76-32.58A71,71,0,0,0,381.94,292.09Z" transform="translate(-96.82 -119.79)"/></g><circle class="cls-4" cx="396.58" cy="159.06" r="9.86" transform="translate(53.49 388.45) rotate(-76.66)"/><circle class="cls-4" cx="180.05" cy="147.63" r="11.43" transform="translate(-148.47 50.76) rotate(-45)"/><circle class="cls-4" cx="14.76" cy="247.43" r="14.76"/><circle class="cls-5" cx="131.27" cy="78.6" r="52.33"/><path class="cls-6" d="M264.42,236.08a.5.5,0,0,1-.35-.15.48.48,0,0,1,0-.7,51.83,51.83,0,0,0-73.3-73.3.5.5,0,0,1-.71-.71,52.83,52.83,0,0,1,74.72,74.71A.51.51,0,0,1,264.42,236.08Z" transform="translate(-96.82 -119.79)"/><circle class="cls-7" cx="131.27" cy="78.6" r="39.82"/><path class="cls-6" d="M228.09,238.71a40.32,40.32,0,1,1,0-80.64.5.5,0,0,1,0,1,39.32,39.32,0,1,0,0,78.64.51.51,0,0,1,.5.5A.5.5,0,0,1,228.09,238.71Z" transform="translate(-96.82 -119.79)"/><path class="cls-6" d="M238.4,206H227.57a4,4,0,0,1-4-4V187a3.5,3.5,0,0,1,7,0V199h7.86a3.5,3.5,0,0,1,0,7Z" transform="translate(-96.82 -119.79)"/><path class="cls-6" d="M146.84,216.57l56.37,56.37a28.24,28.24,0,0,0,39.94,0l6.74-6.74a6.52,6.52,0,0,0,0-9.21l-23-23a6.52,6.52,0,0,0-9.21,0l-11.5,11.5a2.31,2.31,0,0,1-3.26,0L175,217.59a2.28,2.28,0,0,1,0-3.22L186.35,203a6.5,6.5,0,0,0,0-9.21l-23.62-23.63a6.53,6.53,0,0,0-9.14-.08l-6.4,6.18A28.25,28.25,0,0,0,146.84,216.57Z" transform="translate(-96.82 -119.79)"/><path class="cls-8" d="M148.61,177.43l31.67,31.67,1.09-1.08,5-5a6.5,6.5,0,0,0,0-9.21l-23.62-23.63a6.53,6.53,0,0,0-9.14-.08l-6.4,6.18Z" transform="translate(-96.82 -119.79)"/><path class="cls-6" d="M180.28,209.81l-32-32-1.83-1.47,6.81-6.58a7,7,0,0,1,9.83.09l23.63,23.62a7,7,0,0,1,0,9.93ZM148,176.26l1,.81,31.32,31.33,5.72-5.72a6,6,0,0,0,0-8.51l-23.62-23.63a6.06,6.06,0,0,0-8.44-.07Z" transform="translate(-96.82 -119.79)"/><path class="cls-8" d="M213,240.78l31.68,31.67,1.09-1.08,5-5a6.5,6.5,0,0,0,0-9.21l-23.63-23.63a6.51,6.51,0,0,0-9.13-.08l-6.4,6.18Z" transform="translate(-96.82 -119.79)"/><path class="cls-6" d="M244.72,273.16l-32-32-1.83-1.47,6.8-6.58a7.06,7.06,0,0,1,9.84.09l23.62,23.62a7,7,0,0,1,0,9.93Zm-32.33-33.55,1,.82,31.32,31.32,5.72-5.72a6,6,0,0,0,0-8.51L226.81,233.9a6,6,0,0,0-8.43-.08Z" transform="translate(-96.82 -119.79)"/><line class="cls-8" x1="54.21" y1="53.9" x2="73.51" y2="73.2"/><path class="cls-6" d="M170.33,193.49a.54.54,0,0,1-.35-.14l-19.3-19.3a.5.5,0,1,1,.71-.71l19.3,19.3a.51.51,0,0,1,0,.71A.54.54,0,0,1,170.33,193.49Z" transform="translate(-96.82 -119.79)"/><line class="cls-8" x1="130.98" y1="130.67" x2="150.28" y2="149.98"/><path class="cls-6" d="M247.11,270.27a.51.51,0,0,1-.36-.15l-19.3-19.3a.5.5,0,0,1,.71-.71l19.3,19.3a.5.5,0,0,1,0,.71A.5.5,0,0,1,247.11,270.27Z" transform="translate(-96.82 -119.79)"/><path class="cls-6" d="M331.8,368.93,257.9,358A15.31,15.31,0,0,1,245,340.63l26.5-179.18a15.31,15.31,0,0,1,17.37-12.9l73.9,10.93a15.29,15.29,0,0,1,12.89,17.37L349.17,356A15.3,15.3,0,0,1,331.8,368.93Z" transform="translate(-96.82 -119.79)"/><rect class="cls-8" x="225.12" y="210.3" width="171.05" height="92.75" transform="translate(-85.54 406.63) rotate(-81.59)"/><rect class="cls-5" x="315.8" y="132.04" width="12.84" height="92.75" transform="translate(1.76 351.27) rotate(-81.59)"/><path class="cls-8" d="M296.58,357.77a5.3,5.3,0,0,1-.88-.07,5.95,5.95,0,1,1,.88.07Zm0-11a5,5,0,0,0-4,8,5,5,0,0,0,8.94-2.24,5,5,0,0,0-4.2-5.66A4.71,4.71,0,0,0,296.57,346.79Z" transform="translate(-96.82 -119.79)"/><path class="cls-8" d="M309.84,163.67l-.28,0a1.93,1.93,0,0,1-.87-3.46,1.92,1.92,0,0,1,3.05,1.83h0A1.92,1.92,0,0,1,309.84,163.67Zm0-2.86a1,1,0,0,0-.92.79.94.94,0,0,0,.18.69.91.91,0,0,0,.6.37.94.94,0,0,0,.69-.18.86.86,0,0,0,.36-.6h0a.89.89,0,0,0-.17-.69.86.86,0,0,0-.6-.36Z" transform="translate(-96.82 -119.79)"/><path class="cls-8" d="M339.64,168.07a1.32,1.32,0,0,1-.28,0L316,164.59a1.84,1.84,0,0,1-1.26-.76,1.88,1.88,0,0,1-.36-1.43,1.91,1.91,0,0,1,.75-1.26,1.94,1.94,0,0,1,1.43-.36l23.41,3.46a1.92,1.92,0,0,1,1.26.76,1.93,1.93,0,0,1-.39,2.69A1.93,1.93,0,0,1,339.64,168.07Zm-23.41-6.31a.92.92,0,0,0-.91.79.92.92,0,0,0,.78,1l23.4,3.46a.91.91,0,0,0,1.05-.78.87.87,0,0,0-.17-.68.93.93,0,0,0-.61-.37l-23.4-3.46Z" transform="translate(-96.82 -119.79)"/><path class="cls-2" d="M344.39,296.29l-64-9.47a1.91,1.91,0,0,0-2.16,1.61L275.76,305a1.91,1.91,0,0,0,1.61,2.17l54.72,8.09,5.64,7.78,1-6.79,2.64.39a1.92,1.92,0,0,0,2.17-1.61l2.45-16.6A1.9,1.9,0,0,0,344.39,296.29Z" transform="translate(-96.82 -119.79)"/><path class="cls-6" d="M332.09,315.79H332l-54.72-8.1a2.4,2.4,0,0,1-2-2.73l2.45-16.6a2.4,2.4,0,0,1,2.74-2l14.79,2.19a.5.5,0,1,1-.15,1l-14.79-2.18a1.42,1.42,0,0,0-1.6,1.18l-2.45,16.61a1.34,1.34,0,0,0,.26,1,1.42,1.42,0,0,0,.92.56l54.72,8.09a.49.49,0,0,1,.42.57A.49.49,0,0,1,332.09,315.79Z" transform="translate(-96.82 -119.79)"/><path class="cls-2" d="M354.56,227.49l-64-9.47a1.92,1.92,0,0,0-2.17,1.61l-2.45,16.6a1.9,1.9,0,0,0,1.61,2.17l54.72,8.09,5.63,7.78,1-6.79,2.64.39a1.91,1.91,0,0,0,2.16-1.61l2.46-16.61A1.91,1.91,0,0,0,354.56,227.49Z" transform="translate(-96.82 -119.79)"/><path class="cls-6" d="M348.22,255.55,342,247l-54.51-8.07a2.41,2.41,0,0,1-2-2.73.51.51,0,0,1,.57-.42.49.49,0,0,1,.42.57,1.39,1.39,0,0,0,.27,1,1.42,1.42,0,0,0,.92.56L342.55,246l5,6.95.9-6.07,3.13.46a1.4,1.4,0,0,0,1.6-1.18l1.63-11.05a.51.51,0,0,1,.57-.42.5.5,0,0,1,.42.57l-1.63,11a2.35,2.35,0,0,1-.95,1.58,2.32,2.32,0,0,1-1.78.45l-2.15-.32Z" transform="translate(-96.82 -119.79)"/><path class="cls-5" d="M273.55,248.88l64,9.47a1.91,1.91,0,0,1,1.61,2.16l-2.46,16.61a1.91,1.91,0,0,1-2.16,1.61l-54.72-8.1-7.65,5.81,1-6.79-2.64-.39a1.9,1.9,0,0,1-1.61-2.17l2.45-16.6A1.92,1.92,0,0,1,273.55,248.88Z" transform="translate(-96.82 -119.79)"/><path class="cls-6" d="M334.82,279.25a2.07,2.07,0,0,1-.35,0l-34.16-5.05a.5.5,0,0,1,.14-1l34.16,5.05a1.4,1.4,0,0,0,1.6-1.18l2.46-16.61a1.42,1.42,0,0,0-1.19-1.6.5.5,0,0,1-.42-.56.51.51,0,0,1,.57-.43,2.42,2.42,0,0,1,2,2.74l-2.46,16.6a2.43,2.43,0,0,1-2.38,2.06Z" transform="translate(-96.82 -119.79)"/><rect class="cls-7" x="291.42" y="287.12" width="15.74" height="92.75" transform="translate(-171.23 460.97) rotate(-81.59)"/><path class="cls-2" d="M268.1,328.74a5.58,5.58,0,1,1-4.7-6.34A5.57,5.57,0,0,1,268.1,328.74Z" transform="translate(-96.82 -119.79)"/><path class="cls-9" d="M335.77,343.86a4.48,4.48,0,0,1-.73-.05L275.58,335a4.9,4.9,0,0,1-3.27-1.95,5,5,0,0,1,4.72-7.89l59.46,8.8a5,5,0,0,1-.72,9.89Zm-.59-1a4,4,0,1,0,1.17-7.86l-59.46-8.8a4,4,0,0,0-1.17,7.87Z" transform="translate(-96.82 -119.79)"/><path class="cls-7" d="M283,174.41l-.28,0a2,2,0,0,1-1.65-2.23,1.92,1.92,0,0,1,.77-1.28,2,2,0,0,1,3.1,1.86h0A2,2,0,0,1,283,174.41Zm0-2.92a1,1,0,0,0-.57.19,1,1,0,0,0-.2,1.34,1,1,0,0,0,1.72-.43h0a.92.92,0,0,0-.18-.71.93.93,0,0,0-.63-.38Z" transform="translate(-96.82 -119.79)"/><path class="cls-7" d="M288.41,175.21l-.29,0a2,2,0,0,1,.57-3.88,1.93,1.93,0,0,1,1.29.78,2,2,0,0,1-.41,2.73A1.89,1.89,0,0,1,288.41,175.21Zm0-2.92a1,1,0,0,0-.94.82.91.91,0,0,0,.18.71.93.93,0,0,0,.63.38.95.95,0,0,0,1.08-.81h0a.92.92,0,0,0-.18-.71,1,1,0,0,0-.62-.38Z" transform="translate(-96.82 -119.79)"/><path class="cls-7" d="M293.72,176a1.36,1.36,0,0,1-.29,0,1.89,1.89,0,1,1,.29,0Zm0-2.92a.93.93,0,0,0-.57.19,1,1,0,0,0,.43,1.71,1,1,0,1,0,.28-1.89Z" transform="translate(-96.82 -119.79)"/><path class="cls-6" d="M368.4,192.23h-.07L283.4,179.67a.51.51,0,0,1-.42-.57.5.5,0,0,1,.57-.42l84.92,12.56a.5.5,0,0,1-.07,1Z" transform="translate(-96.82 -119.79)"/><path class="cls-7" d="M333,300.11h-.08l-45.31-6.7a.51.51,0,0,1-.42-.57.49.49,0,0,1,.56-.42l45.32,6.7a.5.5,0,0,1,.42.57A.49.49,0,0,1,333,300.11Z" transform="translate(-96.82 -119.79)"/><path class="cls-7" d="M306.17,301.67h-.07l-19.29-2.85a.5.5,0,0,1,.15-1l19.28,2.86a.5.5,0,0,1-.07,1Z" transform="translate(-96.82 -119.79)"/><path class="cls-7" d="M299.67,305.88h-.07l-13.54-2a.5.5,0,0,1-.42-.57.51.51,0,0,1,.57-.42l13.53,2a.48.48,0,0,1,.42.56A.5.5,0,0,1,299.67,305.88Z" transform="translate(-96.82 -119.79)"/><path class="cls-7" d="M332.2,305.52h-.08l-19.93-2.94a.51.51,0,0,1-.42-.57.49.49,0,0,1,.57-.42l19.93,2.95a.5.5,0,0,1,.42.56A.5.5,0,0,1,332.2,305.52Z" transform="translate(-96.82 -119.79)"/><path class="cls-7" d="M327.46,262.51h-.07l-45.31-6.7a.5.5,0,1,1,.14-1l45.32,6.71a.5.5,0,0,1,.42.56A.51.51,0,0,1,327.46,262.51Z" transform="translate(-96.82 -119.79)"/><path class="cls-7" d="M300.64,264.07h-.08l-19.28-2.85a.51.51,0,0,1-.43-.57.51.51,0,0,1,.57-.42l19.29,2.85a.5.5,0,0,1-.07,1Z" transform="translate(-96.82 -119.79)"/><path class="cls-7" d="M320.68,272.2h-.08l-39.11-6.07a.51.51,0,0,1-.42-.57.51.51,0,0,1,.57-.42l39.11,6.07a.5.5,0,0,1-.07,1Z" transform="translate(-96.82 -119.79)"/><path class="cls-7" d="M326.66,267.92h-.07l-19.93-3a.49.49,0,0,1-.42-.56.5.5,0,0,1,.56-.43l19.94,2.95a.5.5,0,0,1-.08,1Z" transform="translate(-96.82 -119.79)"/><path class="cls-5" d="M281.77,186.46l64,9.47a1.91,1.91,0,0,1,1.61,2.17l-2.46,16.6a1.91,1.91,0,0,1-2.16,1.61L288,208.21,280.39,214l1-6.79-2.64-.39a1.9,1.9,0,0,1-1.61-2.17l2.45-16.6A1.92,1.92,0,0,1,281.77,186.46Z" transform="translate(-96.82 -119.79)"/><path class="cls-6" d="M344.92,215.2h-.07a.5.5,0,0,1-.42-.56L346.89,198a1.39,1.39,0,0,0-.27-1,1.42,1.42,0,0,0-.92-.56L306,190.55a.5.5,0,1,1,.15-1l39.74,5.87a2.43,2.43,0,0,1,1.58.95,2.38,2.38,0,0,1,.44,1.79l-2.45,16.6A.51.51,0,0,1,344.92,215.2Z" transform="translate(-96.82 -119.79)"/><path class="cls-7" d="M335.68,200.09h-.07l-45.32-6.71a.5.5,0,0,1-.42-.56.51.51,0,0,1,.57-.43l45.32,6.71a.5.5,0,0,1,.42.56A.51.51,0,0,1,335.68,200.09Z" transform="translate(-96.82 -119.79)"/><path class="cls-7" d="M308.86,201.65h-.08l-19.28-2.85a.5.5,0,1,1,.14-1l19.29,2.85a.5.5,0,0,1-.07,1Z" transform="translate(-96.82 -119.79)"/><path class="cls-7" d="M328.9,209.78h-.08l-39.11-6.07a.51.51,0,0,1-.42-.57.51.51,0,0,1,.57-.42L329,208.79a.51.51,0,0,1,.42.57A.49.49,0,0,1,328.9,209.78Z" transform="translate(-96.82 -119.79)"/><path class="cls-7" d="M334.88,205.5h-.07l-19.93-3a.48.48,0,0,1-.42-.56.5.5,0,0,1,.56-.43L335,204.5a.5.5,0,0,1-.08,1Z" transform="translate(-96.82 -119.79)"/><path class="cls-7" d="M343.21,232h-.07l-45.32-6.7a.5.5,0,1,1,.15-1L343.29,231a.5.5,0,0,1,.42.56A.51.51,0,0,1,343.21,232Z" transform="translate(-96.82 -119.79)"/><path class="cls-7" d="M316.39,233.51h-.08L297,230.65a.5.5,0,1,1,.14-1l19.29,2.85a.5.5,0,0,1-.07,1Z" transform="translate(-96.82 -119.79)"/><path class="cls-7" d="M309.89,237.71h-.08l-13.53-2a.5.5,0,0,1,.14-1l13.54,2a.5.5,0,0,1,.42.57A.49.49,0,0,1,309.89,237.71Z" transform="translate(-96.82 -119.79)"/><path class="cls-7" d="M342.41,237.35h-.07l-19.93-2.95a.5.5,0,0,1,.14-1l19.94,3a.5.5,0,0,1-.08,1Z" transform="translate(-96.82 -119.79)"/><path class="cls-10" d="M251.07,353.56,148.42,365.12a3.58,3.58,0,0,1-4-3.16L137,296.19a.2.2,0,0,1,.17-.21l109.4-12.32a.18.18,0,0,1,.2.17l7.42,65.78A3.57,3.57,0,0,1,251.07,353.56Z" transform="translate(-96.82 -119.79)"/><path class="cls-6" d="M148,365.65A4.1,4.1,0,0,1,144,362l-7.41-65.76a.68.68,0,0,1,.6-.76l109.4-12.33a.69.69,0,0,1,.76.61l7.41,65.79a4,4,0,0,1-.86,3,4.07,4.07,0,0,1-2.72,1.51L148.47,365.62A3.55,3.55,0,0,1,148,365.65Zm-10.45-69.2,7.38,65.45a3.09,3.09,0,0,0,3.42,2.73L251,353.06l.06.5-.06-.5a3,3,0,0,0,2.06-1.13,3.07,3.07,0,0,0,.65-2.26l-7.38-65.48Z" transform="translate(-96.82 -119.79)"/><path class="cls-11" d="M246.26,353.56l-92.82,11.56c-2,.23,28.76-39.2,28.54-41.17L137,296.19a.2.2,0,0,1,.17-.21l109.4-12.32a.18.18,0,0,1,.2.17l-37.42,37C209.6,322.82,248.22,353.34,246.26,353.56Z" transform="translate(-96.82 -119.79)"/><path class="cls-12" d="M137.2,296l45.24-44.74a8.22,8.22,0,0,1,10.11-1.15l53.77,33.4a.11.11,0,0,1,0,.21L137,296" transform="translate(-96.82 -119.79)"/><path class="cls-6" d="M137.07,296.5l-.08-.73-.14-.14.11-.11h0l45.12-44.62a8.7,8.7,0,0,1,10.72-1.23l53.77,33.4a.63.63,0,0,1,.28.65.62.62,0,0,1-.53.48Zm51.15-47.14a7.69,7.69,0,0,0-5.43,2.24l-44.21,43.73,106.53-12-52.83-32.8A7.68,7.68,0,0,0,188.22,249.36Z" transform="translate(-96.82 -119.79)"/><path class="cls-11" d="M137.2,296l45.24-44.74a8.22,8.22,0,0,1,10.11-1.15l53.77,33.4a.11.11,0,0,1,0,.21L137,296" transform="translate(-96.82 -119.79)"/><path class="cls-12" d="M187.44,317.05l-34,47.32,92.82-10.46-43.68-38.56A10.28,10.28,0,0,0,187.44,317.05Z" transform="translate(-96.82 -119.79)"/><path class="cls-6" d="M152.37,365,187,316.76l.41.29-.41-.29A10.79,10.79,0,0,1,202.91,315l44.53,39.31Zm43.41-51.71a9.74,9.74,0,0,0-7.93,4.07L154.5,363.74l90.58-10.2-42.83-37.82A9.79,9.79,0,0,0,195.78,313.28Z" transform="translate(-96.82 -119.79)"/><path class="cls-7" d="M142.72,263.57l71.5-8c4.69-.53,8.86,2.34,9.32,6.41l4.59,40.78L208.25,321,182,324,156,307.72l-4.46-39.52Z" transform="translate(-96.82 -119.79)"/><path class="cls-6" d="M181.86,324.47,155.56,308l-4.45-39.49-6.81-5.63L214.17,255a9.67,9.67,0,0,1,6.58,1.57,7.41,7.41,0,0,1,3.29,5.28l4.62,41-20.19,18.56Zm-25.37-17.05,25.6,16L208,320.51l19.58-18L223,262a6.4,6.4,0,0,0-2.86-4.57,8.69,8.69,0,0,0-5.9-1.4l-69.88,7.88,7.64,4Z" transform="translate(-96.82 -119.79)"/><path class="cls-11" d="M187.44,313l-34,51.4,92.82-10.46-43.68-42.64A10.27,10.27,0,0,0,187.44,313Z" transform="translate(-96.82 -119.79)"/><path class="cls-12" d="M187.44,317.05l-34,47.32,92.82-10.46-43.68-38.56A10.28,10.28,0,0,0,187.44,317.05Z" transform="translate(-96.82 -119.79)"/><path class="cls-6" d="M152.37,365,187,316.76l.41.29-.41-.29A10.79,10.79,0,0,1,202.91,315l44.53,39.31Zm43.41-51.71a9.74,9.74,0,0,0-7.93,4.07L154.5,363.74l90.58-10.2-42.83-37.82A9.79,9.79,0,0,0,195.78,313.28Z" transform="translate(-96.82 -119.79)"/><path class="cls-13" d="M190.74,327.53l-25,34.74,68.17-7.68-32.08-28.32A7.54,7.54,0,0,0,190.74,327.53Z" transform="translate(-96.82 -119.79)"/><line class="cls-12" x1="40.42" y1="176.28" x2="85.16" y2="204.16"/><rect class="cls-6" x="159.11" y="283.66" width="1" height="52.71" transform="translate(-284.73 161.73) rotate(-58.07)"/><line class="cls-12" x1="149.97" y1="163.94" x2="112.56" y2="201.07"/><rect class="cls-6" x="201.73" y="301.8" width="52.71" height="1" transform="translate(-243.59 128.73) rotate(-44.8)"/><path class="cls-8" d="M153.55,286.41l-12.48,1.41-2-17.8a6,6,0,0,1,5.28-6.63l.57-.07a6,6,0,0,1,6.63,5.29Z" transform="translate(-96.82 -119.79)"/><path class="cls-6" d="M140.63,288.37l-2.06-18.3a6.49,6.49,0,0,1,5.73-7.18l.56-.06a6.48,6.48,0,0,1,7.18,5.72l2.07,18.3Zm5-24.58-.62,0-.57.07a5.48,5.48,0,0,0-4.84,6.07l2,17.31L153,286l-1.95-17.3a5.49,5.49,0,0,0-5.45-4.88Z" transform="translate(-96.82 -119.79)"/><path class="cls-6" d="M162,277.14a.49.49,0,0,1-.5-.44.5.5,0,0,1,.44-.55l51.8-5.84a.51.51,0,0,1,.56.44.5.5,0,0,1-.44.55l-51.81,5.84Z" transform="translate(-96.82 -119.79)"/><path class="cls-6" d="M164,294.75a.5.5,0,0,1-.06-1l51.81-5.84a.5.5,0,0,1,.11,1l-51.8,5.83Z" transform="translate(-96.82 -119.79)"/><path class="cls-6" d="M163,285.85a.5.5,0,0,1-.06-1l22.39-2.52a.5.5,0,0,1,.11,1l-22.39,2.52Z" transform="translate(-96.82 -119.79)"/><path class="cls-6" d="M191.25,282.66a.49.49,0,0,1-.49-.44.5.5,0,0,1,.44-.55L214.76,279a.51.51,0,0,1,.55.45.5.5,0,0,1-.44.55l-23.56,2.65Z" transform="translate(-96.82 -119.79)"/><path class="cls-6" d="M165.13,304.74a.5.5,0,0,1-.49-.44.49.49,0,0,1,.44-.55l22.39-2.53a.5.5,0,0,1,.11,1l-22.39,2.52Z" transform="translate(-96.82 -119.79)"/></svg>