<svg xmlns="http://www.w3.org/2000/svg" viewBox="0 0 407.62 585.3"><defs><style>.cls-1{isolation:isolate;}.cls-2{fill:#564637;}.cls-3{fill:#b0afab;}.cls-4,.cls-56{fill:#cacbc5;}.cls-35,.cls-5{fill:#777391;}.cls-54,.cls-6{fill:#81a7ce;}.cls-43,.cls-7{fill:#233d6e;}.cls-8{fill:#c41c0f;opacity:0.4;mix-blend-mode:multiply;}.cls-9{fill:#414141;}.cls-10,.cls-11,.cls-12,.cls-13,.cls-14,.cls-15,.cls-16,.cls-17,.cls-18,.cls-19,.cls-20,.cls-21,.cls-22,.cls-23,.cls-24,.cls-25,.cls-26,.cls-27,.cls-28,.cls-29,.cls-30,.cls-31,.cls-32,.cls-33,.cls-34,.cls-35,.cls-36,.cls-37,.cls-38,.cls-39,.cls-40,.cls-41,.cls-42,.cls-43,.cls-44,.cls-45,.cls-46,.cls-47,.cls-48,.cls-49,.cls-50,.cls-51,.cls-52,.cls-53,.cls-54,.cls-55,.cls-56,.cls-57,.cls-58,.cls-59,.cls-60,.cls-61,.cls-62,.cls-63,.cls-64,.cls-65,.cls-66,.cls-71,.cls-72,.cls-73,.cls-9{fill-rule:evenodd;}.cls-10{fill:#422623;}.cls-11{fill:#f3ad6c;}.cls-12{fill:#ee9047;}.cls-13{fill:#8e97a6;}.cls-14{fill:#dd8f56;}.cls-15{fill:#ed9047;}.cls-16{fill:#59240b;}.cls-17{fill:#f1aa6a;}.cls-18{fill:#58240a;}.cls-19{fill:#dd9056;}.cls-20{fill:#de9056;}.cls-21{fill:#070504;}.cls-22{fill:#c2733a;}.cls-23{fill:#e7e0da;}.cls-24{fill:#eadfd6;}.cls-25{fill:#cfc5be;}.cls-26{fill:#c1723a;}.cls-27{fill:#1ab9b9;}.cls-28{fill:#5e79bb;}.cls-29{fill:#392d24;}.cls-30{fill:#94acf2;}.cls-31{fill:#974e21;}.cls-32{fill:#375695;}.cls-33{fill:#62721e;}.cls-34,.cls-69{fill:#3a2e24;}.cls-36{fill:#ee9147;}.cls-37{fill:#8da30c;}.cls-38{fill:#203258;}.cls-39{fill:#1b2742;}.cls-40{fill:#23272a;}.cls-41{fill:#ee9148;}.cls-42{fill:#ef954d;}.cls-44{fill:#625956;}.cls-45{fill:#375272;}.cls-46,.cls-67{fill:#50649a;}.cls-47{fill:#3f3f3f;}.cls-48{fill:#a95e1d;}.cls-49{fill:#08192a;}.cls-50{fill:#202529;}.cls-51{fill:#132539;}.cls-52{fill:#5b4e59;}.cls-53{fill:#9fbedf;}.cls-55{fill:#a9c9e9;}.cls-57{fill:#ec924a;}.cls-58{fill:#405672;}.cls-59{fill:#3a2e25;}.cls-60{fill:#c8c6e5;}.cls-61{fill:#323941;}.cls-62{fill:#405360;}.cls-63{fill:#536075;}.cls-64{fill:#b4add8;}.cls-65{fill:#a4c0dd;}.cls-66{fill:#81a6cc;}.cls-68{fill:#f4ba45;}.cls-70{fill:#fff;}.cls-71{fill:#d1502c;}.cls-72{fill:#a33333;}.cls-73{fill:#fefefe;}</style></defs><title>deliver</title><g class="cls-1"><g id="_ÎÓÈ_1" data-name="—ÎÓÈ_1"><path class="cls-2" d="M607.74,526.47c-6.36,0-12.42-3.32-15.75-6.1l6.37-7.64c.35.29,8.95,7.23,14.43,1.52,7.09-7.39,23.86-51.49,24.55-63.36H618.62V441h21.73a6.49,6.49,0,0,1,6.08,4.15c2.24,5.24-.54,18.36-8.25,39-5.1,13.63-12.92,31.5-18.21,37A16.44,16.44,0,0,1,607.74,526.47Z" transform="translate(-254.52 -96.21)"/><rect class="cls-3" x="236.8" y="172.69" width="166.39" height="177.02"/><rect class="cls-4" x="344.5" y="172.69" width="58.7" height="177.02"/><rect class="cls-5" x="229.46" y="338.79" width="173.73" height="10.92"/><rect class="cls-6" x="342.9" y="338.79" width="64.72" height="10.92"/><rect class="cls-7" x="236.8" y="172.69" width="166.39" height="23.93"/><rect class="cls-8" x="236.8" y="194.2" width="166.39" height="6.84"/><rect class="cls-6" x="338.6" y="258.72" width="6.11" height="9.56"/><path class="cls-9" d="M433.84,149.54c-2-2.74-2.12-5.83-1.43-8.94a59.91,59.91,0,0,1,18.9-32.31,43,43,0,0,1,20.06-10.45c46.63-9.9,64,28.46,64.43,31.63.43,3.58,2.53,6.76,2.37,10.46a1.64,1.64,0,0,1-1.39.23c-8.17-1.39-15.68.78-23,4.19a54.6,54.6,0,0,0-8.76,5.22c-2.11,1.54-2.33,1.53-4.34,0a20.32,20.32,0,0,0-8.26-3.29,172,172,0,0,0-23.07-3.18c-8.05-.64-16.1-.25-24.15-.31a43.33,43.33,0,0,0-7.86.69c-2.76.48-3.33,1.32-3.18,4.13C434.23,148.27,434.5,149,433.84,149.54Z" transform="translate(-254.52 -96.21)"/><path class="cls-10" d="M433.84,149.54a28.34,28.34,0,0,1-.37-2.86c-.06-2.24.83-3.37,3-3.69a58.94,58.94,0,0,1,6.62-.69c16.69-.54,33.33-.28,49.71,3.46,3.37.77,6.8,1.52,9.28,4.31.91,1,1.52-.2,2.06-.6a56.18,56.18,0,0,1,19-9.24,27.69,27.69,0,0,1,15-.3c1.69,8.87,1.83,17.64-1.61,26.19-2.46,6.12-5,12.2-8,18.08a18.82,18.82,0,0,1-8.15,8.36c-4.17,2.18-8.45,4.15-12.69,6.21a3.94,3.94,0,0,1-3.6,1.17,2.32,2.32,0,0,0-2.24.73c-5.5,5.66-12.45,9-19.56,12A40.45,40.45,0,0,1,472.08,216a22.42,22.42,0,0,1-4.56,0c-6,.4-10.11-3-14-6.89.93-.63,1.77-.2,2.62.21a6.66,6.66,0,0,1,1.19.83c3.41,3.34,7.59,3,11.74,2.35,5-.76,9.49-3,13.75-5.61,5.07-3.15,10-6.54,14.78-10.09,1.29-1,2-1.94,1.42-3.68s.09-3.59.43-5.34a72.7,72.7,0,0,0,.57-21.54,26.58,26.58,0,0,0-1.83-6.82,23,23,0,0,0-1.91-3.77,10.82,10.82,0,0,0-6.93-4.21,32.55,32.55,0,0,0-7.62-.85c-9.77.25-19.48-.63-29.19-1.57a18.6,18.6,0,0,0-3.73,0c-.87.08-1.85.08-2.23,1.16a3.65,3.65,0,0,1-.2.64,4.72,4.72,0,0,0-.3,4c.73,3.23,1.5,6.46-.13,9.65a14.92,14.92,0,0,0-.59,4.09c0,3.72,0,7.44-.34,11.16-.37,4,.87,7.94.92,12,0,.88.36,1.79-.4,2.54-3.93-.89-4-1-4.57-4.93a153.85,153.85,0,0,1-1.77-24.82,33,33,0,0,0-.34-5A10.61,10.61,0,0,0,436,153,12,12,0,0,1,433.84,149.54Z" transform="translate(-254.52 -96.21)"/><path class="cls-11" d="M445.58,194.25c-.31-2.53-.36-5.08-.69-7.62-.92-6.89.13-22,.64-22.44,1.92.18,2.12,1.89,2.43,3.15.41,1.68,1,2.32,2.81,2,2.25-.43,2.94.46,2.49,2.67-1,4.8,1.08,8.14,5.83,9.39,2.3.6,4.61,1,7.19-.11-1.31-.44-2.45-.58-3.52-.94a7.11,7.11,0,0,1-5.22-7.13,36.3,36.3,0,0,1,1.82-11.43c.38-1.32,1-2.66,0-4a1.46,1.46,0,0,1-.24-.33c-1.55-5.16-6-5.06-10.1-5.57-1.12-.15-2.38.29-3.26-.81l.37-.65c.64-1.12,1.75-1,2.76-1a66.66,66.66,0,0,1,8.21.88c3.76.48,7.51,1,11.3,1.23a2.8,2.8,0,0,1,1.37.41c1,1.1,1.28,2.54,2.06,3.74.54,1.28.06,2.57,0,3.86-.07,3.2.85,5.94,3.79,7.66.4.26,1,.48.8,1.06s-.62.5-1,.56c-.76.1-1.52,0-2.28.09-.45.05-1.09,0-1.07.68,0,.49.52.6.92.7a14.43,14.43,0,0,0,7.41-.1c1.07-.28,2.44-1.27,3.21,0,.64,1.07-.7,1.94-1.25,2.86s-1.3,1.44-1.19,2.53c.9.25,1.16-.44,1.57-.85s.8-.9,1.39-.77c1.64.36,2.42-.7,3.2-1.79,1.08-1.5,1.89-3.27,3.84-3.94.33-.12.65-.48.57-.8-.42-1.74.81-2.64,1.74-3.75,1.31-1.56.76-2.9-1.62-4.14a1.31,1.31,0,0,1-.46-.35c-.39-.51.47-1.58-.77-1.72-3.43-1.36-6.58-3.36-10.15-4.4a.87.87,0,0,1-.71-.89c.87-1,2.06-.73,3.12-.68A30.79,30.79,0,0,1,497,155.86a8.75,8.75,0,0,1,1.59,3.36,9.36,9.36,0,0,1-.13,5.32A76.58,76.58,0,0,0,497,174.2a71.09,71.09,0,0,1-6.32,23.63c-4.14,8.64-11.84,12.49-20.72,14.49a27.86,27.86,0,0,1-5.17.48,10.7,10.7,0,0,1-7-2.07,13.93,13.93,0,0,0-1.81-1c-.8-.18-4.15-3.72-5.54-5-2.57-2.33-3.59-5.46-4.36-8.71C445.9,195.44,445.73,194.85,445.58,194.25Z" transform="translate(-254.52 -96.21)"/><path class="cls-12" d="M467.52,216.07c3.19.24,6.14-.73,9.08-1.78,7.78-2.78,15.28-6.13,21.88-11.21.87-.67,1.65-1.47,2.47-2.21,1-.91,1.59-2.56,3.63-1.39.69.39,2.07-.44,3.14-.71.75,7.28.83,14.61,1.41,21.89.32,4,5.89,5.81,7.64,9.56.56,1.26-4.78,4.83-4.47,6.16a4.3,4.3,0,0,1-.88,4.06,23.61,23.61,0,0,1-14,7.48,39.61,39.61,0,0,1-9.28.66,9.63,9.63,0,0,0-4.56-.1,10.6,10.6,0,0,1-5.49-1.51c-2.62-1.57-3.23-3.77-1.79-6.48.52-1-9.56,5.39-8.82,4.57-17.25-2.44,6.23-14.06,6.09-15.68,1.6-1.13,3.9-6.07,2.39-11a2.12,2.12,0,0,0-2.09-1.8C471.77,216.34,469.6,216.7,467.52,216.07Z" transform="translate(-254.52 -96.21)"/><path class="cls-13" d="M460.31,132.51a8.68,8.68,0,0,1-4.28-.9c-3.76-1.69-4.47-4.3-3-8.17,2.25-6,6.54-9.3,12.54-10.66a11.32,11.32,0,0,1,7.71.87c3,1.5,4.13,4,3.26,7.24C474.77,127.49,467.89,132.47,460.31,132.51Z" transform="translate(-254.52 -96.21)"/><path class="cls-13" d="M486.31,109.19a3.16,3.16,0,0,1-3.13,3,2.67,2.67,0,0,1-2.86-2.64,2.81,2.81,0,0,1,3.08-2.88C485.19,106.67,486.32,107.66,486.31,109.19Z" transform="translate(-254.52 -96.21)"/><path class="cls-12" d="M455.94,209.72a4,4,0,0,1,1.17.33c4.73,3.07,9.82,2.54,14.86,1.26,8.13-2.07,14.83-6.27,18.45-14.19a71.44,71.44,0,0,0,5.63-20.1c.69-5.05,1.05-10.15,2.36-15.11a13.28,13.28,0,0,0,.18-2.69,25.42,25.42,0,0,1,2.41,10,77.23,77.23,0,0,1-1.41,21.5c-.21.94-.53,2,.06,2.84.92,1.32.35,2.13-.69,2.92a183.72,183.72,0,0,1-17.34,11.8,39.65,39.65,0,0,1-12.69,4.91C464.05,214.16,459.54,213.59,455.94,209.72Z" transform="translate(-254.52 -96.21)"/><path class="cls-14" d="M459.78,157.56a2.3,2.3,0,0,1,.6,2.63c-1.26,4.38-2.53,8.76-2.3,13.41a6.48,6.48,0,0,0,4.24,6,13.24,13.24,0,0,0,4.23.92c.44,0,.88.19.94.65s-.49.56-.85.69c-3.87,1.47-7.57.6-11-1.25-2.62-1.43-3.87-5.71-3-8.61.65-2.15.19-2.66-2-2.14-1.74.4-3.05.6-3.05-2a4.7,4.7,0,0,0-2.05-3.68c1.61-3.16.44-6.34.09-9.51,4.09-.48,8.07-.3,11.69,2A4.42,4.42,0,0,0,459.78,157.56Z" transform="translate(-254.52 -96.21)"/><path class="cls-15" d="M469.85,152.64c-1.39-1.11-3.07-.45-4.59-.61-5.66-.61-11.25-1.75-17-2a3.92,3.92,0,0,0-2.21.37c-.13-1.7,1.06-1.88,2.3-2a51.26,51.26,0,0,1,9.35.5c6.71.65,13.41,1.06,20.16,1,4.85,0,9.72,0,14.38,1.75a8.09,8.09,0,0,1,4.72,4.13c-3.84-1.15-7.52-2.85-11.5-3.52a10.86,10.86,0,0,0-5.71.18C476.49,153.21,473.18,153.67,469.85,152.64Z" transform="translate(-254.52 -96.21)"/><path class="cls-16" d="M459.78,157.56c-.25.63-.62.91-1.25.45-3.57-2.61-7.63-3.29-11.93-3a3.15,3.15,0,0,1-1-.3,3.43,3.43,0,0,1,.1-3.6,45.21,45.21,0,0,1,9.74,1.38c1.65.43,2.66,1.06,3.06,2.77A10.17,10.17,0,0,0,459.78,157.56Z" transform="translate(-254.52 -96.21)"/><path class="cls-14" d="M475.63,167.58c-1.33.09-1.94-.83-2.56-1.78a10.68,10.68,0,0,1-1.54-8.66,1.73,1.73,0,0,0-.09-1.19,19.25,19.25,0,0,1,9.47,1.22c.64.94-.25,1.28-.72,1.75a9.1,9.1,0,0,1-1.9,1.07c-1.25,1.12.5,1.14.64,1.75a2.88,2.88,0,0,1,.55,1.67c-.18,1.9,1.2,1.5,2.27,1.54,2.07.21,2.16-1.1,2-2.6a6.65,6.65,0,0,0,0-1.41c.12-1-1.59-1.91,0-2.89a30.18,30.18,0,0,0,7.17.11c.5.19.26.79.59,1.08h0c.2,3.71-2.26,5.84-4.93,7.53-2.5,1.59-5.51,1.67-8.43,1.75C477.15,168.54,476.47,167.83,475.63,167.58Z" transform="translate(-254.52 -96.21)"/><path class="cls-17" d="M475.63,167.58c2.66.81,5.32.29,7.92-.25,4.38-.92,6.67-4,7.91-8.09,1.91-.34,2.57,1.11,3.2,2.38s-.32,2-1.11,2.86-2.22,1.4-1,3c.31.41-.41,1.08-.9,1.2-2.08.49-2.71,2.38-3.9,3.74-.94,1.08-1.37,3.32-3.73,2-.54-.3-.75.65-1.12,1-.59.6-1.09,1.76-2.15,1.05s-.24-1.61.22-2.33c.63-1,1.35-1.92,2-2.87.19-.28.55-.54.33-.91s-.73-.31-1.13-.21c-1.27.32-2.53.67-3.79,1-2.09.54-4.12-.12-6.15-.39a1.27,1.27,0,0,1-1.1-1.52c.14-.78.81-.85,1.46-.85,1,0,1.95.05,2.91,0C476.7,168.32,475.63,167.86,475.63,167.58Z" transform="translate(-254.52 -96.21)"/><path class="cls-18" d="M491,158.37c-2.49,1.06-5,.56-7.46,0-.9-.11-1.86,0-2.54-.8-3.09-1.15-6.44-.81-9.6-1.62a9.07,9.07,0,0,1-1.59-3.31,78.51,78.51,0,0,1,9.94-.12c4,.81,7.36,3.23,11.1,4.68C491.74,157.49,491.84,157.87,491,158.37Z" transform="translate(-254.52 -96.21)"/><path class="cls-19" d="M472.42,188.14c.43,1.42.33,2.88.91,4.17.19.41-.15.61-.54.67-5,.73-9.91,2.59-15,.86a25.44,25.44,0,0,1-2.49-1c-.81-.37-1.44-1-1.18-1.94.31-1.09,1.34-.88,2.11-.75a49.11,49.11,0,0,0,9.05.79c1.87,0,3.68-.6,5.57-.45C472.51,190.62,471.38,188.75,472.42,188.14Z" transform="translate(-254.52 -96.21)"/><path class="cls-20" d="M467.17,201.34a10,10,0,0,1-5.55-1.17c-.28-.16-.66-.41-.7-.66-.08-.49.43-.71.8-.76,1.8-.28,3.54-.91,5.44-.37,1.3.37,2.65.88,2.45,2.28S467.87,201.05,467.17,201.34Z" transform="translate(-254.52 -96.21)"/><path class="cls-17" d="M491,158.37c.44-.45.21-.82-.15-1.17,2.46,0,.24,1.4.58,2A1,1,0,0,1,491,158.37Z" transform="translate(-254.52 -96.21)"/><path class="cls-21" d="M455.28,161.31c-.15.16-.3.33-.46.49-1.22.75-.83,2.81-2.55,3.17-1.24.06-1.59-.8-1.83-1.77-.13-.63.22-1.43-.61-1.82s-2.37-.68-.88-2.13a7.74,7.74,0,0,1,4.85.21C454.66,159.73,455.53,160.1,455.28,161.31Z" transform="translate(-254.52 -96.21)"/><path class="cls-22" d="M455.28,161.31c.07-.92-.56-1.1-1.28-1.27a24,24,0,0,0-5.05-.79c.82-.58,1.82-.76,2.64-1.44a2,2,0,0,1,2.5.16C455.1,158.83,455.87,159.84,455.28,161.31Z" transform="translate(-254.52 -96.21)"/><path class="cls-23" d="M452.29,164.76a2,2,0,0,0,1.13-2c0-1.06.66-1,1.4-.91a11.31,11.31,0,0,1-1,3.27C453.27,165.27,452.65,165.68,452.29,164.76Z" transform="translate(-254.52 -96.21)"/><path class="cls-24" d="M452.29,164.76c.45.46,1,.27,1.56.31-2.82,1.08-3.74.56-3.65-2.08.13-.19.25-.19.37,0C451,163.78,451.18,164.69,452.29,164.76Z" transform="translate(-254.52 -96.21)"/><path class="cls-25" d="M450.57,163h-.37c-.12-.54-.25-1.08-.37-1.61C451.14,161.42,450.49,162.38,450.57,163Z" transform="translate(-254.52 -96.21)"/><path class="cls-21" d="M478.57,161.79c-1.23-.12-2.76-1.53-.88-2.12,2.4-.55,4.66-.4,6.62,1.32,0,.45.16.92-.23,1.3-1.2.44-1.47,1.65-2.1,2.56q-2.21,1.28-2.8-1.2C479,163,479.42,162.2,478.57,161.79Z" transform="translate(-254.52 -96.21)"/><path class="cls-26" d="M484.34,161a21.41,21.41,0,0,0-6.62-1.32,9.81,9.81,0,0,0,3.32-2.1,4.07,4.07,0,0,1,2.54.8C483.35,159.38,484.27,160.06,484.34,161Z" transform="translate(-254.52 -96.21)"/><path class="cls-25" d="M484.12,162.29c-2.39-.71-1.76,1.36-2.22,2.41-1.65.91-2.3-.08-2.55-1.29-.09-.62.57-1.57-.75-1.62.13.54-.12,1.06,0,1.6.23,1.89,1.8,2.48,3.18,2.56C484.12,166,484.34,164.21,484.12,162.29Z" transform="translate(-254.52 -96.21)"/><g id="dUWuaL"><path class="cls-27" d="M614.19,575.93a70.46,70.46,0,0,1,2.86,12.43c.11.29.25.64,0,.86-.53.45-.86,0-1.08-.39-1-1.54-2.07-3-3.12-4.54-2.41-3.46-5.34-5-9.45-3.19a2.52,2.52,0,0,1-.91.14c-1-.51-1.67.22-2.4.72a4.46,4.46,0,0,1-3.09.77c-11.22-.85-22.46-.4-33.7-.61-2.26,0-2.5,2-3.65,3.08a10.47,10.47,0,0,0-2.63,4.25c-2.5,6.38-4.62,12.88-6.48,19.47a5.58,5.58,0,0,1-1,2.07c-8.81,9.32-20.48,11.68-32.44,13.31-1.6.22-3.22.35-4.82.52-5.56.59-10.42-1.79-15.47-3.36-2.14-.66-4.3-1.25-6.42-2-3.53-1.18-6.34-.18-8.65,2.6a15.85,15.85,0,0,1-7,5.35c.89.6,2.29-.12,2.61,1.25-19.44.73-38.88.5-58.33.55-11.06,0-22-1.38-33-2.1-2.39-.16-4.78-.19-7.17-.14q-11.91.22-23.83.5c-.9-2.25-.21-4.53,0-6.77a95.47,95.47,0,0,0,0-15c-.24-2.92-.46-5.84-.83-8.75-.13-1.06.13-2,1.31-2,5.6-.23,11.15-1.39,16.77.48,6.63,2.21,10.77,7,14.35,12.54a95.72,95.72,0,0,0,7.52,9.69c2.16,2.56,5.2,3.81,8,5.37a4.35,4.35,0,0,0,2,.47c1,0,2.17.3,2.78-.67s-.35-1.72-.76-2.5c-5.87-11.25-13.23-21.61-19.41-32.67a150.78,150.78,0,0,1-11.52-25.53,200.11,200.11,0,0,0-12.4-28.92c-2-3.76-3.53-7.7-5.49-11.46-1.11-2.35-2.33-4.64-3.45-7-.37-.77-1.07-1.58-.24-2.5,2.19.61,3.56,2.39,5.11,3.81a128.39,128.39,0,0,1,15.85,18.12c2.77,3.7,6.29,6.79,9.15,10.44,4.94,6.34,9.82,12.73,15.2,18.7,3.72,4.14,7.56,8.16,11.18,12.37,1,1.16,2.13,2.19,3,3.45C408.17,566,402.71,553,397.36,540c-2.82-6.85-6.09-13.51-8.28-20.63-2.33-7.56-2.14-15.22-1.55-22.95,1.49-19.83,6.17-39.19,8.76-58.87,1.59-12.09,1.63-24-2.31-35.72-2.79-8.25-8.26-14-16.75-16.63-4.65-1.45-9.36-2.68-14.06-3.95-3.86-1-7.84-.33-11.77-.48-1.35-.21-8.67.4-9.79-.94.09-.65,6.4-.77,6.9-.87,4.43-.89,8.61-2.57,12.85-4,6.5,0,12.95-.4,19.21-2.34,4.67-1.45,9.25-3.06,12.83-6.61,3.56-2.67,4.35-6.77,5.37-10.7a36,36,0,0,0,1-7.31,6.24,6.24,0,0,1,3.48-5.79c3.84-1.95,7.67-3.92,11.53-5.84,1.63-.81,3-2.2,4.94-2.4,1.13.24,1.22,1.26,1.54,2.09a15.44,15.44,0,0,0,1.61,3.79c1.3,1.66,3.24,2.63,4.57,4.25.57.69,1.49,1.19,1.27,2.32-.45.59-.94,1.11-1.8.91-2.89-.75-5.84-.28-8.77-.37-4.57-.14-4.61-.11-5.62,4.36S410.92,360.45,410,365a33.35,33.35,0,0,1-12.21,18.54c-2.69,2.1-2.69,2.25.23,4.07a50.59,50.59,0,0,1,4.06,3.05c3.9,5,8,9.77,10.29,15.81,2.22,6.42,2.58,13.13,3.1,19.82.62,8-1.34,15.64-2.37,23.42-.95,5.55-1.85,11.1-2.52,16.69-.16,1.3-.21,2.61-.29,3.91a3.93,3.93,0,0,1-.28,1.48,3.38,3.38,0,0,0-.66,2c-1.56,8.81-1.93,17.8-3.83,26.55a34.77,34.77,0,0,0,2.07,21.1c3,7.36,5.58,14.89,7.88,22.5s6,14.53,9.66,21.51c2.38,4.59,5,9.06,7.23,13.72,2.9,6.14,6.24,12.07,9.37,18.1a26.06,26.06,0,0,1,1.18,2.51c.29,1.13,1.45,1.48,2.1,2.28.08.45-.44.79-.24,1.26.23.79,1.08.76,1.58,1.2,4.21,5.64,10.52,6.2,16.75,7a2.46,2.46,0,0,0,.47,0c13.35-.31,26.69.61,40.05.55,4.38,0,8.78.34,13.18.41,6.11.11,12.16-.83,18.25-1a5,5,0,0,0,4.45-2.85c.61-1.14.5-1.74-.91-1.75a39.78,39.78,0,0,0-5.78.07,60.11,60.11,0,0,1-10.64.35c-5.88-.21-11.71.68-17.58.49-1.06,0-2.43.29-3-.75s.45-2.18,1.14-3.07A122.76,122.76,0,0,1,512,593.51c2.87-2.92,5.56-6,8.23-9.1,1.39-1.61,1.78-3.17.67-5-2.19-4.6-4-9.35-5.88-14.11a28,28,0,0,1-2.15-11.74c.14-2.47,0-4.95,0-7.42,0-.86-.16-1.93,1.06-2.28.93.87,1,2.07,1.11,3.2a60.32,60.32,0,0,0,6,19.36c3.8,7.57,9.9,11.12,18.2,11.19,6.25,0,12.5,0,18.76,0,12.4-1.48,24.87-.69,37.3-1.12,5.44-.18,10.83-1.44,16.32-1.2a8.75,8.75,0,0,1,1.84.16A1.6,1.6,0,0,1,614.19,575.93Z" transform="translate(-254.52 -96.21)"/><path class="cls-28" d="M351.66,380.19c9.92-1.09,19.1,2.1,28.13,5.37s13.52,10.6,15.86,19.46a70.85,70.85,0,0,1,2.29,21.73A216.28,216.28,0,0,1,395,449.83c-1.7,10.7-3.42,21.39-5.32,32.06A152.18,152.18,0,0,0,387.78,506c-.14,7.85,2.11,15.06,5.15,22.09,6.25,14.43,12.09,29,18.05,43.58a56.55,56.55,0,0,1,2.94,9.12c-1.77-1.9-3.69-3.69-5.28-5.73-3.33-4.27-7.26-8-10.83-12-5.25-6-9.83-12.46-15-18.44-5.51-6.34-10.82-12.83-16.13-19.33a96.72,96.72,0,0,0-11.94-11.92c-.4-.35-.7-.84-1.31-.88-1.07-.17-1.48-1.08-1.88-1.87-4.77-9.46-13-13.44-23-14.81a36.73,36.73,0,0,0-5.74-.47c-.81,0-1.72.13-2.31-.7a1.13,1.13,0,0,1,1.21-.88c2-.06,2.35-1.22,2.44-2.92a154,154,0,0,1,6.55-36.61c3.23-10.73,7.63-21,11.18-31.66.59-1.76,1.56-2.78,3.51-2.67a4.74,4.74,0,0,0,1.83-.2,24.68,24.68,0,0,0,5.16-1.22c1.66-.67,3-1.74,3.07-3.67s-1.33-2.64-2.78-3.33a9.05,9.05,0,0,0-4.23-1c-2.54-.58-5.15-.19-7.71-.53-2.12-.71-2.88-2.7-3.92-4.35A31.39,31.39,0,0,1,332,389.4a5.53,5.53,0,0,1,2-4.72c2.29-1.18,4.9-1.84,6.54-4.05.43-.92,1.22-.95,2.07-.85C345.61,379.85,348.6,380.84,351.66,380.19Z" transform="translate(-254.52 -96.21)"/><path class="cls-29" d="M363.21,532.8c5.52,10,9.55,20.53,13.33,31.23a167.05,167.05,0,0,0,17.81,35.27c4.72,7.26,8.85,14.85,13.26,22.28.79,1.32.44,2-.88,2.37a6.46,6.46,0,0,1-4.76-.27c-3.47-1.79-6.82-3.68-9.48-6.76-3.54-4.12-6.37-8.71-9.65-13-5.55-7.28-13-9.8-21.84-8.84-1.69.19-3.38.26-5.07.29-1,0-1.48.23-1.29,1.5a115.72,115.72,0,0,1,1.12,21.69c-.12,3-.52,6-.78,9-1.73,13.21-5.16,25.86-12.5,37.19-3.91,6-8.72,11.19-15.38,14.31a24,24,0,0,1-8.69,2.19c-6.39.44-12.78.22-19.17.3-12.07.16-21.42-4.83-28.33-14.61a38.6,38.6,0,0,1-4.69-7.93c.9-.68,1.79-.17,2.66,0a82.33,82.33,0,0,0,32.42,1.07c2.13-.32,2.2-.5.94-2.18-10-13.38-14.2-28.61-14.35-45.12-.08-8.49-.21-17,1.37-25.4.55-2.89,1.22-5.74,1.95-8.59.66-2.59.52-2.86-2.18-3.31a76.08,76.08,0,0,0-18.71-.45c-1.61.13-3.23.27-4.83.51a2.67,2.67,0,0,1-2.6-.57c1.91-5.9,5.1-11.12,8.54-16.21.55-.92,1.5-1,2.41-1.16a87.17,87.17,0,0,1,24.67-.74c5.91.6,11.83,1,17.77,1.21,8.37.22,16.57,1.62,24.76,3.17a7.29,7.29,0,0,1,4,2.25,120.21,120.21,0,0,0,15.09,13.33c.77.57,1.83,1.16,1.39,2.39s-1.52,1.44-2.64,1.51a18.33,18.33,0,0,1-3.7-.18c-1.06-.13-2.22,0-2.35,1.23s1.11,1.3,2,1.33c2.54.09,5.09.06,7.64,0,1.32,0,2.26-.5,2.39-2,1.23-13.75,3.06-27.51-.93-41.16-.63-2.13-1.6-4.2-1.53-6.5C362.51,533.1,362.68,532.72,363.21,532.8Z" transform="translate(-254.52 -96.21)"/><path class="cls-30" d="M334,384.68c-2.87,5.3-.74,10.39.81,15.42a21.26,21.26,0,0,0,5.76,9.31c.07.83-.63,1-1.14,1.17a6.08,6.08,0,0,0-3.59,3.79,3.68,3.68,0,0,0,2.37,4,13,13,0,0,0,5.8,1.08c1.18,0,2.47-.35,3.49.63-.19.13-.41.39-.57.35-3.54-.72-4.22,1.63-5.13,4.29-2.67,7.78-5.76,15.42-8.42,23.21a154.31,154.31,0,0,0-6.77,26.53,122.29,122.29,0,0,0-1.85,17.6c0,1.45-.56,2.36-2.22,2.23-.67-.05-1.41-.21-1.95.42a1.47,1.47,0,0,1-1.56.66,97.12,97.12,0,0,1,17.65,4.69,41,41,0,0,1,5,1.89,4,4,0,0,1,2.31,2.13c-.14.89-.76,1.07-1.53,1a4.45,4.45,0,0,1-1.36-.22c-5-1.85-9.51-.78-14.07,1.87a44.36,44.36,0,0,0-13.74,11.84C310,522.93,306.39,527,304,531.9a167.24,167.24,0,0,0-8,17.7c-.77,2.14-1.92,2.89-4.07,2.85-4.78-.07-9.57,0-14.35,0a115.09,115.09,0,0,0-22.08,1.83,1.26,1.26,0,0,1-.89-.13c2.16-8.78,4.79-17.39,9.6-25.16a137.44,137.44,0,0,1,15.72-20.6,3.63,3.63,0,0,0,1-3.54,52.64,52.64,0,0,1-.65-14.29c1.23-.18,2,.66,2.82,1.34A56.52,56.52,0,0,0,290,496.5a3.93,3.93,0,0,0,4.17.13,60.93,60.93,0,0,0,5.72-3.52,3.87,3.87,0,0,0,1.87-3.31c-.24-7.41,1.22-14.79.13-22.21-.32-2.21-1.26-3.35-3.35-3.78a36.87,36.87,0,0,0-6.87-.93c-1.7,0-3.43-.11-4.64-1.6,1.95-6.1,4.07-12.15,5.82-18.3,2.91-10.24,7.72-19.66,11.91-29.36,5.61-13,15.09-22,27.47-28.31A15.57,15.57,0,0,1,334,384.68Z" transform="translate(-254.52 -96.21)"/><path class="cls-31" d="M553.48,420.64c1,3.09.23,5.88-1.31,8.61-.95,1.67-1.71,3.46-2.5,5.22a18.32,18.32,0,0,1-6.55,8.21c-.25.16-1.65.22-.5,1.15,0,1-.8.77-1.35.78A188,188,0,0,0,501,450.39c-8.57,2.12-12.79,11.71-12.45,17.6.15,2.61-.09,5.27.83,7.8.22,1.47.56,2.92.65,4.41.51,11.87,1.46,23.71,1.61,35.61.09,6.7.3,13.42.18,20.13-.09,5.53-.78,11-1.18,16.57a71.54,71.54,0,0,0,.3,14.55c.56,4.18-.33,5.27-4.45,6.24-1.87,1.23-3.67,2.61-5.94,3.07a4.47,4.47,0,0,1-2.82-.82,63.54,63.54,0,0,0-24.36-8c-2.25.07-2.74-2.19-4.2-3.18-1.62-.82-3.69-.69-5-2.27a4.94,4.94,0,0,1-1.13-1.73c-.36-1.45-.69-3,.29-4.24s2.33-.41,3.47-.11c9.18,2.47,18.29,5.16,27.49,7.55a13.29,13.29,0,0,0,3.18.58c1.15,0,1.93-.37,1.26-1.65-1.34-2.51-1.07-5.23-1.21-7.92-.63-11.81-.19-23.63-.53-35.44q-.27-9.12-1.2-18.24a16.33,16.33,0,0,1,0-5.08c1.19-5.35.06-10.63-.3-15.92-.22-3.23-.44-6.47-.59-9.7-.22-4.46-.73-8.92-.63-13.41.16-6.88-.37-13.72-.8-20.58-.28-4.3,2.13-7.63,4.45-10.92a20.15,20.15,0,0,1,11.76-8.05c6.71-1.79,13.25-4.24,20.12-5.45a11.84,11.84,0,0,1,2.3-.27,9.91,9.91,0,0,0,6.64-2.28,1.87,1.87,0,0,1,1.57,0c4.22,1.89,8.8,3,12.71,5.53,5.46,3.52,11.22,5.77,17.85,5.18C551.82,419.84,552.83,419.73,553.48,420.64Z" transform="translate(-254.52 -96.21)"/><path class="cls-29" d="M553.48,420.64c-2.91-.09-5.83-.09-8.74-.3-3.94-.28-7.25-2.27-10.52-4.28-4.73-2.92-10.05-4.52-15.12-6.68-3.09-.27-5.59-2.08-8.31-3.29-5.07-2.27-10-4.78-15.31-6.54a47.7,47.7,0,0,0-5.85-1.37,95.47,95.47,0,0,0-19.83-1.07,29.15,29.15,0,0,1-14.75-3c-4.57-2.22-9-4.89-13.92-6.25a1.77,1.77,0,0,1-.91-.69c.17-1.79,1.37-2.81,2.78-3.67a8.38,8.38,0,0,1,2.06-.2c.54,0,1.21,0,1.29-.72.3-2.76,1.9-1.34,2.91-.79a105.62,105.62,0,0,0,18.39,8.08,3.67,3.67,0,0,0,1.44.3,33.55,33.55,0,0,0-2-3.83c-2-3.3-3-6.62-1.47-10.53,1-2.55.84-5.47,1.6-8.15,1.54-5.44,3.93-10.54,6.06-15.75a2.12,2.12,0,0,1,.84-1.08,12.22,12.22,0,0,1,6.84,2c.83,1,.43,2,.06,3.06-.85,2.32-1.79,4.61-2.83,6.85-2.43,5.19-3.37,10.73-4.05,16.34a4.57,4.57,0,0,0,.53,2.9,76.43,76.43,0,0,1,4.19,8.52A4.58,4.58,0,0,0,483,393.5c5.37.56,10.76,1.12,15.88,3.05,2,.74,4.12.66,6.18.8,4.39.3,8.77.63,13.14,1.16,3.27.4,6.41-.86,9.66-.63,1.38.1,1.75-1.08,2-2.18.23-1.27.26-2.5-1.21-3.14a7.75,7.75,0,0,0-3.4-.57c-7.8.24-15.57-.62-23.37-.55a63,63,0,0,1-10.6-.88c-.23,0-.47-.05-.69-.11-1.26-.36-3-.67-2.88-2.14.14-1.3,1.92-.9,3-.91,11.26-.12,22.48-1.19,33.74-1.44a3.61,3.61,0,0,0,2.85-1.3,17.48,17.48,0,0,0,4.61-12.21c-.15-6.17.58-12.33.54-18.51a7.07,7.07,0,0,1,1.17-2.5A223.42,223.42,0,0,0,557,304.21c2.95-8.13,6.58-16,10.19-23.84.71-1.56.75-3.48,2.27-4.65.67.42.46,1,.46,1.52q0,16.68,0,33.36a2,2,0,0,1-.16.9c.06,6.9-1.4,13.62-2.31,20.42a165,165,0,0,0-1.73,24.22c.12,8.48-2,16.5-4.18,24.54a115.87,115.87,0,0,0-3.81,25.11c-.07,1.41-.09,2.78-1.12,3.89a2.55,2.55,0,0,0-.48,2.36,33.13,33.13,0,0,1,.33,5.07C556.39,419,555.53,420.36,553.48,420.64Z" transform="translate(-254.52 -96.21)"/><path class="cls-9" d="M402.06,317.67c6.44-15.63,12.65-31.34,17.37-47.58,1.67-5.75,4.55-10.95,7-16.32,2.88-6.27,8.35-10.15,14.29-13.4,8.48-4.64,17.73-7.08,27-9.54.89-.24,1.8-.41,2.7-.61,2,0,.83,1.08.4,1.53-1.87,1.91-3,4.31-4.4,6.51-2.44,3.75-2.31,4.88.82,8.22a1.71,1.71,0,0,1,.54,1c-.26,1.64.87,2.39,2,3,2.79,1.45,5.49,3.18,8.86,3,.63,0,1.46,0,1.54,1-.61.68-1.58.81-2.13,1.64-1.54,2.32-1.34,3.34,1.39,6.08.07,2.56-1.09,4.79-1.9,7.11-1.63,4.67-4.26,8.92-5.73,13.66a72.47,72.47,0,0,0-2.74,16.16,87.49,87.49,0,0,0,1.07,19.81,3.5,3.5,0,0,1,0,1.61c-.46.78-1.09.33-1.68.24a8.27,8.27,0,0,0-6.44-.18c-.85,0-1.68-.12-2.53-.17-5-1.59-10.35-2.37-15.3-4.33-.9-.35-2-.53-2.29-1.71a7.6,7.6,0,0,0,.13-3c-.72-5.51-1.34-11-2.16-16.52a10.75,10.75,0,0,1,0-3.63,72.64,72.64,0,0,1-1.42,8.92c-.62,2.68-1.06,2.91-3.84,2.79-.58,0-1.33-.35-1.65.37-.25.54.3,1,.58,1.43,2.86,4.5,2.82,5.24-.55,10.05a2.26,2.26,0,0,1-2.13-.07c-3.79-1.38-5.72-.75-7.8,2.61a3,3,0,0,1-2,1.72c-5.54.29-11.09.12-16.63.08C403.43,319.14,402.13,319.29,402.06,317.67Z" transform="translate(-254.52 -96.21)"/><path class="cls-29" d="M605.46,629.79c-2.3,14.65-7,28.28-17,39.59-6.93,7.84-15.44,12.27-26.24,11.9-8-.28-15.92-.2-23.88,0-12.39.27-22-4.91-29.54-14.48-6.35-8.08-10.21-17.35-12.86-27.19-.1-.36-.27-.7-.4-1.06-.7-1.83-2.07-3.54-1-5.68a3,3,0,0,1,2.66.33c5.76,2.74,11.92,3.17,18.1,2.73A207.9,207.9,0,0,0,541,632.76c6.81-1.34,13.67-2.38,20.51-3.62,4.46.07,8.88.81,13.33.78a240.47,240.47,0,0,0,27.62-1.56C603.58,628.22,605.39,627.38,605.46,629.79Z" transform="translate(-254.52 -96.21)"/><path class="cls-32" d="M254.61,554.13c3.18-1.63,6.73-1.47,10.12-1.8,8.6-.84,17.25-.53,25.87-.54,3.74,0,3.64,0,5.08-3.44,4.57-10.79,9.64-21.25,17.14-30.46a50.49,50.49,0,0,1,19.72-14.45c2.32-1,4.67.25,7,.45,1.4.12,2.78,1.65,4.23.15.82-.28,1.29.32,1.78.77,3.77,3.44,7.2,7.14,9.3,11.89.81,1.83,1.75,3.59,2.67,5.36,1.71,3.77,3.84,7.34,5.18,11.27,1.56,5.65,3.27,11.25,3.92,17.11a100,100,0,0,1,.12,16c-.24,4.85-.84,9.68-1.1,14.52-.11,2.06-.82,3-2.93,2.88-2.85-.1-5.72,0-8.58,0-1.39,0-2.63-.35-2.39-2a2.26,2.26,0,0,1,2.85-2,18.9,18.9,0,0,0,4.37.38c.88,0,1.85-.13,2.18-1s-.78-1.21-1.32-1.61a86.5,86.5,0,0,1-13.89-12.22c-2.48-2.83-5.58-3.46-8.95-4.13-10.11-2-20.37-2.22-30.59-2.87-6.39-.41-12.75-1.29-19.15-1.26a74.61,74.61,0,0,0-15.81,1.78c-4.86.83-9.6-.34-14.37-.93C254.92,557.57,254.25,556.46,254.61,554.13Z" transform="translate(-254.52 -96.21)"/><path class="cls-33" d="M462,320.16a6.41,6.41,0,0,1,6.56.13A21,21,0,0,1,472,330.94c.13,2,1.17,3,2.91,2.74s1.78-1.63,1.8-3c0-1-.8-2.6.51-2.79,1.13-.16,1.39,1.61,1.28,2.59-.47,4,2.17,5.32,5.12,6.76A118.49,118.49,0,0,0,518.84,348c1.79.25,2.06-.06,1.9-2-.5-6.21-4.2-10.06-9.48-12.66-2-1-4.29-1.28-6.12-2.66-.1-.31-.11-.72.15-.83,2.59-1.15,3-3.62,3.6-5.94a1.05,1.05,0,0,1,.91-.89c3.56,1,7.34,1.15,10.74,2.76.92.43,2.48.6,2.2,1.94s-1.85,1.23-3,1c-2.42-.44-4.71.07-7.55.66,2.71.94,5,1.63,7.18,2.42a36.86,36.86,0,0,1,8.05,4.06,2.19,2.19,0,0,0,3.25-.41c2.31-2.61,4.07-5.45,4-9.1a5.51,5.51,0,0,1,.12-2.07c2.51-6.94,2.34-14.66,6.41-21.18,1.58-2.54,1.84-5.71,2.44-8.66a291.15,291.15,0,0,1,7.31-29.2,42.1,42.1,0,0,0,2.29-14.35c0-.84-.16-1.9.68-2.33s1,1.05,2,1.07a20.94,20.94,0,0,0,.69-7.22c-.15-2.14-2.36-3.7-4.79-4-5.46-.61-9.62,1.67-12.85,5.85A32.77,32.77,0,0,0,534,254.61c-.4,1.27-.65,2.77-2.29,3.2a2.26,2.26,0,0,1-.9-2.65c1.72-6.41,4.24-12.38,9.58-16.71a13.7,13.7,0,0,1,11.2-2.92c8.92,1.82,15.49,6.79,18.39,15.41a32.65,32.65,0,0,1,.87,19.19,27.89,27.89,0,0,0-.72,7.35q0,15.3,0,30.6a7.64,7.64,0,0,1-.33,3.42q0-12.28-.11-24.57c0-3.53,0-7.06,0-10.81-12.19,26.06-20,53.92-36.61,77.6-.79,2.56-2.86,4.19-4.57,6a29.39,29.39,0,0,1-7.81,5.73,7.54,7.54,0,0,1-5.83.54,41.11,41.11,0,0,1-9-3.64c-5.77-3.24-12.08-5.06-18.38-6.89-2.35-.69-4.88-.93-6.83-2.64L474.11,351c-3.53-.1-6.56-1.9-9.81-3a6.19,6.19,0,0,1-3.87-3.09c-.15-1,.56-1.09,1.29-1.18a6,6,0,0,0,4.89-3.49c2.29-4.64,3.09-9.51,1.43-14.57-.73-2.19-2.05-3.79-4.54-4C462.81,321.33,462.12,321,462,320.16Z" transform="translate(-254.52 -96.21)"/><path class="cls-34" d="M488.91,475.75c-3.38-10.1,1.24-23.56,12.86-26.35,8-1.92,16.19-2.7,24.23-4.3,4.16-.83,8.42-.66,12.59-1.35,1.38-.24,2.68.87,4,.08,16-.48,32.1-.95,48.15-.06,2.64.14,5.26.35,7.46,2.47,2.66,2.58,4,5.39,3.37,9.08a13.07,13.07,0,0,0-.09,4.14c.26,3.43-.37,4.15-3.71,4.86-14.9,3.16-30.06,4.83-44.94,8-2.63.56-5.18,1.63-7.94,1.47-3.63-.56-7.22.23-10.8.47-4.6.31-9.23.36-13.83.62-5.45.31-10.92.53-16.38.7C498.91,475.78,493.92,476,488.91,475.75Z" transform="translate(-254.52 -96.21)"/><path class="cls-9" d="M262.89,575c6.36-.49,12.71-1.19,19.12-.93a80.69,80.69,0,0,1,8.92,1.06c1.27.21,1.93.65,1.42,2.32a93.16,93.16,0,0,0-3.84,26.14c-.09,10.11.05,20.15,2.75,30a65.9,65.9,0,0,0,12.48,25c1,1.2,1,1.56-.74,1.86-12.38,2.15-24.64,2-36.78-1.49a77.16,77.16,0,0,1-8.09-24c-3.66-20.11-2.63-39.91,4.35-59.26A5.91,5.91,0,0,1,262.89,575Z" transform="translate(-254.52 -96.21)"/><path class="cls-30" d="M404.27,318.4c5.87,0,11.73,0,17.6,0,.56,1,0,1.95-.43,2.82-1.7,3.46-2.74,7-1.3,10.82a2.16,2.16,0,0,1-.19,2.2c-5.46,2.84-10.9,5.75-16.41,8.51-2.31,1.15-3.05,3-3.17,5.35a43.27,43.27,0,0,1-2.56,12.62,10.75,10.75,0,0,1-3.9,5.57c-1.39-.1-1.3-1.35-1.57-2.19a49.88,49.88,0,0,0-13.17-20.8c-.54-.53-1-1.21-1.9-1.12-1.07-2.21-2.12-4.4-3.39-6.51-2.7-4.51-7-7.14-11.3-9.67a39.13,39.13,0,0,0-15.43-5.31,6.65,6.65,0,0,1-2.89-.7.43.43,0,0,1,0-.63c5.86-.24,11.72-.13,17.59-.32,12.5-.4,25-.85,37.51-.65C400.29,318.43,403.48,318.4,404.27,318.4Z" transform="translate(-254.52 -96.21)"/><path class="cls-13" d="M605.46,629.79c-.3-1.43-1.41-.95-2.22-.84a197.83,197.83,0,0,1-28.78,1.59c-4.37,0-8.74-.57-13.11-.88-.22-.07-.53-.09-.63-.26-1.51-2.53-3.16-5-3.33-8.11.7-1.26,2-1.62,3.22-2.09a88.25,88.25,0,0,1,15.28-3.81,157.78,157.78,0,0,0,21.83-5.29c3.74-1.27,7.68-1.77,11.47-2.87,4.19-1.22,4.37-1.57,3.84-5.82a49.46,49.46,0,0,0-4-13.52c-1.14-2.63-2.18-3.08-5-2.12a130,130,0,0,0-29.68,14q-10.08,6.63-19.82,13.73a6.22,6.22,0,0,1-4.54-2.66,2.93,2.93,0,0,1,1.34-1.8,32.47,32.47,0,0,0,5.6-5c1.27,0,2.13-.88,3-1.56,3.52-2.64,7.16-5.12,10.77-7.78-1.46-.59-3.24.56-4.45-.91.77-1.28,2.06-.92,3.13-.85a12.36,12.36,0,0,0,7.62-2.06c5.13-3.14,10.83-5.15,16.32-7.57,1.31-.46,2.56-1.19,4-1a65.69,65.69,0,0,1,8-2.38c2.35-.91,4.23,0,5.81,1.57a26.29,26.29,0,0,1,5,6.76c.22.46.49,1.18.82,0,2.27,7.88,4,15.85,3.57,24.1a53.7,53.7,0,0,1-1,7.79,7.35,7.35,0,0,1-3.19,4.41c-2.72,2-5.63,3.55-9.07,3.74A2.18,2.18,0,0,0,605.46,629.79Z" transform="translate(-254.52 -96.21)"/><path class="cls-32" d="M593.8,475.84l4.74,8.18a4.94,4.94,0,0,1,1.29,1.61c1.64,3.87,4.27,7.09,6.74,10.45,3.4,4.63,5.6,9.91,7.58,15.28a14.08,14.08,0,0,0,.53,2.66c1.5,6,3.6,11.91,3.73,18.21a7,7,0,0,1,0,3.33c-1.06.1-1.49-.62-1.91-1.22-5.38-7.5-12.73-12.87-19.7-18.7-5.52-4.63-11.42-8.34-18.42-10.2-.45-.12-.88-.31-1-.86.08-.22.21-.5.11-.67-3.18-5.42-4.45-11.64-7.22-17.23a55.49,55.49,0,0,0-4.32-7.37c-.57-.8-1.52-1.82.07-2.66,2.57-.55,5.2-.3,7.8-.5a170.43,170.43,0,0,1,18.63-.69A2,2,0,0,1,593.8,475.84Z" transform="translate(-254.52 -96.21)"/><path class="cls-34" d="M550.11,610.71c1.1,1.34,3.14,1.34,4.11,2.88a11.7,11.7,0,0,1,3.47,7.73,36.26,36.26,0,0,0,3.66,8.34c-3.32,1.31-6.91,1.18-10.35,1.88a215.5,215.5,0,0,1-21.26,3.64c-6.86.7-13.72,2-20.63,1.41-4.06-.36-8.3-.43-12-2.73a11.6,11.6,0,0,0-2.61-.87c-1.31.45-2.23-.37-3.21-1-4.46-1.94-9.28-2.33-14-3.28-1.11-.87-2.59,0-3.89-.84a3,3,0,0,1,1.82-1.26c2.58-1,4.37-2.87,6-4.89,2.48-3,5.26-4,8.91-2.92a111.3,111.3,0,0,1,11.18,3.62c5.85,2.45,11.8,1.88,17.74,1.13a82.1,82.1,0,0,0,19.53-5.34,19.66,19.66,0,0,0,7.07-4.65,14.16,14.16,0,0,1,3.61-2.84A.48.48,0,0,1,550.11,610.71Z" transform="translate(-254.52 -96.21)"/><path class="cls-29" d="M551.56,235.53c-1.64.85-3.45.14-5.19.59-5.31,1.4-8.62,5.06-11.26,9.53a47.64,47.64,0,0,0-3.71,9.16c-.38,1.09.08,1.94.24,2.9.07.14.17.29.14.43-1.52,8.13-2.47,16.42-6,24a24.42,24.42,0,0,0-1.4,2.86.6.6,0,0,1-.68,0c-1.41-1.46-1.2-3.45-1.64-5.21a37.15,37.15,0,0,1-.94-5c-.05-.46-.07-1,.4-1.25s1,.19,1.33.6a7.45,7.45,0,0,1,1.35,2.86,5,5,0,0,1,1.48-4.51,3.23,3.23,0,0,0,1-2.9c-.55-8.24.51-16.18,4.52-23.55,2-3.68,5.11-6.36,8.24-9a5.34,5.34,0,0,0,1.48-1.28c-4-.61-7.63.2-11.28,1.09-.3.08.08,0-.23.06a18.57,18.57,0,0,0-11.46,6.77c-2.89,3.6-6.9,5.63-11.27,7-6.49,2-12.92,4.3-19.83,4.41-1.17,0-1.67.51-1.52,1.73,1,8.25-1.07,15.87-4.41,23.37-5.27,11.83-5.66,24.23-3.48,36.81.14.84.34,1.67.5,2.51.64,3.39.39,3.68-3.16,3.73-1.87-.31-3.72-.68-4.8-2.5a83.86,83.86,0,0,1-1.46-10.24,96.92,96.92,0,0,1,0-10.78,57.87,57.87,0,0,1,5.76-24.26,55.43,55.43,0,0,0,5-13.64c-.12-.64.41-.93.73-1.33,1.89-2.36,1.94-3.62.26-6.1a23.84,23.84,0,0,1-10.59-3.35,5.94,5.94,0,0,1-2.6-2.53c-.34-.75,0-1,.69-1.07,1.29-.11,2,1,2.94,1.51a17.13,17.13,0,0,0,4.52,1.38c.52.16,1.14.11,1.55.41,2.5,1.82,5,1.74,7.67.32,8.6.39,16.55-2.36,24.42-5.29,2.91-1.09,5.18-3.3,7.44-5.39a28.81,28.81,0,0,1,3.32-3.49c2.63-2.32,2.76-4.54.56-7.29-.66-.82-.66-.82.4-1.21l.55.11c.69.47,1.53,0,2.22.36C532.86,230.37,542.42,232.07,551.56,235.53Z" transform="translate(-254.52 -96.21)"/><path class="cls-32" d="M614.19,575.93l-.47,0a1,1,0,0,0-.41-.2c-3.54-.25-3.9-.48-3.36-4.1a28.07,28.07,0,0,0-.92-11.16,277.66,277.66,0,0,0-13.77-41.88,3.37,3.37,0,0,1-.37-1.55c.74-1.23,1.5-.3,2.05.11,3.71,2.75,7.53,5.4,10.55,8.93s6.63,6.19,9.66,9.57a12.89,12.89,0,0,1,2.11,2.72c2.24,2.06,3.78,4.67,5.58,7.07a9.11,9.11,0,0,1,1.61,5c.44,7,.7,13.86-4,19.92C620.27,573.22,617.13,574.32,614.19,575.93Z" transform="translate(-254.52 -96.21)"/><path class="cls-35" d="M545.06,473.35c7.24-1.44,14.46-3,21.74-4.31,10.09-1.78,20.24-3.17,30.27-5.31,3.81-.81,3.83-.66,4.07-4.58.08-1.28-.3-2.63.46-3.83a8.55,8.55,0,0,1,0,1.6c-.27,1.47,0,2.44,1.66,2.95a5.26,5.26,0,0,1,3.27,3.39c1.07,2.79,0,4.61-2.95,5-1.83.26-3.63.64-5.45,1-.94.49-2.06.37-3,.89-5.89,1.21-11.88,1.84-17.79,3q-12.26,2.36-24.54,4.55a25.23,25.23,0,0,0-3.34.53,18.3,18.3,0,0,0-3.23.85,44.54,44.54,0,0,1-8.58,1.49,6.65,6.65,0,0,1-4.2-.85c-1.33-2.21-1-3.7,1.35-4.41A35.15,35.15,0,0,1,545.06,473.35Z" transform="translate(-254.52 -96.21)"/><path class="cls-30" d="M347.82,322.06c-4.81-.11-18.69.75-22.3,3.25-3.17,2.21-5.2,5.36-7.31,8.47-2.12.93-15.08,1.09-17.19.2a6.2,6.2,0,0,1-1.95-1.19,2.83,2.83,0,0,1-.79-1.87,10.83,10.83,0,0,1,10.16-11.76c2.84-.22,5.67-.83,8.49.07l20.33.16c.16.11,10.18-.2,10.12-.1S347.88,322.06,347.82,322.06Z" transform="translate(-254.52 -96.21)"/><path class="cls-36" d="M316.93,319.23c-3,.19-6,.46-9,.56a7.67,7.67,0,0,0-7.64,5.56c-.77,2.27-2,4.55-1.11,7.11,1.58,2.55,3.27,4.93,6.72,5,1.3,1.58,2.82,3.09,1.9,5.45-4.8,1.64-9.88,1.3-14.82,2a1.59,1.59,0,0,1-1.12-.15c-2.11-2-4.4-1.5-6.88-.86a3.4,3.4,0,0,1-4-2c-1.15-2.25-2.41-4.44-3.63-6.66,0-1,.73-.64,1-.35,3.27,3.4,7.84,4.49,11.78,6.69a1.11,1.11,0,0,1,.39.49,4.58,4.58,0,0,0-.48-2.15,13.38,13.38,0,0,0-.88-1.88c-.49-.95-1.19-1.84-.88-3a1.07,1.07,0,0,1,1.15-.62c1.58.6,2,2.26,3.07,3.35.47.49.84,1.31,1.64,1.05s.73-1.25.72-2c0-1.81-1.1-3.2-2-4.61a3.14,3.14,0,0,1,.23-4.16c2.93-3.86,3.86-8.51,4.58-13.18.13-.82-.07-1.72.63-2.39C304.56,314.56,311.6,314.55,316.93,319.23Z" transform="translate(-254.52 -96.21)"/><path class="cls-27" d="M280.61,485.37a10.52,10.52,0,0,1,2.49,1.8c2.19,2.07,4.87,3.46,7.35,5.14a1.91,1.91,0,0,0,2.33.09c1.37-.85,2.74-1.7,4.1-2.57a2.42,2.42,0,0,0,1-2.22c.13-5.46.33-10.91.41-16.37.05-3.22-.22-3.46-3.28-4.11a35.55,35.55,0,0,0-8.24-.72c-.3-.23-.8,0-1-.46-.41-.16.48-4.67,1.32-4.67a58.42,58.42,0,0,1,11.78,1.89c2.91.87,3.26,1.46,3.71,4.44,1.14,7.47-.44,14.91-.06,22.37.08,1.61-1,2.7-2.08,3.68a6.12,6.12,0,0,1-1,.56c-8.13,4.76-8.82,4.69-16.23-1.41-.95-.78-1.94-1.52-2.9-2.27C279.51,489.31,280.24,486.6,280.61,485.37Z" transform="translate(-254.52 -96.21)"/><path class="cls-11" d="M288.54,335.19c.61,2.42,2.66,4.3,2.66,7.22a55.94,55.94,0,0,1-8.62-3.83c-1.57-.82-3.39-1.44-4.31-3.22-.16-.32-.54-.6-.91-.13a1.69,1.69,0,0,1-.38-1.91c1.29-4.47,2.07-9.08,3.68-13.47.77.2,1,.88,1.3,1.52a12.3,12.3,0,0,0,.5-3.86l8.42-4.55a1.8,1.8,0,0,1,0,1.35A44.41,44.41,0,0,0,288.54,335.19Z" transform="translate(-254.52 -96.21)"/><path class="cls-37" d="M475,250.81c-2.92-.07-5.22-1.49-7.33-3.35-4.24-3-4.66-5.23-1.7-9.58,1.59-2.33,2.64-5,4.87-6.93.51-.43-.13-.55-.41-.73l3.25-1.12c-.07,1.29-.91,2.24-1.51,3.29q-2.28,4,1.66,6.4a16.41,16.41,0,0,0,5.87,1.83c.65.78.27,1.59.07,2.39-.46,1.84-1,3.65-1.41,5.52C477.93,250.67,477.32,251,475,250.81Z" transform="translate(-254.52 -96.21)"/><path class="cls-38" d="M619.26,538.34c-3.89-3.82-8-7.41-11.7-11.46a72.6,72.6,0,0,0-12.39-10.33c-2.19-.27-3.66-1.88-5.37-3a41.35,41.35,0,0,0-20.58-7c-3.62-.21-7.25,0-10.88,0-3.16,0-6.32,0-9.49,0a5.72,5.72,0,0,1-2.94-.45c-.57-.56-.93-1.15-.2-1.85a6,6,0,0,1,3.16-.47c8.71-.06,17.42.07,26.13-.07a2.87,2.87,0,0,1,2.54.8,75.65,75.65,0,0,1,10.61,4.23c4.39,2.23,7.84,5.66,11.63,8.63,4.16,3.26,8.48,6.38,12,10.44,2.1,2.44,4.16,4.91,6.48,7.67.07-1.23.13-2.23.19-3.23Q618.85,535.28,619.26,538.34Z" transform="translate(-254.52 -96.21)"/><path class="cls-39" d="M613.73,511.44c-1.36-3-2.7-6.06-4.11-9.06a32.36,32.36,0,0,0-4.81-7.62A37,37,0,0,1,598.54,484c1.23,0,2.46,0,3.69,0,5.6.31,7.68,1.9,9,7.26a94,94,0,0,1,3,16.29C614.19,508.89,615.16,510.33,613.73,511.44Z" transform="translate(-254.52 -96.21)"/><path class="cls-40" d="M552.52,477.14c10.94-2,21.88-4.07,32.84-6.05,3.24-.58,6.53-1,9.79-1.43.56-.1,1.27-.66,1.4.48a1.67,1.67,0,0,0-1.21,2.24,3,3,0,0,1-1.54,3.46,8.59,8.59,0,0,1-3.18.43c-8.4-.32-16.74.89-25.13.87a29.42,29.42,0,0,1-10.09,1.14C554.4,478,553,478.68,552.52,477.14Z" transform="translate(-254.52 -96.21)"/><path class="cls-11" d="M298.3,312.45c-.11,6.13-1.49,11.87-5.43,16.74-.7.86-.23,1.31.14,2,1.13,2.14,3,4,2.52,6.77-.11.7-.06,1.43-.87,1.72a1.71,1.71,0,0,1-2-.71c-1.05-1.42-2.08-2.85-3.12-4.27a7.86,7.86,0,0,1-1.43-6.53,34.19,34.19,0,0,1,3.86-11.3,4.06,4.06,0,0,0,.33-3.9,7.62,7.62,0,0,0,3.45-.83A2.54,2.54,0,0,1,298.3,312.45Z" transform="translate(-254.52 -96.21)"/><path class="cls-33" d="M520.48,228.41c-.72.22-.52.38-.06.8,2.54,2.33,2.59,5.8-.09,7.83a39.07,39.07,0,0,0-3.56,3.48c-2-3-4.81-5.43-6.36-8.77a5.66,5.66,0,0,0,.25-5.5c-.39-.92-1.08-1.9-.46-3a24.44,24.44,0,0,1,6,3.16A13.43,13.43,0,0,0,520.48,228.41Z" transform="translate(-254.52 -96.21)"/><path class="cls-9" d="M307.84,342.87a11.48,11.48,0,0,0-2.21-5.3,1.37,1.37,0,0,1,1.48-.33,18.14,18.14,0,0,0,6.81.26c.93-.11,2.31-.4,2.05,1.42A41.34,41.34,0,0,0,314.52,351a1.34,1.34,0,0,1-.37,1.27,42.14,42.14,0,0,1-4.81-7.5C309,344.1,308.74,343.2,307.84,342.87Z" transform="translate(-254.52 -96.21)"/><path class="cls-41" d="M292.27,313c1.28.53,1.78,1.34,1,2.65-2.54,4-3.54,8.64-4.94,13.11a4.22,4.22,0,0,0,.41,3.1,23,23,0,0,1,.8,2.87,1,1,0,0,0-1,.49,3,3,0,0,1-.84-2.08c-.43-6.95.06-13.76,3.18-20.15Z" transform="translate(-254.52 -96.21)"/><path class="cls-42" d="M282.46,317.51c.52.08.7.27.64.9-.13,1.47-.81,2.82-1,4.39-.46-1-.93-2-1.4-2.95A3.33,3.33,0,0,1,282.46,317.51Z" transform="translate(-254.52 -96.21)"/><path class="cls-43" d="M613.73,511.44c1-1.17.14-2.59.54-3.85a21.07,21.07,0,0,1,.41,6.43A6.11,6.11,0,0,1,613.73,511.44Z" transform="translate(-254.52 -96.21)"/><path class="cls-44" d="M596.55,470.14c-.33-.56-.92-.36-1.4-.48.91-.75,2-.37,3-.4A1.77,1.77,0,0,1,596.55,470.14Z" transform="translate(-254.52 -96.21)"/><path class="cls-45" d="M523.25,228.88c-.77.07-1.57.33-2.22-.37A3.55,3.55,0,0,1,523.25,228.88Z" transform="translate(-254.52 -96.21)"/><path class="cls-27" d="M546,505.87c6.79,0,13.59.06,20.38,0a41.37,41.37,0,0,1,24.27,7.51c1.52,1,3,2.12,4.51,3.18,3,7.51,6.09,15,8.56,22.68,2.68,8.35,4.8,16.86,7,25.34a12.54,12.54,0,0,1,0,5.52c-.8,4.24-.67,4.58,2.94,5.81-15.34,1.2-30.71,1.52-46.1,1.58-3.28,0-6.63.92-10,.74.15-1.21,1.11-.94,1.78-.83a32.25,32.25,0,0,0,3.39.19c-2.87-.24-5.75-.21-8.61-1-5.77-1.61-9.23-5.77-11.95-10.64-3.33-6-5.32-12.5-7.62-18.89a16.67,16.67,0,0,1-.84-5.72c0-7.64-.39-15.31,1.69-22.81.62-2.24,1.34-4.44,2-6.67a9.5,9.5,0,0,1,3.46-5.1C542.39,505.59,544.07,504.83,546,505.87Z" transform="translate(-254.52 -96.21)"/><path class="cls-27" d="M555.36,477.63l10.13-.49c1.23,2.83,3.28,5.16,4.71,7.89,2.73,5.22,4,11,6.68,16.24a26,26,0,0,0,1.43,2.36c.9,1.34-.43.64-.77.86h-32c-.84.74-1.87.61-2.87.63-3.54.11-7.08.36-10.59.77-3.87.45-6.61,2.65-8.56,6-5.37,9.18-7.93,19.19-8.88,29.68-.07.83.06,1.72-.67,2.37-.05.06-.15.11-.15.17-.26,5.87-1.18,11.83.66,17.55a99.4,99.4,0,0,0,6.28,15.8,14.67,14.67,0,0,1,.65,1.71c-2.3.48-4.61.13-6.91.12a2,2,0,0,1-2-1.83c-3.42-14.49-9.25-28.18-14-42.23a145,145,0,0,0-6.08-15.6,80,80,0,0,0,.38,8.34c.34,4.4-.5,8.78-.55,13.18-.1,8.77-2.27,17.47-.48,26.32.84,4.14-2,6.66-5.89,5.9a.53.53,0,0,1-.2-.68,12.51,12.51,0,0,0,2.48-.47c1.77-.72,2.78-1.7,2.37-4.05a64.11,64.11,0,0,1-.38-16.61c1-11.61,1.84-23.24.78-34.9-.09-1.07-.07-2.16-.07-3.24,0-9.57-.59-19.12-1.37-28.65-.14-1.62-.06-3.24-.09-4.87,1.12-.93,2.48-.74,3.77-.74q15,0,30.1,0a45.77,45.77,0,0,0,6.92-.34,3.94,3.94,0,0,1,3.32.61c4.44,1.33,8.66-.38,13-.92,1.24-.41,2.58-.26,3.83-.66C552,477.22,553.7,478.29,555.36,477.63Z" transform="translate(-254.52 -96.21)"/><path class="cls-46" d="M485.67,573.12c4.67,0,6.24-2,5.36-6.56a43.74,43.74,0,0,1,0-16,5.76,5.76,0,0,0,.24-1.12c-.13-7,1.11-14,.87-21-.13-3.61-.36-7.21-.38-11.16,1.55,1.6,1.9,3.5,2.62,5.16,3.44,7.92,5.94,16.18,8.9,24.28,3.3,9,6.59,18.08,9.12,27.37.17.59.61,1.19.55,1.75-.31,3,1.52,3,3.72,2.94,1.58-.08,3.25-.41,4.78.42,1.64,2.07,1,3.65-.61,5.6-4.56,5.56-9.86,10.43-14.57,15.84a27.72,27.72,0,0,0-4.68,6.36,90.09,90.09,0,0,0,9.62-.08,53.53,53.53,0,0,1,7.14-.36c7,.18,13.89-.45,20.84-.47.65,0,1.53-.36,1.91.36s-.46,1.22-.7,1.84c-1.22,3.2-3.74,3.87-6.85,3.89-5.15,0-10.27.9-15.44.88-10.66,0-21.31-.34-32-.6-7.56-.19-15.12-.14-22.68-.33a40.22,40.22,0,0,1-12.39-2.58c-2.51-.89-3.92-3.38-5.68-5.3a1.52,1.52,0,0,1-.95-1c-.33-.56-.3-.94.47-1a3.71,3.71,0,0,1,2.65.57,45.32,45.32,0,0,0,18.76,3.45c5.71,0,11.42,0,17.14,0,2.87,0,3.69-.32,4-3.06.76-6.81,1.43-13.66.33-20.52a5.49,5.49,0,0,0-.48-1.3c-1.07-2.21-1.27-4.68-2.08-7C485.05,574,484.6,573.24,485.67,573.12Z" transform="translate(-254.52 -96.21)"/><path class="cls-31" d="M440.21,386.77c7,2.05,13.14,6.27,20,8.75a11.91,11.91,0,0,0,4.25.88c5,0,10-.11,15,.06a56.58,56.58,0,0,1,10.43,1.31,1.5,1.5,0,0,1-1,.56c-9.19,1.14-18.2,3.43-27.42,4.36-6.23.63-11.69,3.37-17.05,6.32-2.1,1.16-4.1,2.5-6.17,3.69-4.14,2.38-4.82,6.27-4.6,10.38.5,9.32,1.16,18.64,2.18,27.92a88.94,88.94,0,0,1,.4,10.18,4.54,4.54,0,0,1-.53,2.91c-1.31,0-1.12-1-1.19-1.75a29,29,0,0,1-.05-4.17c.05-1.63-.53-2.37-2.25-2.84-4.26-1.14-8.56-2-12.83-3.11-2.29-.92-4.91-.91-7-2.53a50.15,50.15,0,0,1,1.42-9.55c1.18-5.12,1-10.28.76-15.41-.32-6.29-1-12.58-3.07-18.6a5,5,0,0,1,2.56-1.49c8.87-3.52,17.66-7.26,26.79-10.1a2.5,2.5,0,0,0,1.58-.9,39.92,39.92,0,0,0-3.73-2.45c-.5-.37-1-.67-1.53-1-.66-.5-1.7-.85-1.63-1.79s1.37-.73,2-1.2C438.46,386.87,439.24,386.19,440.21,386.77Z" transform="translate(-254.52 -96.21)"/><path class="cls-32" d="M514,543.94c.45-9.45,2.08-38.91,19.34-38.91,4.07-.17,8.13-.89,12.23-.54.15.46.3.92.46,1.38-4.32-.3-6.8,2.52-7.8,5.57-2.27,7-4.08,14-3.82,21.44.2,5.74-.68,11.59,1.82,17.08,2.11,4.63,3.51,9.52,5.68,14.13,4.22,9,11.33,13.15,21.07,13.23.36,0,.73,0,1.66.12-2.67.79-5-.27-7,.78-6.48,0-13,.17-19.44,0-7.74-.25-13.56-3.7-17.3-10.7A63.92,63.92,0,0,1,514,543.94Z" transform="translate(-254.52 -96.21)"/><path class="cls-29" d="M487.61,581c1.54,1.1,1.15,2.89,1.27,4.33.47,5.77-.24,11.52-.44,17.29-.11,3.4-1.4,4.44-4.75,4.44-6.64,0-13.28.06-19.92,0a40.12,40.12,0,0,1-18.88-4.69c-.9-.63-2.31-.74-2.33-2.27-.23-2,1.3-2.7,2.6-3.44,3.29-1.86,6.7-3.5,10-5.33,5.76-3.16,11.15-7,17.12-9.75,1.5-.71.81-1.6.11-2.37a33.66,33.66,0,0,0-10.91-8.09,25.2,25.2,0,0,0-7.42-2.55,1.13,1.13,0,0,1-1-.81.75.75,0,0,1,.26-.58c7.39.16,14,3,20.7,5.71,2.27.93,4.08,2.77,6.6,3.14a3.87,3.87,0,0,1,1.91.74C484.16,578.19,486,579.47,487.61,581Z" transform="translate(-254.52 -96.21)"/><path class="cls-47" d="M453.15,567.46a58.53,58.53,0,0,1,8.4,2.95,34.23,34.23,0,0,1,12.11,9.4c.73,1,.74,1.33-.35,1.84-9.2,4.4-17.45,10.5-26.73,14.77-1.67.77-3.34,1.67-4,3.61q-5.31-10.21-10.63-20.41c2.92-.74,4.85-2.91,7-4.82,1.36-1.21,2.75-2.39,4.12-3.58a8.79,8.79,0,0,1,7.45-4.58A18.14,18.14,0,0,1,453.15,567.46Z" transform="translate(-254.52 -96.21)"/><path class="cls-11" d="M420,334.27c-2.27-5.63-.5-10.78,1.92-15.85.82-1.25,1.13-2.73,2.5-3.75a5.51,5.51,0,0,1,6.6-.4c.88,1.18.57,2.39.18,3.64a10,10,0,0,1,2.42-3.58c2.81-2.44,5.67-2.44,8.47,0,4.39,2.57,9.46,3,14.18,4.56,1.16.39,2.35.71,3.53,1.06.35.16.75.16,1.1.33s.77.28.71.76a.81.81,0,0,1-.85.65c-2,.13-4,.86-6,.32a2,2,0,0,0-2.66,1.18c-1.57,3.52-4.52,6.47-4.21,10.76a6.82,6.82,0,0,1-1.07,4,4.93,4.93,0,0,1-1.9,2c-1.85,1-7.47.3-8.91-1.19a1.56,1.56,0,0,0-2-.41c-2.85,1-4.64,0-5.33-2.94a50.8,50.8,0,0,1-1.36-7c-2,2.18-.82,4.68-.44,7.15a10.38,10.38,0,0,1,0,1.85c0,2.59-2,4.41-4.47,3C421.06,338.53,421,336.19,420,334.27Z" transform="translate(-254.52 -96.21)"/><path class="cls-28" d="M361.38,375.48a31.93,31.93,0,0,1,2.82-2c7.77-4.41,11.44-11.61,13.29-19.9.83-3.73.42-7.63.11-11.45.15-1.09.59-.56,1-.19a58.41,58.41,0,0,1,10.18,12.66c2.24,3.69,3.29,7.87,5.13,11.71-3.46,3.85-8.2,5.36-12.9,6.85A56.85,56.85,0,0,1,361.38,375.48Z" transform="translate(-254.52 -96.21)"/><path class="cls-12" d="M422.44,340.33c3.6-.12,3.92-.48,3.91-4.05a10.9,10.9,0,0,0-.45-2.72c-.8-3.13-.78-3.13,1.74-6a58.87,58.87,0,0,1,1.41,6.78c.31,3.41,2.83,5.26,6.36,2.42.89,2,2.11,3.45,4.59,2.57a1.79,1.79,0,0,1,.69,0c4.86.46,7.31-2,6.68-6.92a4.25,4.25,0,0,1,.81-3.41c1.7-2.19,2.26-5,4-7.21.32-.4.33-1.12,1.09-.77,2.55,1.17,5.15-.08,7.9.24-.21-.88-1.11-.82-1.42-1.34l2.25.2,1.64,1.14c2.89,1.63,4.06,4.17,4.16,7.42.1,3.52-.26,6.87-2.33,9.87-1.27,1.85-2.85,2.73-5.1,2.06-1.21-.71-1.75-1.51-.35-2.58,3.05-2.29,2.57-5.77,1.15-9.39a1.94,1.94,0,0,0-2.6-1c-1.75.58-1.23-.43-3,.13a2.4,2.4,0,0,0-1.56,1.57,15,15,0,0,0-.95,5c-.06,2.25,1.57,3.16,3.5,3.65,2.15.88,2.47,2.21.93,3.92a4.14,4.14,0,0,1-2.4,1.28c-3.38.65-6.28,2.52-9.47,3.63-1,.36-1,1.52-1.79,2,0-2.13-1.17-3-3.23-3.09a25.88,25.88,0,0,1-4-.87,3.65,3.65,0,0,0-3.34,1.17c-1.52.56-3,2.38-4.61.11S424.36,342.42,422.44,340.33Z" transform="translate(-254.52 -96.21)"/><path class="cls-48" d="M401.63,390.9c12.07-1.32,24.12-2.83,36.27-3.27-.47.7-1.33.21-2.06.7,2.15,1.91,4.68,3.16,7,4.72.36.24.94.34.79.95-.1.42-.55.47-.92.58-10.62,3.18-20.71,7.79-31.12,11.55-1.84-5-5.24-9-8.41-13.2C402.64,392.26,402.14,391.58,401.63,390.9Z" transform="translate(-254.52 -96.21)"/><path class="cls-29" d="M550.11,610.71h-.78c2.19-7.58,4.62-15.09,7.44-22.46.48-1.26.94-2.44,2.23-3.06,2.83-1.21,5.88-1,8.83-1.13,5.67-.32,11.33-.71,17-1.29a51.57,51.57,0,0,1,7.14-.08c.72,0,1.59,0,1.79,1-4.34,2.34-9.18,3.6-13.43,6.13-.26.15-.57.25-.82.42-3.65,2.49-7.56,4-12.09,3.37a2.93,2.93,0,0,0-1.09.3,1.54,1.54,0,0,1-1.41.64c-2.92,0-4.34,1.63-5.22,4.28-.61,1.85-1,3.91-2.57,5.32C555.66,607.3,552.48,608.57,550.11,610.71Z" transform="translate(-254.52 -96.21)"/><path class="cls-34" d="M419.36,451.65c4.83,1.07,9.65,2.16,14.48,3.19,1.25.27,1.23,1.14,1.31,2.08.2,2.42-.44,4.88.42,7.26a1.45,1.45,0,0,1,.6,1.19c-.13,2.79.88,5.57.1,8.37-2,.66-4.09.17-6.13.32-4.25.32-8.47-.28-12.71-.44-1.47-.06-2.92.38-4.38.25a5.52,5.52,0,0,1-3.34-1.44c-.07-.12-.13-.24-.19-.36,0-.49.07-1,.1-1.45.6-1.11,1.73-1.19,2.77-1.4,3.31-.68,6.62-1.34,9.93-2,2.75-.56,2.76-.57,1.76-3.08-1.34-3.35-2.67-6.7-4.3-9.94C419.4,453.42,418.71,452.63,419.36,451.65Z" transform="translate(-254.52 -96.21)"/><path class="cls-47" d="M419.36,451.65c1.92,4.44,3.82,8.89,5.77,13.32.67,1.53.76,2.24-1.37,2.64-4.73.89-9.53,1.55-14.14,3a142.94,142.94,0,0,1,2.84-20.92Z" transform="translate(-254.52 -96.21)"/><path class="cls-33" d="M427.25,347.13c-4.23,7.66-9.5,14.33-17.6,18.27-.14-.26-.44-.57-.38-.78,1.46-5.47,1.8-11.16,3.41-16.61.55-1.88,1.35-2.21,3.31-1.94a85.14,85.14,0,0,0,9.19.22C425.94,346.31,427,345.88,427.25,347.13Z" transform="translate(-254.52 -96.21)"/><path class="cls-49" d="M357.19,522.13c-1-1.75-2-3.47-2.84-5.26A37.56,37.56,0,0,0,343.77,504c-3.69-2.67-8.08-3.65-12.29-5a104,104,0,0,0-14.58-3.5l3.66-.78a46.74,46.74,0,0,1,17.25,2.74,24.15,24.15,0,0,1,12.93,10.69c.86,1.46,1.77,2.89,2.66,4.33l4.32,9.11C357.87,522.1,357.64,522.23,357.19,522.13Z" transform="translate(-254.52 -96.21)"/><path class="cls-50" d="M593.74,583.72a22.32,22.32,0,0,0-8.65-.24q-7.53.85-15.08,1.18c-3.67.17-7.32.86-11,.54,1.12-3.71,3.82-4,7.2-3.83,7.37.29,14.77,0,22.15.25,3,.11,6.1-.14,9.07.75Z" transform="translate(-254.52 -96.21)"/><path class="cls-51" d="M357.19,522.13l.53-.54c2.18,3.57,3.54,7.54,5.49,11.21l-.5.53A123.69,123.69,0,0,1,357.19,522.13Z" transform="translate(-254.52 -96.21)"/><path class="cls-52" d="M444.42,603.27l.95,1C444.5,604.45,444.2,604.12,444.42,603.27Z" transform="translate(-254.52 -96.21)"/><path class="cls-27" d="M384.58,468.13c-.23,3.7-1.86,8.32-2.54,13.1-.32,2.28-1,4.49-1.22,6.8-.2,2-1.9,3.14-3.48,4-5.81,3.25-12.1,5.38-18.36,7.54-3.21,1.11-4.88.29-6.73-2.57-1.24-1.92-3.07-3.46-3.6-5.85a4.2,4.2,0,0,1,.09-2.69c3.22-7.77,7-15.29,10.72-22.81a4.43,4.43,0,0,1,2.73-2.36A40.94,40.94,0,0,1,380.62,462C384.2,462.57,384.59,463.26,384.58,468.13Z" transform="translate(-254.52 -96.21)"/><path class="cls-53" d="M335.41,414c.58-2.79,2.95-3.59,5.13-4.62,2.78,0,5.57-.24,8.31.46,1.71.67,4,.61,4.22,3.18.17,1.81-1.7,4.66-3.89,5.23a17.61,17.61,0,0,1-11.51-.46A3.33,3.33,0,0,1,335.41,414Z" transform="translate(-254.52 -96.21)"/><path class="cls-54" d="M335.41,414c1,2.92,2.56,4,6.13,4.16,1.69.06,3.4,0,5.09,0,2.9.1,4.57-1.64,5.72-3.94a2.27,2.27,0,0,0-1.05-3.17c-.79-.46-1.63-.82-2.45-1.23a9.59,9.59,0,0,1,5.79,2c2.51,1.71,1.75,5.34-1.38,6.84a13.58,13.58,0,0,1-5.79,1.34c-2.73-.16-5.5.27-8.2-.52C336.22,418.66,334.64,416.45,335.41,414Z" transform="translate(-254.52 -96.21)"/><path class="cls-13" d="M338.22,589.35c3.68,9.52,4.67,19.41,3.91,29.52a61.82,61.82,0,0,1-4.86,20.36,34.21,34.21,0,0,1-8.36,12.08c-6.51,5.82-14.84,5.84-21.33,0a34.89,34.89,0,0,1-9.78-16c0-.11.05-.21.07-.32,3.5-4.62,7.62-8.69,11.41-13.06,5.19-6,10.55-11.87,15.7-17.92.86-1,1.82-1.9,2.69-2.88C331.06,597.11,334.87,593.43,338.22,589.35Z" transform="translate(-254.52 -96.21)"/><path class="cls-13" d="M297.8,635.33c-3.35-9.06-4.15-18.45-3.47-28a61.61,61.61,0,0,1,4.92-20.59,34,34,0,0,1,8.22-11.9c6.58-5.94,14.94-6,21.5,0A32.94,32.94,0,0,1,337.68,588c-2.17,3.81-5.11,7.06-7.77,10.5a24.12,24.12,0,0,1-2.16,2.68q-13.53,15.57-27.38,30.88c-.87,1-1.62,2-2.41,3.09Z" transform="translate(-254.52 -96.21)"/><path class="cls-55" d="M327.5,601c3.4-4.32,6.37-9,10.18-13l.54,1.35a2.63,2.63,0,0,1-.71,1.86c-3.2,3.39-6.36,6.81-9.53,10.22C327.55,601.54,327.36,601.41,327.5,601Z" transform="translate(-254.52 -96.21)"/><path class="cls-48" d="M436,473.87c-.14-3.23-.64-6.44-.44-9.69a120,120,0,0,0-1.28-21.59,60.27,60.27,0,0,1-.53-7.12c-.13-4.22-.72-8.42-.81-12.62-.09-4,.43-8.08,4.64-10.53,7.18-4.19,14.12-8.84,22.59-10.11,5.75-.87,11.51-1.7,17.26-2.56a14.82,14.82,0,0,0,3.16-.57,22.72,22.72,0,0,1,9.31-1.31c4.18.12,7.93,1.84,11.65,3.43,5.93,2.54,11.7,5.44,17.54,8.18-1.13,2.13-3.23,2.6-5.29,2.75-10,.73-19.31,4-28.42,7.6-6.12,2.43-9.65,8.24-11.07,14.54-.81,3.61.05,7.65.45,11.47a32.25,32.25,0,0,1,.24,4.59,194.76,194.76,0,0,0,.58,19.64c.42,6.73.73,13.48,1.6,20.19.33,2.6-1,5.27-.75,8,1.38,16.14,1.38,32.32,1.5,48.5,0,3.9.22,7.84.33,11.76a9.1,9.1,0,0,0,1.58,4.5c.7,1.19.66,1.78-.92,1.93-3.34.32-6.33-1-9.42-1.84-8.1-2.14-16.18-4.38-24.24-6.66-1.39-.4-1.74-.12-1.82,1.28a5.52,5.52,0,0,0,1.41,4.43c-1.16.61-1.39-.34-1.78-1-2.34-.87-2.52-2.71-2.43-4.9.47-11.81.77-23.62.53-35.43a7.85,7.85,0,0,0-.46-3,44.32,44.32,0,0,1-1.74-11.6c-.24-5.64-1.89-11-2.44-16.64-.13-1.29-.23-2.6-.49-3.88-.31-2.13-.12-4.27-.33-6.4C436.24,477.43,435.21,475.6,436,473.87Z" transform="translate(-254.52 -96.21)"/><path class="cls-40" d="M533.49,479.42c-14.7.86-29.41.35-44.11.48-.15-1.38-.31-2.76-.46-4.15.18-1.11,1-1,1.78-.89,7.52,1,15-.18,22.5-.48,3.6-.14,7.22-.26,10.81-.38,5.07-.16,10.13-.77,15.21-.61,1.94.06,3.88-1.12,5.84,0l-9.3,2.26C533.08,476.27,532.77,476.81,533.49,479.42Z" transform="translate(-254.52 -96.21)"/><path class="cls-27" d="M487.61,581c-2.88-.92-4.58-3.48-7-5,1.74-1,3.86-1.43,5.06-3.27a1.56,1.56,0,0,1,0,.43C485.93,575.83,487,578.34,487.61,581Z" transform="translate(-254.52 -96.21)"/><path class="cls-9" d="M480.59,352.83c7.19,2.15,14.47,4,21.42,6.91a44.41,44.41,0,0,1,5.31,2.74,41.62,41.62,0,0,0,8.17,3.1c2.46.8,4.47-.35,6.5-1.54,4.45-2.61,7.71-6.48,11-10.32.34,6.95-.64,13.86-.45,20.81.12,4.71-2.84,8-5.34,11.41a2.69,2.69,0,0,1-2.35.72c-8.25-.06-16.45.82-24.69,1.06-4.05.13-8.13.09-12.5.44,2.13,2.25,4.81,1.88,7.17,2.17,5.75.69,11.57.21,17.32.61,4.78.33,9.55.19,14.32.38,3.9.15,5,2,3.78,5.7-.36,1.05-.82,2-2,1.66-2.06-.6-3.91.38-5.85.47-6,.26-11.94-.84-17.92-1.24-7.74-.51-15-3.9-22.85-3.84a2.92,2.92,0,0,1-2.63-2,117.8,117.8,0,0,0-5.51-10.94,2.8,2.8,0,0,1-.13-1.79c.65-8.59,3.83-16.41,7.25-24.16A2.15,2.15,0,0,0,480.59,352.83Z" transform="translate(-254.52 -96.21)"/><path class="cls-9" d="M443.84,348.83c0-1.46.29-2.17,2-2.82,3.46-1.27,6.78-2.93,10.4-3.81,1.3-.32,1.47-1.5,1.69-2.54.27-1.31-1.29-.46-1.55-1.2a2.85,2.85,0,0,1,3.78,0c-1.38.7-.39,1.22.14,1.76-1.87,2.32-1.85,2.56.32,4.71,3,3.18,7.36,3.54,11.1,5.16.77.33,1.57.6,2.35.9-1.58,5.23-4.24,10-5.86,15.28-1.31,4.27-1.57,8.73-2.82,13-.63,2.17.81,4.48,2,6.46a38.54,38.54,0,0,1,2.77,5.49c-8.32-2.22-15.71-5.94-23-9.92-.1,2.71-.1,2.71-4.15,2.59,3.39-1,3.57-1,3.09-4.24C444.59,369.42,444.58,359.1,443.84,348.83Z" transform="translate(-254.52 -96.21)"/><path class="cls-37" d="M469.94,320.76c1.48.76,2.85,1.76,4.57,1.93a1.47,1.47,0,0,0,1.11.19c4.39-.92,8.35.74,12.25,2.26a81.69,81.69,0,0,0,12.42,3.44c1.72.37,3.5.61,4.87,1.89,5.88,1.51,11.17,4,14.54,9.34,1.57,2.48,1.67,5.39,1.7,8.24,0,1-.64.94-1.45.79-10.68-1.87-21.32-3.89-31.21-8.65q-4.87-2.35-9.83-4.55c-1-.46-1.08-1-.84-2,.47-1.94-.41-3.69-1.09-5.47a24.55,24.55,0,0,1,.3,3.81c-.07,1.14-.54,2.61-1.88,2.49-1.53-.14-3.85.12-4-2.25-.23-4.06-.94-7.92-3.19-11.38-.05-.08.21-.36.33-.54Z" transform="translate(-254.52 -96.21)"/><path class="cls-33" d="M442,314.34c-.88-.28-1.77-.53-2.63-.85a4.91,4.91,0,0,0-5.69,1.31.6.6,0,0,1-.91-.11,31.92,31.92,0,0,1,1.85-4c1-1.53.56-2.73-.39-4-.69-.92-1.3-1.9-2-2.8-1.23-1.54-.41-1.77,1-1.69a1.42,1.42,0,0,0,.46,0c1.12-.34,2.39,1.06,3.29,0s1.18-2.84,1.32-4.35A54.37,54.37,0,0,1,440,289.8c.08,4.32,1.14,8.49,1.62,12.75.36,3.19.8,6.38,1.21,9.57C443,313,443.44,314,442,314.34Z" transform="translate(-254.52 -96.21)"/><path class="cls-56" d="M480.16,254.41c2.23,1.13,2.49,3.74.56,6.09a11.74,11.74,0,0,1-1.55,1.34c-2.39-.46-3.41-1.88-2.52-4C477.31,256.32,477.57,254.11,480.16,254.41Z" transform="translate(-254.52 -96.21)"/><path class="cls-57" d="M432.81,314.69l.91.11-3.12,4.72c.15-2.09.26-3.67.37-5.25Z" transform="translate(-254.52 -96.21)"/><path class="cls-13" d="M584.06,642.72a33,33,0,0,1-6.18,7.72c-7.72,7-17.47,7-25.21,0a27,27,0,0,1-5.28-6.37c0-1.25,1.08-1.43,1.9-1.66,5.41-1.57,10.87-3,16.33-4.34a4.67,4.67,0,0,1,2.29,0c4.59,1.06,9.23,1.86,13.83,2.86C582.71,641.23,584,641.14,584.06,642.72Z" transform="translate(-254.52 -96.21)"/><path class="cls-58" d="M584.06,642.72c-.3-.79-1-.81-1.69-1-4.89-1-9.78-2-14.67-3a4.12,4.12,0,0,0-1.81-.07c-5.58,1.45-11.14,3-16.71,4.46a3.16,3.16,0,0,0-1.79,1c-.9-1.51-1.78-3.05-2.72-4.54-1.11-1.78.14-2.09,1.43-2.34,4.9-1,9.81-1.88,14.7-2.89,2.92-.6,5.77-2,8.78-1.72,5.74.43,11.46,1.18,17.19,1.78,1.23.12.8.86.56,1.48A31.39,31.39,0,0,1,584.06,642.72Z" transform="translate(-254.52 -96.21)"/><path class="cls-9" d="M505.16,330.47c-6.29-1.7-12.76-2.7-18.84-5.18-3.35-1.36-6.8-2.54-10.53-2.17a1.53,1.53,0,0,1-1.28-.43,3.22,3.22,0,0,1,.69,0c2.28.37,2.68-.53,2.19-2.65a68.09,68.09,0,0,1-1.89-16.21A66.85,66.85,0,0,1,482,275.72a33.13,33.13,0,0,0,2.46-19.65c-.21-1.32.32-1.63,1.48-1.62,8.18.1,15.71-2.72,23.27-5.31,4.91-1.68,8.27-5.54,11.6-9.3a4.12,4.12,0,0,1,1.73-1.44c5.87-1.86,11.7-3.92,18-3.43a12.63,12.63,0,0,1,1.38.12c.2,0,.36.26.74.54a41.88,41.88,0,0,0-7.18,5.87c-4.4,4.31-6.5,9.73-7.48,15.57-.74,4.43-1.62,8.94-.58,13.5.13.6.35,1.52-.48,1.85-2.18.89-2.21,2.74-2.26,4.62a5,5,0,0,1-.19,1.59c-1-1.61-1.46-3.48-2.88-4.81,1,3.75.68,7.77,2.62,11.27.88,1.53-.14,2.82-.59,4.14-2.57,7.58-5.84,14.89-8.79,22.32-1,2.57-2.06,5.14-3,7.75a8,8,0,0,1-2.07,3.8,2.6,2.6,0,0,0-.41.79C509.15,326.84,508.17,329.31,505.16,330.47Z" transform="translate(-254.52 -96.21)"/><path class="cls-37" d="M509.8,323.1c2.1-5.42,4.16-10.85,6.3-16.25,2.85-7.2,6.11-14.25,8.12-21.76h0a15.3,15.3,0,0,1,.92-2.8c1.88-6,4.57-11.72,4.76-18.17a17.56,17.56,0,0,1,1.74-6.41c1.5-1.4,1.71-3.39,2.39-5.17,1.83-4.8,4.07-9.28,8.41-12.43A13.48,13.48,0,0,1,553.22,238a5.11,5.11,0,0,1,4.09,6.4c-.37,1.66.15,3.4-.55,5-.25.6,0,1.55-1,1.61s-.87-.91-1.15-1.49c-.1-.21-.24-.4-.53-.89-.58,2.6-.11,5-.45,7.36-1.23,8.51-4.58,16.44-6.43,24.76-1.51,6.74-2.68,13.56-4.49,20.23a12.35,12.35,0,0,1-1.53,3.59c-2.64,4.15-3,9-4.07,13.61a78,78,0,0,0-2.06,10.57c-.29,3.22-2.43,5.94-4.93,8.15-.5.43-1,.82-1.65.37-5.22-3.85-11.3-5.76-17.56-7.54,1.8-1.45,5.77-2.25,8.13-1.76,1.18.24,2.86.86,3.29-.42.31-.91-1.61-1-2.53-1.44a31.18,31.18,0,0,0-8.48-2C510.65,324,509.91,324.08,509.8,323.1Z" transform="translate(-254.52 -96.21)"/><path class="cls-59" d="M460.66,344.9c-1.54,0-2.18-1-2.3-2.38s.68-2.09,2-2.33c2.33.68,3.74-.39,4.9-2.34,2.17-3.68,2.32-7.57,1.64-11.62-.36-2.16-2.21-3.26-3.24-4.93,2.21-.55,3.27,1,4.24,2.48,2.9,4.48,1.74,14.76-2.06,18.5-1.28,1.25-2.64,2.4-4.66,2C460.78,344.21,460.69,344.58,460.66,344.9Z" transform="translate(-254.52 -96.21)"/><path class="cls-37" d="M510.41,231.75c2.24,2.84,5.17,5.17,6.36,8.77-3.47,4.07-8,6.36-13,7.81-6.34,1.82-12.64,3.92-19.4,3.29-2.05-.08-2.55-1.21-2.25-3.08a31.67,31.67,0,0,1,1-5.63,3.35,3.35,0,0,1,1.7-2.33,74.37,74.37,0,0,0,9.42-.61C500.58,239.08,505.81,236.07,510.41,231.75Z" transform="translate(-254.52 -96.21)"/><path class="cls-56" d="M484.79,240.58c-1.74,2.77-1.7,6-2.28,9-.28,1.44,1.11,1.42,1.81,2-1.86,1-3.8,2.09-5.87.75a17.84,17.84,0,0,0-3.46-1.56c1.23,0,2.44-.22,2.61-1.62.35-2.95,1.58-5.67,2.09-8.57A7.51,7.51,0,0,1,484.79,240.58Z" transform="translate(-254.52 -96.21)"/><path class="cls-27" d="M316,338.92a1.08,1.08,0,0,0-1.54-.91c-3,.84-5.9.34-8.8-.44-3.05.53-5.66-1.56-6.41-5.11a13.24,13.24,0,0,0,7.71,1.45c3.73-.36,7.52-.12,11.28-.13Q317.1,336.35,316,338.92Z" transform="translate(-254.52 -96.21)"/><path class="cls-60" d="M557.69,621.32l-3.47-7.73a2.13,2.13,0,0,1,1.19-1.59c7.77-5.17,15.16-10.92,23.25-15.58a143.28,143.28,0,0,1,26-11.54c2.36-.8,3.69,0,4.58,2a58,58,0,0,1,4.65,15.9c.42,3-.82,3.86-3.17,4.61-5.13,1.65-10.49,2.42-15.61,4.15-8.19,2.76-16.77,3.89-25.2,5.68C565.68,618.13,561.44,619,557.69,621.32Z" transform="translate(-254.52 -96.21)"/><path class="cls-60" d="M564.6,623.64a50.74,50.74,0,0,1,11.73-3.08A220.69,220.69,0,0,0,603.2,614c3.24-1,6.69-1.12,9.79-2.61.56-.27,1-.16,1.19.58A3.14,3.14,0,0,1,612,616c-8.37,2.75-17.11,3.76-25.72,5.35-6.43,1.19-13,1.54-19.45,2.26A20.91,20.91,0,0,1,564.6,623.64Z" transform="translate(-254.52 -96.21)"/><path class="cls-29" d="M560.2,596c.55-1.65,1.95-1.53,3.15-1.8,1-.21,5.46-3.65,6.45-3.74,28.35-9,2.32,3.77,2.37,3.93L566,598.85c-2.54,1.83-5.08,3.66-7.65,5.46C545.66,614.86,559.27,598.78,560.2,596Z" transform="translate(-254.52 -96.21)"/><path class="cls-9" d="M525.14,282.29a4.57,4.57,0,0,1-.92,2.8A3,3,0,0,1,525.14,282.29Z" transform="translate(-254.52 -96.21)"/><path class="cls-61" d="M555.36,477.63c-1.65.78-3.43.24-5.13.47-.48.15-1,.41-1-.49l3.24-.47C553.35,478,554.43,477.36,555.36,477.63Z" transform="translate(-254.52 -96.21)"/><path class="cls-62" d="M549.28,477.61c.31.17.63.33,1,.49-1.19.76-2.51.28-3.76.4A6.49,6.49,0,0,1,549.28,477.61Z" transform="translate(-254.52 -96.21)"/><path class="cls-38" d="M436.6,485.44c.89,7.33,2.78,14.51,3.14,21.9.17,3.47,1.15,6.85,1,10.35a96.42,96.42,0,0,1-8-16.11c-2.06-5.48-3.87-11-6.95-16.07a2.37,2.37,0,0,1,2.08-.74C430.75,485,433.77,484,436.6,485.44Z" transform="translate(-254.52 -96.21)"/><path class="cls-40" d="M436,473.87c.23,1.72,1,3.43.09,5.17a2.19,2.19,0,0,1-1.93.52c-3.89-.56-7.8-.22-11.71-.33a4.46,4.46,0,0,1-2.6-.75c-1.91,0-3.82-.11-5.73-.12-3.31,0-3.91-.53-4.58-4l.06-2.36a11.82,11.82,0,0,0,6.58,1c5-.29,10.07.7,15.13.4C432.89,473.32,434.52,473,436,473.87Z" transform="translate(-254.52 -96.21)"/><path class="cls-27" d="M419.86,478.48c5.42-.05,10.85-.38,16.24.56.93,2.08.28,4.27.5,6.4l-10.86.07Z" transform="translate(-254.52 -96.21)"/><path class="cls-63" d="M433.24,346c.68-1.63,1.67-2.38,3.34-1.17C435.72,346,434.47,346,433.24,346Z" transform="translate(-254.52 -96.21)"/><path class="cls-64" d="M379.92,468.47c-.63,3.22-1.33,6.83-2.05,10.45a42.48,42.48,0,0,0-1.09,5.41c-.16,2.41-1.47,3.72-3.46,4.71-4.49,2.23-9.28,3.74-13.9,5.63-1.65.68-2.64.17-3.79-1.4-2.17-3-2.12-5.51-.39-8.66,2.6-4.72,4.79-9.66,7.11-14.53a5.57,5.57,0,0,1,4.36-3.29,43.6,43.6,0,0,1,10.56-.75C378.52,466.1,380.07,466,379.92,468.47Z" transform="translate(-254.52 -96.21)"/><path class="cls-65" d="M327.5,601l.48.48c-4.59,5.28-9.15,10.58-13.76,15.83q-7.32,8.31-14.71,16.55a15.37,15.37,0,0,1-1.55,1.34c.69-2.7,3-4.21,4.68-6.14,5.65-6.57,11.57-12.92,17.35-19.38C322.54,606.78,325,603.85,327.5,601Z" transform="translate(-254.52 -96.21)"/><path class="cls-66" d="M505.31,281c-3.22-.29-6.06-1-9-1-.71,0-2.08.57-2-.64s.06-2.85,1.9-3.28,3.68.08,5.49.31c1.21.16,2.43.31,3.65.42,1,.09,2.7-.47,2.14,1.57C507.12,279.54,507.82,282,505.31,281Z" transform="translate(-254.52 -96.21)"/></g><path class="cls-64" d="M298.87,470.21c-.18-2-1.08-3.29-3.21-3.63-2.83-.45-5.63-1.07-8.52-.66a4.57,4.57,0,0,1-1.42,0,143.37,143.37,0,0,0-4.62,17.62c-.3,1.09-.2.7-.49,1.8,1.07,1,2.58,2.68,3.84,3.74s2.83,1.88,4.23,2.85c1.71,1.18,3.27,1.64,5.33.51s2.5-.92,3.46-2.64C301.23,483.12,299,471.63,298.87,470.21Z" transform="translate(-254.52 -96.21)"/><rect class="cls-67" x="350.84" y="172.69" width="56.77" height="23.93"/><rect class="cls-68" x="354.44" y="238.99" width="38.81" height="79.78"/><rect class="cls-69" x="361.86" y="221.66" width="23.97" height="7.81"/><path class="cls-70" d="M614.32,396.26A4.73,4.73,0,0,1,616,396a1.76,1.76,0,0,1,1.66,1,5.94,5.94,0,0,1,.58,2.8,7.09,7.09,0,0,1-.5,2.88,1.92,1.92,0,0,1-1.77,1.27,1.73,1.73,0,0,1-.42-.05v4.33h-1.21Zm1.21,5.5a1,1,0,0,0,.42.07c.65,0,1-.74,1-2s-.34-1.77-1-1.77a1.09,1.09,0,0,0-.51.1Z" transform="translate(-254.52 -96.21)"/><path class="cls-70" d="M621.86,396.1v12.11h-1.24V396.1Z" transform="translate(-254.52 -96.21)"/><path class="cls-70" d="M624.19,406.73l2.59-8.29v-.08h-2.35V396.1h4v1.58l-2.54,8.19v.07h2.58v2.27h-4.23Z" transform="translate(-254.52 -96.21)"/><path class="cls-70" d="M630.46,406.73l2.59-8.29v-.08h-2.34V396.1h3.94v1.58l-2.53,8.19v.07h2.57v2.27h-4.23Z" transform="translate(-254.52 -96.21)"/><path class="cls-70" d="M638.42,405.1l-.39,3.11h-1.28l1.67-12.11H640l1.69,12.11h-1.33L640,405.1Zm1.38-2.05-.34-2.57c-.1-.72-.2-1.61-.28-2.33h0c-.08.72-.17,1.63-.25,2.33l-.33,2.57Z" transform="translate(-254.52 -96.21)"/><path class="cls-11" d="M618,359.44l15.55,23.41,3.28-34.41S624.31,346.17,618,359.44Z" transform="translate(-254.52 -96.21)"/><path class="cls-71" d="M620.28,362.93l13.24,19.92,2.73-28.6A17.76,17.76,0,0,0,620.28,362.93Z" transform="translate(-254.52 -96.21)"/><path class="cls-72" d="M631.15,361.51c0,3,1.61,5.44,3.61,5.44a1.27,1.27,0,0,0,.28,0l1-10.49a2.55,2.55,0,0,0-1.28-.36C632.76,356.07,631.15,358.5,631.15,361.51Z" transform="translate(-254.52 -96.21)"/><path class="cls-72" d="M627.56,373.87a6.23,6.23,0,0,0,1.88-4.77c0-3-1.62-5.44-3.62-5.44-1.36,0-2.56,1.14-3.17,2.83Z" transform="translate(-254.52 -96.21)"/><path class="cls-72" d="M632.63,377.41a2.9,2.9,0,0,0-2.07,1l3,4.46.48-5A2.58,2.58,0,0,0,632.63,377.41Z" transform="translate(-254.52 -96.21)"/><path class="cls-70" d="M634.68,348.29a12.85,12.85,0,0,1,2.12.15l-3.28,34.41L618,359.44c4.72-9.89,12.87-11.15,16.71-11.15Zm0-3.31c-4,0-14.08,1.27-19.7,13a3.3,3.3,0,0,0,.23,3.27l15.55,23.4a3.32,3.32,0,0,0,2.76,1.48,3.21,3.21,0,0,0,.81-.1,3.3,3.3,0,0,0,2.49-2.9l3.28-34.41a3.3,3.3,0,0,0-2.71-3.57,16.45,16.45,0,0,0-2.71-.2Z" transform="translate(-254.52 -96.21)"/><rect class="cls-5" x="335.56" y="258.72" width="3.08" height="9.56"/><path class="cls-64" d="M344.22,319.85c9.4.48,17.48,4.23,24.89,9.81,4.27,3.22,6.81,7.54,8.49,12.48,1,1.81,1,3.89,1,5.82a32.09,32.09,0,0,1-8.6,21.88,20.93,20.93,0,0,1-8.61,5.64c-9.71,4.26-22,4.7-22.57,4.72-9.1.2-15.19-4.6-19.57-12A30.31,30.31,0,0,1,314.88,355a13.4,13.4,0,0,0-.73-2.65,29.67,29.67,0,0,1,1.21-13.13,27,27,0,0,1,2.45-5.63c2.46-4.59,6.22-7.83,10.37-10.93C332.33,319.84,340.8,319.74,344.22,319.85Z" transform="translate(-254.52 -96.21)"/><path class="cls-73" d="M356.23,347.92c-.26,4.74-.78,10.2-3.55,15.11-4.39,7.79-11.91,10.76-18.19,10-8.61-1-14.6-6.78-16.7-15.41a33.81,33.81,0,0,1-.3-11.7c.4-3.76.74-7.45,2.82-10.83,3.73-6.09,15-11.08,23-8C353.42,331,356.09,337.74,356.23,347.92Z" transform="translate(-254.52 -96.21)"/><path class="cls-28" d="M372.83,359.72c-.77,8.62-18.47,17.11-24.56,13.77a2.26,2.26,0,0,1,1.25-1.57,18,18,0,0,0,5.51-6.14,2.52,2.52,0,0,1,2.64-1.39C363.16,364.72,368.26,363.67,372.83,359.72Z" transform="translate(-254.52 -96.21)"/><path class="cls-29" d="M464.46,333.37c0,4.62-2.74,8.36-6.11,8.36s-6.12-3.75-6.12-8.36S455,325,458.35,325,464.46,328.76,464.46,333.37Z" transform="translate(-254.52 -96.21)"/><path class="cls-37" d="M440.74,240.37c-5.94,3.25-11.41,7.13-14.29,13.4-2.47,5.37-5.35,10.57-7,16.32-4.72,16.24-10.93,32-17.37,47.58.07,1.62,1.37,1.47,2.35,1.48,5.54,0,11.09.21,16.63-.08a3,3,0,0,0,2-1.72c2.08-3.36,4-4,7.8-2.61a2.26,2.26,0,0,0,2.13.07c3.37-4.81,3.41-5.55.55-10.05-.28-.44-.83-.89-.58-1.43.32-.72,1.07-.39,1.65-.37,2.78.12,3.22-.11,3.84-2.79a67.47,67.47,0,0,0,1.29-7.83,6.93,6.93,0,0,1,.13-1.09c0,.35-.08.73-.13,1.09a13.23,13.23,0,0,0,.14,2.54c.82,5.49,1.44,11,2.16,16.52a7.6,7.6,0,0,1-.13,3,1.76,1.76,0,0,0,.9,1.15,67.85,67.85,0,0,0-1.2-13c-4.25-22.19-1.53-48.41,5.5-65.24A69.36,69.36,0,0,0,440.74,240.37Z" transform="translate(-254.52 -96.21)"/></g></g></svg>