<svg xmlns="http://www.w3.org/2000/svg" xmlns:xlink="http://www.w3.org/1999/xlink" viewBox="0 0 522.49 500"><defs><style>.cls-1{isolation:isolate;}.cls-2{fill:#ebe9ee;}.cls-3{fill:#526978;}.cls-4{fill:#7e8cb9;}.cls-5{fill:#67b97e;}.cls-6{fill:#264987;}.cls-7{fill:#f3d95a;}.cls-8{fill:#a1b5c2;}.cls-9{fill:#c6d2de;}.cls-10{fill:#dee4e8;}.cls-11{fill:#e58090;}.cls-12{fill:url(#linear-gradient);}.cls-13{fill:#b6a9c5;}.cls-13,.cls-57,.cls-67{mix-blend-mode:multiply;}.cls-14{fill:#334a7d;}.cls-15{fill:#5b869c;}.cls-16{fill:#9a8dc3;}.cls-17{fill:#ec624d;}.cls-18{fill:#fbb819;}.cls-19{fill:#fed37b;}.cls-20{fill:#6d8192;}.cls-21{fill:#8fd0dd;}.cls-22{fill:#5bc1d0;}.cls-23{fill:#204d5e;}.cls-24{fill:#6669ae;}.cls-25{fill:#a6bfd2;}.cls-26{fill:#26558d;}.cls-27{fill:#f1946d;}.cls-28{fill:#f3b03f;}.cls-29{fill:#da5b54;}.cls-30{fill:#2c61a4;}.cls-31{fill:#a23242;}.cls-32{fill:#a7a5d3;}.cls-33{fill:#8b8bc3;}.cls-34{fill:#9c9bcd;}.cls-35{fill:#592620;}.cls-36{fill:#64312e;}.cls-37{fill:#8b4845;}.cls-38{fill:#d1975e;}.cls-39{fill:#d8ab75;}.cls-40{fill:#ee7959;}.cls-41{fill:#d2ebf1;}.cls-42{fill:#e24612;}.cls-43{fill:#f18528;}.cls-44{fill:#624d9b;}.cls-45{fill:#ef7e74;}.cls-46{fill:#9fb7bf;}.cls-47{fill:#426d7c;}.cls-48{fill:#3f7287;}.cls-49{fill:#a12e74;}.cls-50{fill:#d2c5e3;}.cls-51{fill:#316274;}.cls-52{fill:#aacee1;}.cls-53{fill:#b1cddd;}.cls-54{fill:#ed6d12;}.cls-55{fill:#9bbcce;}.cls-56{fill:#fcc345;}.cls-58{fill:#ccd6d6;}.cls-59,.cls-67{fill:#bbabc6;}.cls-60{fill:#e2e1ef;opacity:0.5;}.cls-61{fill:#b46e3d;}.cls-62{fill:#edc095;}.cls-63{fill:#c1ced6;}.cls-64{fill:#e4ebef;}.cls-65{fill:#d2a06e;}.cls-66{fill:#e8ac7c;}</style><linearGradient id="linear-gradient" x1="440.39" y1="177.67" x2="643.21" y2="177.67" gradientUnits="userSpaceOnUse"><stop offset="0" stop-color="#e4edee"/><stop offset="1" stop-color="#c6d2de"/></linearGradient></defs><title>25Z_2012.w003.n001.75C.p6.75 [Converti]</title><g class="cls-1"><g id="Layer_1" data-name="Layer 1"><path class="cls-2" d="M548.62,31.54h0A31.53,31.53,0,0,1,580.13,0H700a55.36,55.36,0,0,1-55.35,55.38h-72.2A23.84,23.84,0,0,1,548.62,31.54Z" transform="translate(-177.51)"/><path class="cls-2" d="M430.33,0h0a93.08,93.08,0,0,1-93.05,93.11H177.51V0Z" transform="translate(-177.51)"/><path class="cls-2" d="M375.62,468.46h0A31.53,31.53,0,0,1,344.1,500H224.24a55.36,55.36,0,0,1,55.34-55.38h72.21A23.84,23.84,0,0,1,375.62,468.46Z" transform="translate(-177.51)"/><path class="cls-2" d="M276.16,385.57c4.81,2.78,4.81,7.29,0,10.07s-12.61,2.77-17.42,0-4.81-7.29,0-10.07S271.35,382.79,276.16,385.57Z" transform="translate(-177.51)"/><path class="cls-2" d="M365.77,330.37l2.94.58a1.3,1.3,0,0,0,.71-.07l2.49-1.07c.52-.22,1.25,0,1.24.36l0,1.8c0,.14.12.28.33.37l2.53,1c.53.22.4.68-.22.79l-3,.54a.71.71,0,0,0-.51.29l-.92,1.71a1.07,1.07,0,0,1-1.37.13l-1.79-1.47a1.07,1.07,0,0,0-.65-.19l-3.1,0c-.64,0-1-.42-.63-.72l1.86-1.43a.31.31,0,0,0,.11-.41l-1-1.7C364.59,330.59,365.17,330.25,365.77,330.37Z" transform="translate(-177.51)"/><path class="cls-2" d="M378.38,323.09l2.94.58a1.3,1.3,0,0,0,.71-.07l2.49-1.07c.52-.22,1.25,0,1.24.36l0,1.8c0,.14.12.28.33.37l2.53,1c.52.22.4.68-.22.79l-3,.54a.69.69,0,0,0-.51.29l-.92,1.71a1.06,1.06,0,0,1-1.37.13l-1.8-1.47a1,1,0,0,0-.64-.19l-3.1,0c-.64,0-1-.42-.63-.72l1.85-1.43a.3.3,0,0,0,.12-.41l-1-1.7C377.19,323.31,377.77,323,378.38,323.09Z" transform="translate(-177.51)"/><path class="cls-2" d="M391,315.81l2.94.58a1.3,1.3,0,0,0,.71-.07l2.49-1.07c.51-.22,1.25,0,1.24.36l0,1.8c0,.14.12.28.32.37l2.54,1c.52.22.39.68-.22.79l-3,.54a.67.67,0,0,0-.51.29l-.92,1.71a1.06,1.06,0,0,1-1.37.13l-1.8-1.47a1,1,0,0,0-.64-.19l-3.1,0c-.64,0-1-.42-.63-.72l1.85-1.43a.3.3,0,0,0,.12-.41l-1-1.7C389.8,316,390.38,315.69,391,315.81Z" transform="translate(-177.51)"/><path class="cls-2" d="M403.6,308.53l2.94.58a1.21,1.21,0,0,0,.71-.07l2.49-1.07c.51-.22,1.24,0,1.24.36l0,1.8c0,.14.12.28.32.37l2.54,1c.52.22.39.68-.22.79l-3,.54a.67.67,0,0,0-.51.29l-.92,1.71a1.07,1.07,0,0,1-1.38.13L406,313.52a1,1,0,0,0-.64-.19l-3.1,0c-.65,0-1-.42-.63-.72l1.85-1.43a.31.31,0,0,0,.12-.41l-1-1.7C402.41,308.75,403,308.41,403.6,308.53Z" transform="translate(-177.51)"/><path class="cls-2" d="M416.21,301.25l2.94.58a1.21,1.21,0,0,0,.71-.07l2.49-1.07c.51-.22,1.24,0,1.23.36l0,1.8c0,.14.11.28.32.37l2.54,1c.52.22.39.68-.22.79l-3,.54a.67.67,0,0,0-.51.29l-.93,1.71a1.06,1.06,0,0,1-1.37.13l-1.79-1.47a1,1,0,0,0-.64-.18l-3.11,0c-.64,0-1-.42-.63-.72l1.86-1.43a.3.3,0,0,0,.11-.41l-1-1.7C415,301.47,415.6,301.13,416.21,301.25Z" transform="translate(-177.51)"/><path class="cls-2" d="M490,390.31l2.94.58a1.31,1.31,0,0,0,.71-.07l2.49-1.07c.51-.22,1.24,0,1.23.36l0,1.8c0,.14.12.28.33.37l2.54,1c.52.22.39.68-.22.79l-3,.54a.71.71,0,0,0-.51.29l-.92,1.71a1.06,1.06,0,0,1-1.37.13l-1.79-1.47a1.06,1.06,0,0,0-.64-.19l-3.11,0c-.64,0-1-.42-.63-.72l1.86-1.43a.31.31,0,0,0,.11-.41l-1-1.7C488.84,390.53,489.42,390.19,490,390.31Z" transform="translate(-177.51)"/><path class="cls-2" d="M502.63,383l2.95.58a1.31,1.31,0,0,0,.71-.07l2.49-1.07c.51-.22,1.24,0,1.23.36l0,1.8c0,.14.12.28.33.37l2.53,1c.53.22.4.68-.21.79l-3,.54a.71.71,0,0,0-.51.29l-.92,1.71a1.06,1.06,0,0,1-1.37.13L505.06,388a1.06,1.06,0,0,0-.64-.19l-3.11,0c-.64,0-1-.42-.63-.72l1.86-1.43a.31.31,0,0,0,.11-.41l-1-1.7C501.45,383.25,502,382.91,502.63,383Z" transform="translate(-177.51)"/><path class="cls-2" d="M515.24,375.75l2.94.58a1.24,1.24,0,0,0,.72-.07l2.48-1.07c.52-.22,1.25,0,1.24.36l0,1.8c0,.14.12.28.33.37l2.53,1c.53.22.4.68-.21.79l-3,.54a.71.71,0,0,0-.51.29l-.92,1.71a1.06,1.06,0,0,1-1.37.13l-1.79-1.47a1.07,1.07,0,0,0-.65-.19l-3.1,0c-.64,0-1-.42-.63-.72l1.86-1.43a.31.31,0,0,0,.11-.41l-1-1.7C514.06,376,514.64,375.63,515.24,375.75Z" transform="translate(-177.51)"/><path class="cls-2" d="M527.85,368.47l2.94.58a1.21,1.21,0,0,0,.71-.07l2.49-1.07c.52-.22,1.25,0,1.24.36l0,1.8c0,.14.12.28.33.37l2.53,1c.53.22.4.68-.22.79l-3,.54a.71.71,0,0,0-.51.29l-.92,1.71a1.06,1.06,0,0,1-1.37.13l-1.79-1.47a1.07,1.07,0,0,0-.65-.19l-3.1,0c-.64,0-1-.42-.63-.72l1.86-1.43a.31.31,0,0,0,.11-.41l-1-1.7C526.67,368.69,527.25,368.35,527.85,368.47Z" transform="translate(-177.51)"/><path class="cls-2" d="M540.46,361.19l2.94.58a1.21,1.21,0,0,0,.71-.07l2.49-1.07c.52-.22,1.25,0,1.24.36l0,1.8c0,.14.12.28.33.37l2.53,1c.52.22.4.68-.22.79l-3,.54a.69.69,0,0,0-.51.29l-.92,1.71a1.06,1.06,0,0,1-1.37.13l-1.8-1.47a1,1,0,0,0-.64-.18l-3.1,0c-.64,0-1-.42-.63-.72l1.85-1.43a.3.3,0,0,0,.12-.41l-1-1.7C539.27,361.41,539.85,361.07,540.46,361.19Z" transform="translate(-177.51)"/><path class="cls-2" d="M361.63,322.73,295,361.19a8.64,8.64,0,0,1-7.83,0h0c-2.16-1.25-2.16-3.27,0-4.52l66.59-38.47a8.66,8.66,0,0,1,7.84,0h0C363.79,319.45,363.79,321.48,361.63,322.73Z" transform="translate(-177.51)"/><path class="cls-2" d="M413.07,293l-35.19,20.33a8.64,8.64,0,0,1-7.83,0h0c-2.17-1.25-2.17-3.28,0-4.53l35.19-20.33a8.64,8.64,0,0,1,7.83,0h0C415.23,289.73,415.23,291.76,413.07,293Z" transform="translate(-177.51)"/><path class="cls-2" d="M381.37,291.14,314.78,329.6a8.66,8.66,0,0,1-7.84,0h0c-2.16-1.24-2.16-3.27,0-4.52l66.6-38.47a8.64,8.64,0,0,1,7.83,0h0C383.53,287.86,383.53,289.89,381.37,291.14Z" transform="translate(-177.51)"/><path class="cls-2" d="M466.52,242l-66.59,38.46a8.66,8.66,0,0,1-7.84,0h0c-2.16-1.25-2.16-3.27,0-4.52l66.6-38.47a8.64,8.64,0,0,1,7.83,0h0C468.68,238.67,468.68,240.7,466.52,242Z" transform="translate(-177.51)"/><path class="cls-2" d="M504.76,260.22l-66.59,38.47a8.64,8.64,0,0,1-7.83,0h0c-2.16-1.25-2.16-3.27,0-4.52l66.59-38.47a8.64,8.64,0,0,1,7.83,0h0C506.93,257,506.93,259,504.76,260.22Z" transform="translate(-177.51)"/><path class="cls-2" d="M379.1,332.82l-19.49,11.26a8.66,8.66,0,0,1-7.84,0h0c-2.16-1.25-2.16-3.28,0-4.53l19.49-11.26a8.66,8.66,0,0,1,7.84,0h0C381.26,329.54,381.26,331.57,379.1,332.82Z" transform="translate(-177.51)"/><path class="cls-2" d="M546.22,236.28l-19.5,11.26a8.64,8.64,0,0,1-7.83,0h0c-2.16-1.25-2.16-3.28,0-4.53l19.49-11.26a8.66,8.66,0,0,1,7.84,0h0C548.38,233,548.38,235,546.22,236.28Z" transform="translate(-177.51)"/><path class="cls-2" d="M394.62,263.3,328,301.77a8.64,8.64,0,0,1-7.83,0h0c-2.16-1.25-2.16-3.28,0-4.53l66.59-38.47a8.66,8.66,0,0,1,7.84,0h0C396.78,260,396.78,262.05,394.62,263.3Z" transform="translate(-177.51)"/><path class="cls-2" d="M436.07,239.35l-19.49,11.26a8.66,8.66,0,0,1-7.84,0h0c-2.16-1.25-2.16-3.27,0-4.52l19.49-11.26a8.66,8.66,0,0,1,7.84,0h0C438.23,236.08,438.23,238.1,436.07,239.35Z" transform="translate(-177.51)"/><path class="cls-2" d="M365.14,412.42l-66.59,38.47a8.64,8.64,0,0,1-7.83,0h0c-2.17-1.25-2.17-3.28,0-4.53l66.59-38.46a8.64,8.64,0,0,1,7.83,0h0C367.3,409.14,367.3,411.17,365.14,412.42Z" transform="translate(-177.51)"/><path class="cls-2" d="M416.59,382.7,381.39,403a8.64,8.64,0,0,1-7.83,0h0c-2.16-1.25-2.16-3.27,0-4.52l35.19-20.33a8.66,8.66,0,0,1,7.84,0h0C418.75,379.43,418.75,381.45,416.59,382.7Z" transform="translate(-177.51)"/><path class="cls-2" d="M384.88,380.83,318.29,419.3a8.64,8.64,0,0,1-7.83,0h0c-2.16-1.25-2.16-3.28,0-4.53l66.59-38.46a8.64,8.64,0,0,1,7.83,0h0C387.05,377.55,387.05,379.58,384.88,380.83Z" transform="translate(-177.51)"/><path class="cls-2" d="M470,331.64l-66.59,38.47a8.64,8.64,0,0,1-7.83,0h0c-2.16-1.25-2.16-3.28,0-4.53l66.59-38.46a8.64,8.64,0,0,1,7.83,0h0C472.2,328.36,472.2,330.39,470,331.64Z" transform="translate(-177.51)"/><path class="cls-2" d="M508.28,349.92l-66.59,38.47a8.66,8.66,0,0,1-7.84,0h0c-2.16-1.25-2.16-3.28,0-4.53l66.6-38.47a8.64,8.64,0,0,1,7.83,0h0C510.44,346.64,510.44,348.67,508.28,349.92Z" transform="translate(-177.51)"/><path class="cls-2" d="M382.61,422.51l-19.49,11.26a8.64,8.64,0,0,1-7.83,0h0c-2.17-1.25-2.17-3.27,0-4.52L374.78,418a8.64,8.64,0,0,1,7.83,0h0C384.78,419.24,384.78,421.26,382.61,422.51Z" transform="translate(-177.51)"/><path class="cls-2" d="M549.73,326l-19.49,11.26a8.64,8.64,0,0,1-7.83,0h0c-2.17-1.25-2.17-3.27,0-4.52l19.49-11.26a8.64,8.64,0,0,1,7.83,0h0C551.89,322.7,551.89,324.72,549.73,326Z" transform="translate(-177.51)"/><path class="cls-2" d="M398.13,353l-66.59,38.47a8.64,8.64,0,0,1-7.83,0h0c-2.17-1.25-2.17-3.27,0-4.52l66.59-38.47a8.64,8.64,0,0,1,7.83,0h0C400.29,349.72,400.29,351.74,398.13,353Z" transform="translate(-177.51)"/><path class="cls-2" d="M439.58,329.05l-19.49,11.26a8.64,8.64,0,0,1-7.83,0h0c-2.17-1.25-2.17-3.28,0-4.53l19.49-11.26a8.64,8.64,0,0,1,7.83,0h0C441.75,325.77,441.75,327.8,439.58,329.05Z" transform="translate(-177.51)"/><path class="cls-2" d="M467.31,393.34l-66.6,38.46a8.64,8.64,0,0,1-7.83,0h0c-2.16-1.25-2.16-3.27,0-4.52l66.59-38.47a8.66,8.66,0,0,1,7.84,0h0C469.47,390.06,469.47,392.09,467.31,393.34Z" transform="translate(-177.51)"/><path class="cls-2" d="M518.75,363.62,483.56,384a8.64,8.64,0,0,1-7.83,0h0c-2.17-1.25-2.17-3.28,0-4.53l35.19-20.33a8.64,8.64,0,0,1,7.83,0h0C520.91,360.34,520.91,362.37,518.75,363.62Z" transform="translate(-177.51)"/><path class="cls-2" d="M487.05,361.75l-66.59,38.46a8.66,8.66,0,0,1-7.84,0h0c-2.16-1.24-2.16-3.27,0-4.52l66.6-38.47a8.64,8.64,0,0,1,7.83,0h0C489.21,358.47,489.21,360.5,487.05,361.75Z" transform="translate(-177.51)"/><path class="cls-2" d="M572.2,312.56,505.61,351a8.66,8.66,0,0,1-7.84,0h0c-2.16-1.25-2.16-3.27,0-4.52L564.37,308a8.64,8.64,0,0,1,7.83,0h0C574.36,309.28,574.36,311.31,572.2,312.56Z" transform="translate(-177.51)"/><path class="cls-2" d="M610.44,330.83,543.85,369.3a8.64,8.64,0,0,1-7.83,0h0c-2.16-1.25-2.16-3.27,0-4.52l66.59-38.47a8.64,8.64,0,0,1,7.83,0h0C612.61,327.56,612.61,329.58,610.44,330.83Z" transform="translate(-177.51)"/><path class="cls-2" d="M484.78,403.43l-19.49,11.26a8.66,8.66,0,0,1-7.84,0h0c-2.16-1.25-2.16-3.28,0-4.53l19.49-11.26a8.66,8.66,0,0,1,7.84,0h0C486.94,400.15,486.94,402.18,484.78,403.43Z" transform="translate(-177.51)"/><path class="cls-2" d="M651.9,306.89l-19.5,11.26a8.64,8.64,0,0,1-7.83,0h0c-2.16-1.25-2.16-3.28,0-4.53l19.49-11.26a8.66,8.66,0,0,1,7.84,0h0C654.06,303.61,654.06,305.64,651.9,306.89Z" transform="translate(-177.51)"/><path class="cls-2" d="M500.3,333.91l-66.6,38.47a8.64,8.64,0,0,1-7.83,0h0c-2.16-1.25-2.16-3.28,0-4.53l66.59-38.47a8.66,8.66,0,0,1,7.84,0h0C502.46,330.63,502.46,332.66,500.3,333.91Z" transform="translate(-177.51)"/><path class="cls-2" d="M541.75,310l-19.49,11.26a8.66,8.66,0,0,1-7.84,0h0c-2.16-1.25-2.16-3.27,0-4.52l19.49-11.26a8.66,8.66,0,0,1,7.84,0h0C543.91,306.69,543.91,308.71,541.75,310Z" transform="translate(-177.51)"/><path class="cls-2" d="M607.1,246.61l-66.59,38.47a8.66,8.66,0,0,1-7.84,0h0c-2.16-1.25-2.16-3.28,0-4.53l66.6-38.47a8.71,8.71,0,0,1,7.83,0h0C609.26,243.33,609.26,245.36,607.1,246.61Z" transform="translate(-177.51)"/><path class="cls-2" d="M645.34,264.89l-66.59,38.47a8.71,8.71,0,0,1-7.83,0h0c-2.17-1.25-2.17-3.28,0-4.53l66.59-38.47a8.64,8.64,0,0,1,7.83,0h0C647.51,261.61,647.51,263.64,645.34,264.89Z" transform="translate(-177.51)"/><path class="cls-2" d="M535.19,268,468.6,306.43a8.64,8.64,0,0,1-7.83,0h0c-2.16-1.25-2.16-3.27,0-4.52l66.59-38.47a8.64,8.64,0,0,1,7.83,0h0C537.36,264.69,537.36,266.71,535.19,268Z" transform="translate(-177.51)"/><path class="cls-2" d="M576.65,244l-19.5,11.26a8.64,8.64,0,0,1-7.83,0h0c-2.16-1.25-2.16-3.28,0-4.53l19.49-11.26a8.66,8.66,0,0,1,7.84,0h0C578.81,240.74,578.81,242.77,576.65,244Z" transform="translate(-177.51)"/><path class="cls-2" d="M334.68,269.76c3,1.74,3,4.55,0,6.29a12,12,0,0,1-10.89,0c-3-1.74-3-4.55,0-6.29A12,12,0,0,1,334.68,269.76Z" transform="translate(-177.51)"/><path class="cls-3" d="M616.67,272.36,448.22,175.14c.76-3.62-1.75,8.54,9.31-46l6.39-18.78L599.43,188.6c22.15,5.26,19.67,4.71,19.86,4.71l11.74-6.2c0-.19-.15.71,5.65-27.82l2.13-1.69,1.2.26c-1,3.77-1.81,8.61-2.58,12.83C637.16,172.13,627.48,218.66,616.67,272.36Z" transform="translate(-177.51)"/><polygon class="cls-4" points="438.79 147.51 459.17 159.29 421.93 188.6 401.55 176.82 438.79 147.51"/><path class="cls-5" d="M608.33,224.88l-29.19-16.83a6.41,6.41,0,0,0-9.49,4.28l-3.39,16.61a6.42,6.42,0,0,0,3.08,6.85l29.18,16.83a6.42,6.42,0,0,0,9.5-4.28l3.39-16.62A6.42,6.42,0,0,0,608.33,224.88Z" transform="translate(-177.51)"/><path class="cls-6" d="M595.92,135.73l20.38,11.78-37.24,29.31L558.64,165C596.88,134.94,595.73,135.73,595.92,135.73Z" transform="translate(-177.51)"/><polygon class="cls-4" points="398 123.95 418.38 135.73 381.13 165.04 360.75 153.3 398 123.95"/><polygon class="cls-6" points="398 123.95 360.75 153.3 340.34 141.52 377.62 112.17 398 123.95"/><path class="cls-7" d="M558.83,201.37,555.42,218a6.42,6.42,0,0,1-9.5,4.27l-29.19-16.86a6.43,6.43,0,0,1-3.08-6.85L517.06,182a6.42,6.42,0,0,1,9.5-4.27l29.19,16.83A6.44,6.44,0,0,1,558.83,201.37Z" transform="translate(-177.51)"/><polygon class="cls-4" points="377.62 112.17 340.34 141.52 319.96 129.75 357.2 100.39 377.62 112.17"/><path class="cls-8" d="M557.48,276.7l-6,3.44V270.08l6,3.48Z" transform="translate(-177.51)"/><path class="cls-9" d="M551.46,270.08v10.06l-22.36-12.9V257.18Z" transform="translate(-177.51)"/><path class="cls-10" d="M529.1,267.24l22.36,12.9,6-3.44,15.78,9.12-16.86,9.73c-5.86,3.39-14.36,3.38-19.11.63l-36-20.75c-2-1.18-3.27-2.6-3.37-4.94a3.55,3.55,0,0,1,0-.86,6,6,0,0,1,1.68-3.06c1.47-1.6,1.37-1.34,19.67-11.93l9.8,5.68Z" transform="translate(-177.51)"/><path class="cls-11" d="M507.42,171.71,504,188.32a6.41,6.41,0,0,1-9.5,4.27l-29.19-16.86a6.4,6.4,0,0,1-3.07-6.84l3.39-16.61a6.42,6.42,0,0,1,9.5-4.28l29.18,16.86A6.43,6.43,0,0,1,507.42,171.71Z" transform="translate(-177.51)"/><path class="cls-8" d="M501.28,275.43l36,20.75c4.76,2.76,13.26,2.75,19.11-.63l16.86-9.73v6.92C555,303.25,555,303.52,551.83,304.33c-4.43,1.18-10.42,1.19-14.54-1.19C497.94,280.42,501,282.24,500,281.45a5.42,5.42,0,0,1-2.13-4v-6.92h0C498,272.83,499.29,274.25,501.28,275.43Z" transform="translate(-177.51)"/><path class="cls-8" d="M484.49,49.46a5,5,0,0,1,3.74.6l161.91,93.48c3.4,2,5.33,7.12,4.45,11.07C624.06,304.92,626.14,295,625.65,296.41a5.32,5.32,0,0,1-3.33,3.17c-15.44,4.09-11,3.29-9.83,2.17h0a4.84,4.84,0,0,0,1.24-1.68c.6-.6,1.18-4.22,2.76-12,.05-.19.76-3.41,1.46-6.84,2.82-13.25-8.75,43.23,25-123.47a9.1,9.1,0,0,0,0-3.93,4.08,4.08,0,0,0-.26-1.16,4.77,4.77,0,0,0-.38-1.16,4,4,0,0,0-.18-.56,9.77,9.77,0,0,0-4.87-4.94c-13.71-7.81-160.82-93-161.8-93.25a4.26,4.26,0,0,0-1.72-.27.14.14,0,0,0-.11,0,1.3,1.3,0,0,0-.41,0C473.46,52.53,471.19,53,484.49,49.46Z" transform="translate(-177.51)"/><path class="cls-3" d="M470,67.86c1.44-6.41,1.6-9,2.32-10.25a2.46,2.46,0,0,1,3.14-1.23c1.08.34,1.7,1.13,4.37,2.47,1.57.9,3.15,1.87,4.75,2.8C490.27,65,608.86,133.26,609,133.37c6.7,4,13.43,8,20,11.74,8.52,4.75,9.27,5.16,10.06,6.1,1.61,1.81,1.44,4.3.94,6.65l-1.2-.26-2.13,1.69c-31.54-18.23-139.61-80.66-163.15-94.2Z" transform="translate(-177.51)"/><path class="cls-12" d="M448.22,175.14l168.45,97.22c9.52-47.31,20.62-100.9,20.76-101.67.71-3.85,1.31-7.59,2.24-11.55.72-2.63,1.33-5.76-.6-7.93a7.75,7.75,0,0,0-2.17-1.65c-2.69-1.57-5.27-3-7.89-4.45-6.54-3.7-13.27-7.77-20-11.74-.2-.12-133.4-76.93-133.6-77a2.46,2.46,0,0,0-3.14,1.23c-.73,1.32-.65,2.82-2.32,10.25l-3.59,2.84c.26-1.32,2.54-12.63,2.95-14.28a6.1,6.1,0,0,1,2-3s.07-.08.11-.08a4.36,4.36,0,0,1,.75-.45l.71-.26H473a.07.07,0,0,1,.08,0,1.3,1.3,0,0,1,.63-.11,3.46,3.46,0,0,1,1.16,0c1.58.26,161,92.66,163.71,94.15a10.65,10.65,0,0,1,2,1.72,11.4,11.4,0,0,1,2.43,5.39,9.45,9.45,0,0,1,0,3.93C612.5,308,614.48,298.59,613.79,300a5.15,5.15,0,0,1-3.14,2.7,4.65,4.65,0,0,1-3.33-.42c-.18-.06-143.16-82.63-143.4-82.78-20.23-11.69-19.37-10.9-20.6-12.34a2.24,2.24,0,0,1-.56-.6,2.61,2.61,0,0,1-.23-.3,7.29,7.29,0,0,1-.63-1,11.17,11.17,0,0,1-1.42-4.34c-.23-2.38,0-2.61,1.12-8.33,0-.23.11-.45.15-.68.22-.95,3.89-19.32,13.09-64.28l2.69,1.54C447,180.9,449.14,170.75,448.22,175.14Z" transform="translate(-177.51)"/><path class="cls-13" d="M694.8,266.89v76.47a7.81,7.81,0,0,1-7.35-1.2l-.11-.1c-8.77-6.86-18.36-8-28.79-5-1.82.53-3.88.17-5.69.71-10,3-18.58-.19-27.13-5.32-16.39-9.83-33.07-19.2-49.65-28.73-2.47-1.43-5.05-2.69-7.85-4.18-7.34,3.48-14.6,8-23.14,4.63-1.24-3.59.29-4.92,3.37-5.54,4.65-.94,9.33-2,13.32-6.23-6.23-5.33,5.63,2.29-48.94-29.37-2.25-1.31-4.71-1.31-7.59-.31l-3.91-2.25q-17-9.81-33.77-19.87c-.46-.27-.6-1.07-1.16-2.1,6.36-5.65,10.89-11.38,21.55-5.11,37.94,21.9,74.88,43.12,112.15,64.61,3,1.76,4.89,3.34,8.12,4.63,1.66.66,6,.75,6.71-7.22,0,0,3.66-17.15,6.95-33.37-13.63-9,15.52,8.37-136.87-79.48-9.37-5.39-9.32-5.4-10.25-16.18-.8-9.43-5.91-43-6.91-53.76,6.08,8.74,16.41,12,26.25,17.53,18,10,11.28,6.19,63.61,36.35l41.72,22.07s26-20.5,33.56-26.37a32.34,32.34,0,0,1,3.68-2.95c.9,5.9,1,10.81,1.75,15.83l1.15-.1s4.57-19.8,3.16-22.38c2.85-.85,7.42-2.15,11.54-3.37,1.61,3.1-2.8,19.22-4.37,28.41-1.45,8.35-2,9.62-11.56,56.34,18.18,10.72,36.64,21.36,55.16,32A12.66,12.66,0,0,1,694.8,266.89Z" transform="translate(-177.51)"/><path class="cls-14" d="M456.67,106.19l-1.93,5.52a11.56,11.56,0,0,1-21.83-7.64l3.38-9.66Z" transform="translate(-177.51)"/><path class="cls-4" d="M453.25,115.94l3.42-9.75L477.08,118l-2,5.68a11.59,11.59,0,0,1-21.85-7.71Z" transform="translate(-177.51)"/><polygon class="cls-6" points="357.2 100.39 319.96 129.75 299.58 117.97 336.82 88.61 357.2 100.39"/><path class="cls-6" d="M494,76.83c-.19.19.9-.69-37.28,29.36L436.29,94.41C474.92,64,469.4,68.31,473.53,65.09Z" transform="translate(-177.51)"/><path class="cls-4" d="M494,76.83l20.38,11.78L477.08,118l-20.41-11.78C494.91,76.09,493.76,77,494,76.83Z" transform="translate(-177.51)"/><path class="cls-6" d="M599.43,188.6l37.25-29.31c-5.8,28.52-5.65,27.63-5.65,27.82l-16.38,8.68A10.51,10.51,0,0,1,599.43,188.6Z" transform="translate(-177.51)"/><path class="cls-14" d="M579.06,176.82l-1.93,5.51a11.58,11.58,0,1,1-21.86-7.65l3.37-9.64Z" transform="translate(-177.51)"/><path class="cls-4" d="M575.68,186.48l3.38-9.66,20.37,11.78-1.93,5.52a11.56,11.56,0,1,1-21.82-7.64Z" transform="translate(-177.51)"/><path class="cls-4" d="M558.64,165l-1.93,5.53a11.56,11.56,0,1,1-21.82-7.65l3.37-9.62Z" transform="translate(-177.51)"/><path class="cls-14" d="M538.26,153.3l-1.92,5.48a11.57,11.57,0,0,1-21.85-7.64l3.35-9.62Z" transform="translate(-177.51)"/><path class="cls-14" d="M478.85,141.45a11.56,11.56,0,0,1-5.14-13.84l3.37-9.64,20.38,11.78-1.93,5.51A11.56,11.56,0,0,1,478.85,141.45Z" transform="translate(-177.51)"/><path class="cls-4" d="M494.1,139.35l3.36-9.6,20.38,11.77-1.9,5.47a11.57,11.57,0,1,1-21.84-7.64Z" transform="translate(-177.51)"/><path class="cls-15" d="M356.71,294a11.47,11.47,0,0,0,8.47-.15h0l0,0c2.33-1.35,5.11-1.58,6.58.58l13.08,18.62c1.13,1.65,3.24,1.47,5,.44v2.08c-1.78,1-3.84,1.44-5.37.53-1-.58,0,.62-14.29-19.73-1.16-1.65-3.24-1.46-5-.44a10,10,0,0,1-7.24.68,6.62,6.62,0,0,0-1.34-1.55v-1Z" transform="translate(-177.51)"/><path class="cls-16" d="M446.37,214.49V233l-.22.13c-17.87-10.32-16.82-9.76-24.76-14.29V200.13C449.29,216.24,443.5,212.84,446.37,214.49Z" transform="translate(-177.51)"/><path class="cls-17" d="M447.17,174.12v21.09l-27.24-15.73v-21.1Z" transform="translate(-177.51)"/><path class="cls-18" d="M421.39,200.13l-3.18-1.83V182.88l25.28,14.59v15.35C419.69,199.09,421.39,200,421.39,200.13Z" transform="translate(-177.51)"/><path class="cls-19" d="M418.21,179l1.72-1v1.45l27.24,15.73,23.16-13.37v-5.78l5.13,3c1.77,1,1.92,2.74,0,3.86l-25.29,14.59a7.29,7.29,0,0,1-6.68,0l-25.28-14.59C416.28,181.76,416.45,180,418.21,179Z" transform="translate(-177.51)"/><path class="cls-18" d="M418.21,182.88V198.3a2.35,2.35,0,0,1-1.38-1.93V181A2.31,2.31,0,0,0,418.21,182.88Z" transform="translate(-177.51)"/><path class="cls-20" d="M330.4,223.63l-16.19-9.33a2,2,0,0,1-.81-1.82,5.92,5.92,0,0,1,1-3.08,4.68,4.68,0,0,1,1.83-1.81,2.11,2.11,0,0,1,1.91-.16l16.11,9.32v0l-.29-.08c-1.66-.27-4.25,2.5-4.25,5.22A2.09,2.09,0,0,0,330.4,223.63Z" transform="translate(-177.51)"/><polygon class="cls-15" points="218.19 316.88 218.19 318.96 212.38 315.6 212.38 313.52 218.19 316.88"/><path class="cls-21" d="M384.48,254.86v9.48c-.12,0,1,.56-11.86-6.85h0l-2.95-1.69v-5.4q1.21-2,2.52-3.79l4.17,2.41h0a1.89,1.89,0,0,0,.81,1.64Z" transform="translate(-177.51)"/><path class="cls-8" d="M420.61,299.13a14.58,14.58,0,0,1-13.27-.06c-21.76-12.57-20.35-11.71-21.11-12.29a4.74,4.74,0,0,1-1.56-2.16c-1.27.63,4.94-2.82-14.6,8.43a4.27,4.27,0,0,1,1.73,1.41c14.34,20.42,13.22,19,14,19.47a4.15,4.15,0,0,0,4.1-.41l5.81,3.36,25.53-14.72a30.76,30.76,0,0,1,.33-3.57Z" transform="translate(-177.51)"/><path class="cls-22" d="M446.15,233.09l-30,17.31a4.86,4.86,0,0,1-4.38-.06l-20.06-11.58c-1.23-.71-1.3-1.85-.1-2.53,30.21-17.45,29.86-17.31,30-17.31Z" transform="translate(-177.51)"/><path class="cls-21" d="M388.48,235.92c18.58-10.75,8.65-5,32.91-19v1.88l.21.12-30,17.31c-1.2.68-1.13,1.82.1,2.53l20.06,11.58a4.86,4.86,0,0,0,4.38.06l30-17.31.22.13,19.19-11.09a9.86,9.86,0,0,1,4.23,7.58l-49.18,28.4c-3.7,2.14-9.65,2-13.27-.06l-20.06-11.59c-1.47-.84-2.8-2.19-2.8-3.89A7.66,7.66,0,0,1,388.48,235.92Z" transform="translate(-177.51)"/><path class="cls-21" d="M387.28,246.46l20.06,11.59c3.62,2.08,9.57,2.2,13.27.06v22.55c-.67,1.14-1.3,2.3-1.88,3.45h0c.12.06,1.75,1,1.87,1.1v13.92a14.58,14.58,0,0,1-13.27-.06c-21.76-12.57-20.35-11.71-21.11-12.29a4.36,4.36,0,0,1-1.75-3.18V254.86l9,5.21v0a1.6,1.6,0,0,0,1.6,0c2.39-1,4.37-5.5,2.36-6.84h0l-13-7.5v-3.15C384.48,244.27,385.81,245.62,387.28,246.46Z" transform="translate(-177.51)"/><path class="cls-23" d="M382.22,263a38.36,38.36,0,0,0-3.9,18.37,18.21,18.21,0,0,0,1.33,6.11L377,289l-.45-.26a15.19,15.19,0,0,1-6.91-9.79V266.56a43.34,43.34,0,0,1,2.95-9.07C377.46,260.27,380.89,262.27,382.22,263Z" transform="translate(-177.51)"/><path class="cls-24" d="M419.55,222.59c.77,3.86,3.77,7.19,1.26,15.87-2.09-4.58-2.08-6.07-3.57-8C418.11,227.93,418.74,225.25,419.55,222.59Z" transform="translate(-177.51)"/><path class="cls-25" d="M401,244.49c-.34.67.09-.22.09-1.82a7.47,7.47,0,0,0-5.65-6.9c2-1.32,5.85-3.74,8.79-5.26,2.77-20.79,2.82-20.25,4.78-24.39.09-6.2,6.45-10.88,12.72-10.88a6.22,6.22,0,0,1,2,.33,51.55,51.55,0,0,1,.74,9.73,38.27,38.27,0,0,1-2.72,12.52,18,18,0,0,0-2.17,4.77C416.63,232.15,415.92,241.4,401,244.49Z" transform="translate(-177.51)"/><path class="cls-26" d="M397,292.51a9.48,9.48,0,0,1-3.92-.31c.36-1.89,2.68-1.66,2.68-2.29s-1.48-1-1.48-1.55c0-1.25,3.34-.07,3.34-3.43,0-4.75-1-5.61-4.47-18.71-.13-1.21-.19-2.2-.19-2.69,0-10.83,14.16-10.15,14.16-17.73a2.88,2.88,0,0,0-1.35-2.7c7-2.69,9.7-7.37,11.44-12.61,1.49,1.9,1.48,3.39,3.57,8,0,.14-.07.27-.11.4a10.47,10.47,0,0,1,.24,2.18c0,4.94-1,9.63-4,12.73a129.8,129.8,0,0,1-16.71,9,17.53,17.53,0,0,1,2.09,7.5c0,1.44-.26,2.89-.26,4.32,0,1.76.77,2.8.78,4.24,0,.93-.41,1.77-.41,2.66,0,1.14,1.2,3,1.29,6.08C402.5,290.59,400.29,292.51,397,292.51Z" transform="translate(-177.51)"/><path class="cls-24" d="M396.18,246.31c-1.43-5.31-5.62-6.46-8.48-4.92a.54.54,0,0,0,.05-.11c1.51-1.55,3.6-4.38,6.33-5.57a3.84,3.84,0,0,1,1.36.06,7.47,7.47,0,0,1,5.65,6.9,10.26,10.26,0,0,1-.22,2h0c-.92,1.41-2.87,1.33-4.57,1.25C396.26,246.08,396.22,246.2,396.18,246.31Z" transform="translate(-177.51)"/><path class="cls-24" d="M393.17,236.18a79.29,79.29,0,0,0,.9-12.37c0-1.77-1.08-7.79-1.65-11.6-.29-4.62,2.69-11.1,3-20.32,1.19-.62-.08-4.87,1-5.67,4.93-2.06,5.53-1,7-5.14,7.78,4.77,17.81,8.22,20.26,14.27a1.7,1.7,0,0,1,0,.22,6.22,6.22,0,0,0-2-.33c-6.27,0-12.63,4.68-12.72,10.88-2,4.14-2,3.6-4.78,24.39-2.94,1.52-6.81,3.94-8.79,5.26a3.86,3.86,0,0,0-1.36-.06C393.78,235.85,393.48,236,393.17,236.18Z" transform="translate(-177.51)"/><path class="cls-27" d="M397,292.51c-.21,4.4-.55,15.36-4.94,15.36a1.28,1.28,0,0,1-1.25-1.28c0-.73,2.34-6.5,2.34-10.52a32,32,0,0,0-.56-4.06A8.82,8.82,0,0,0,397,292.51Z" transform="translate(-177.51)"/><path class="cls-28" d="M392.26,227.16c0-5.39-1.92-14.83-1.78-18.93a140.07,140.07,0,0,0,.28-16.28c.64-.25,4.65-.35,5.25-.67-.27,8.93-3.6,15.42-3.6,20.45,0,1.34,1.66,9.8,1.66,12.08a79.29,79.29,0,0,1-.9,12.37,12.78,12.78,0,0,0-1.08.73l-.54-1.16A76.12,76.12,0,0,0,392.26,227.16Z" transform="translate(-177.51)"/><path class="cls-29" d="M393.18,296.07c0,4-2.34,9.79-2.34,10.52a1.28,1.28,0,0,0,1.25,1.28c4.39,0,4.73-11,4.94-15.36a7.31,7.31,0,0,0,1.59-.17c0,1.92,1,6.05,1,8.9,0,5.79-10.71,15.65-10.81,15.65a2.23,2.23,0,0,1-1.6-.61c-1-4.85,3.28-10,4.25-17.8a23.88,23.88,0,0,1-.21-7.22,6.94,6.94,0,0,0,1.33.75A32.87,32.87,0,0,1,393.18,296.07Z" transform="translate(-177.51)"/><path class="cls-30" d="M378.9,228.94c2.54,0,5.71.53,9.14.69a22.09,22.09,0,0,1,1.71,2.61,18.24,18.24,0,0,1-2,.34c-36.38,3.2-24.42,13.29-32.91,13.29a2.26,2.26,0,0,1-1.42-.49C354.62,232.2,371.89,228.94,378.9,228.94Z" transform="translate(-177.51)"/><path class="cls-31" d="M388.21,318.53a6.23,6.23,0,0,1-1-2.25,2.23,2.23,0,0,0,1.6.61c.1,0,10.81-9.86,10.81-15.65,0-2.9-1-6.88-1-8.9a6.42,6.42,0,0,0,3.59-2.18c.07.94.18,1.88.18,2.84,0,.73-.17,1.48-.17,2.23,0,2,1.34,3.62,1.34,5.83a5.79,5.79,0,0,1-1.75,4.31c-1.83,6.71-4.25,13.52-11.42,13.52A4.25,4.25,0,0,1,388.21,318.53Z" transform="translate(-177.51)"/><path class="cls-30" d="M386.63,257.12c.7-.91.89-3.16,2.63-7.45a46.74,46.74,0,0,0-1.29,5.84c0,.86.26,1.47,1.23,1.47a2.07,2.07,0,0,0,.35,0c.89-1.37,1.72-5,2.72-7.34-.66,3.54-1.15,3.89-1.15,5,0,.76.38,1.59,1.09,1.59h.15c1.92-2.26,1.9-4.33,2.79-7.29.29-1,.93-2.19,1.14-2.95,1.7.08,3.65.16,4.57-1.25h0a1.59,1.59,0,0,0,.13-.22,29.16,29.16,0,0,0,4.8-1.39,2.88,2.88,0,0,1,1.35,2.7c0,7.58-14.16,6.9-14.16,17.73,0,.49.06,1.48.19,2.69,3.44,13.1,4.47,14,4.47,18.71,0,3.36-3.34,2.18-3.34,3.43,0,.57,1.48.94,1.48,1.55s-2.32.4-2.68,2.29a7.75,7.75,0,0,1-3-1.92A71.28,71.28,0,0,1,389,278.7c-.42-1.48-1.05-2.95-1.42-4.35,0-.1-3.89-16.39-3.89-16.49a6.86,6.86,0,0,1,1.09-3.36c0,.29,0,.58,0,.86C384.75,256.78,385.82,257.47,386.63,257.12Z" transform="translate(-177.51)"/><path class="cls-24" d="M387.61,229.07c-1.8-4.4-1.38-9.13-2-13.74-1.45-3.91-4.15-12.9-4.15-15.63,0-3.72,1.42-6.47,1.86-9.68l2.12-2.3c.21.54,2.82,1.38,3.05,1.9,1,1,.42-.43,1.54.28,2.29-.09,4,2.17,6,1.38l-5.25.67c.5,5.9.41,8.83-.28,16.28-.15,4.25,1.78,13.26,1.78,18.93a76.12,76.12,0,0,1-.71,8.59A32.64,32.64,0,0,0,387.61,229.07Z" transform="translate(-177.51)"/><path class="cls-25" d="M341.82,204.3l0,0c3.13-3.29,11.91-4.31,16-5.49a23,23,0,0,0,3.05-1.35c7.94-5.17,20.13-18.19,22.12-19.65.28,3.76-.55,8.4.85,11.91l-.69,1.59c-.36,2.62-1.16,3.69-1.51,6.5-4.95,2.42-7.86,8-16.27,12.32-9.09.88-12,3.59-17.92,3.59a8.32,8.32,0,0,1-3.26-.56A8.39,8.39,0,0,0,341.82,204.3Z" transform="translate(-177.51)"/><path class="cls-26" d="M368.9,281.9l-.42.23c-1.5.81-2.15.88-4.38.88a15.32,15.32,0,0,1-6.48-1.52h0c-1.57-3.44-.87-3.49-.87-5.46a11.36,11.36,0,0,0-.76-3.1c-.05-12-1.68-12.34-1.68-17,0-1,.08-2.08.08-3.12,0-3.08-1.13-4.31-.91-7.41a2.26,2.26,0,0,0,1.42.49c8.49,0-3.47-10.09,32.91-13.29a18.24,18.24,0,0,0,2-.34c1,1.67,1.73,3.37,2.34,4.67a40.64,40.64,0,0,0-4.34,4.37,4.23,4.23,0,0,1-.51.9l0,0a17.11,17.11,0,0,1-1.91,1.33c-2.62,1.32-3.78,4.3-4.21,5.87-2.87,1.07-7.76.07-10.77.28a5.57,5.57,0,0,1-.68,0c.3,5,2.1,9.32,2.1,14.5,0,4.19-1.64,8-1.64,11.95,0,1.2-.65,3.13-.46,4.33C369.42,280.92,369.18,281.42,368.9,281.9Z" transform="translate(-177.51)"/><path class="cls-24" d="M331.74,215.75a6.46,6.46,0,0,0-1,.06c-.84,1-2.08,2.47-3.34,3-1.58.24-2.42-.53-2.42-1.75a1.69,1.69,0,0,1,0-.23c1.57-.73,3.24-1.68,3.59-3.33,0,0,3.08-.12,2.66-.66-2.74-3.55-5.88-3.17-7.18-2.8.33-.13,1.28-1,1.28-1.57,0-.33-.39-.46-.72-.46a5.71,5.71,0,0,0-.87.12c.8-.13,1.37-.73,1.37-1.14,0-.18-.13-.28-.32-.35a5.94,5.94,0,0,1,1-.12c2.39,0,6.09.88,8.82.88,1.79-1,3.78-2.9,5.55-3.8a15,15,0,0,1,1.7.73,8.39,8.39,0,0,1,2.31,8.83l.11,0a11.82,11.82,0,0,1-8.29.61C334.35,215.3,333.89,215.75,331.74,215.75Z" transform="translate(-177.51)"/><path class="cls-32" d="M321,212.09c1.05-.75,2.39-1.66,3.1-2.08,1.3-.37,4.44-.75,7.18,2.8.42.54-2.66.66-2.66.66-1.69-1.26-3.45-.82-5.34.12-1.05,1.77-2.51,4.79-4.35,5.13a1.5,1.5,0,0,1-.85-1.25C318,216.41,320.36,213,321,212.09Z" transform="translate(-177.51)"/><path class="cls-33" d="M324.36,207.89c-4,.73-7.17,4.24-8.71,6.29a1.13,1.13,0,0,1-.9-1.24,2.46,2.46,0,0,1,.72-1.69c1.51-2.49,6.92-4.18,9.32-4.64.19.07.32.17.32.35A1.27,1.27,0,0,1,324.36,207.89Z" transform="translate(-177.51)"/><path class="cls-34" d="M315.65,214.18c1.54-2.05,4.73-5.56,8.71-6.29a2.05,2.05,0,0,1-.62.21,5.71,5.71,0,0,1,.87-.12c.33,0,.72.13.72.46,0,.53-1,1.45-1.28,1.57-.71.42-2.05,1.33-3.1,2.08L321,212c-3.79,2.38-3.4,4.63-4.76,4.63a1.12,1.12,0,0,1-.94-1.2,3,3,0,0,1,.33-1.22Z" transform="translate(-177.51)"/><path class="cls-35" d="M407.38,170.72a9.42,9.42,0,0,1-.41,2.66,8.39,8.39,0,0,1-3.57,7.7,8.42,8.42,0,0,1-3.81,4.42,11,11,0,0,1-1.95-2,7.06,7.06,0,0,1-2.27-.38,20.48,20.48,0,0,1,1.25-6.11h0c1.34-2.19,2.09-4.6,3.54-6.75.71-1.07,1.86-1.63,2.26-2.93a13.69,13.69,0,0,0,.35-3.86C405.89,164.61,407.38,167.1,407.38,170.72Z" transform="translate(-177.51)"/><path class="cls-36" d="M402.55,163.43l.23.08a13.69,13.69,0,0,1-.35,3.86c-.4,1.3-1.55,1.86-2.26,2.93-1.45,2.15-2.2,4.56-3.54,6.75,0,0,0,0,0-.05a13.76,13.76,0,0,1-9.76,3.26c-2-.81-3.88-1.87-4.86-3.77,6.87,1.94,16.93-8,19.28-14.49A3.75,3.75,0,0,1,402.55,163.43ZM385.42,179Z" transform="translate(-177.51)"/><path class="cls-37" d="M401.31,162c-2.37,6.49-12.43,16.42-19.28,14.49a8.56,8.56,0,0,1-.82-3.87c1.75-2.33.85-12.37,14.49-12.37A9.1,9.1,0,0,1,401.31,162Z" transform="translate(-177.51)"/><path class="cls-38" d="M400.9,184.65h0c-.77,3-2.38,5.44-4.89,6.63a13.48,13.48,0,0,1-1.41-3.59,15.06,15.06,0,0,0,3.55-3.53,11.09,11.09,0,0,0,1.44,1.34A6.14,6.14,0,0,0,400.9,184.65Z" transform="translate(-177.51)"/><path class="cls-38" d="M397.64,183.54c.15.2.32.41.51.62a15.41,15.41,0,0,1-9.65,6.11c0-.31,0-.48,0-.65v.66a16.51,16.51,0,0,1-2.73.28c1.73-1.71,4.91-1.95,5.12-4.86,4.43-3.67,2.85-5.21,3.32-7.06a17.25,17.25,0,0,0,2.46-1.64s0,0,0,.05h0a20.48,20.48,0,0,0-1.25,6.11A7.06,7.06,0,0,0,397.64,183.54Z" transform="translate(-177.51)"/><path class="cls-39" d="M394.6,187.69a13.48,13.48,0,0,0,1.41,3.59,9.22,9.22,0,0,1-5.25.67,5.28,5.28,0,0,0-.74-2A15.66,15.66,0,0,0,394.6,187.69Z" transform="translate(-177.51)"/><path class="cls-39" d="M394.19,178.64a13.44,13.44,0,0,1-7.3,1.62l-.62-.26c-.41-.18-.79-.37-1.16-.57a8.28,8.28,0,0,1-2.18-1.65c-.15-.17-.29-.34-.42-.52-.59,1.44-.91,8.49.33,11.66a7.67,7.67,0,0,0,2.62,1.65h.29c1.73-1.71,4.91-1.95,5.12-4.86C395.3,182,393.72,180.49,394.19,178.64Z" transform="translate(-177.51)"/><path class="cls-36" d="M381.71,171.69s3.73,6.71,9.59,3.94C393,174.46,386,175.63,381.71,171.69Z" transform="translate(-177.51)"/><path class="cls-27" d="M404,158.37a17.6,17.6,0,0,1,2.31,1.53c-9.87,1.18-18.07,8.91-19.1,11.46a20.8,20.8,0,0,1-2.51-1.33c.66-2.32,4.83-9.51,13.81-12.08A41.88,41.88,0,0,1,404,158.37Z" transform="translate(-177.51)"/><path class="cls-40" d="M382.31,168.27s-4.1,9.51,3.11,10.76a17.14,17.14,0,0,0,12.63-3s-2.48,9.87,1.54,9.51,4.46-.48,7.79-5.23c4-5.76.91-17.62.91-17.62Z" transform="translate(-177.51)"/><path class="cls-29" d="M398.46,158c-9,2.57-13.15,9.76-13.81,12.08a20.8,20.8,0,0,0,2.51,1.33c1-2.55,9.23-10.28,19.1-11.46a8.35,8.35,0,0,1,2,2.75c-8.73,1.19-13.45,11.64-19.2,11.64-.42,0-.87,0-1.25,0-4.09,0-5.31-2.2-5.53-6h0l.08-.18c.11-4.12,5.49-10.13,16-10.13Z" transform="translate(-177.51)"/><path class="cls-20" d="M393.51,260.07l-16.33-9.42c-1.88-1.09-.22-5.57,2.06-6.71l.08,0a2,2,0,0,1,1.82-.11l16.33,9.43c-1.66-1-4.69,2-4.77,5a1.86,1.86,0,0,0,.82,1.78Z" transform="translate(-177.51)"/><path class="cls-41" d="M457.15,276.24c-6.2,3.58-12.94,10.51-17.6,19.89L432,291.76c5.57-10.93,13.44-18.9,20.59-23,12-6.94,18.81-1.88,19-1.88,9,5.42,11,16.42,9.28,26.72-.1.65-.82,1-1.55,1.23C482.2,276.74,471.27,268.09,457.15,276.24Z" transform="translate(-177.51)"/><path class="cls-42" d="M472.43,277.88c3.19,2.31,5.11,6.61,5.13,12.47h0l-3.27-1.89a22.29,22.29,0,0,0-1.85-10.57Z" transform="translate(-177.51)"/><path class="cls-43" d="M475.46,182.88a2.33,2.33,0,0,0,1.38-1.92v15.41a2.4,2.4,0,0,1-1.38,1.93Z" transform="translate(-177.51)"/><polygon class="cls-43" points="297.95 182.88 297.95 198.3 293.83 200.67 293.83 200.68 272.67 212.89 272.67 197.47 297.95 182.88"/><path class="cls-44" d="M446.37,233.22V214.49l1.49-.86a6.1,6.1,0,0,0,2.31-.74l21.17-12.21V218.8Z" transform="translate(-177.51)"/><path class="cls-17" d="M470.33,181.84l-23.16,13.37V174.12l23.16-13.38Z" transform="translate(-177.51)"/><polygon class="cls-45" points="292.83 160.74 269.66 174.12 242.42 158.38 265.59 145.02 292.83 160.74"/><path class="cls-22" d="M469.79,265.85V266c-5.45-2.16-11.86-.39-17.22,2.71-7.15,4.13-15,12.1-20.59,23l-10.78-6.22c5.57-10.94,13.44-18.91,20.59-23,5.85-3.38,13.07-5.25,19-1.87Q465.27,263.23,469.79,265.85Z" transform="translate(-177.51)"/><path class="cls-41" d="M469.79,229.71v36.14q-4.52-2.62-9-5.22c-5.59-3.23-13.48-3.6-22.31,1.5-7.26,4.19-13.46,11.12-17.83,18.53V258.11Z" transform="translate(-177.51)"/><path class="cls-21" d="M455.42,296h0l.07,0a3.11,3.11,0,0,1,1.24,1.21,3.2,3.2,0,0,1-2.33,4.76,3.23,3.23,0,0,1-1.94-.34v0a1.35,1.35,0,0,1-.54-.49c-.56-.86-.1-3.38,1.76-4.74A1.68,1.68,0,0,1,455.42,296Z" transform="translate(-177.51)"/><path class="cls-46" d="M460.39,290.59c0,8.56-7.34,18-13.55,19.14a5.41,5.41,0,0,1-6.55-3.76c.38-8.26,6.21-18.22,13.06-22.61h0C457.15,282.63,460.39,285,460.39,290.59Zm-8.85,3.1a1.38,1.38,0,0,0-.56-.12c-1,0-2.85,1.51-3.17,3.81a1.7,1.7,0,0,0,.64,1.86l0,0c3.31,1.9,3.87,2.25,3.94,2.28a3.2,3.2,0,0,0,3.19-5.54C455.2,295.84,451.66,293.74,451.54,293.69Z" transform="translate(-177.51)"/><path class="cls-23" d="M440.29,306a5.41,5.41,0,0,0,6.55,3.76c6.21-1.12,13.55-10.58,13.55-19.14,0-5.63-3.24-8-7-7.23,2-1.29,5.28-2.73,7.35-1.59l.05,0a8,8,0,0,1,3.2,4.34,14.73,14.73,0,0,1,.16,7.6,29.23,29.23,0,0,1-9.47,16.39,14.61,14.61,0,0,1-6.67,3.65,7.5,7.5,0,0,1-5.46-.68c-2-1.28-2.34-4.76-2.23-7.1Z" transform="translate(-177.51)"/><path class="cls-21" d="M448.43,299.28l0,0a1.7,1.7,0,0,1-.64-1.86c.32-2.3,2.2-3.81,3.17-3.81.54,0,.27,0,4.52,2.42l-.07,0h0a1.68,1.68,0,0,0-1.72.4c-1.86,1.36-2.32,3.88-1.76,4.74a1.35,1.35,0,0,0,.54.49v0C452.34,301.53,449.82,300.08,448.43,299.28Z" transform="translate(-177.51)"/><path class="cls-18" d="M443.49,197.47a7.29,7.29,0,0,0,6.68,0v15.42a7.45,7.45,0,0,1-6,.32l-.67-.39Z" transform="translate(-177.51)"/><path class="cls-16" d="M446.37,214.49l-2.21-1.28a7.53,7.53,0,0,0,3.7.42Z" transform="translate(-177.51)"/><path class="cls-41" d="M439.55,296.13c4.66-9.38,11.4-16.31,17.6-19.89,14.12-8.15,25.05.5,22.11,18.56l-2.11.56c2.6-16.42-7.47-23.86-20-16.6-5.64,3.25-11.82,9.62-16,18.27Z" transform="translate(-177.51)"/><path class="cls-47" d="M453.35,283.36c-6.85,4.39-12.68,14.35-13.06,22.61v0c-.11,2.34.25,5.82,2.23,7.1a7.53,7.53,0,0,0,5.46.68,14.61,14.61,0,0,0,6.67-3.65,29.23,29.23,0,0,0,9.47-16.39,14.73,14.73,0,0,0-.16-7.6,8,8,0,0,0-3.2-4.34l-.05,0c-2.07-1.14-5.37.3-7.35,1.59ZM437.59,314c-1.22-5.62.31-12.23,2.59-17.49l.93.53c4.22-8.65,10.4-15,16-18.27a21.29,21.29,0,0,1,6-2.42c4,0,7.15,2.17,8.78,6.47,4.32,11.44-5.49,32.33-18.91,38.28a13,13,0,0,1-7.79,1.24,9.36,9.36,0,0,1-5.11-3A11.82,11.82,0,0,1,437.59,314Z" transform="translate(-177.51)"/><path class="cls-23" d="M440.18,296.5c-2.28,5.26-3.81,11.87-2.59,17.49a11.82,11.82,0,0,0,2.5,5.37,9.36,9.36,0,0,0,5.11,3,13,13,0,0,0,7.79-1.24c13.42-5.95,23.23-26.84,18.91-38.28-1.63-4.3-4.82-6.45-8.78-6.47a11.25,11.25,0,0,1,9.31,1.54h0a22.29,22.29,0,0,1,1.85,10.57c-.45,10.25-6.19,22.17-14.83,29.85-6.42,5.7-15.37,9.43-22.75,5.16l-7.88-4.55c-5.16-3-7.36-8.72-7.57-14.69-.26-4,.72-10.19,3.59-16.59Z" transform="translate(-177.51)"/><path class="cls-41" d="M424.83,287.64a42.12,42.12,0,0,0-3.27,10.95l-.95.54V285.21C421.16,285.51,424.71,287.57,424.83,287.64Z" transform="translate(-177.51)"/><path class="cls-41" d="M438.44,262.13c8.83-5.1,16.72-4.73,22.31-1.5-5.89-3.38-13.11-1.51-19,1.87-7.15,4.13-15,12.1-20.59,23l-.59-.33-1.87-1.1h0C423.12,275.41,430.09,267,438.44,262.13Z" transform="translate(-177.51)"/><path class="cls-15" d="M395.7,319v-2.08l25.53-14.72a17.72,17.72,0,0,0,0,2.07C421.12,304.23,421.29,304.19,395.7,319Z" transform="translate(-177.51)"/><path class="cls-3" d="M395.12,260.06c-1.43.64-2.49-.35-2.42-1.79.08-3.08,3.11-6,4.77-5h0C399.48,254.55,397.54,259.05,395.12,260.06Z" transform="translate(-177.51)"/><path class="cls-23" d="M384.67,284.62c-.12.06-1.78,1-5,2.9a18.21,18.21,0,0,1-1.33-6.11,38.36,38.36,0,0,1,3.9-18.37l2.26,1.3C384.48,285.34,384.39,283.85,384.67,284.62Z" transform="translate(-177.51)"/><path class="cls-8" d="M376.36,248.83a1.09,1.09,0,0,0,0,.18c-.12,0,.16.05-8.18-4.72-1.41-.8-.16-4.14,1.53-5a1.54,1.54,0,0,1,1.42-.12l8.18,4.72-.08,0A6.24,6.24,0,0,0,376.36,248.83Z" transform="translate(-177.51)"/><path class="cls-41" d="M355.76,244c0-5.2,3.2-10.9,7-14.09l2.89,1.53v0c3.26,1.7,3.42,1.78,4,1.92a3.47,3.47,0,0,0,4.07-2.13,3.15,3.15,0,0,0,.21-.52,11.82,11.82,0,0,1,.89,10.58l-1.34-.77a4,4,0,0,0-.45-3.07,2.42,2.42,0,0,0-2.22-.65c-2,.35-5,3.74-5,7.18a3.37,3.37,0,0,0,.34,1.64,2.2,2.2,0,0,0,1.28,1.06,3.78,3.78,0,0,0,3.09-1.05l1.33.76a15,15,0,0,1-2.16,2.08v42.84c-4.18,2.41-4.15,2.48-5.5,2.94a11.66,11.66,0,0,1-7.46-.24v-3.23c-.35-.17-.65-.33-.95-.51V277.6c2.19-3.13,1.4-8.21,0-11.78Z" transform="translate(-177.51)"/><path class="cls-22" d="M367.89,227.4a4.78,4.78,0,0,1,3.36.75,8.32,8.32,0,0,1,1.6,1.26c-.59,2.05-2.34,2.93-4,2.08s-3.22-1.65-4.83-2.51A8.77,8.77,0,0,1,367.89,227.4Z" transform="translate(-177.51)"/><path class="cls-48" d="M384.32,316c-25.82-14.88-24.92-14.45-25.05-14.45a8.69,8.69,0,0,0-1.29-4.92,10,10,0,0,0,7.24-.68c1.77-1,3.85-1.21,5,.44C384.47,316.63,383.48,315.47,384.32,316Z" transform="translate(-177.51)"/><path class="cls-49" d="M365.79,244c0-3.44,3-6.83,5-7.18a2.42,2.42,0,0,1,2.22.65,4,4,0,0,1,.45,3.07c-.77-.45-1.53-.9-2.31-1.34a1.54,1.54,0,0,0-1.42.12c-1.72.86-2.93,4.2-1.53,5l2.31,1.34a3.78,3.78,0,0,1-3.09,1.05,2.2,2.2,0,0,1-1.28-1.06A3.37,3.37,0,0,1,365.79,244Z" transform="translate(-177.51)"/><path class="cls-50" d="M365.67,231.42l-2.89-1.53A11,11,0,0,1,364,229c1.61.86,3.23,1.7,4.83,2.51s3.43,0,4-2.08a7.67,7.67,0,0,1,1,1.3,3.15,3.15,0,0,1-.21.52,3.47,3.47,0,0,1-4.07,2.13c-.54-.14-.7-.22-4-1.92Z" transform="translate(-177.51)"/><path class="cls-8" d="M364.46,330.93c1.31-8.08,0-17.68-7.43-20.76.57-1.94,1.14-3.89,1.7-5.83,7.35,5.77,8.83,16,7.27,25.32,0,0,0,0,0,0C365.88,330.38,365.13,330.75,364.46,330.93Z" transform="translate(-177.51)"/><path class="cls-8" d="M370,293.08a5.89,5.89,0,0,0-4.8.8l0,0c.52-.25.39-.19,3.17-1.8l1.71,1Z" transform="translate(-177.51)"/><path class="cls-15" d="M364.46,330.93l-2.12.56c1.09-6.92.09-15.27-6.18-18.34l.87-3C364.46,313.25,365.77,322.86,364.46,330.93Z" transform="translate(-177.51)"/><path class="cls-50" d="M364,229a11,11,0,0,0-1.22.91c-6-3.18-11.87-6.58-17.57-10.2a12.59,12.59,0,0,1,1.15-.85C352.1,222.44,358,225.83,364,229Z" transform="translate(-177.51)"/><path class="cls-51" d="M362.73,326.48l-3.26-1.88a22.64,22.64,0,0,0-1.84-10.55C361.43,316.82,362.69,321.77,362.73,326.48Z" transform="translate(-177.51)"/><path class="cls-45" d="M355.69,294.41c3.1,1.83,4.23,6,3.26,9.18-.12.4-1.08.36-1.51.3a7.38,7.38,0,0,1-2.28-.67c-.39-.18-1.24-.66-1.12-1.07a3.2,3.2,0,0,0-.9-3.3h0a1.5,1.5,0,0,1-.51-1.46,4.12,4.12,0,0,1,1.54-2.69,1.52,1.52,0,0,1,1.52-.29Z" transform="translate(-177.51)"/><path class="cls-52" d="M357.44,303.89c.43.06,1.39.1,1.51-.3-.63,2.25-9.26,31.62-9.26,31.69a0,0,0,0,1,0,0c-.13.4-1.08.35-1.51.29a7.46,7.46,0,0,1-2.28-.67c-.39-.18-1.22-.65-1.11-1.07,0-.12,9.23-31.56,9.26-31.69-.12.41.73.89,1.12,1.07A7.38,7.38,0,0,0,357.44,303.89Z" transform="translate(-177.51)"/><path class="cls-53" d="M353.33,217.78l17.61,10.16a5.14,5.14,0,0,0-3.05-.54A8.77,8.77,0,0,0,364,229c-6-3.15-11.9-6.54-17.64-10.14C348.44,217.42,351.13,216.56,353.33,217.78Z" transform="translate(-177.51)"/><path class="cls-54" d="M352.62,297.39a1.5,1.5,0,0,0,.51,1.46c.32,0,1.38,1.57.93,3.21a3.34,3.34,0,0,1-2.22.39,2.81,2.81,0,0,1-1.67-1.5c-1.16-2.45,1-8,4.52-9.71a3.73,3.73,0,0,1,2-.46V294l-.07,0v1a6.53,6.53,0,0,0-.95-.68h0a1.52,1.52,0,0,0-1.52.29A4.12,4.12,0,0,0,352.62,297.39Z" transform="translate(-177.51)"/><path class="cls-22" d="M324.74,332.27c-.07,0-7.51-4.33-7.57-4.37,5.58-11,13.46-18.92,20.6-23a24.42,24.42,0,0,1,11.73-3.66l1.7,1,0,0a2.81,2.81,0,0,0,2.84-.11c0,.12-2.08,7.13-2.12,7.25a20.86,20.86,0,0,0-9.6,3.07C336.15,316,329.41,322.86,324.74,332.27Z" transform="translate(-177.51)"/><path class="cls-41" d="M338.71,295l10.79,6.22a24.42,24.42,0,0,0-11.73,3.66c-7.14,4.11-15,12.07-20.6,23l-10.78-6.23c5.57-10.95,13.46-18.91,20.59-23A24.48,24.48,0,0,1,338.71,295Z" transform="translate(-177.51)"/><path class="cls-22" d="M344.38,217.58a9.51,9.51,0,0,1,8.68.06c-2.12-1-4.71-.16-6.7,1.2C345.7,218.43,345,218,344.38,217.58Z" transform="translate(-177.51)"/><path class="cls-50" d="M343.07,218.31a9.91,9.91,0,0,1,1.31-.73c.66.42,1.32.85,2,1.26a12.59,12.59,0,0,0-1.15.85C344.49,219.24,343.78,218.78,343.07,218.31Z" transform="translate(-177.51)"/><path class="cls-45" d="M343.88,334.71h0a.28.28,0,0,0,.4-.05,1.89,1.89,0,0,0,.46-.83h0c-.11.42.72.89,1.11,1.07a7.46,7.46,0,0,0,2.28.67c.43.06,1.38.11,1.51-.29-1.11,3.89-5.06,5.8-8.34,3.85a1.53,1.53,0,0,1-.51-1.46,4.1,4.1,0,0,1,1.55-2.68A1.53,1.53,0,0,1,343.88,334.71Z" transform="translate(-177.51)"/><path class="cls-42" d="M341.74,333.46l2,1.16v0a1.72,1.72,0,0,0-1.34.36,4.1,4.1,0,0,0-1.55,2.68,1.53,1.53,0,0,0,.51,1.46c-.06,0-2.27-1.36-2.33-1.39C337.8,336.36,340.19,332.73,341.74,333.46Z" transform="translate(-177.51)"/><path class="cls-46" d="M333.67,335.46l3.89,2.24,0,0a.89.89,0,0,0,1.25-.21,1.34,1.34,0,0,0,.18.28c.73.42,1.44.87,2.16,1.29-5.4,7.5-13.42,9.6-15.68,3.07h0c.38-8.21,6.16-18.2,13-22.6a5.85,5.85,0,0,1,2.6,0,5.44,5.44,0,0,1,3.26,2.29,9,9,0,0,1,1.2,4.93,19.66,19.66,0,0,1-1.86,7.9l-2-1.16a.89.89,0,0,0-.53-.08.92.92,0,0,0-.46-1.2v0l-4-2.29v0a1.41,1.41,0,0,0-.56-.12c-1,0-2.84,1.5-3.16,3.8a1.69,1.69,0,0,0,.63,1.87Z" transform="translate(-177.51)"/><path class="cls-23" d="M341.13,319.5a5.85,5.85,0,0,0-2.6,0c2-1.3,5.34-2.76,7.38-1.59h0a6.81,6.81,0,0,1,2.63,2.9h0c0,.12-3.8,12.89-3.8,13h0a1.89,1.89,0,0,1-.46.83c-.16.17-.26.11-.4.05h0l-.15-.09a19.66,19.66,0,0,0,1.86-7.9,9,9,0,0,0-1.2-4.93A5.44,5.44,0,0,0,341.13,319.5Z" transform="translate(-177.51)"/><path class="cls-45" d="M337.15,337.28c-.56-.82-.21-3.28,1.67-4.73a2.13,2.13,0,0,1,1.43-.54,1,1,0,0,1,1,1.37c-1.43.12-3,2.68-2.38,4.09A1,1,0,0,1,337.15,337.28Z" transform="translate(-177.51)"/><path class="cls-52" d="M338.15,233.81c0-5.21,3.22-10.94,7.06-14.12,5.7,3.62,11.61,7,17.57,10.2-3.82,3.19-7,8.89-7,14.09v21.84c-2.55-6.5-8.21-11.9-12.77-12.23a5.57,5.57,0,0,0-3.48.8c-.46.25-.91.51-1.36.78Z" transform="translate(-177.51)"/><path class="cls-41" d="M339.86,221.13a13.23,13.23,0,0,1,3.21-2.82c.71.47,1.42.93,2.14,1.38-3.84,3.18-7.06,8.91-7.06,14.12v21.36l-2.08,1.2V230.92A15.54,15.54,0,0,1,339.86,221.13Z" transform="translate(-177.51)"/><path class="cls-4" d="M336.37,259.11c2.62-.69,5.84,1.39,7.79,3.38a18.85,18.85,0,0,1,5.57,12.43,6.79,6.79,0,0,1-1.5,4.71h0c-6.4,1.82-14-5.77-14.23-13.81A9,9,0,0,1,336.37,259.11Z" transform="translate(-177.51)"/><path class="cls-54" d="M337.35,279.6c.69.47,16.08,9.32,18.41,10.67,1.76,1.06.92,0-1.07,1-3.51,1.74-5.68,7.26-4.52,9.71a3,3,0,0,0,1.05,1.22l0,0c-2-1.15-19.28-11.13-19.37-11.18-1.1-.63-1.37-2.22-1.3-3.49C330.7,283.94,334.38,279.25,337.35,279.6Z" transform="translate(-177.51)"/><path class="cls-45" d="M333.05,333.57c.32-2.3,2.19-3.81,3.16-3.8a1.41,1.41,0,0,1,.56.12v0l4,2.29v0a1.68,1.68,0,0,0-1.93.37c-1.88,1.45-2.23,3.91-1.67,4.73a1.37,1.37,0,0,0,.43.4l0,0-3.89-2.24v0A1.69,1.69,0,0,1,333.05,333.57Z" transform="translate(-177.51)"/><path class="cls-55" d="M337.35,279.6a3,3,0,0,0-1.28.15v-2.59a17.27,17.27,0,0,0,6.49,5.26c2.29,1,4.3.92,5.83,0h0c6.17-3.62,6.35-3.42,7.36-4.86v12.67C353.49,289,338,280.07,337.35,279.6Z" transform="translate(-177.51)"/><path class="cls-22" d="M334,257.55l5.49-3.16a5.57,5.57,0,0,1,3.48-.8c6.05.44,14.13,9.87,14.13,19a8.43,8.43,0,0,1-1.36,5c-1,1.45-1.26,1.29-7.36,4.86h0c1.86-1.07,3-3.38,3-6.58C351.37,265.66,340.5,253.76,334,257.55Z" transform="translate(-177.51)"/><path class="cls-22" d="M338.25,277.52a20.24,20.24,0,0,1-5-8.69,11.44,11.44,0,0,1,0-6.85,4.41,4.41,0,0,1,3.16-2.87,9,9,0,0,0-2.38,6.71c.19,8,7.83,15.63,14.23,13.81a3.85,3.85,0,0,1-1,.81C345,281.73,341.58,280.89,338.25,277.52Z" transform="translate(-177.51)"/><path class="cls-8" d="M332.75,217.77a1.35,1.35,0,0,1,1.31,0c.46.27,3.75,2.16,5.8,3.36a16.27,16.27,0,0,0-2.95,5.1l-5.77-3.33h0C329.6,222.2,330.83,218.64,332.75,217.77Z" transform="translate(-177.51)"/><path class="cls-21" d="M338.25,277.52c3.33,3.37,6.76,4.21,9,2.92a3.72,3.72,0,0,0,1-.81h0a6.79,6.79,0,0,0,1.5-4.71c0-8.44-8.91-18.41-14.48-15.39C330.66,262.09,332.54,271.71,338.25,277.52Zm-6.58-17.09c1.21-3.05,4.15-4.55,8.19-2.85,6,2.53,11.51,11.1,11.51,18.29,0,5.66-3.63,8.75-8.81,6.55C334.87,279.17,329.05,267,331.67,260.43Z" transform="translate(-177.51)"/><path class="cls-45" d="M329.27,288.26c-.43-.18-1.42-.7-1.28-1.16h0a6.2,6.2,0,0,1,4.51-4.51,8.78,8.78,0,0,0-1.92,6.1A7,7,0,0,1,329.27,288.26Z" transform="translate(-177.51)"/><path class="cls-3" d="M331.14,222.89h0c.41.24.83.49,1.25.72-1.46.73-2.65.07-2.65-1.71a6.27,6.27,0,0,1,1.76-4c1.81-1.86,3.72-1.5,3.83.63-.17-.1-1.32-.78-1.42-.82a1.42,1.42,0,0,0-1.16.08C330.82,218.65,329.61,222.21,331.14,222.89Z" transform="translate(-177.51)"/><path class="cls-52" d="M329.27,288.26a6.34,6.34,0,0,0,1.3.43,3,3,0,0,0,1.26,2.33l.29.17c-.38,1.33-.77,2.65-1.16,4a28.37,28.37,0,0,0-6,2.38h0c1-3.49,2-7,3.06-10.45C327.85,287.56,328.84,288.08,329.27,288.26Z" transform="translate(-177.51)"/><path class="cls-15" d="M331.61,324.62a48.61,48.61,0,0,0-5.32,8.55l-1.55-.9c4.67-9.41,11.41-16.32,17.6-19.89a20.86,20.86,0,0,1,9.6-3.07c-.27.94-.55,1.88-.82,2.82C343.67,312.3,336.23,318.64,331.61,324.62Z" transform="translate(-177.51)"/><path class="cls-23" d="M325.49,342.11c1.11,3.22,4,4.89,8.17,3.27a18.15,18.15,0,0,0,7.51-6.34l.17.1a5.24,5.24,0,0,0,3.76.67,25.22,25.22,0,0,1-8.22,8.28c-3.62,2.1-7.95,2.65-10.58-.61a12,12,0,0,1-.82-5.35v0Z" transform="translate(-177.51)"/><path class="cls-47" d="M355.38,315.83c-5.79,19.75-5.69,19.33-5.69,19.45a0,0,0,0,1,0,0,6.12,6.12,0,0,1-4.58,4.52,25.22,25.22,0,0,1-8.22,8.28c-3.62,2.1-7.95,2.65-10.58-.61a12,12,0,0,1-.82-5.35v0c.38-8.21,6.16-18.2,13-22.6,1.94-1.3,5.33-2.76,7.38-1.59h0a6.75,6.75,0,0,1,2.63,2.9h0c.29-1,2.5-8.58,2.54-8.7-7.48.17-14.9,6.52-19.51,12.49a48.61,48.61,0,0,0-5.32,8.55l-.91-.53c-7.55,17.35-.24,30.63,13.05,24.49,9.23-4.26,18.17-16.77,19.52-29.13C358.4,323.86,358,319.09,355.38,315.83Z" transform="translate(-177.51)"/><path class="cls-56" d="M443.82,249.19,422.6,261.44l-7.81.21,37.15-21.45c.93-.53,1.29.47.51,1.42h0A31.85,31.85,0,0,1,443.82,249.19Z" transform="translate(-177.51)"/><path class="cls-56" d="M438.53,257.55l-6.87,4-7.81.21,22.8-13.17c.93-.53,1.29.47.51,1.42h0A31.85,31.85,0,0,1,438.53,257.55Z" transform="translate(-177.51)"/><path class="cls-23" d="M325.38,332.64c-7.55,17.35-.24,30.63,13.05,24.49,9.23-4.26,18.17-16.77,19.52-29.13.45-4.14,0-8.91-2.57-12.17l.78-2.68a8.91,8.91,0,0,1,1.47.9c5.53,11.81-1.78,30.44-13,40.4-6.44,5.71-15.38,9.42-22.75,5.16L314,355.06c-5.56-3.21-7.7-9.68-7.6-16.15A39.32,39.32,0,0,1,310,323.77Z" transform="translate(-177.51)"/><path class="cls-22" d="M327,298.64c-7.13,4.12-15,12.08-20.59,23l-2.26-1.29h0l-.2-.11h0c4.36-8.67,11.34-17.15,19.71-22a26.21,26.21,0,0,1,14.07-3.87l1,.59A24.48,24.48,0,0,0,327,298.64Z" transform="translate(-177.51)"/><g class="cls-57"><path class="cls-58" d="M351.75,305.85a13,13,0,0,0-5.13-4.88c-3.49-2-7-4.06-10.57-6.12,1-1.27,2.71,0,2.71,0l11.83,6.81c-1.68-3.24.53-7.72,3.25-10.14-4.92-2.14-10-3.62-13.33-8.16a2.46,2.46,0,0,1,2.89-.69c3.93,1.22,7.87-1,8.06-6.17.08-2.22-.62-4.31-.83-6.78,1.58-.91,3.75-2,5.57-3,1.21,2.74,1.87,5.38,3,8l.5-.06a18.18,18.18,0,0,0,.18-1.81c0-8.47,0-16.94,0-25.41a5.47,5.47,0,0,1,1.51-4.16c2-2.14,3.48-4.75,5.5-6.85s6-3,7.07-5.78a11.81,11.81,0,0,1,.88,10.58c-3.69-1.35-4.67-2-5.57-.3-1,1.81.09,3.56,2.61,5.4a9,9,0,0,1-2.16,2.08v42.84l-1.3.76a29.4,29.4,0,0,1,3,1.89c.33-.18,1.4.42,1.77.22,2.77-1.46,5.31-1.76,8.19.26,3.51,2.48,7.46,4.33,11.13,6.6,2.44,1.51,4.74,3.27,7.1,4.92a4.83,4.83,0,0,0,4.59.69,18.73,18.73,0,0,1,8.71-.53,3.71,3.71,0,0,0,2.66-.57c1.7-1,3.42-1.95,5.42-3.08a20,20,0,0,0,.29,2.19c.57,2.07,1.12,4.15,1.84,6.17a4.2,4.2,0,0,0,1.54,2c2.17,1.38,4.45,2.59,6.85,3.95,3.18-10.32,3.62-11.92,4.73-15.21.45-1.33.39-2.32-.74-3.2-.48-.36-.85-.89-1.35-1.2-3.45-2.1-6.93-4.16-10.49-6.3-1.55,3.12-1.77,6.42-2.53,9.71H413.2c-.44-4.35-.09,4.84-.26-38.88,0-1.5.34-2.36,1.91-2.85a18.08,18.08,0,0,0,3.57-2c19.68-11.77,3.88-2.51,33.05-19.37.8-.47,1.56-1,2.47-1.59-1.91-2.51-7.53-2.68-7.53-2.68.1-27.18.12-27.56,0-35a7,7,0,0,0,3.23-.48c.56-.23,2-1.16,3.43-2a2.37,2.37,0,0,0,.15-.77c-1.89,0-6.05.19-6.05.19V174l23.17-13.37V176l5.38,3.11a2.52,2.52,0,0,1,1.18,2.44c-.14,4.5-.11,9.21,0,13.7,0,2.12-.95,2.85-1.43,3s-4.12,2.38-4.12,2.38v18.11L465.6,222a4.9,4.9,0,0,1,1.34,1.16,9.59,9.59,0,0,1,2.9,7.57c-.09,31.8,0,35.16,0,35.16s-2.37-1.58-3.6-2.29c-3.47-2-6.7-3.7-10.81-4a22.33,22.33,0,0,0-14.84,4.13,28.74,28.74,0,0,0-7.77,7.89,15.33,15.33,0,0,1-6.79,5.79,15.35,15.35,0,0,0-7.09,6.16c1.28,1.49,14,9,19,11.28.48-.75,1-1.52,1.48-2.31,4.38-7.14,9.65-13.46,16.72-18.13a28,28,0,0,1,13.43-5c.43,0,.86,0,1.3-.06,3.51-.16,6.23,1,7.69,4.46a20.9,20.9,0,0,0,1.09,1.91,22,22,0,0,1,10.5,2.14,3.28,3.28,0,0,0,2.35-.51c4.54-2.49,9.06-5,13.53-7.62,3.76-2.2,5.56-1.12,14-1.45a9.59,9.59,0,0,1,5.9,1.55,6.07,6.07,0,0,0,4.16,1.07,7.71,7.71,0,0,1,4.89,1.29c8,4.71,16.12,9.33,24.43,14.13a14.66,14.66,0,0,1-1.44,1.14q-10.07,5.86-20.17,11.68c-1.25.71-3.86.74-5.3.6a9.48,9.48,0,0,0-6.82,1.77,7.92,7.92,0,0,1-5.15,1.37c-2.07-.07-4.15,0-6.22,0a13,13,0,0,0-4.3.61,12,12,0,0,1-4.61.22,8.32,8.32,0,0,0-6.61,2.2l2,1.38a20.61,20.61,0,0,1,2.35,1.59c2.18,1.93,2.45,3.92.9,6.44a20.42,20.42,0,0,1-5.65,5.62c-10.9,8-23.39,11.42-29.39,13.86a6.77,6.77,0,0,1-6.63-.67,5.21,5.21,0,0,0-4.37-.79,42.14,42.14,0,0,1-5.64.65,19.06,19.06,0,0,1-13.21-3.54c-.21-.15-.47-.25-.66-.41-2.28-1.92-4.37-1.53-6.42.59,20.62,11.82,20.29,11.54,21.14,12.34a2.61,2.61,0,0,1,.2,4.08c-.79.9-1.72,1.66-2.86,2.74,2.82,1.29,4.93,3.54,8.07,3.92.54.07-.4-.47,15.75,8.95a10.93,10.93,0,0,1,1,.73c-2.4,2.75-5.53,3.37-8.31,1.76-12.31-7.12-13.57-7.68-15.25-9.48-1.51-1.63-3.89-2.49-6-3.55a3,3,0,0,0-2,.05c-5.47,1.59-9.1.78-27.12,1.05a6.61,6.61,0,0,0-3.64.95c-2.94,2.17-6.05,2.17-9.35,1.34l-4.46-1.13c-.46,2.44-2.29,3.1-4.42,3.48-4.58.83-9.14,1.76-13.72,2.6-8.6,1.57-6.92,3.92-27.66,10.7a6.59,6.59,0,0,1-5.92-.64,6.91,6.91,0,0,0-5.12-.92,58.37,58.37,0,0,1-9.26.54,11.16,11.16,0,0,1-4.73-1.1c-3.32-1.65-6.53-3.53-9.69-5.48-1.79-1.1-2-2.45-1.25-4.48.16-.39.62-1,.9-1.65-3.6-2-8.39-4.15-9.94-8.89,2.35,1.3,5.23,2.83,7.75,4.23a14,14,0,0,0,.76-1.58c1.43-4.61,2.79-9.25,4.28-13.84a2,2,0,0,0-.6-2.52c-3.47-2.88-.84-1.25-11.91-7.81.44-1.11.93-2.27,1.37-3.37,4.4,2.52,8.44,4.86,12.76,7.34C329.82,319.47,337.86,309.72,351.75,305.85Zm7-1.62a21.08,21.08,0,0,1,6.68,10.49,32.76,32.76,0,0,1,.59,15.09s-.32,1-3.67,1.57a34.24,34.24,0,0,0,.39-5c-1.06-.57-2.28-1.37-3.26-1.89a41.64,41.64,0,0,1-2.46,11.57c3.22-.11,6.3-.19,9.39-.3a22,22,0,0,1,9.32,2c1.3-1.53,3.5-2,4.44-4.05-5.68-8.5-6.71-8.1-4.38-10,2.12-1.71,4.16-2.65,9.93-6a8,8,0,0,0,1.14-.91c-4.76-2,1.54,1.42-23.06-12.8-1.47-.84-3-1.64-4.58-2.53C359,302.52,359,303.26,358.78,304.23ZM351,324c6.76-22.38,7.63-22.75,7.24-26.16-.2-1.71-1.5-2.93-2.54-2.78-1.59.23-2.61,3-2,4.16.73,1.44.42,2.42.09,3.72C351.81,310.91,348.19,317.66,351,324Zm23.1-27-.42.32c2.61,3.74,5.17,7.51,7.88,11.17a3.19,3.19,0,0,0,2.29.75c3.54.08,7.08.05,10.62,0a14.3,14.3,0,0,0,1.84-.37c-2.44-1.36-4.27-2.84-6.35-3.42C387.14,304.7,385.88,303.79,374.14,297Zm-9.54,42.39a10,10,0,0,0-2.1-1.23,21.31,21.31,0,0,0-3.8-.52c-2.57-.1-2.57-.05-3.64,2.8Zm21.8,15.13-2.14,1.91c.07.12.13.25.19.37l4.1-.9Z" transform="translate(-177.51)"/><path class="cls-59" d="M371.82,282.24l7.13,4a12.94,12.94,0,0,0,.73-1.61c4.25-14.22,2.62-9.36,4.23-13.42l.5.1c0,4,.28,13.13.28,13.13s-5.54,3.22-7.62,4.4a12.26,12.26,0,0,1-5.69-6.09Z" transform="translate(-177.51)"/><path class="cls-59" d="M384.42,268.47l-12.94-8.05a8.08,8.08,0,0,1,1.22-3.05c3.66,2.13,11.82,6.76,11.82,6.76a2.55,2.55,0,0,0-.14,1.17A23.71,23.71,0,0,1,384.42,268.47Z" transform="translate(-177.51)"/><path class="cls-59" d="M338.47,275.83a11.39,11.39,0,0,0,11.08-3c.73,2.51,0,5.52-1.67,6.84a4.72,4.72,0,0,1-5.76.28A8.38,8.38,0,0,1,338.47,275.83Z" transform="translate(-177.51)"/><path class="cls-59" d="M392.74,257.91A6,6,0,0,1,395.9,253a1.41,1.41,0,0,1,2.12,1.1,5.59,5.59,0,0,1-2.7,5.39C393.79,260.13,392.73,259.49,392.74,257.91Z" transform="translate(-177.51)"/><path class="cls-59" d="M334.42,269.37c-2.46-2.92-2-8.14.64-10,1.33-.92,2.73-.68,4.37-.37C333.28,260.72,333.5,263,334.42,269.37Z" transform="translate(-177.51)"/><path class="cls-59" d="M331,290a14.24,14.24,0,0,0,2.07,1.47c-.34.11-.92-.48-.92-.48L331,295l-1.49.57C330,293.62,330.48,292,331,290Z" transform="translate(-177.51)"/><path class="cls-59" d="M331.23,219.12a6.26,6.26,0,0,0,1.16,4.41c-1.56.55-2.59-.22-2.52-1.68a8.05,8.05,0,0,1,.81-3.08Z" transform="translate(-177.51)"/><path class="cls-59" d="M330.7,218.86c1.33-2.1,2.5-2.78,4.08-2.05.43.19.77,1.33.59,1.4s-1.58-1-1.82-.94a3.69,3.69,0,0,0-2.32,1.85Z" transform="translate(-177.51)"/></g><path class="cls-60" d="M370.94,227.94c-17.8-10.25-17.58-10.16-17.88-10.3a9.48,9.48,0,0,0-8.68-.06c-1-.62-1.92-1.24-2.88-1.88-1.45-1-2.45-3.85-1.76-6.41a300.76,300.76,0,0,1,14.5-41.59,4.35,4.35,0,0,1,2.09-2.33,2.11,2.11,0,0,1,2,.16c7.08,4.56,14.35,8.69,21.64,12.48,1.55.82,2.52,3.16,1.85,5.63-7.33,26.8-8.45,44-9,45.77A10,10,0,0,0,370.94,227.94Z" transform="translate(-177.51)"/><path class="cls-50" d="M338.53,208.46A304.83,304.83,0,0,1,353,166.86c1.21-3.2,3.65-3.94,5.46-2.83,13.58,8.72,21.25,12,22.51,13.08a7.49,7.49,0,0,1,2.05,7.11,313.43,313.43,0,0,0-7.24,33.59c-1.55,9.9-1.39,11.5-1.92,12.9a7.67,7.67,0,0,0-1-1.3c.53-1.78,1.67-19,9-45.77.67-2.47-.3-4.81-1.85-5.63-7.29-3.79-14.56-7.92-21.64-12.48a2.11,2.11,0,0,0-2-.16,4.35,4.35,0,0,0-2.09,2.33,300.76,300.76,0,0,0-14.5,41.59c-.69,2.56.31,5.45,1.76,6.41,1,.64,1.92,1.26,2.88,1.88a9.91,9.91,0,0,0-1.31.73l0,0c-.69-.46-1.89-1.23-2.11-1.41C338.81,215.2,337.8,211.42,338.53,208.46Z" transform="translate(-177.51)"/><path class="cls-32" d="M386.63,257.12c-.82.35-1.88-.34-1.88-1.76a20.5,20.5,0,0,1,1.94-7.76c-3,4.13-2.73,8.67-4.4,8.67a1.21,1.21,0,0,1-1.11-1.44c.9-7.52,4.47-10.35,6-12.63l0,0a5,5,0,0,0,.46-.79c2.85-1.53,7-.41,8.48,4.92-.31.87-.77,1.73-1,2.61-.89,3-.87,5-2.79,7.29h-.15c-.71,0-1.09-.83-1.09-1.59,0-1.13.49-1.48,1.15-5-1,2.31-1.83,6-2.72,7.34a2.07,2.07,0,0,1-.35,0c-1,0-1.23-.61-1.23-1.47a46.74,46.74,0,0,1,1.29-5.84C387.52,254,387.33,256.21,386.63,257.12Z" transform="translate(-177.51)"/><path class="cls-33" d="M381.1,249.4c.43-1.57,1.59-4.55,4.21-5.87a17.11,17.11,0,0,0,1.91-1.33c-1.35,2-4.31,4.44-5.6,10.07C380.8,250.76,380.71,250.75,381.1,249.4Z" transform="translate(-177.51)"/><polygon class="cls-61" points="405.37 280.14 405.37 322.92 387.25 333.38 387.25 290.6 405.37 280.14"/><polygon class="cls-62" points="405.37 280.14 387.25 290.6 369.13 280.14 387.25 269.68 405.37 280.14"/><polygon class="cls-63" points="387.25 290.6 387.25 333.38 381.07 336.95 381.07 294.17 387.25 290.6"/><polygon class="cls-10" points="387.25 269.68 369.13 280.14 362.95 276.57 381.07 266.11 387.25 269.68"/><polygon class="cls-64" points="387.25 290.6 381.07 294.17 362.95 283.7 369.13 280.14 387.25 290.6"/><path class="cls-61" d="M558.58,294.17V337l-18.12,10.46V304.63Zm-5.85,44.4v-7.1l-10.66,6.15v7.1Z" transform="translate(-177.51)"/><polygon class="cls-62" points="381.07 294.17 362.95 304.63 344.83 294.17 362.95 283.7 381.07 294.17"/><polygon class="cls-62" points="381.07 266.11 362.95 276.57 344.83 266.11 362.95 255.65 381.07 266.11"/><polygon class="cls-65" points="375.22 331.47 375.22 338.57 364.57 344.71 364.57 337.62 375.22 331.47"/><polygon class="cls-64" points="362.95 276.57 369.13 280.14 362.95 283.7 356.77 280.14 362.95 276.57"/><polygon class="cls-66" points="362.95 304.63 362.95 347.41 344.83 336.95 344.83 294.17 362.95 304.63"/><polygon class="cls-64" points="362.95 276.57 356.77 280.14 338.65 269.68 344.83 266.11 362.95 276.57"/><polygon class="cls-10" points="362.95 283.7 344.83 294.17 338.65 290.6 356.77 280.14 362.95 283.7"/><polygon class="cls-62" points="356.77 280.14 338.65 290.6 320.53 280.14 338.65 269.68 356.77 280.14"/><polygon class="cls-10" points="344.83 294.17 344.83 336.95 338.65 333.38 338.65 290.6 344.83 294.17"/><polygon class="cls-66" points="338.65 290.6 338.65 333.38 320.53 322.92 320.53 280.14 338.65 290.6"/><polygon class="cls-61" points="461.88 318.05 461.88 360.83 437.13 364.66 437.13 321.88 461.88 318.05"/><polygon class="cls-62" points="457.86 309.37 461.88 318.05 437.13 321.88 433.1 313.2 457.86 309.37"/><polygon class="cls-10" points="457.86 309.37 433.1 313.2 430.84 308.33 455.59 304.5 457.86 309.37"/><polygon class="cls-62" points="455.59 304.5 430.84 308.33 426.81 299.65 418.37 300.95 451.56 295.82 455.59 304.5"/><polygon class="cls-63" points="437.13 321.88 437.13 364.66 428.69 365.97 428.69 323.19 437.13 321.88"/><polygon class="cls-64" points="433.1 313.2 437.13 321.88 428.69 323.19 424.66 314.51 433.1 313.2"/><polygon class="cls-64" points="430.84 308.33 433.1 313.2 424.66 314.51 422.4 309.63 430.84 308.33"/><polygon class="cls-64" points="426.81 299.65 430.84 308.33 422.4 309.63 418.37 300.95 426.81 299.65"/><path class="cls-61" d="M606.2,323.19V366l-24.76,3.83V327Zm-8,42.26v-7.11l-14.54,2.25v7.11Z" transform="translate(-177.51)"/><polygon class="cls-62" points="424.66 314.51 428.69 323.19 403.93 327.02 399.91 318.34 399.91 318.33 424.66 314.51"/><polygon class="cls-10" points="422.4 309.63 424.66 314.51 399.91 318.33 397.64 313.46 397.64 313.46 422.4 309.63"/><polygon class="cls-62" points="418.37 300.95 422.4 309.63 397.64 313.46 393.61 304.78 418.37 300.95"/><polygon class="cls-65" points="420.7 358.34 420.7 365.45 406.15 367.7 406.15 360.6 420.7 358.34"/><polygon class="cls-66" points="403.93 327.02 403.93 369.8 399.91 361.12 399.91 318.34 403.93 327.02"/><polygon class="cls-10" points="399.91 318.34 399.91 361.12 397.64 356.24 397.64 313.46 399.91 318.33 399.91 318.34"/><polygon class="cls-66" points="397.64 313.46 397.64 356.24 393.61 347.56 393.61 304.78 397.64 313.46 397.64 313.46"/><polygon class="cls-61" points="357.8 344.74 357.8 362.87 333.95 366.56 333.95 348.43 357.8 344.74"/><polygon class="cls-62" points="353.91 336.38 357.8 344.74 333.95 348.43 333.95 348.43 330.07 340.06 353.91 336.38"/><polygon class="cls-64" points="353.91 336.38 330.07 340.06 327.89 335.37 351.74 331.68 353.91 336.38"/><polygon class="cls-62" points="347.86 323.32 351.74 331.68 327.89 335.37 324.01 327.01 347.86 323.32"/><polygon class="cls-63" points="333.95 348.43 333.95 366.56 325.82 367.81 325.82 349.69 325.82 349.68 333.95 348.43"/><polygon class="cls-10" points="330.07 340.06 333.95 348.43 325.82 349.68 321.94 341.32 330.07 340.06"/><polygon class="cls-10" points="327.89 335.37 330.07 340.06 321.94 341.32 319.76 336.63 327.89 335.37"/><polygon class="cls-10" points="324.01 327.01 327.89 335.37 319.76 336.63 315.88 328.26 324.01 327.01"/><polygon class="cls-62" points="325.82 349.68 325.82 349.69 301.98 353.37 298.1 345.01 298.1 345.01 321.94 341.32 325.82 349.68"/><polygon class="cls-64" points="321.94 341.32 298.1 345.01 295.92 340.32 319.76 336.63 321.94 341.32"/><polygon class="cls-62" points="315.88 328.26 319.76 336.63 295.92 340.32 292.04 331.95 315.88 328.26"/><path class="cls-61" d="M503.33,367.81l-23.84,3.69V353.37l23.84-3.68Zm-7.7.45v-6l-14,2.16v6Z" transform="translate(-177.51)"/><polygon class="cls-65" points="318.12 362.25 318.12 368.26 304.11 370.43 304.11 364.41 318.12 362.25"/><polygon class="cls-66" points="301.98 353.37 301.98 371.5 298.1 363.14 298.1 345.01 301.98 353.37"/><polygon class="cls-10" points="298.1 345.01 298.1 363.14 295.92 358.45 295.92 358.44 295.92 340.32 298.1 345.01 298.1 345.01"/><polygon class="cls-66" points="292.04 331.95 295.92 340.32 295.92 358.44 292.04 350.08 292.04 331.95"/><polygon class="cls-67" points="301.98 353.37 301.98 371.5 340.34 375.79 369.89 366.56 369.89 355.65 395.75 352.17 393.61 347.56 393.61 304.78 405.82 302.89 405.37 280.14 362.95 304.63 362.95 347.41 347.86 323.32 357.8 344.74 301.98 353.37"/><polygon class="cls-67" points="403.93 327.02 403.93 369.8 495.9 364.66 461.88 345.2 461.88 318.05 403.93 327.02"/></g></g></svg>