<?xml version="1.0"?>
<svg xmlns="http://www.w3.org/2000/svg" xmlns:xlink="http://www.w3.org/1999/xlink" xmlns:svgjs="http://svgjs.com/svgjs" version="1.1" width="512" height="512" x="0" y="0" viewBox="0 0 464.03 464.03" style="enable-background:new 0 0 512 512" xml:space="preserve" class=""><g>
<path xmlns="http://www.w3.org/2000/svg" style="" d="M352.028,119.176v-0.048h-240v0.048C49.697,119.638-0.458,170.541,0.003,232.873  C0.465,295.204,51.368,345.36,113.7,344.898c29.992-0.222,58.663-12.373,79.681-33.77h77.296  c43.685,44.457,115.139,45.083,159.596,1.398s45.083-115.139,1.398-159.596C410.66,131.548,382.005,119.403,352.028,119.176  L352.028,119.176z" fill="#8deaef" data-original="#dedede" class=""/>
<circle xmlns="http://www.w3.org/2000/svg" style="" cx="352.028" cy="231.128" r="96" fill="#1ab9b9" data-original="#c7c7c7" class=""/>
<circle xmlns="http://www.w3.org/2000/svg" style="" cx="352.028" cy="175.128" r="24" fill="#4398d1" data-original="#4398d1" class=""/>
<circle xmlns="http://www.w3.org/2000/svg" style="" cx="352.028" cy="287.128" r="24" fill="#fdb62f" data-original="#fdb62f" class=""/>
<circle xmlns="http://www.w3.org/2000/svg" style="" cx="296.028" cy="231.128" r="24" fill="#88b337" data-original="#88b337"/>
<circle xmlns="http://www.w3.org/2000/svg" style="" cx="408.028" cy="231.128" r="24" fill="#de4c3c" data-original="#de4c3c"/>
<path xmlns="http://www.w3.org/2000/svg" style="" d="M176.028,207.128h-40v-40h-48v40h-40v48h40v40h48v-40h40V207.128z" fill="#737373" data-original="#737373" class=""/>
<path xmlns="http://www.w3.org/2000/svg" style="" d="M88.028,255.128v40h48v-40h40v-48h-40L88.028,255.128z" fill="#666666" data-original="#666666" class=""/>
<path xmlns="http://www.w3.org/2000/svg" style="" d="M281.252,249.904c4.191,3.365,9.401,5.206,14.776,5.224c13.255,0,24-10.745,24-24  c-0.018-5.375-1.859-10.585-5.224-14.776L281.252,249.904z" fill="#77a61f" data-original="#77a61f" class=""/>
<path xmlns="http://www.w3.org/2000/svg" style="" d="M337.252,193.904c4.191,3.365,9.401,5.206,14.776,5.224c13.255,0,24-10.745,24-24  c-0.018-5.375-1.859-10.585-5.224-14.776L337.252,193.904z" fill="#3e8cc7" data-original="#3e8cc7" class=""/>
<path xmlns="http://www.w3.org/2000/svg" style="" d="M337.252,305.904c4.191,3.365,9.401,5.206,14.776,5.224c13.255,0,24-10.745,24-24  c-0.018-5.375-1.859-10.585-5.224-14.776L337.252,305.904z" fill="#ffa83d" data-original="#ffa83d"/>
<path xmlns="http://www.w3.org/2000/svg" style="" d="M393.252,249.904c4.191,3.365,9.401,5.206,14.776,5.224c13.255,0,24-10.745,24-24  c-0.018-5.375-1.859-10.585-5.224-14.776L393.252,249.904z" fill="#cf4031" data-original="#cf4031" class=""/>
<g xmlns="http://www.w3.org/2000/svg">
</g>
<g xmlns="http://www.w3.org/2000/svg">
</g>
<g xmlns="http://www.w3.org/2000/svg">
</g>
<g xmlns="http://www.w3.org/2000/svg">
</g>
<g xmlns="http://www.w3.org/2000/svg">
</g>
<g xmlns="http://www.w3.org/2000/svg">
</g>
<g xmlns="http://www.w3.org/2000/svg">
</g>
<g xmlns="http://www.w3.org/2000/svg">
</g>
<g xmlns="http://www.w3.org/2000/svg">
</g>
<g xmlns="http://www.w3.org/2000/svg">
</g>
<g xmlns="http://www.w3.org/2000/svg">
</g>
<g xmlns="http://www.w3.org/2000/svg">
</g>
<g xmlns="http://www.w3.org/2000/svg">
</g>
<g xmlns="http://www.w3.org/2000/svg">
</g>
<g xmlns="http://www.w3.org/2000/svg">
</g>
</g></svg>
