<svg xmlns="http://www.w3.org/2000/svg" xmlns:xlink="http://www.w3.org/1999/xlink" viewBox="0 0 2255.44 1526.96"><defs><style>.cls-1{mask:url(#mask);}.cls-2,.cls-4,.cls-6,.cls-8{mix-blend-mode:multiply;}.cls-2,.cls-34{fill:url(#linear-gradient);}.cls-3{mask:url(#mask-2);}.cls-36,.cls-4{fill:url(#linear-gradient-2);}.cls-5{mask:url(#mask-3);}.cls-38,.cls-6{fill:url(#linear-gradient-3);}.cls-7{mask:url(#mask-4);}.cls-57,.cls-8{fill:url(#linear-gradient-4);}.cls-30,.cls-9{fill:none;}.cls-10{fill:#e82728;}.cls-11{isolation:isolate;}.cls-12{fill:#5ad2d6;}.cls-13{fill:#027273;}.cls-14{fill:#013f40;}.cls-15{fill:#03c0c2;}.cls-16{fill:#0d0d0d;}.cls-17{fill:#fff;}.cls-18{clip-path:url(#clip-path);}.cls-19{fill:#e6e6e6;}.cls-20{fill:#04f2f5;}.cls-21{fill:#ffd84f;}.cls-22{fill:#03e484;}.cls-23{fill:#94f3f7;}.cls-24{fill:#f13005;}.cls-25{fill:#f1e3e0;}.cls-26{fill:#d62b04;}.cls-27{fill:#f1c5bc;}.cls-28{fill:gray;}.cls-29{fill:#636363;}.cls-30{stroke:gray;stroke-miterlimit:10;stroke-width:10px;}.cls-31,.cls-39,.cls-55{fill:#222;}.cls-32{fill:#ff3305;}.cls-33{mask:url(#mask-5);}.cls-34,.cls-36,.cls-38,.cls-57{opacity:0.5;mix-blend-mode:screen;}.cls-35{mask:url(#mask-6);}.cls-37{mask:url(#mask-7);}.cls-39{opacity:0.6;}.cls-39,.cls-55{mix-blend-mode:soft-light;}.cls-40{fill:#de7f04;}.cls-41{fill:#ffa305;}.cls-42{fill:#ccc;}.cls-43{fill:#737373;}.cls-44{fill:#b81f20;}.cls-45{fill:#32613f;}.cls-46{fill:#024545;}.cls-47{fill:#56a66b;}.cls-48{fill:#386b45;}.cls-49{fill:#417d51;}.cls-50{fill:#ffa794;}.cls-51{clip-path:url(#clip-path-2);}.cls-52{fill:#b3523d;}.cls-53{fill:#b33a20;}.cls-54{fill:#ff6162;}.cls-55{opacity:0.8;}.cls-56{mask:url(#mask-8);}.cls-58{fill:#fdf280;}.cls-59{filter:url(#luminosity-noclip-8);}.cls-60{filter:url(#luminosity-noclip-7);}.cls-61{filter:url(#luminosity-noclip-6);}.cls-62{filter:url(#luminosity-noclip-5);}.cls-63{filter:url(#luminosity-noclip-4);}.cls-64{filter:url(#luminosity-noclip-3);}.cls-65{filter:url(#luminosity-noclip-2);}.cls-66{filter:url(#luminosity-noclip);}</style><filter id="luminosity-noclip" x="970.72" y="-9192" width="634.27" height="32766" filterUnits="userSpaceOnUse" color-interpolation-filters="sRGB"><feFlood flood-color="#fff" result="bg"/><feBlend in="SourceGraphic" in2="bg"/></filter><mask id="mask" x="970.72" y="-9192" width="634.27" height="32766" maskUnits="userSpaceOnUse"><g class="cls-66"/></mask><linearGradient id="linear-gradient" x1="1558.93" y1="910.61" x2="734.12" y2="743.26" gradientTransform="translate(-15.44 18.89) rotate(-0.78)" gradientUnits="userSpaceOnUse"><stop offset="0" stop-color="#fff"/><stop offset="1"/></linearGradient><filter id="luminosity-noclip-2" x="1179.98" y="-9192" width="531.28" height="32766" filterUnits="userSpaceOnUse" color-interpolation-filters="sRGB"><feFlood flood-color="#fff" result="bg"/><feBlend in="SourceGraphic" in2="bg"/></filter><mask id="mask-2" x="1179.98" y="-9192" width="531.28" height="32766" maskUnits="userSpaceOnUse"><g class="cls-65"/></mask><linearGradient id="linear-gradient-2" x1="1675.7" y1="758.27" x2="988.47" y2="618.83" xlink:href="#linear-gradient"/><filter id="luminosity-noclip-3" x="672.24" y="-9192" width="489.13" height="32766" filterUnits="userSpaceOnUse" color-interpolation-filters="sRGB"><feFlood flood-color="#fff" result="bg"/><feBlend in="SourceGraphic" in2="bg"/></filter><mask id="mask-3" x="672.24" y="-9192" width="489.13" height="32766" maskUnits="userSpaceOnUse"><g class="cls-64"/></mask><linearGradient id="linear-gradient-3" x1="1121.32" y1="1322.72" x2="463.56" y2="1189.27" xlink:href="#linear-gradient"/><filter id="luminosity-noclip-4" x="1888.1" y="-9192" width="334.6" height="32766" filterUnits="userSpaceOnUse" color-interpolation-filters="sRGB"><feFlood flood-color="#fff" result="bg"/><feBlend in="SourceGraphic" in2="bg"/></filter><mask id="mask-4" x="1888.1" y="-9192" width="334.6" height="32766" maskUnits="userSpaceOnUse"><g class="cls-63"/></mask><linearGradient id="linear-gradient-4" x1="1902.36" y1="1149.1" x2="2230.19" y2="1143.37" xlink:href="#linear-gradient"/><clipPath id="clip-path" transform="translate(-63.04 -306.69)"><polygon class="cls-9" points="451.35 377.06 448.97 1573.92 870.35 1573.89 874.38 380.54 451.35 377.06"/></clipPath><filter id="luminosity-noclip-5" x="970.72" y="808.16" width="634.27" height="131.23" filterUnits="userSpaceOnUse" color-interpolation-filters="sRGB"><feFlood flood-color="#fff" result="bg"/><feBlend in="SourceGraphic" in2="bg"/></filter><mask id="mask-5" x="907.68" y="501.46" width="634.27" height="131.23" maskUnits="userSpaceOnUse"><g class="cls-62"><g transform="translate(-63.04 -306.69)"><g class="cls-1"><path class="cls-2" d="M1605,871c-199.92-7.89-410.07-31.23-625.67-62.8l-8.6,15C1186.82,886.71,1361,924.66,1523,939.38,1533.78,925,1581.54,880.62,1605,871Z"/></g></g></g></mask><filter id="luminosity-noclip-6" x="1179.98" y="690.24" width="531.28" height="71.58" filterUnits="userSpaceOnUse" color-interpolation-filters="sRGB"><feFlood flood-color="#fff" result="bg"/><feBlend in="SourceGraphic" in2="bg"/></filter><mask id="mask-6" x="1116.94" y="383.55" width="531.28" height="71.58" maskUnits="userSpaceOnUse"><g class="cls-61"><g transform="translate(-63.04 -306.69)"><g class="cls-3"><path class="cls-4" d="M1711.25,724.35c-199.92-7.9-328.14-11.71-526-34.11l-5.23,9.13c220.42,38.54,331.71,47.72,493.8,62.45C1676.53,750.48,1693.56,730.66,1711.25,724.35Z"/></g></g></g></mask><filter id="luminosity-noclip-7" x="672.24" y="1169.8" width="489.13" height="226.44" filterUnits="userSpaceOnUse" color-interpolation-filters="sRGB"><feFlood flood-color="#fff" result="bg"/><feBlend in="SourceGraphic" in2="bg"/></filter><mask id="mask-7" x="609.2" y="863.1" width="489.13" height="226.44" maskUnits="userSpaceOnUse"><g class="cls-60"><g transform="translate(-63.04 -306.69)"><g class="cls-5"><path class="cls-6" d="M1161.38,1305.39c-179.57-12.64-351-43.24-483.9-135.59l-5.24,9.13c133.61,118.92,265.36,192,445.23,217.31C1120.21,1384.9,1143.34,1331,1161.38,1305.39Z"/></g></g></g></mask><clipPath id="clip-path-2" transform="translate(-63.04 -306.69)"><path class="cls-10" d="M1750.68,835.91c8-13.49,12.08-31.61,16.72-50.6,23.8,3.16,55.26,6.52,89.08,6.13,9.61,0,14.67-69.28-62.81-80-31.27-4.33-70.25,6.25-86.77,37-17.79,33.09-13.32,70.54,2.5,87.27C1719.49,846.33,1739.84,848.61,1750.68,835.91Z"/></clipPath><filter id="luminosity-noclip-8" x="1888.1" y="1030.42" width="334.6" height="204.28" filterUnits="userSpaceOnUse" color-interpolation-filters="sRGB"><feFlood flood-color="#fff" result="bg"/><feBlend in="SourceGraphic" in2="bg"/></filter><mask id="mask-8" x="1825.06" y="723.73" width="334.6" height="204.28" maskUnits="userSpaceOnUse"><g class="cls-59"><g transform="translate(-63.04 -306.69)"><g class="cls-7"><polygon class="cls-8" points="1900.15 1045.09 2222.7 1030.42 2189.63 1234.7 1888.1 1155.54 1900.15 1045.09"/></g></g></g></mask></defs><title>Online_Shoping_29 [Converti]</title><g class="cls-11"><g id="illustration"><g id="Layer_3" data-name="Layer 3"><path class="cls-12" d="M892.19,1602.53H449s-131.65-7.33-128.69,32.52c3.47,46.88,513.47,16,550.75,45.46s56.8,64.15,123.29,81,192.5-26,545.69,20.9C1753.74,1738.53,1061.22,1602.53,892.19,1602.53Z" transform="translate(-63.04 -306.69)"/></g><path class="cls-13" d="M363.94,380.29c-.59-80.07,151.32-91.82,149.53-49.7l272.72,1c31.55.45,57,29,56.92,63.78l-3.59,1161.37c-.11,34-25.46,61.61-56.65,61.62L494,1619.76c-2.78,5.67-8,10.81-16.23,15.07-80.83-.64-117.57-32.48-117.89-73.47C356.86,1553.8,360.68,395.35,363.94,380.29Z" transform="translate(-63.04 -306.69)"/><path class="cls-14" d="M395.1,856.85h0a11.93,11.93,0,0,0,12.28-11.76L410,541.87a12.5,12.5,0,0,0-12.17-12.5h0a12,12,0,0,0-12.36,11.93L383,844.54A12.36,12.36,0,0,0,395.1,856.85Z" transform="translate(-63.04 -306.69)"/><path class="cls-15" d="M482.59,1635.05l355.43-.4c32.3,0,58.58-28.25,58.7-63.23L901,377c.13-35.77-26.25-65.09-58.94-65.47l-356.47-4.63c-32.95-.37-59.73,28.47-59.79,64.41l-2.11,1200.06C423.67,1606.47,450,1635,482.59,1635.05Z" transform="translate(-63.04 -306.69)"/><path class="cls-16" d="M475.4,1626.57a47.48,47.48,0,0,0,6.54.45l355.35-1c27.76,0,50.58-24.81,50.68-55.35l4.22-1193.15c.11-31.23-22.79-56.94-50.88-57.29l-356.37-5.2c-.81,0-1.64,0-2.46,0a48.83,48.83,0,0,0-34.61,16.59,58.31,58.31,0,0,0-14.52,39L431.16,1572C431.11,1599.62,450.06,1623.08,475.4,1626.57Z" transform="translate(-63.04 -306.69)"/><polygon class="cls-17" points="388.68 70.37 386.3 1267.23 807.68 1267.2 811.71 73.84 388.68 70.37"/><g class="cls-18"><rect class="cls-19" x="312.74" y="184.37" width="514" height="1123.28"/><polygon class="cls-20" points="889.4 1166.88 55.72 914 88.74 886.54 872.04 1090.23 889.4 1166.88"/><rect class="cls-17" x="573.85" y="874.29" width="17.88" height="987.61" transform="translate(-956.49 1240.5) rotate(-73.84)"/><path class="cls-21" d="M565.34,936.25a223.28,223.28,0,0,0-44.87,0c-69.18,6.93-128.59,46.72-137.49,99-9.79,57.46,44,109.59,125.38,119.56a220.89,220.89,0,0,0,27,1.66,225.15,225.15,0,0,0,27.18-1.66c82.06-10,139.4-62.1,133.53-119.56C690.75,983,634.06,943.18,565.34,936.25Zm-2.29,179.9a156.65,156.65,0,0,1-26.37,2.21,153.51,153.51,0,0,1-26.18-2.21c-51.92-8.88-86.65-42.79-81.67-80.93,4.67-35.77,43.13-64,90.09-70.94a156.75,156.75,0,0,1,23.07-1.7,155.09,155.09,0,0,1,23,1.7c46.48,6.94,83,35.17,85.25,70.94C652.61,1073.36,615.58,1107.24,563.05,1116.15Z" transform="translate(-63.04 -306.69)"/><path class="cls-21" d="M567.11,797.35,565,964.28a155.09,155.09,0,0,0-23-1.7,156.75,156.75,0,0,0-23.07,1.7l9.25-166.93Z" transform="translate(-63.04 -306.69)"/><path class="cls-21" d="M986.65,1052.67H661.5A55,55,0,0,0,663,1035.2a56.13,56.13,0,0,0-4-16.93H974.62Z" transform="translate(-63.04 -306.69)"/><path class="cls-21" d="M535.73,1146.1a142,142,0,0,0,27-2.56l-4.87,430.69H487.75L509,1143.54A138.78,138.78,0,0,0,535.73,1146.1Z" transform="translate(-63.04 -306.69)"/><polygon class="cls-17" points="289.44 600.74 208.7 600.74 220.65 560.99 305.21 560.99 289.44 600.74"/><polygon class="cls-17" points="388.45 600.74 307.7 600.74 324.33 560.99 408.89 560.99 388.45 600.74"/><polygon class="cls-17" points="445.81 560.99 424.67 560.99 403.52 600.74 442.99 600.74 445.81 560.99"/><polygon class="cls-17" points="272.81 646.06 196.42 646.06 207.14 610.57 286.94 610.57 272.81 646.06"/><path class="cls-17" d="M429.87,951.43l.43-.19,17.53-34H368l-14.9,35.49h74.06C428.08,952.31,429,951.86,429.87,951.43Z" transform="translate(-63.04 -306.69)"/><path class="cls-17" d="M479.44,935.64c8.17-1.39,16.45-1.59,24.7-1.66l1.13-15.93H460.91l-14,26.3A188.66,188.66,0,0,1,479.44,935.64Z" transform="translate(-63.04 -306.69)"/><polygon class="cls-17" points="257.39 684.75 184.72 684.75 194.41 652.7 270.16 652.7 257.39 684.75"/><path class="cls-17" d="M415,959.4H350.34l-13.47,32.05h43.45C388.12,979.2,400.25,968.33,415,959.4Z" transform="translate(-63.04 -306.69)"/><path class="cls-22" d="M630.08,1035.22c1.62,36.13-39.9,67.13-92.83,67.13s-92.34-31-88.26-67.13c3.84-34,45.2-60.11,92.59-60.11S628.56,1001.22,630.08,1035.22Z" transform="translate(-63.04 -306.69)"/><path class="cls-20" d="M542.87,980s78.52,9.22,68.63,49.59c-10.64,43.45-54.24,43.45-47.54,15.44,6.39-26.71-16.89-32.52-29.2-44.73C522.72,988.37,522.39,980.51,542.87,980Z" transform="translate(-63.04 -306.69)"/><path class="cls-22" d="M580.61,856.06l.14,68.91s107.25,20.84,124,84.83h228.5L874.75,857.29Z" transform="translate(-63.04 -306.69)"/><polygon class="cls-17" points="765.78 824.64 665.36 824.64 652.45 764.09 743.43 764.09 765.78 824.64"/><polygon class="cls-17" points="890.53 824.64 790.12 824.64 765.48 764.09 856.46 764.09 890.53 824.64"/><polygon class="cls-17" points="800.31 918.22 685.32 918.22 668.61 839.87 771.39 839.87 800.31 918.22"/><polygon class="cls-17" points="943.18 918.22 828.18 918.22 796.31 839.87 899.1 839.87 943.18 918.22"/><polygon class="cls-17" points="842.21 1047.87 808.25 939.74 689.9 939.74 700.73 1013.18 842.21 1047.87"/><path class="cls-17" d="M659.6,1146.56c-14.87,14.45-33,27.73-54.36,35.48l1.53,42.87H721.12l-13.82-78.35Z" transform="translate(-63.04 -306.69)"/><path class="cls-17" d="M971.07,1310.09q47.53,11.43,96.15,23.22l-48.89-86.88H900l21,51.63Z" transform="translate(-63.04 -306.69)"/><path class="cls-17" d="M242.45,1068.38c14,1.22,28.09,2.16,42.3,3,.56-4.51,1.14-9,1.55-13.42a274.7,274.7,0,0,0,1.3-33.52c0-1.28-.13-2.55-.19-3.83H239.16l-14.49,46.09C230.58,1067.26,236.5,1067.85,242.45,1068.38Z" transform="translate(-63.04 -306.69)"/><path class="cls-17" d="M230.1,1083.6c-3.48-.34-6.95-.7-10.42-1.06l-12.77,40.6,66.64,15.68c3.27-17.69,6.45-34.9,9-51.61C264.93,1086.27,247.34,1085.29,230.1,1083.6Z" transform="translate(-63.04 -306.69)"/><path class="cls-17" d="M306.5,1072.47c19.93,1,39.94,1.73,59.88,2.67-7.92-31,1.71-54.57,1.71-54.57H308.82c0,.89.07,1.77.1,2.65C309.46,1039.09,308.39,1055.52,306.5,1072.47Z" transform="translate(-63.04 -306.69)"/><path class="cls-17" d="M372.17,1091.72q-33.9-1.63-67.65-3.38c-2.47,18-5.61,36.57-8.74,55.71l119.69,28.17s4-7.55,3.25-25.66C394.15,1128.55,380,1109.4,372.17,1091.72Z" transform="translate(-63.04 -306.69)"/><path class="cls-22" d="M136.09,1264.7c6.15.13,335.5,99,335.5,99l-9.32,128.53H63Z" transform="translate(-63.04 -306.69)"/><rect class="cls-23" x="315.93" y="186.42" width="509.85" height="367.79"/><polygon class="cls-17" points="548.29 938.33 659.26 941.99 665.13 1011.36 547.59 977.74 548.29 938.33"/><polygon class="cls-17" points="226.98 852.08 347.47 880.83 332.87 935.6 212.38 899.08 226.98 852.08"/><polygon class="cls-17" points="205.99 845.23 187.73 894.52 148.48 880.83 164.91 834.35 205.99 845.23"/><polygon class="cls-17" points="373.03 852.08 355.69 940.16 423.23 956.59 432.36 868.96 373.03 852.08"/></g><polygon class="cls-24" points="684.52 259.81 636.95 259.42 484.05 71.15 531.84 71.55 684.52 259.81"/><polygon class="cls-25" points="636.95 259.42 589.41 259.03 436.27 70.76 484.05 71.15 636.95 259.42"/><polygon class="cls-24" points="589.41 259.03 541.83 258.64 388.51 70.37 436.27 70.76 589.41 259.03"/><polygon class="cls-25" points="732.06 260.2 684.52 259.81 531.84 71.55 579.59 71.94 732.06 260.2"/><polygon class="cls-25" points="827.16 260.97 779.63 260.58 627.37 72.33 675.12 72.72 827.16 260.97"/><polygon class="cls-24" points="965.15 262.1 922.26 261.75 770.65 73.5 813.69 73.86 965.15 262.1"/><polygon class="cls-25" points="922.26 261.75 874.73 261.36 722.9 73.11 770.65 73.5 922.26 261.75"/><polygon class="cls-24" points="779.63 260.58 732.06 260.2 579.59 71.94 627.37 72.33 779.63 260.58"/><polygon class="cls-24" points="874.73 261.36 827.16 260.97 675.12 72.72 722.9 73.11 874.73 261.36"/><path class="cls-26" d="M652.45,565.72l0,28.66c0,30.37-47.49,30-47.55-.38l0-28.66Z" transform="translate(-63.04 -306.69)"/><path class="cls-27" d="M700,566.11l0,28.66c0,30.37-47.49,30-47.5-.39l0-28.66Z" transform="translate(-63.04 -306.69)"/><path class="cls-26" d="M747.56,566.5l0,28.66c0,30.37-47.55,30-47.54-.39l0-28.66Z" transform="translate(-63.04 -306.69)"/><path class="cls-27" d="M795.1,566.89,795,595.55c-.09,30.36-47.56,30-47.51-.39l0-28.66Z" transform="translate(-63.04 -306.69)"/><path class="cls-26" d="M842.67,567.28l-.11,28.66c-.12,30.36-47.63,30-47.54-.39l.08-28.66Z" transform="translate(-63.04 -306.69)"/><path class="cls-27" d="M890.2,567.67l-.14,28.65c-.15,30.37-47.62,30-47.5-.38l.11-28.66Z" transform="translate(-63.04 -306.69)"/><path class="cls-26" d="M937.77,568.06l-.17,28.65c-.19,30.37-47.69,30-47.54-.39l.14-28.65Z" transform="translate(-63.04 -306.69)"/><path class="cls-27" d="M985.31,568.44l-.21,28.66c-.22,30.36-47.69,30-47.5-.39l.17-28.65Z" transform="translate(-63.04 -306.69)"/><path class="cls-26" d="M1028.2,568.79l-.24,28.66c-.25,30.36-43.08,30-42.86-.35l.21-28.66Z" transform="translate(-63.04 -306.69)"/><polygon class="cls-24" points="541.83 258.64 545.56 259.16 388.31 257.76 388.51 70.37 541.83 258.64"/><path class="cls-28" d="M589.6,1326.21c-22.21-22.14,12.81-75.28,64.48-125.38a620.25,620.25,0,0,1,68-56.94,7.52,7.52,0,0,0,2-1.44l1.06-.76a2.76,2.76,0,0,0-.12-.79,2.79,2.79,0,0,0,.1-1.15l-14.12-74,109.68-1a4.88,4.88,0,0,0,4.52-6.71l-19.85-48.76a4.88,4.88,0,0,0-4.51-3h-100a116.93,116.93,0,0,0-20.5-32c-14.82-16.73-42-38.2-87-45.51-10-.4-9.56,8.63-1.56,9.63,33.73,5.46,61,19.59,81,42,15,16.75,20.05,32.12,20.1,32.27a4.89,4.89,0,0,0,4.65,3.39H797.59l15.88,39H703.88c-7,.19-9,4.92-8.87,11l7.58,67.76c-69.52,38.87-147.45,90.12-183,121.58-48.15,42.56-47.61,117.11,11,171.92,133.54,124.87,349.83,208.88,576.1,264.88,453.91,112.34,755.26,132.58,785.36,135.32,102.64,8.43,235.92-7.15,223.66-123.06s181.88-108.12,202.81-113.3C2088.16,1581.81,782.68,1518.61,589.6,1326.21Z" transform="translate(-63.04 -306.69)"/><path class="cls-29" d="M2318.49,1591c-65.54-1.59-192.83,3.88-207.35,91-1.56,10.24-.37,20.56.36,30.77,1.39,23.07-4.57,46.84-19.92,64.43-47.68,49.72-125,48.69-189.27,46.39-193.24-14.9-385.09-46.14-574.86-85.1-211.14-44.79-425.67-91.9-618.67-191.77C639.58,1509.8,571,1467.41,517,1409.9c-38.43-43.46-43.22-114.48,2.6-154.64-26.82,22.19-40.23,58.42-34.9,92.78,11.71,77.77,102.13,128.09,162.18,169.08,137,83.31,290.9,134.7,445.42,174.68,265.94,66.09,536.06,118.51,809.45,140.87,73.93,3.51,184.7,1.85,214.59-80.65,8.41-22.41,2.41-45.79,4.39-68.72,11.88-77.84,140.58-85.5,197.8-86.09Z" transform="translate(-63.04 -306.69)"/><path class="cls-30" d="M591.8,938.31" transform="translate(-63.04 -306.69)"/><path class="cls-17" d="M717,1483.62c56.81,25.23,123,48,194.84,68.52,3.88-5.9,10.65-17.07,12.67-19.7-69.7-17.44-133.92-37-189.35-58.86Q726.06,1478.62,717,1483.62Z" transform="translate(-63.04 -306.69)"/><path class="cls-17" d="M541.06,1330.39a93,93,0,0,0-9.58,2.92c3,13.73,11.39,29.16,21.66,41.69,1.57,1.85,3.19,3.68,4.86,5.51l10.42-7.26C557.55,1361.37,546.79,1346.29,541.06,1330.39Z" transform="translate(-63.04 -306.69)"/><path class="cls-17" d="M625,1201.4c8.42-6.53,17.23-13.17,26.61-20.42-1.08-.36-2.16-.72-3.26-1-9.22,6.11-18.89,12.6-28.55,19.38C621.5,1200,623.23,1200.71,625,1201.4Z" transform="translate(-63.04 -306.69)"/><path class="cls-17" d="M608.35,1212c-11.83,8.45-23.51,17.31-34.21,26.4,2.34,1.48,4.81,2.81,7.28,4.06a384.68,384.68,0,0,1,32.46-28.19C612,1213.49,610.18,1212.74,608.35,1212Z" transform="translate(-63.04 -306.69)"/><path class="cls-17" d="M568.42,1257.71a76.22,76.22,0,0,1-8.16-5.09c-21.92,20.92-32.82,39.73-30.82,63.27a98.38,98.38,0,0,0,11.68-.8C540.64,1289.61,556.83,1270.44,568.42,1257.71Z" transform="translate(-63.04 -306.69)"/><path class="cls-17" d="M587.54,1408.18c21.13,17.22,46.43,33.55,75.24,49q7.82-4.18,15.62-8.4c-31-15.07-57.95-31.12-79.95-48.22Z" transform="translate(-63.04 -306.69)"/><path class="cls-17" d="M1029.19,1556.33l-24.05,20.52c88.66,21.82,183,40.77,277.38,57.22,8.87-5.78,30.12-23.82,36.63-28.56C1220.8,1591.91,1122,1575.67,1029.19,1556.33Z" transform="translate(-63.04 -306.69)"/><path class="cls-17" d="M1948.75,1668.09c-92.23-6.41-299.37-24.15-424.49-37.56q-23.4,17.22-46.84,34.4c117.69,17,319.67,38.62,411.93,49.1Q1918.83,1690.78,1948.75,1668.09Z" transform="translate(-63.04 -306.69)"/><ellipse class="cls-31" cx="530.83" cy="624.05" rx="35.92" ry="11.5"/><path class="cls-17" d="M606.79,929.75c0,2.51-6.36,4.55-14.21,4.55s-14.21-2-14.21-4.55,6.36-4.56,14.21-4.56S606.79,927.23,606.79,929.75Z" transform="translate(-63.04 -306.69)"/><path class="cls-32" d="M592.57,722.62a74.11,74.11,0,0,0-74.09,74.09c0,40.93,74.09,115.76,74.09,115.76s74.11-74.83,74.11-115.76A74.11,74.11,0,0,0,592.57,722.62Zm0,115.74a41.8,41.8,0,1,1,41.82-41.8A41.79,41.79,0,0,1,592.57,838.36Z" transform="translate(-63.04 -306.69)"/><path class="cls-17" d="M1152.75,633.1c0-.66.09-1.32.09-2a25.4,25.4,0,1,0-50.8,0c0,.67,0,1.33.08,2Z" transform="translate(-63.04 -306.69)"/><path class="cls-17" d="M1236.2,633.1c0-.66.08-1.32.08-2a25.4,25.4,0,1,0-50.8,0c0,.67,0,1.33.09,2Z" transform="translate(-63.04 -306.69)"/><path class="cls-17" d="M1257.81,633.1a18.81,18.81,0,0,0,.11-2,18,18,0,0,0-35.92,0,18.81,18.81,0,0,0,.11,2Z" transform="translate(-63.04 -306.69)"/><path class="cls-17" d="M1207,633.1a37.21,37.21,0,1,0-73.82,0Z" transform="translate(-63.04 -306.69)"/><path class="cls-17" d="M1433,540.18c.09-1.07.14-2.15.14-3.25a41.43,41.43,0,0,0-82.86,0c0,1.1,0,2.18.14,3.25Z" transform="translate(-63.04 -306.69)"/><path class="cls-17" d="M1569.13,540.18c.08-1.07.13-2.15.13-3.25a41.43,41.43,0,0,0-82.86,0c0,1.1.06,2.18.14,3.25Z" transform="translate(-63.04 -306.69)"/><path class="cls-17" d="M1604.37,540.18a29.3,29.3,0,1,0-58.22,0Z" transform="translate(-63.04 -306.69)"/><path class="cls-17" d="M1521.47,540.18a61.54,61.54,0,0,0,.49-7.72,60.7,60.7,0,1,0-121.39,0,61.55,61.55,0,0,0,.48,7.72Z" transform="translate(-63.04 -306.69)"/><path class="cls-17" d="M263.9,1376c0-.65-.09-1.3-.09-2a24.9,24.9,0,0,1,49.8,0c0,.65,0,1.3-.09,2Z" transform="translate(-63.04 -306.69)"/><path class="cls-17" d="M182.11,1376c-.05-.65-.09-1.3-.09-2a24.9,24.9,0,0,1,49.8,0c0,.65,0,1.3-.09,2Z" transform="translate(-63.04 -306.69)"/><path class="cls-17" d="M210.74,1376a37.41,37.41,0,0,1-.29-4.64,36.47,36.47,0,1,1,72.94,0,37.41,37.41,0,0,1-.29,4.64Z" transform="translate(-63.04 -306.69)"/><g class="cls-33"><path class="cls-34" d="M1605,871c-199.92-7.89-410.07-31.23-625.67-62.8l-8.6,15C1186.82,886.71,1361,924.66,1523,939.38,1533.78,925,1581.54,880.62,1605,871Z" transform="translate(-63.04 -306.69)"/></g><g class="cls-35"><path class="cls-36" d="M1711.25,724.35c-199.92-7.9-328.14-11.71-526-34.11l-5.23,9.13c220.42,38.54,331.71,47.72,493.8,62.45C1676.53,750.48,1693.56,730.66,1711.25,724.35Z" transform="translate(-63.04 -306.69)"/></g><g class="cls-37"><path class="cls-38" d="M1161.38,1305.39c-179.57-12.64-351-43.24-483.9-135.59l-5.24,9.13c133.61,118.92,265.36,192,445.23,217.31C1120.21,1384.9,1143.34,1331,1161.38,1305.39Z" transform="translate(-63.04 -306.69)"/></g><path class="cls-39" d="M1186.31,1523.35l714.62,72.94c88.88,16.2,16.41,98.08-154.18,86.59,0,0-417.19-50.56-634.06-84.05C1034.32,1586.72,1054.46,1506.65,1186.31,1523.35Z" transform="translate(-63.04 -306.69)"/><polygon class="cls-40" points="1265.8 887.77 1033.91 867.28 1037.86 625.47 1269.75 645.96 1265.8 887.77"/><polygon class="cls-40" points="1029.27 616.45 1028.44 667.25 1276.28 689.15 1277.15 635.87 1029.27 616.45"/><polygon class="cls-41" points="1148.5 879.34 956.39 862.3 960.36 620.5 1152.47 637.53 1148.5 879.34"/><polygon class="cls-41" points="953.28 610.5 952.43 662.41 1157.75 680.62 1158.6 626.58 953.28 610.5"/><rect class="cls-40" x="1141.83" y="859.56" width="2.36" height="241.55" transform="translate(2.51 1725.6) rotate(-84.93)"/><polygon class="cls-17" points="997.98 865.99 983.59 864.72 987.74 613.12 1002.12 614.4 997.98 865.99"/><polygon class="cls-17" points="1118.38 876.78 1104 875.51 1108.13 622.82 1122.51 624.09 1118.38 876.78"/><ellipse class="cls-31" cx="1301.3" cy="1464.79" rx="105.02" ry="98.34" transform="translate(-557.46 1941.92) rotate(-71.96)"/><path class="cls-31" d="M1424.81,1472.52c-5.59,60.32-54,106.27-117.37,102.3s-110.21-56.09-104.61-116.41,61.51-106,124.88-102.05S1430.41,1412.19,1424.81,1472.52Z" transform="translate(-63.04 -306.69)"/><ellipse class="cls-42" cx="1301.3" cy="1464.79" rx="74.26" ry="69.53" transform="translate(-557.46 1941.92) rotate(-71.96)"/><ellipse class="cls-43" cx="1298.56" cy="1464.4" rx="34.62" ry="32.42" transform="translate(-558.98 1939.05) rotate(-71.96)"/><path class="cls-10" d="M1582.72,1445.79c-17.82,1.6-213-1.08.17-218.43-241.69-21.95-358.13-67.8-456.44,213.6l436.91,36.12C1584.23,1478.39,1588.51,1453.38,1582.72,1445.79Z" transform="translate(-63.04 -306.69)"/><path class="cls-31" d="M1617.91,1229.44,1379.51,1210c-25.72-2.13-21.08-57,4.64-54.83l238.41,19.48C1653.31,1177.15,1648.67,1232,1617.91,1229.44Z" transform="translate(-63.04 -306.69)"/><path class="cls-31" d="M1332.36,1214.13,1127.91,1198a10.3,10.3,0,0,1-9.47-11.15h0a10.47,10.47,0,0,1,11.25-9.52l204.45,16.14a10.29,10.29,0,0,1,9.47,11.15h0A10.47,10.47,0,0,1,1332.36,1214.13Z" transform="translate(-63.04 -306.69)"/><rect class="cls-31" x="1179.54" y="1176.53" width="11.16" height="122.36" transform="translate(-572.22 674.54) rotate(-37.64)"/><path class="cls-44" d="M1540,1225.65s-204.15,213.62.11,223.83c40.5,1.08,42.65-3.69,42.65-3.69-58.56-10-114-32.24-66.55-108,39.24-62.68,105.44-108.86,105.44-108.86Z" transform="translate(-63.04 -306.69)"/><path class="cls-44" d="M1426.19,1465.42a180.91,180.91,0,0,0,8.41-20.85c26.08-78.48-13.69-138.14-85.32-153.07-161.45-33.65-208.23,143.31-209.56,150.23Z" transform="translate(-63.04 -306.69)"/><path class="cls-10" d="M1388.68,1462.31a184.42,184.42,0,0,0,8.41-20.84c26.07-78.49-12.13-147-85.32-153.07S1158.1,1341.07,1132,1419.55a166.38,166.38,0,0,0-5.52,21.09Z" transform="translate(-63.04 -306.69)"/><path class="cls-31" d="M1330.67,1361.48l-94.83-5.8a3.24,3.24,0,0,1-3.06-3.53l0-.32a3.48,3.48,0,0,1,3.67-3.12l94.82,5.79a3.26,3.26,0,0,1,3.07,3.53l0,.33A3.5,3.5,0,0,1,1330.67,1361.48Z" transform="translate(-63.04 -306.69)"/><path class="cls-31" d="M1329.22,1377.32l-94.83-5.79a3.24,3.24,0,0,1-3.06-3.53l0-.33a3.49,3.49,0,0,1,3.67-3.11l94.83,5.79a3.24,3.24,0,0,1,3.06,3.53l0,.32A3.5,3.5,0,0,1,1329.22,1377.32Z" transform="translate(-63.04 -306.69)"/><path class="cls-31" d="M1327.78,1393.16l-94.83-5.79a3.25,3.25,0,0,1-3.07-3.53l0-.32a3.5,3.5,0,0,1,3.68-3.12l94.82,5.79a3.26,3.26,0,0,1,3.07,3.53l0,.33A3.49,3.49,0,0,1,1327.78,1393.16Z" transform="translate(-63.04 -306.69)"/><path class="cls-31" d="M1326.33,1409l-94.83-5.79a3.25,3.25,0,0,1-3.06-3.53l0-.33a3.49,3.49,0,0,1,3.67-3.11L1327,1402a3.24,3.24,0,0,1,3.06,3.53l0,.32A3.5,3.5,0,0,1,1326.33,1409Z" transform="translate(-63.04 -306.69)"/><path class="cls-45" d="M1674.4,913.09s-28.58,101.19-17.12,140.21c23.48,39.25,201.06,35.5,201.06,35.5l13-28.77-117.21-35.44,11.83-71C1777.8,889.61,1705.54,867.66,1674.4,913.09Z" transform="translate(-63.04 -306.69)"/><path class="cls-46" d="M1556.49,1443.81l72.34,6.13c19.1-25.4,148.76-199.69,152.15-240.13,2.85-33.9-10.35-67-95-102.52-56.73-23.85-122.14-12-122.14-12s-47.83,50.31-8.08,80.14,115.27,47.43,115.27,47.43Z" transform="translate(-63.04 -306.69)"/><path class="cls-31" d="M1556.19,1444.36l146.45,11.36s44.45-18,13.59-56.46c-24.14-22.62-72.74-11.26-90.9,13.68l-50.31-3.16Z" transform="translate(-63.04 -306.69)"/><path class="cls-13" d="M1475.87,1438.77l72.35,6.12c19.09-25.39,148.76-199.68,152.15-240.13,2.85-33.89-10.35-67-95-102.52-56.73-23.85-97-17.82-116.76-13.21s-53.22,51.47-13.47,81.31,115.28,47.43,115.28,47.43Z" transform="translate(-63.04 -306.69)"/><path class="cls-31" d="M1475.57,1439.32,1622,1450.68s44.45-18,13.59-56.46c-24.14-22.63-72.74-11.26-90.91,13.68l-50.31-3.17C1469.78,1416.7,1474.74,1428,1475.57,1439.32Z" transform="translate(-63.04 -306.69)"/><path class="cls-47" d="M1672.56,1107.73c36-14.86,59.84-92,83.1-139.57,41.58-85-89.91-145.74-160.23-70.76-64.83,65.38-133.17,127.95-124.66,203.31C1532,1130.47,1645.15,1121.73,1672.56,1107.73Z" transform="translate(-63.04 -306.69)"/><path class="cls-48" d="M1646.31,1116.48l-1.15-2.06c12.3-6.88,17-21.83,22.38-39.14,5-16.13,10.77-34.42,24.12-48.79,34.56-49,44.54-84.09,46.82-104.93,2.47-22.52-3.28-33.63-3.33-33.74l2.07-1.11c.25.46,6.11,11.68,3.63,34.83-2.26,21.16-12.31,56.8-47.31,106.37l-.1.12c-13,14-18.67,32-23.65,48C1664.23,1093.78,1659.43,1109.14,1646.31,1116.48Z" transform="translate(-63.04 -306.69)"/><path class="cls-49" d="M1596.89,905.21s-98.38,95.23-68.05,148.18c24.41,42.59,175.87,51.61,186.06,40.09l13-28.77c-11-26-67.17-36.48-111.65-46.67l50.66-46.31C1711,928.93,1652.26,856.25,1596.89,905.21Z" transform="translate(-63.04 -306.69)"/><path class="cls-49" d="M1742.14,914.63s8.35,5,7.19,17.46c17.23-13.81,0-59.26-43.78-75.15C1664,841.87,1742.14,914.63,1742.14,914.63Z" transform="translate(-63.04 -306.69)"/><path class="cls-50" d="M1693.22,865.89c-12.72,13.62,48.92,48.74,48.92,48.74l43.31-58.49-50.33-33Z" transform="translate(-63.04 -306.69)"/><path class="cls-50" d="M1718.89,805.79s13.49,88.72,86.48,81.21c32.67-3.36,47-51.82,46.79-80.15-.47-62.29-54.52-93-87.16-79.18C1710.88,750.56,1718.64,797.41,1718.89,805.79Z" transform="translate(-63.04 -306.69)"/><path class="cls-31" d="M1729.36,839.5s14.09,40.16,49.72,47.6c14.37,2,18.1.35,18.1.35-5.94-.19-45.39-12.27-51.63-56.24C1743.33,822.74,1726.51,829.12,1729.36,839.5Z" transform="translate(-63.04 -306.69)"/><path class="cls-10" d="M1750.68,835.91c8-13.49,12.08-31.61,16.72-50.6,23.8,3.16,55.26,6.52,89.08,6.13,9.61,0,14.67-69.28-62.81-80-31.27-4.33-70.25,6.25-86.77,37-17.79,33.09-13.32,70.54,2.5,87.27C1719.49,846.33,1739.84,848.61,1750.68,835.91Z" transform="translate(-63.04 -306.69)"/><g class="cls-51"><path class="cls-17" d="M1834.83,790.67l-4.34.88c7.36-28-10.1-49.57-21.55-58.83-19.64-15.89-47.58-23.58-61-16.79l-1.72-3.42c14.87-7.51,44.1.22,65.14,17.24C1823.51,739.59,1842.73,760.58,1834.83,790.67Z" transform="translate(-63.04 -306.69)"/><path class="cls-17" d="M1842.57,793.29l-3.67-1.08c5.9-20.05.91-39.91-14-55.92-17.06-18.29-43.37-27.29-65.43-22.42l-.83-3.73c23.35-5.16,51.1,4.3,69.06,23.54C1843.57,750.72,1848.86,771.89,1842.57,793.29Z" transform="translate(-63.04 -306.69)"/></g><path class="cls-52" d="M1816.8,833.27a32.24,32.24,0,0,1-6.28-.53,1.27,1.27,0,1,1,.5-2.5c.1,0,9.76,1.9,14.67-2a1.69,1.69,0,0,0,.64-1.35c.25-4.38-8-13.47-11.16-16.6a1.27,1.27,0,1,1,1.78-1.82c1.26,1.24,12.27,12.25,11.93,18.56a4.25,4.25,0,0,1-1.62,3.22C1824.32,832.59,1820.22,833.22,1816.8,833.27Z" transform="translate(-63.04 -306.69)"/><path class="cls-31" d="M1786.75,805c-.32,3.48-2.69,6.18-5.28,6s-4.44-3.12-4.11-6.61,2.69-6.18,5.28-6S1787.07,801.46,1786.75,805Z" transform="translate(-63.04 -306.69)"/><path class="cls-31" d="M1842.23,809.27c-.28,3-2.3,5.28-4.52,5.14s-3.79-2.66-3.51-5.64,2.3-5.29,4.52-5.15S1842.5,806.29,1842.23,809.27Z" transform="translate(-63.04 -306.69)"/><path class="cls-53" d="M1781.22,838.3s14.22,17.42,46.49,15.24c0,0-18.29,24.9-40,14.58S1781.22,838.3,1781.22,838.3Z" transform="translate(-63.04 -306.69)"/><path class="cls-31" d="M1767.4,785.31c35.76,3.71,70.21,7,90.87,5.69,0,0,23.71,7.27,17.44,12.12S1767.4,785.31,1767.4,785.31Z" transform="translate(-63.04 -306.69)"/><path class="cls-49" d="M1705.55,856.94s-13.29-6.2-19.67,7.08c1.72,33.27,27,64.76,40.08,67.89,2.12-5.38,6.65-12,16.18-17.28C1742.14,914.63,1705.64,884.37,1705.55,856.94Z" transform="translate(-63.04 -306.69)"/><ellipse class="cls-31" cx="1863.25" cy="1519.76" rx="98.6" ry="92.33" transform="translate(-221.77 2514.21) rotate(-71.96)"/><path class="cls-31" d="M1979.21,1527c-5.25,56.64-50.7,99.78-110.2,96s-103.47-52.66-98.21-109.3,57.75-99.53,117.25-95.81S1984.47,1470.38,1979.21,1527Z" transform="translate(-63.04 -306.69)"/><ellipse class="cls-42" cx="1863.25" cy="1519.76" rx="69.72" ry="65.28" transform="translate(-221.77 2514.21) rotate(-71.96)"/><ellipse class="cls-43" cx="1860.68" cy="1519.4" rx="32.51" ry="30.44" transform="translate(-223.2 2511.52) rotate(-71.96)"/><path class="cls-10" d="M1910.91,1444.06c-18.69,23.65-44,41.25-73.31,48.6-1.78.44-3.57.86-5.37,1.22-2.89.6-5.79,1.09-8.72,1.46a126.69,126.69,0,0,1-19.86,1.05c-2.52-.05-5-.19-7.55-.39l-1.9-.16-115.76-9.57h0L1568,1478.62c-51.93-3.25-45.8-23,3.83-29.93,154.62.63,223.82-163.67,184.72-250-13.33-31.58,22-55.81,55.94-61a88,88,0,0,1,13.11-1,67.13,67.13,0,0,1,8.6.51c.88.12,1.73.23,2.59.38a72.43,72.43,0,0,1,12.53,2.76c12.16,3.86,22.79,11.08,29.82,22.35L1931.49,1281C1956.93,1338.47,1944.81,1401.19,1910.91,1444.06Z" transform="translate(-63.04 -306.69)"/><path class="cls-17" d="M1901.05,1375.54q-.66,4.35-1.56,8.57l14.36.62c.34-1.86.66-3.69.93-5.5,6.42-42.84-5.39-77.74-5.89-79.2l-59.56-159.69a85.55,85.55,0,0,0-16.68-2.57l63.4,168.16C1896.67,1307.79,1906.6,1338.53,1901.05,1375.54Z" transform="translate(-63.04 -306.69)"/><path class="cls-54" d="M1903,1033.94h0a24.39,24.39,0,0,0-4.69-.13,28,28,0,0,0-7.93,1.74c-19.32,7.18-35.47,35.1-37.73,67.49-1.54,22.09,3.73,41.23,13.11,52.65a32.48,32.48,0,0,0,10.11,8.39l-25.16-8.76-2.14-.75c-17.34-6.82-28.79-30.91-26.88-60.3,2.23-34.32,21.85-63.36,44.45-66.61,4.09.13,8.33.47,12.69,1A151.09,151.09,0,0,1,1903,1033.94Z" transform="translate(-63.04 -306.69)"/><path class="cls-10" d="M1848.6,1154.58l-74.06-25.77s-25.89-11.76-11.11-47c0,0,33.35-56.34,102.74-54.11-22.6,3.25-42.22,32.29-44.45,66.61C1819.81,1123.67,1831.26,1147.76,1848.6,1154.58Z" transform="translate(-63.04 -306.69)"/><path class="cls-10" d="M1903,1034c-.62,3.09-1.63,8.25-2.87,14.8-4.89,25.73-13.58,72.75-18.3,98.4l-3.3,17.86-2.66-.92a32.48,32.48,0,0,1-10.11-8.39c-9.38-11.42-14.65-30.56-13.11-52.65,2.26-32.39,18.41-60.31,37.73-67.49a28,28,0,0,1,7.93-1.74A24.39,24.39,0,0,1,1903,1034Z" transform="translate(-63.04 -306.69)"/><path class="cls-54" d="M1934.71,1097.6c-2.57,36.73-23,67.73-45.66,69.24a24.87,24.87,0,0,1-13.15-2.75,32.48,32.48,0,0,1-10.11-8.39c-9.38-11.42-14.65-30.56-13.11-52.65,2.26-32.39,18.41-60.31,37.73-67.49a28,28,0,0,1,7.93-1.74,24.39,24.39,0,0,1,4.69.13C1923.19,1036.38,1937.09,1063.45,1934.71,1097.6Z" transform="translate(-63.04 -306.69)"/><path class="cls-17" d="M1930.32,1098c-2.12,30.47-19.09,56.19-37.88,57.44a20.6,20.6,0,0,1-10.91-2.28,26.72,26.72,0,0,1-8.38-7c-7.79-9.47-12.17-25.35-10.89-43.68,1.88-26.88,15.28-50,31.31-56a23,23,0,0,1,6.58-1.44,21,21,0,0,1,3.89.1C1920.76,1047.21,1932.3,1069.67,1930.32,1098Z" transform="translate(-63.04 -306.69)"/><path class="cls-31" d="M1791.49,1111.6l-88.11,2,.21-38.2,88.08,3C1808.77,1078,1807.76,1111.24,1791.49,1111.6Z" transform="translate(-63.04 -306.69)"/><ellipse class="cls-31" cx="1703.48" cy="1094.46" rx="19.11" ry="12.21" transform="translate(504.25 2463.71) rotate(-88.59)"/><path class="cls-44" d="M1926.11,1414.94a121.56,121.56,0,0,1-15.2,29.12c-18.7,23.64-44,41.25-73.31,48.6a125,125,0,0,1-14.09,2.68,129.49,129.49,0,0,1-27.41.66l-1.9-.16-115.75-9.57c1.14-.07,72.59,6,125.32-76.4C1849.16,1341.06,1945,1360,1926.11,1414.94Z" transform="translate(-63.04 -306.69)"/><path class="cls-10" d="M2014.37,1510.34a3.89,3.89,0,0,0,1.42-2.32c9.81-69-72-142.75-135.61-135.5-55.6,14.65-90.17,63.91-97.64,122.36Z" transform="translate(-63.04 -306.69)"/><path class="cls-50" d="M1712.56,1073.39s12.75-18.71,42-8.44,19.32,43.07,11.44,47.22-35.13,7.93-31.15.69,8.16-19.33,1.47-29.31c-4.57-6.82-24-7.89-24-7.89Z" transform="translate(-63.04 -306.69)"/><path class="cls-31" d="M1343,1204.94l-11.7-1.34,7-61.68-49.44-3.09-6.91,60.39-11.7-1.34,7.54-66a5.9,5.9,0,0,1,6.22-5.21l61.21,3.83a5.9,5.9,0,0,1,5.49,6.55Z" transform="translate(-63.04 -306.69)"/><polygon class="cls-55" points="1141.4 1140.76 1363.15 1158.72 1354.38 1197.76 1139.42 1165.72 1141.4 1140.76"/><path class="cls-55" d="M1774.33,1494.2l205.28,14c.54,14.44-.7,27.81-4.31,39.78l-205-28.61C1770.91,1510.23,1772.07,1501.68,1774.33,1494.2Z" transform="translate(-63.04 -306.69)"/><circle class="cls-47" cx="1186.82" cy="811.43" r="62.44" transform="translate(-289.2 770.18) rotate(-45)"/><polygon class="cls-17" points="1120.41 534.09 1091.31 488.63 1096.2 483.46 1120.31 506.27 1193.2 441.35 1197.94 447.38 1120.41 534.09"/><g class="cls-56"><polygon class="cls-57" points="1837.11 738.39 2159.66 723.73 2126.58 928.01 1825.06 848.85 1837.11 738.39"/></g><rect class="cls-17" x="646.51" y="367.86" width="250.54" height="160.42" rx="17.01"/><polygon class="cls-58" points="694.3 484.26 696.71 491.67 704.5 491.67 698.2 496.25 700.6 503.66 694.3 499.08 688 503.66 690.4 496.25 684.1 491.67 691.89 491.67 694.3 484.26"/><polygon class="cls-58" points="732.6 484.26 735.01 491.67 742.8 491.67 736.5 496.25 738.91 503.66 732.6 499.08 726.3 503.66 728.71 496.25 722.4 491.67 730.2 491.67 732.6 484.26"/><polygon class="cls-58" points="770.91 484.26 773.32 491.67 781.11 491.67 774.8 496.25 777.21 503.66 770.91 499.08 764.61 503.66 767.01 496.25 760.71 491.67 768.5 491.67 770.91 484.26"/><polygon class="cls-58" points="809.21 484.26 811.62 491.67 819.41 491.67 813.11 496.25 815.52 503.66 809.21 499.08 802.91 503.66 805.32 496.25 799.01 491.67 806.8 491.67 809.21 484.26"/><polygon class="cls-58" points="847.52 484.26 849.92 491.67 857.72 491.67 851.41 496.25 853.82 503.66 847.52 499.08 841.21 503.66 843.62 496.25 837.32 491.67 845.11 491.67 847.52 484.26"/><path class="cls-23" d="M916.37,714.34h-54A4.39,4.39,0,0,1,858,710h0a4.4,4.4,0,0,1,4.39-4.39h54a4.4,4.4,0,0,1,4.39,4.39h0A4.39,4.39,0,0,1,916.37,714.34Z" transform="translate(-63.04 -306.69)"/><path class="cls-23" d="M916.37,733.54h-70a4.39,4.39,0,0,1-4.4-4.39h0a4.4,4.4,0,0,1,4.4-4.39h70a4.4,4.4,0,0,1,4.39,4.39h0A4.39,4.39,0,0,1,916.37,733.54Z" transform="translate(-63.04 -306.69)"/><path class="cls-23" d="M916.37,752.74h-70a4.39,4.39,0,0,1-4.4-4.39h0a4.39,4.39,0,0,1,4.4-4.39h70a4.39,4.39,0,0,1,4.39,4.39h0A4.39,4.39,0,0,1,916.37,752.74Z" transform="translate(-63.04 -306.69)"/><path class="cls-23" d="M916.37,771.94h-70a4.4,4.4,0,0,1-4.4-4.39h0a4.39,4.39,0,0,1,4.4-4.39h70a4.39,4.39,0,0,1,4.39,4.39h0A4.4,4.4,0,0,1,916.37,771.94Z" transform="translate(-63.04 -306.69)"/><rect class="cls-23" x="678.12" y="395.7" width="79.45" height="71.48"/></g></g></svg>