<svg xmlns="http://www.w3.org/2000/svg" xmlns:xlink="http://www.w3.org/1999/xlink" viewBox="0 0 452.18 384.32"><defs><style>.cls-1{fill:none;}.cls-2{isolation:isolate;}.cls-3{fill:#b8ebf4;}.cls-31,.cls-4,.cls-9{mix-blend-mode:overlay;}.cls-5{fill:url(#Degradado_sin_nombre_4);}.cls-6{opacity:0.6;}.cls-7{fill:#b2c8cc;}.cls-8{fill:#ffbe60;}.cls-9{fill:url(#Degradado_sin_nombre_4-2);}.cls-10{fill:#ffe2bb;}.cls-11{fill:#f29d2c;}.cls-12{fill:#dfdfdf;}.cls-13{fill:#1ab9b9;}.cls-14{fill:#7481ad;}.cls-15,.cls-31{fill:#fff;}.cls-16{fill:#375695;}.cls-17{clip-path:url(#clip-path);}.cls-18{fill:#c7bd3a;}.cls-19{fill:url(#Degradado_sin_nombre_4-3);}.cls-20{fill:#ada028;}.cls-21{clip-path:url(#clip-path-2);}.cls-22{fill:#aac037;}.cls-23{fill:url(#Degradado_sin_nombre_4-4);}.cls-24{fill:#8f9e1e;}.cls-25,.cls-39,.cls-43,.cls-44{fill:#054651;}.cls-26{fill:#d87c0e;}.cls-27{fill:#0e5768;}.cls-28{clip-path:url(#clip-path-3);}.cls-29{fill:#329bad;}.cls-30{clip-path:url(#clip-path-4);}.cls-32{clip-path:url(#clip-path-5);}.cls-33{fill:url(#Degradado_sin_nombre_4-5);}.cls-34{clip-path:url(#clip-path-6);}.cls-35{fill:url(#Degradado_sin_nombre_4-6);}.cls-36{fill:#282f39;}.cls-37{fill:#4d555e;}.cls-38{fill:#f1f9fb;}.cls-39{font-size:11.75px;}.cls-39,.cls-43,.cls-44{font-family:BebasNeueBold;}.cls-40{letter-spacing:-0.01em;}.cls-41{letter-spacing:-0.01em;}.cls-42{letter-spacing:0em;}.cls-43{font-size:23.21px;letter-spacing:0.02em;}.cls-44{font-size:28.21px;letter-spacing:0.19em;}.cls-45{letter-spacing:0.19em;}.cls-46{letter-spacing:0.2em;}</style><linearGradient id="Degradado_sin_nombre_4" x1="233.95" y1="35.23" x2="233.95" y2="377.96" gradientUnits="userSpaceOnUse"><stop offset="0" stop-color="#fff"/><stop offset="1" stop-color="#1d1d1b"/></linearGradient><linearGradient id="Degradado_sin_nombre_4-2" x1="214.67" y1="126.72" x2="214.67" y2="315.03" xlink:href="#Degradado_sin_nombre_4"/><clipPath id="clip-path" transform="translate(-27.27 -61.37)"><path class="cls-1" d="M79.39,386.56c2.53-5.51,5.19-11.13,5.9-17.16a20.18,20.18,0,0,0-4.35-14.89c-3.56-4.37-8.85-7.1-12.29-11.56a19.19,19.19,0,0,1-2-19.7c2.72-5.58,9.82-9.72,15.21-6.65,5,2.86,5.62,9.78,8.83,14.59,4.15,6.2,12.3,8.36,17.5,13.7a19.44,19.44,0,0,1,5,17.16c-.83,4.06-3,8-2.27,12.11,1.39,7.74,12,10.78,14.08,18.36,1.33,4.83-1.48,10-5.52,13s-9.07,4.15-14,5.18c-8,1.67-17.25,2.81-23.58-2.38C81.92,408.33,72.06,402.53,79.39,386.56Z"/></clipPath><linearGradient id="Degradado_sin_nombre_4-3" x1="92.86" y1="320.12" x2="98.04" y2="421.57" xlink:href="#Degradado_sin_nombre_4"/><clipPath id="clip-path-2" transform="translate(-27.27 -61.37)"><path class="cls-1" d="M67.2,394.34c-3-1.58-4.82-4.8-6.09-8s-2.09-6.5-3.62-9.54a22.27,22.27,0,0,0-8-8.81c-4.23-2.67-9.24-3.84-13.64-6.23s-8.42-6.72-8-11.71c.45-5.32,6-9.07,11.3-9.36s10.42,2,15.17,4.46a197.68,197.68,0,0,1,19.13,11.18,36.61,36.61,0,0,1,7.87,6.46c7,8.18,6.21,21,.52,30.12C81.84,393,74,397.92,67.2,394.34Z"/></clipPath><linearGradient id="Degradado_sin_nombre_4-4" x1="29.89" y1="343.14" x2="100.03" y2="398.89" xlink:href="#Degradado_sin_nombre_4"/><clipPath id="clip-path-3" transform="translate(-27.27 -61.37)"><rect class="cls-1" x="146.09" y="259.47" width="59.68" height="139.86"/></clipPath><clipPath id="clip-path-4" transform="translate(-27.27 -61.37)"><rect class="cls-1" x="243.65" y="260.41" width="130.76" height="87.74"/></clipPath><clipPath id="clip-path-5" transform="translate(-27.27 -61.37)"><path class="cls-1" d="M397.15,386.56c-2.53-5.51-5.2-11.13-5.9-17.16a20.22,20.22,0,0,1,4.34-14.89c3.56-4.37,8.85-7.1,12.3-11.56a19.19,19.19,0,0,0,2-19.7c-2.72-5.58-9.82-9.72-15.22-6.65-5,2.86-5.61,9.78-8.82,14.59-4.15,6.2-12.3,8.36-17.5,13.7a19.44,19.44,0,0,0-5,17.16c.83,4.06,3,8,2.27,12.11-1.39,7.74-12,10.78-14.09,18.36-1.32,4.83,1.49,10,5.53,13s9.07,4.15,14,5.18c8,1.67,17.26,2.81,23.58-2.38C394.61,408.33,404.48,402.53,397.15,386.56Z"/></clipPath><linearGradient id="Degradado_sin_nombre_4-5" x1="396.3" y1="312.93" x2="365.22" y2="438.14" xlink:href="#Degradado_sin_nombre_4"/><clipPath id="clip-path-6" transform="translate(-27.27 -61.37)"><path class="cls-1" d="M409.34,394.34c3-1.58,4.82-4.8,6.09-8s2.08-6.5,3.61-9.54a22.41,22.41,0,0,1,8-8.81c4.24-2.67,9.25-3.84,13.65-6.23s8.41-6.72,8-11.71c-.45-5.32-6-9.07-11.29-9.36s-10.42,2-15.17,4.46a196.49,196.49,0,0,0-19.13,11.18,36.67,36.67,0,0,0-7.88,6.46c-7,8.18-6.2,21-.51,30.12C394.7,393,402.5,397.92,409.34,394.34Z"/></clipPath><linearGradient id="Degradado_sin_nombre_4-6" x1="451.23" y1="305.31" x2="384.51" y2="424.58" xlink:href="#Degradado_sin_nombre_4"/></defs><title>magasin</title><g class="cls-2"><g id="OBJECTS"><path class="cls-3" d="M101.62,405.27c-27.81-24-102-87.28-63.51-135.93C46.9,258.23,65,258.61,74.5,248.16c12-13.15,5.94-33.78,1.35-51-5.59-21-7.77-43.72-.09-64S103,96,124.64,96.79c12.76.45,24.49,6.63,36.12,11.9,18.91,8.56,39.38,15.09,60.09,13.68,27-1.83,51.42-16.82,78.18-20.6,34.4-4.86,69.89,10,94.31,34.7s38.52,58.3,44.28,92.56,3.52,70.47-9.19,103-36.23,61.09-67,77.46Z" transform="translate(-27.27 -61.37)"/><g class="cls-4"><path class="cls-5" d="M101.62,405.27c-27.81-24-102-87.28-63.51-135.93C46.9,258.23,65,258.61,74.5,248.16c12-13.15,5.94-33.78,1.35-51-5.59-21-7.77-43.72-.09-64S103,96,124.64,96.79c12.76.45,24.49,6.63,36.12,11.9,18.91,8.56,39.38,15.09,60.09,13.68,27-1.83,51.42-16.82,78.18-20.6,34.4-4.86,69.89,10,94.31,34.7s38.52,58.3,44.28,92.56,3.52,70.47-9.19,103-36.23,61.09-67,77.46Z" transform="translate(-27.27 -61.37)"/></g><g class="cls-6"><path class="cls-7" d="M74.24,410.94c-12.58-.19-41.77,3.06-40.56,8.14,1.15,4.8,21.64,6.93,29.52,7.35,34.67,1.85,63.82,3.43,98,4.34,4.17.11,5.84,4,2.55,5.88h0c-2.84,1.66-5.45,4.62-2.14,5.72,16,5.32,89.7,3.06,127.09,1.32,45.28-2.1,151.44-7.41,159.47-21.59,2.67-4.72-4.74-8.22-11-9.56a186.6,186.6,0,0,0-45.58-4Z" transform="translate(-27.27 -61.37)"/></g><rect class="cls-8" x="82.2" y="94.86" width="264.94" height="252.25"/><rect class="cls-9" x="82.2" y="94.86" width="264.94" height="252.25"/><rect class="cls-10" x="82.2" y="328.83" width="264.94" height="18.28"/><rect class="cls-11" x="82.2" y="94.86" width="264.94" height="77.91"/><path class="cls-12" d="M93.12,199.18c-.8,13.37,11.11,24.26,24.81,24.26s24.8-10.86,24.8-24.26-11.1-24.26-24.8-24.26S93.93,185.67,93.12,199.18Z" transform="translate(-27.27 -61.37)"/><ellipse class="cls-13" cx="140.27" cy="137.81" rx="24.81" ry="24.26"/><ellipse class="cls-12" cx="189.88" cy="137.81" rx="24.81" ry="24.26"/><ellipse class="cls-13" cx="239.49" cy="137.81" rx="24.81" ry="24.26"/><ellipse class="cls-12" cx="289.11" cy="137.81" rx="24.81" ry="24.26"/><ellipse class="cls-13" cx="338.72" cy="137.81" rx="24.81" ry="24.26"/><polygon class="cls-14" points="363.52 137.81 65.85 137.81 73.06 93.49 358.32 93.49 363.52 137.81"/><polygon class="cls-15" points="65.85 137.81 73.06 93.49 122.24 93.49 115.46 137.81 65.85 137.81"/><polygon class="cls-15" points="214.69 137.81 214.69 93.49 169.69 93.49 165.07 137.81 214.69 137.81"/><polygon class="cls-15" points="264.3 137.81 264.3 93.49 309.3 93.49 313.91 137.81 264.3 137.81"/><rect class="cls-16" x="72.51" y="81.61" width="286.06" height="14.47"/><rect class="cls-14" x="72.51" y="81.61" width="286.06" height="3.69"/><rect class="cls-15" x="72.51" y="81.61" width="286.06" height="0.92"/><rect class="cls-15" x="202.67" y="191.74" width="144.47" height="110.83"/><rect class="cls-15" x="105" y="191.74" width="80.18" height="149.43"/><g class="cls-17"><path class="cls-18" d="M79.39,386.56c2.53-5.51,5.19-11.13,5.9-17.16a20.18,20.18,0,0,0-4.35-14.89c-3.56-4.37-8.85-7.1-12.29-11.56a19.19,19.19,0,0,1-2-19.7c2.72-5.58,9.82-9.72,15.21-6.65,5,2.86,5.62,9.78,8.83,14.59,4.15,6.2,12.3,8.36,17.5,13.7a19.44,19.44,0,0,1,5,17.16c-.83,4.06-3,8-2.27,12.11,1.39,7.74,12,10.78,14.08,18.36,1.33,4.83-1.48,10-5.52,13s-9.07,4.15-14,5.18c-8,1.67-17.25,2.81-23.58-2.38C81.92,408.33,72.06,402.53,79.39,386.56Z" transform="translate(-27.27 -61.37)"/><g class="cls-4"><path class="cls-19" d="M79.39,386.56c2.53-5.51,5.19-11.13,5.9-17.16a20.18,20.18,0,0,0-4.35-14.89c-3.56-4.37-8.85-7.1-12.29-11.56a19.19,19.19,0,0,1-2-19.7c2.72-5.58,9.82-9.72,15.21-6.65,5,2.86,5.62,9.78,8.83,14.59,4.15,6.2,12.3,8.36,17.5,13.7a19.44,19.44,0,0,1,5,17.16c-.83,4.06-3,8-2.27,12.11,1.39,7.74,12,10.78,14.08,18.36,1.33,4.83-1.48,10-5.52,13s-9.07,4.15-14,5.18c-8,1.67-17.25,2.81-23.58-2.38C81.92,408.33,72.06,402.53,79.39,386.56Z" transform="translate(-27.27 -61.37)"/></g><path class="cls-20" d="M73.43,314.19c.68,14,12.41,23.42,20.17,33.9,4.25,5.75,7.26,12,7.42,19.27.08,3.82-.38,7.62-.54,11.42a61.74,61.74,0,0,0,.56,11.45,65.21,65.21,0,0,0,3,12.24c1.28,3.67,2.81,8.33-.09,11.67-.59.69.4,1.69,1,1a9.76,9.76,0,0,0,1.83-8.31c-.67-3.74-2.36-7.28-3.26-11A60.32,60.32,0,0,1,101.87,384c-.16-4,.21-7.89.44-11.85a38.19,38.19,0,0,0-.68-11.24,33,33,0,0,0-3.95-9.24c-3.53-5.86-8.31-10.79-12.64-16.05-5.05-6.14-9.8-13.2-10.2-21.39,0-.91-1.45-.91-1.41,0Z" transform="translate(-27.27 -61.37)"/><path class="cls-20" d="M61.41,329.76a59.54,59.54,0,0,0,28.24,13.55c.89.16,1.27-1.19.37-1.36a58,58,0,0,1-27.61-13.19c-.68-.59-1.68.4-1,1Z" transform="translate(-27.27 -61.37)"/><path class="cls-20" d="M92.74,345.08a28.45,28.45,0,0,0-2.16-19.41c-.41-.82-1.62-.1-1.22.71a26.93,26.93,0,0,1,2,18.32.71.71,0,0,0,1.36.38Z" transform="translate(-27.27 -61.37)"/><path class="cls-20" d="M82.08,372.86c1.17,4.74,4.11,8.69,7.52,12.09,3.94,3.94,8.37,7.42,12.6,11,.69.59,1.69-.4,1-1-4-3.46-8.26-6.81-12.08-10.53-3.46-3.36-6.51-7.22-7.68-12a.71.71,0,0,0-1.36.38Z" transform="translate(-27.27 -61.37)"/><path class="cls-20" d="M104.53,399.33c-.32-11.44,11.12-20,8.87-31.79-.17-.89-1.53-.51-1.36.38,1.13,5.88-1.72,11.47-4.32,16.55-2.38,4.65-4.75,9.51-4.6,14.86a.71.71,0,0,0,1.41,0Z" transform="translate(-27.27 -61.37)"/></g><g class="cls-21"><path class="cls-22" d="M67.2,394.34c-3-1.58-4.82-4.8-6.09-8s-2.09-6.5-3.62-9.54a22.27,22.27,0,0,0-8-8.81c-4.23-2.67-9.24-3.84-13.64-6.23s-8.42-6.72-8-11.71c.45-5.32,6-9.07,11.3-9.36s10.42,2,15.17,4.46a197.68,197.68,0,0,1,19.13,11.18,36.61,36.61,0,0,1,7.87,6.46c7,8.18,6.21,21,.52,30.12C81.84,393,74,397.92,67.2,394.34Z" transform="translate(-27.27 -61.37)"/><g class="cls-4"><path class="cls-23" d="M67.2,394.34c-3-1.58-4.82-4.8-6.09-8s-2.09-6.5-3.62-9.54a22.27,22.27,0,0,0-8-8.81c-4.23-2.67-9.24-3.84-13.64-6.23s-8.42-6.72-8-11.71c.45-5.32,6-9.07,11.3-9.36s10.42,2,15.17,4.46a197.68,197.68,0,0,1,19.13,11.18,36.61,36.61,0,0,1,7.87,6.46c7,8.18,6.21,21,.52,30.12C81.84,393,74,397.92,67.2,394.34Z" transform="translate(-27.27 -61.37)"/></g><path class="cls-24" d="M28.1,346c13.11,3.37,25.5,9.43,35.13,19.09,7.74,7.77,13.26,17.38,17.3,27.53,2.09,5.23,3.81,10.6,5.43,16a.71.71,0,0,0,1.36-.38c-3-10-6.42-20-11.66-29A70.24,70.24,0,0,0,51.25,354a84.43,84.43,0,0,0-22.78-9.3A.71.71,0,0,0,28.1,346Z" transform="translate(-27.27 -61.37)"/><path class="cls-24" d="M63.05,343.73c4,7.14,8.87,13.79,12.28,21.25,3.68,8.07,4.81,16.84,5,25.64a.35.35,0,0,0,.7,0c-.16-8.62-1.23-17.24-4.72-25.2-3.4-7.78-8.51-14.65-12.63-22.05-.22-.39-.83,0-.61.36Z" transform="translate(-27.27 -61.37)"/><path class="cls-24" d="M44.72,371.37c7.19,1.67,14.53,3.38,20.94,7.19a36.66,36.66,0,0,1,7.85,6.53,33.48,33.48,0,0,0,7,6.2.35.35,0,0,0,.36-.61c-2.9-1.73-5.1-4.27-7.4-6.69a34.91,34.91,0,0,0-7.81-6.25c-6.38-3.7-13.62-5.4-20.74-7.05-.44-.1-.63.58-.18.68Z" transform="translate(-27.27 -61.37)"/></g><path class="cls-24" d="M71.51,375.24C78.34,385.43,82.45,397,86,408.66a.71.71,0,0,0,1.36-.38c-3.54-11.78-7.7-23.46-14.59-33.75-.5-.75-1.72,0-1.22.71Z" transform="translate(-27.27 -61.37)"/><rect class="cls-25" x="111.17" y="198.11" width="67.33" height="143.06"/><rect class="cls-25" x="209.53" y="199.05" width="137.62" height="97.33"/><rect class="cls-26" x="202.67" y="302.56" width="144.47" height="8.9"/><rect class="cls-27" x="216.38" y="199.05" width="130.76" height="87.74"/><rect class="cls-27" x="118.82" y="198.11" width="59.68" height="139.86"/><g class="cls-28"><rect class="cls-29" x="149.18" y="235.03" width="25.06" height="138.51" transform="translate(175.31 -99.24) rotate(34.8)"/><rect class="cls-29" x="177.42" y="249.77" width="6.09" height="138.51" transform="translate(187.07 -107.3) rotate(34.8)"/></g><g class="cls-30"><rect class="cls-29" x="279.04" y="237.56" width="25.06" height="138.51" transform="translate(199.98 -172.89) rotate(34.8)"/><rect class="cls-29" x="325.19" y="232.15" width="6.09" height="138.51" transform="translate(203.45 -194.79) rotate(34.8)"/></g><path class="cls-31" d="M99.78,157.44H385.84s-55.37,17-149,17.48S99.78,157.44,99.78,157.44Z" transform="translate(-27.27 -61.37)"/><g class="cls-32"><path class="cls-18" d="M397.15,386.56c-2.53-5.51-5.2-11.13-5.9-17.16a20.22,20.22,0,0,1,4.34-14.89c3.56-4.37,8.85-7.1,12.3-11.56a19.19,19.19,0,0,0,2-19.7c-2.72-5.58-9.82-9.72-15.22-6.65-5,2.86-5.61,9.78-8.82,14.59-4.15,6.2-12.3,8.36-17.5,13.7a19.44,19.44,0,0,0-5,17.16c.83,4.06,3,8,2.27,12.11-1.39,7.74-12,10.78-14.09,18.36-1.32,4.83,1.49,10,5.53,13s9.07,4.15,14,5.18c8,1.67,17.26,2.81,23.58-2.38C394.61,408.33,404.48,402.53,397.15,386.56Z" transform="translate(-27.27 -61.37)"/><g class="cls-4"><path class="cls-33" d="M397.15,386.56c-2.53-5.51-5.2-11.13-5.9-17.16a20.22,20.22,0,0,1,4.34-14.89c3.56-4.37,8.85-7.1,12.3-11.56a19.19,19.19,0,0,0,2-19.7c-2.72-5.58-9.82-9.72-15.22-6.65-5,2.86-5.61,9.78-8.82,14.59-4.15,6.2-12.3,8.36-17.5,13.7a19.44,19.44,0,0,0-5,17.16c.83,4.06,3,8,2.27,12.11-1.39,7.74-12,10.78-14.09,18.36-1.32,4.83,1.49,10,5.53,13s9.07,4.15,14,5.18c8,1.67,17.26,2.81,23.58-2.38C394.61,408.33,404.48,402.53,397.15,386.56Z" transform="translate(-27.27 -61.37)"/></g><path class="cls-20" d="M401.69,314.19c-.69,14.54-13.83,24.06-21.4,35.21a38.26,38.26,0,0,0-4.57,8.76A30.57,30.57,0,0,0,374.11,369c.06,4,.56,7.92.6,11.89a60,60,0,0,1-1.08,12,58.3,58.3,0,0,1-1.59,6.38c-.62,2-1.43,4-2,6.06-.9,3.36-.9,7.08,1.49,9.83.6.69,1.59-.31,1-1-2.56-2.94-1.65-7.05-.54-10.39A81.84,81.84,0,0,0,375,393a61.51,61.51,0,0,0,1.08-11.41c0-3.81-.44-7.59-.57-11.4a31.25,31.25,0,0,1,1.39-11.29,37.06,37.06,0,0,1,4.57-8.81c3.86-5.69,8.76-10.57,12.95-16,4.49-5.82,8.28-12.41,8.64-19.91,0-.91-1.36-.91-1.41,0Z" transform="translate(-27.27 -61.37)"/><path class="cls-20" d="M414.13,328.76A58.07,58.07,0,0,1,386.51,342c-.89.17-.51,1.52.38,1.36a59.51,59.51,0,0,0,28.23-13.55c.69-.6-.31-1.59-1-1Z" transform="translate(-27.27 -61.37)"/><path class="cls-20" d="M385.16,344.7a26.93,26.93,0,0,1,2-18.32c.4-.81-.81-1.53-1.22-.71a28.45,28.45,0,0,0-2.16,19.41.71.71,0,0,0,1.36-.38Z" transform="translate(-27.27 -61.37)"/><path class="cls-20" d="M393.1,372.48c-1.17,4.76-4.23,8.62-7.68,12-3.82,3.72-8,7.07-12.08,10.53-.7.59.31,1.58,1,1,4.24-3.61,8.66-7.09,12.61-11,3.4-3.4,6.35-7.35,7.52-12.09a.71.71,0,0,0-1.36-.38Z" transform="translate(-27.27 -61.37)"/><path class="cls-20" d="M373.42,399.33c.15-5.35-2.22-10.21-4.6-14.86-2.6-5.08-5.45-10.67-4.33-16.55.17-.89-1.19-1.27-1.36-.38-2.24,11.76,9.2,20.35,8.88,31.79a.71.71,0,0,0,1.41,0Z" transform="translate(-27.27 -61.37)"/></g><g class="cls-34"><path class="cls-22" d="M409.34,394.34c3-1.58,4.82-4.8,6.09-8s2.08-6.5,3.61-9.54a22.41,22.41,0,0,1,8-8.81c4.24-2.67,9.25-3.84,13.65-6.23s8.41-6.72,8-11.71c-.45-5.32-6-9.07-11.29-9.36s-10.42,2-15.17,4.46a196.49,196.49,0,0,0-19.13,11.18,36.67,36.67,0,0,0-7.88,6.46c-7,8.18-6.2,21-.51,30.12C394.7,393,402.5,397.92,409.34,394.34Z" transform="translate(-27.27 -61.37)"/><g class="cls-4"><path class="cls-35" d="M409.34,394.34c3-1.58,4.82-4.8,6.09-8s2.08-6.5,3.61-9.54a22.41,22.41,0,0,1,8-8.81c4.24-2.67,9.25-3.84,13.65-6.23s8.41-6.72,8-11.71c-.45-5.32-6-9.07-11.29-9.36s-10.42,2-15.17,4.46a196.49,196.49,0,0,0-19.13,11.18,36.67,36.67,0,0,0-7.88,6.46c-7,8.18-6.2,21-.51,30.12C394.7,393,402.5,397.92,409.34,394.34Z" transform="translate(-27.27 -61.37)"/></g><path class="cls-24" d="M448.07,344.68c-13.24,3.4-25.78,9.53-35.54,19.24-7.94,7.89-13.58,17.66-17.73,28-2.16,5.35-3.92,10.85-5.58,16.37a.71.71,0,0,0,1.36.38c2.94-9.81,6.27-19.55,11.37-28.47a68.94,68.94,0,0,1,23.9-24.91A83.21,83.21,0,0,1,448.44,346a.71.71,0,0,0-.37-1.36Z" transform="translate(-27.27 -61.37)"/><path class="cls-24" d="M412.88,343.37c-4.13,7.4-9.23,14.27-12.64,22.05-3.48,8-4.56,16.58-4.71,25.2a.35.35,0,0,0,.7,0c.16-8.8,1.3-17.57,5-25.64,3.4-7.46,8.29-14.11,12.28-21.25.22-.4-.39-.75-.61-.36Z" transform="translate(-27.27 -61.37)"/><path class="cls-24" d="M431.63,370.69c-7.11,1.65-14.36,3.35-20.73,7.05a34.55,34.55,0,0,0-7.67,6.11c-2.35,2.46-4.59,5.07-7.54,6.83-.39.24,0,.85.35.61a33.54,33.54,0,0,0,7-6.2,36.42,36.42,0,0,1,7.85-6.53c6.41-3.81,13.75-5.52,20.94-7.19.44-.1.26-.78-.19-.68Z" transform="translate(-27.27 -61.37)"/></g><path class="cls-24" d="M403.81,374.53c-6.89,10.29-11.05,22-14.59,33.75a.71.71,0,0,0,1.36.38c3.5-11.68,7.62-23.23,14.44-33.42.51-.76-.71-1.46-1.21-.71Z" transform="translate(-27.27 -61.37)"/><rect class="cls-36" x="41.65" y="341.17" width="346.04" height="11.88"/><rect class="cls-37" x="41.65" y="341.17" width="346.04" height="3.81"/><path class="cls-38" d="M395.92,250c-2.68-1.34-5.43-2.74-7.33-5.06s-2.67-5.81-1-8.31c1.36-2.06,4-2.91,6.43-3.25a24.89,24.89,0,0,1,17.61,4.36A30.85,30.85,0,0,1,423,210.37c3.87-3,8.65-5.15,13.57-5s9.91,2.76,12.06,7.2c1.36,2.8,1.51,6,1.37,9.16a56.46,56.46,0,0,1-3.77,18c11.2-3.05,30.06-4.8,33,6.43,5.9,22.62-89.69,34.35-95.63,13.89C382,254.64,395.92,250,395.92,250Z" transform="translate(-27.27 -61.37)"/><path class="cls-38" d="M45.91,291.35a14.5,14.5,0,0,1-5-3.46c-1.3-1.59-1.84-4-.71-5.71.94-1.42,2.73-2,4.42-2.23a17.1,17.1,0,0,1,12.09,3,21.19,21.19,0,0,1,7.8-18.81,14.8,14.8,0,0,1,9.31-3.44,9.45,9.45,0,0,1,8.28,4.93,13,13,0,0,1,.94,6.29,38.82,38.82,0,0,1-2.59,12.37c7.69-2.09,20.64-3.3,22.65,4.41,4.06,15.54-61.57,23.59-65.65,9.54C36.34,294.53,45.91,291.35,45.91,291.35Z" transform="translate(-27.27 -61.37)"/><path class="cls-3" d="M345.43,115.38a12.79,12.79,0,0,1-4.42-3,4.41,4.41,0,0,1-.62-5,5.36,5.36,0,0,1,3.88-1.95A15,15,0,0,1,354.89,108a18.58,18.58,0,0,1,6.84-16.51,13,13,0,0,1,8.18-3,8.29,8.29,0,0,1,7.27,4.33,11.54,11.54,0,0,1,.83,5.53,34.3,34.3,0,0,1-2.27,10.86c6.75-1.84,18.12-2.9,19.89,3.87,3.55,13.64-54.08,20.71-57.66,8.38C337,118.17,345.43,115.38,345.43,115.38Z" transform="translate(-27.27 -61.37)"/><path class="cls-3" d="M403.62,252.45a16.76,16.76,0,0,1-5.74-4c-1.48-1.81-2.09-4.56-.8-6.51,1.07-1.62,3.11-2.28,5-2.54a19.5,19.5,0,0,1,13.8,3.4,24.17,24.17,0,0,1,8.89-21.45,16.92,16.92,0,0,1,10.64-3.93c3.85.09,7.76,2.16,9.44,5.63a14.91,14.91,0,0,1,1.07,7.17A44.33,44.33,0,0,1,443,244.38c8.77-2.39,23.54-3.77,25.84,5,4.62,17.72-70.25,26.91-74.9,10.88C392.71,256.07,403.62,252.45,403.62,252.45Z" transform="translate(-27.27 -61.37)"/><path class="cls-3" d="M62.26,79.9a8.74,8.74,0,0,1-3-2.09,3,3,0,0,1-.43-3.45A3.69,3.69,0,0,1,61.46,73a10.32,10.32,0,0,1,7.31,1.81,12.81,12.81,0,0,1,4.71-11.37,9,9,0,0,1,5.63-2.08,5.71,5.71,0,0,1,5,3,7.8,7.8,0,0,1,.57,3.8,23.67,23.67,0,0,1-1.56,7.48c4.64-1.27,12.47-2,13.69,2.66,2.44,9.39-37.22,14.26-39.68,5.77C56.48,81.82,62.26,79.9,62.26,79.9Z" transform="translate(-27.27 -61.37)"/><path class="cls-15" d="M309,286.64a2.12,2.12,0,1,1-2.11-2.11A2.12,2.12,0,0,1,309,286.64Z" transform="translate(-27.27 -61.37)"/><rect class="cls-15" x="246.2" y="232.95" width="65.58" height="35.95" rx="3.06"/><text class="cls-39" transform="translate(262.87 246.57)"><tspan class="cls-40">w</tspan><tspan x="8.53" y="0">e a</tspan><tspan class="cls-41" x="22.56" y="0">r</tspan><tspan class="cls-42" x="26.29" y="0">e</tspan></text><text class="cls-43" transform="translate(250.74 264.99)">OPEN</text><path class="cls-15" d="M321.3,297.56H291.35l15.58-11.51Zm-27.1-.94h24.42l-11.72-9.39Z" transform="translate(-27.27 -61.37)"/><rect class="cls-11" x="306.63" y="176.61" width="32.09" height="11.25"/><rect class="cls-11" x="87.82" y="176.97" width="32.09" height="11.25"/><rect class="cls-11" x="277.53" y="178.94" width="16.3" height="7.31"/><rect class="cls-26" x="192.08" y="316.49" width="16.3" height="7.31"/><rect class="cls-26" x="238.04" y="316.49" width="16.3" height="7.31"/><rect class="cls-15" x="138.73" y="41.57" width="162.22" height="35.62"/><path class="cls-29" d="M330.32,140.06H163.89V101.43H330.32Zm-162.22-3h158V104.43h-158Z" transform="translate(-27.27 -61.37)"/><text class="cls-44" transform="translate(143.42 67.43)">M<tspan class="cls-45" x="28.04" y="0">A</tspan><tspan class="cls-46" x="50.53" y="0">GASIN</tspan></text></g></g></svg>