<svg xmlns="http://www.w3.org/2000/svg" viewBox="0 0 4658.38 2501.59"><defs><style>.cls-1{fill:#03dbde;}.cls-2{fill:#03c9cc;}.cls-3{fill:#a3feff;}.cls-4{fill:#018764;}.cls-5{fill:#103558;}.cls-6{fill:#f05b5b;}.cls-7{fill:#e54547;}.cls-8{fill:#f1696a;}.cls-9{fill:#0394c2;}.cls-10{fill:#03bbe6;}.cls-11{fill:#038ab5;}.cls-12{fill:#f7a58e;}.cls-13{fill:#024263;}.cls-14{fill:#ff9e82;}.cls-15{fill:#ffbaa6;}.cls-16{fill:#fff;}.cls-17{fill:#0d0d0d;}.cls-18{fill:#ff9070;}.cls-19{fill:#f0c46e;}.cls-20{fill:#ffd175;}.cls-21{fill:#f0bc56;}.cls-22{fill:#733602;}.cls-23{fill:#027f99;}.cls-24{fill:#ceffff;}.cls-25{fill:#1ab9b9;}.cls-26{fill:#9fa8cb;}.cls-27{fill:#334a7d;}.cls-28{fill:#7f8cba;}.cls-29{fill:#0091b4;}.cls-30{fill:#005875;}.cls-31{fill:#016566;}.cls-32{fill:#006f94;}.cls-33{fill:#f14924;}.cls-34{fill:#de7f67;}.cls-35{fill:#fc8365;}.cls-36{fill:#f7a28a;}.cls-37{fill:#ff8166;}.cls-38{fill:#02b6b8;}.cls-39{fill:#ff9e4d;}.cls-40{fill:#ffc594;}.cls-41{fill:#ffb06e;}.cls-42{fill:#049799;}.cls-43{fill:#ed9348;}.cls-44{fill:#027273;}.cls-45{fill:#03e3e6;}.cls-46{fill:#04f2f5;}.cls-47{fill:#ffa88f;}.cls-48{fill:#02a659;}.cls-49{fill:#026636;}.cls-50{fill:#db6704;}.cls-51{fill:#ed8934;}</style></defs><title>storebg</title><g id="Layer_1" data-name="Layer 1"><ellipse class="cls-1" cx="900.51" cy="987.48" rx="519.2" ry="666.68"/><polygon class="cls-2" points="900.51 875.19 867.2 2495.64 944.36 2495.64 944.36 875.19 900.51 875.19"/><path class="cls-2" d="M1797.8,1449c5.56,11.44,1.9,9.42,7.7,20.74l-303.82,160.53V1588.1Z" transform="translate(-578.32 -323.34)"/><ellipse class="cls-1" cx="2807.22" cy="1138.17" rx="503.88" ry="600.07"/><ellipse class="cls-1" cx="3250.69" cy="1771.43" rx="205.73" ry="202.77"/><polygon class="cls-2" points="2802.47 1037.1 2837.19 2495.64 2767.75 2495.64 2767.75 1037.1 2802.47 1037.1"/><polygon class="cls-2" points="3243.26 1771.43 2837.19 1981.18 2767.75 2013.82 2767.75 1975.9 2837.19 1943.27 3235.84 1755.96 3243.26 1771.43"/><path class="cls-2" d="M3098.42,1585.84c-5,10.29-2,4.5-7.24,14.69L3365,1749v-37.91Z" transform="translate(-578.32 -323.34)"/><path class="cls-2" d="M3652.07,1738.48c5,10.29-.22.1,5,10.29l-271.54,152.86v-37.91Z" transform="translate(-578.32 -323.34)"/><path class="cls-3" d="M3808.39,1072.92c.35-4.47.57-9,.57-13.51C3809,964.19,3733,887,3639.33,887s-169.63,77.19-169.63,172.41c0,4.55.23,9,.57,13.51Z" transform="translate(-578.32 -323.34)"/><path class="cls-3" d="M4312,1072.92c.31-4,.51-8.08.51-12.18,0-85.82-68.45-155.39-152.89-155.39s-152.88,69.57-152.88,155.39c0,4.1.2,8.15.51,12.18Z" transform="translate(-578.32 -323.34)"/><path class="cls-3" d="M4134.34,1072.92a260.29,260.29,0,0,0,2-32.14c0-139.49-111.26-252.57-248.5-252.57s-248.5,113.08-248.5,252.57a260.29,260.29,0,0,0,2,32.14Z" transform="translate(-578.32 -323.34)"/><path class="cls-1" d="M4292.49,2816.4c.3-4,.5-8,.5-12.09,0-85.17-67.93-154.21-151.73-154.21s-151.73,69-151.73,154.21c0,4.07.21,8.09.51,12.09Z" transform="translate(-578.32 -323.34)"/><path class="cls-1" d="M4743,2816.4c.28-3.6.46-7.23.46-10.89,0-76.77-61.23-139-136.75-139s-136.76,62.22-136.76,139c0,3.66.19,7.29.46,10.89Z" transform="translate(-578.32 -323.34)"/><path class="cls-1" d="M4584,2816.4a231.17,231.17,0,0,0,1.78-28.75c0-124.77-99.51-225.92-222.27-225.92s-222.28,101.15-222.28,225.92a231.17,231.17,0,0,0,1.79,28.75Z" transform="translate(-578.32 -323.34)"/><path class="cls-3" d="M886.13,1162.27c.2-2.53.33-5.09.33-7.67,0-54.13-43.18-98-96.43-98s-96.43,43.88-96.43,98c0,2.58.13,5.14.32,7.67Z" transform="translate(-578.32 -323.34)"/><path class="cls-3" d="M1172.42,1162.27c.18-2.28.29-4.58.29-6.92,0-48.78-38.91-88.33-86.91-88.33s-86.91,39.55-86.91,88.33c0,2.34.12,4.64.3,6.92Z" transform="translate(-578.32 -323.34)"/><path class="cls-3" d="M1071.42,1162.27a146.76,146.76,0,0,0,1.13-18.26c0-79.3-63.24-143.58-141.26-143.58S790,1064.71,790,1144a146.76,146.76,0,0,0,1.13,18.26Z" transform="translate(-578.32 -323.34)"/><path class="cls-4" d="M1035,1706.73s-43.57-2.64-83,36.66c-33.37,33.26-62.13,143.75-73.55,174.19S843,2091.05,843,2091.05L882,2105l67.36-164.84,67-119.69S1112.06,1725.8,1035,1706.73Z" transform="translate(-578.32 -323.34)"/><path class="cls-5" d="M839.92,2194a1,1,0,0,1-.49-.13.94.94,0,0,1-.33-1.29c.27-.45,27.24-45.67,20.53-66.38a13.23,13.23,0,0,0-7.46-8.43c-25.17-11-66.43,57.46-66.85,58.15a1,1,0,0,1-1.3.34.93.93,0,0,1-.34-1.29c1.72-2.89,42.56-70.61,69.27-58.92a15,15,0,0,1,8.5,9.57c7,21.52-19.57,66-20.71,67.92A.94.94,0,0,1,839.92,2194Z" transform="translate(-578.32 -323.34)"/><path class="cls-5" d="M818.43,2185.71a1,1,0,0,1-.64-.24.94.94,0,0,1-.08-1.33c.39-.42,38.15-42.41,33.95-61.63a10.17,10.17,0,0,0-6.35-7.47c-25.31-11.08-81,52.09-81.58,52.73a1,1,0,0,1-1.35.09.93.93,0,0,1-.1-1.32c2.33-2.66,57.21-64.86,83.8-53.22a12.11,12.11,0,0,1,7.45,8.8c4.4,20.15-32.81,61.52-34.39,63.27A1,1,0,0,1,818.43,2185.71Z" transform="translate(-578.32 -323.34)"/><polygon class="cls-6" points="138.14 1823.46 0.39 2091.84 77.11 2119.73 178.44 1838.11 138.14 1823.46"/><polygon class="cls-7" points="187.87 1841.54 76.72 2119.59 202.68 2165.39 290.1 1878.7 187.87 1841.54"/><polygon class="cls-8" points="167.89 1834.27 58.71 2067.06 77.11 2119.73 188.19 1841.65 167.89 1834.27"/><polygon class="cls-6" points="58.71 2067.06 0 2091.7 76.72 2119.59 58.71 2067.06"/><polygon class="cls-9" points="219.49 1857.1 120.17 2148.09 201.82 2165.2 262.38 1866.1 219.49 1857.1"/><polygon class="cls-10" points="272.42 1868.2 201.41 2165.12 335.45 2193.22 381.21 1891 272.42 1868.2"/><polygon class="cls-11" points="251.15 1863.74 175.41 2114.64 201.82 2165.2 272.76 1868.27 251.15 1863.74"/><polygon class="cls-9" points="175.41 2114.64 119.76 2148 201.41 2165.12 175.41 2114.64"/><path class="cls-12" d="M882.92,2102.4l-7.14,24s12.91,7.82,10,15.67c-9.57,17.29-43.13,19.78-51.2,15.57s-18.14-17.69-15.69-30.15,24.1-36.41,24.1-36.41S876.33,2090.46,882.92,2102.4Z" transform="translate(-578.32 -323.34)"/><path class="cls-12" d="M840.7,2098.59l10.38-53.83c9.8,12.34,42.16,17.14,49.59,14.56l-19.84,50.07Z" transform="translate(-578.32 -323.34)"/><path class="cls-13" d="M1026.29,1971.55c-9.95,8.09-55.83,54.83-73.36,144.87-5.26,27.06-34.79,542.7-44.21,668h56.76c58.76-267.25,110.92-472.09,176.63-770C1153.4,1946.85,1074.46,1909.92,1026.29,1971.55Z" transform="translate(-578.32 -323.34)"/><path class="cls-13" d="M1074.9,1995.31c-8.05,15.35,9.35,108.42,9.35,168.23,0,72.33-1.54,648.1-1.54,648.1h48.22c32-209.46,82.69-469.06,93.73-642.58,6.26-98.36-1.79-113.83-29.35-214C1174.94,1897.25,1103.41,1934.64,1074.9,1995.31Z" transform="translate(-578.32 -323.34)"/><polygon class="cls-14" points="547.03 1441.36 451.58 1444.27 467.76 1308.26 544.12 1305.94 547.03 1441.36"/><path class="cls-15" d="M1346.32,1579.28c-11.12-14.68-37.88-11.53-39.91-11.28v49.41c1.22,8.42,23.41,9,33.36,0C1339.77,1617.41,1355.84,1593.65,1346.32,1579.28Z" transform="translate(-578.32 -323.34)"/><path class="cls-15" d="M1322,1573.11c-3.11-21.52-8.66-38.22-12.64-37.7s-4.93,18.07-2.25,39.64C1309.08,1590.05,1322.36,1583.7,1322,1573.11Z" transform="translate(-578.32 -323.34)"/><path class="cls-16" d="M910.28,2763.74c5.09-6.56,39.34,13.1,59,0,0,0,90,23.21,55.64,47.9H906.68C899.34,2804,897.65,2789.57,910.28,2763.74Z" transform="translate(-578.32 -323.34)"/><path class="cls-16" d="M1082.08,2763.74c5.09-6.56,39.34,13.1,59,0,0,0,90,23.21,55.64,47.9H1078.48C1071.14,2804,1069.45,2789.57,1082.08,2763.74Z" transform="translate(-578.32 -323.34)"/><path class="cls-14" d="M1177.61,1537.38c7.94,63.27-5.54,115.87-52.27,120.66s-111.83-54.73-117-103.31,28.6-91.85,75.33-96.64S1171.52,1488.91,1177.61,1537.38Z" transform="translate(-578.32 -323.34)"/><path class="cls-17" d="M1083.19,1440.51s93.57-5.46,109,63.18c17.07,59.86-34.3,20-48.73,63-16.52,49.2,9.39,81.12,38.63,87.41-21.27,37.2-164.81,51.35-208.4-5.24C940,1575.59,963.17,1457.65,1083.19,1440.51Z" transform="translate(-578.32 -323.34)"/><ellipse class="cls-14" cx="567.21" cy="1241.96" rx="17.44" ry="17.19"/><path class="cls-15" d="M1333.52,1608l-26.66,2.08c-1.32,13.49-3.42,35-5.73,58.84h41.71C1339.61,1644.17,1336.18,1622.42,1333.52,1608Z" transform="translate(-578.32 -323.34)"/><path class="cls-4" d="M1301.13,1668.9c-4.05,41.57-8.75,90-11.12,114.4l-112-74.49s-69.81-42.84-90.62,11.71c-19,49.83,54,83.17,54,83.17s198.08,104.78,209,32.2c6.39-35.94-.12-109.54-7.64-167Z" transform="translate(-578.32 -323.34)"/><path class="cls-4" d="M1215.24,1823.13c-.41,17.75-18.25,148.49-18.25,148.49s-96.94,1.18-170.72-.07c-33.71-139-83.31-220.74-.52-267C1142.84,1661.22,1226.46,1719.08,1215.24,1823.13Z" transform="translate(-578.32 -323.34)"/><path class="cls-14" d="M1144.12,1696.87c-85.78,27.87-118.36,7.72-118.36,7.72C1044.23,1690.45,1113.13,1680.33,1144.12,1696.87Z" transform="translate(-578.32 -323.34)"/><path class="cls-4" d="M1025.76,1940.14c-18.53,41.23-44.66,72.5-58.66,110,0,0,89.92,50.51,255.88,14.57,0,0-12.14-69.25-28.91-124.62S1054.51,1868.57,1025.76,1940.14Z" transform="translate(-578.32 -323.34)"/><path class="cls-5" d="M932.2,2211.86a1,1,0,0,1-.88-.57c-.26-.62-27.16-61.95-56.1-84.75a.92.92,0,0,1-.15-1.32,1,1,0,0,1,1.34-.15c29.31,23.09,56.4,84.85,56.67,85.47a.94.94,0,0,1-.5,1.24A1,1,0,0,1,932.2,2211.86Z" transform="translate(-578.32 -323.34)"/><path class="cls-5" d="M870.68,2199.24a.94.94,0,0,1-.48-.13c-.44-.26-44.7-26.06-52.29-63.56a1,1,0,0,1,1.87-.37c7.43,36.68,50.94,62.05,51.38,62.3a.94.94,0,0,1,.35,1.29A1,1,0,0,1,870.68,2199.24Z" transform="translate(-578.32 -323.34)"/><path class="cls-18" d="M3777.48,1585.44c-5.54,51.48,20.78,106.37,53.9,106,45.43-.55,104.16-37.39,109.7-88.88s-26.59-97-71.77-101.76S3783,1534,3777.48,1585.44Z" transform="translate(-578.32 -323.34)"/><path class="cls-16" d="M4059,2770.57s-47.71-5.27-84.91,0c-30.85,20.07-44.16,18.9-44.16,18.9-13.18,3.4-19.06,21.25-7.62,21.25h140.54Z" transform="translate(-578.32 -323.34)"/><path class="cls-16" d="M3941,2770.57s-47.71-5.27-84.91,0c-30.85,20.07-44.15,18.9-44.15,18.9-13.19,3.4-19.07,21.25-7.63,21.25h140.54Z" transform="translate(-578.32 -323.34)"/><polygon class="cls-18" points="3296.8 1429 3385.13 1399.61 3321.14 1268.27 3259.04 1297.66 3296.8 1429"/><path class="cls-19" d="M3787.44,1844.47s-68.53,49.48-35.08,102c24.92,39.14,104.71-3.24,104.71-48.77C3857.07,1856.65,3825,1832.46,3787.44,1844.47Z" transform="translate(-578.32 -323.34)"/><path class="cls-17" d="M3999.12,2048.19s16.47,28.15,27.49,84.23c3.92,19.92-.66,110,.64,261.84,32,196.29,35.6,392.87,35.6,392.87l-88.76-16.56-135.87-714.21Z" transform="translate(-578.32 -323.34)"/><path class="cls-17" d="M3798.19,2066.38c3.53,134.76,9.74,255.73,22.33,343.95l35.54,360.24,86.87,15.9c-.09-111.78-3.29-251.4-18.89-380.9l39.41-338.13Z" transform="translate(-578.32 -323.34)"/><path class="cls-20" d="M4025.38,2059.47c-5.85,34.83-9,37.19-9,37.19l-218.16,4.74s4.37-31.75-5.65-53.21c-1.49-3.2-1.32-13.88.19-29.61,2.13-22.56,7-55.46,13.51-91.48,14-77.42,35.75-169.24,54.87-203.73l98.15-23.22s43.77,43.76,53.41,82.49S4031.23,2024.66,4025.38,2059.47Z" transform="translate(-578.32 -323.34)"/><path class="cls-21" d="M3867.22,1901.63l-74.49,116.95c2.13-22.56,7-55.46,13.51-91.48Z" transform="translate(-578.32 -323.34)"/><path class="cls-18" d="M3894.07,1872.49s26.4,56-1,71.07-54.83-33-54.83-33Z" transform="translate(-578.32 -323.34)"/><path class="cls-20" d="M3785.33,1723.12l19,121,59.14-68.61s53.15-53.12,95.82-5.17-24,95.92-24,95.92-97.31,78.06-159.45,70-23.35-210.74-23.35-210.74Z" transform="translate(-578.32 -323.34)"/><path class="cls-18" d="M3785.33,1723.12l9.58-46.07-24.43-36.56s-9.11-6.61-12.46,13.69c-6.69,9.45-14.85,16.44-13.89,27.11s8.4,44.13,8.4,44.13Z" transform="translate(-578.32 -323.34)"/><polygon class="cls-16" points="3380.94 1376.8 3373.99 1359.1 3270.01 1399.78 3261.84 1444.28 3380.94 1376.8"/><path class="cls-22" d="M3930,1655.24s33.92-48.11,23.31-105.64-97.11-69.56-97.11-69.56-90.2-5.23-110.37,85.25c9.55,12,48.82-7.84,48.82-7.84l64.54,58s-.76-45.5,22-34,16,48.12,16,48.12S3918.41,1651.58,3930,1655.24Z" transform="translate(-578.32 -323.34)"/><path class="cls-23" d="M2923.07,2824.93l-1023-6.08c-59.72-.38-108-54-107.92-119.64L1795.7,522c.1-63.32,47.65-114.76,106.21-115l1004.46-3c59-.19,107.3,51.18,107.8,114.78l17,2187.33C3031.69,2772.09,2983.28,2825.31,2923.07,2824.93Z" transform="translate(-578.32 -323.34)"/><path class="cls-17" d="M2936.29,2809.09a87.08,87.08,0,0,1-12.1.75l-1022.75-7.14c-51.32-.38-93.26-47.36-93.17-104.68l3.3-2174.87c.09-55.28,41.37-100.39,91.7-100.61l1004.39-4c1.47,0,3,0,4.41.09,23.62,1.08,45.69,11.68,62.18,29.82,16.86,18.55,26.24,43.13,26.44,69.25l16.78,2189.54C3017.87,2759.11,2983.09,2802.91,2936.29,2809.09Z" transform="translate(-578.32 -323.34)"/><polygon class="cls-24" points="2389.47 205.34 2405.61 2324.6 1261.78 2318.24 1264.53 205.34 2389.47 205.34"/><polygon class="cls-25" points="1518.55 202.07 1390.66 650.69 1574.78 650.69 1650.07 202.07 1518.55 202.07"/><polygon class="cls-25" points="1273.42 202.07 1047.47 650.69 1206.54 650.69 1387.04 202.07 1273.42 202.07"/><polygon class="cls-25" points="2289.57 202.07 2470.07 650.69 2629.13 650.69 2403.18 202.07 2289.57 202.07"/><polygon class="cls-26" points="1650.07 202.07 1574.78 650.69 1758.91 650.69 1781.59 202.07 1650.07 202.07"/><polygon class="cls-26" points="1387.04 202.07 1206.54 650.69 1390.66 650.69 1518.55 202.07 1387.04 202.07"/><polygon class="cls-26" points="1913.11 202.07 1943.03 650.69 2127.16 650.69 2044.63 202.07 1913.11 202.07"/><polygon class="cls-26" points="2289.57 202.07 2176.15 202.07 2311.28 650.69 2470.07 650.69 2289.57 202.07"/><polygon class="cls-25" points="2044.63 202.07 2127.16 650.69 2311.28 650.69 2176.15 202.07 2044.63 202.07"/><polygon class="cls-25" points="1781.59 202.07 1758.91 650.69 1943.03 650.69 1913.11 202.07 1781.59 202.07"/><path class="cls-27" d="M1047.48,650.69h159.06a0,0,0,0,1,0,0V756.35a79,79,0,0,1-79,79h-1.15a79,79,0,0,1-79-79V650.69a0,0,0,0,1,0,0Z"/><path class="cls-28" d="M1206.53,650.69h184.12a0,0,0,0,1,0,0v99.67a84.95,84.95,0,0,1-84.95,84.95h-14.23a84.95,84.95,0,0,1-84.95-84.95V650.69A0,0,0,0,1,1206.53,650.69Z"/><path class="cls-27" d="M1390.66,650.69h184.12a0,0,0,0,1,0,0v99.67a84.95,84.95,0,0,1-84.95,84.95h-14.23a84.95,84.95,0,0,1-84.95-84.95V650.69A0,0,0,0,1,1390.66,650.69Z"/><path class="cls-28" d="M1574.78,650.69h184.12a0,0,0,0,1,0,0v99.67A84.95,84.95,0,0,1,1674,835.3h-14.23a84.95,84.95,0,0,1-84.95-84.95V650.69A0,0,0,0,1,1574.78,650.69Z"/><path class="cls-27" d="M1758.91,650.69H1943a0,0,0,0,1,0,0v99.67a84.95,84.95,0,0,1-84.95,84.95h-14.23a84.95,84.95,0,0,1-84.95-84.95V650.69A0,0,0,0,1,1758.91,650.69Z"/><path class="cls-28" d="M1943,650.69h184.12a0,0,0,0,1,0,0v99.67a84.95,84.95,0,0,1-84.95,84.95H2028A84.95,84.95,0,0,1,1943,750.36V650.69A0,0,0,0,1,1943,650.69Z"/><path class="cls-27" d="M2127.15,650.69h184.12a0,0,0,0,1,0,0v99.67a84.95,84.95,0,0,1-84.95,84.95H2212.1a84.95,84.95,0,0,1-84.95-84.95V650.69a0,0,0,0,1,0,0Z"/><path class="cls-28" d="M2311.28,650.69h159.06a0,0,0,0,1,0,0V756.35a79,79,0,0,1-79,79h-1.15a79,79,0,0,1-79-79V650.69a0,0,0,0,1,0,0Z"/><path class="cls-27" d="M2470.07,650.69h159.06a0,0,0,0,1,0,0V756.35a79,79,0,0,1-79,79H2549a79,79,0,0,1-79-79V650.69A0,0,0,0,1,2470.07,650.69Z"/><path class="cls-29" d="M1893.16,2163.09V1716.83c0-282.54,233.22-512.4,519.89-512.4s519.89,229.86,519.89,512.4v446.26Z" transform="translate(-578.32 -323.34)"/><path class="cls-30" d="M2900.58,2131.2H1925.52V1716.83c0-265.37,218.27-480.51,487.53-480.51h0c269.25,0,487.53,215.14,487.53,480.51Z" transform="translate(-578.32 -323.34)"/><rect class="cls-29" x="1288.94" y="1807.85" width="1091.58" height="47.45"/><rect class="cls-31" x="1489.35" y="1547.7" width="46.52" height="96.83"/><rect class="cls-32" x="1449.88" y="1207.74" width="769.34" height="14.17"/><rect class="cls-32" x="1450.07" y="1352.64" width="769.34" height="14.17"/><rect class="cls-32" x="1449.88" y="1498.93" width="769.34" height="14.17"/><rect class="cls-32" x="1449.88" y="1644.53" width="769.34" height="14.17"/><rect class="cls-32" x="1493.03" y="1293.03" width="104.62" height="60.3"/><rect class="cls-32" x="1534.15" y="1234.24" width="104.62" height="60.3"/><rect class="cls-32" x="1617.4" y="1293.03" width="104.62" height="60.3"/><rect class="cls-32" x="1734.05" y="1293.03" width="104.62" height="60.3"/><rect class="cls-32" x="1748.41" y="1438.63" width="104.62" height="60.3"/><rect class="cls-32" x="1853.04" y="1438.63" width="104.62" height="60.3"/><rect class="cls-32" x="1908.31" y="1582.64" width="104.62" height="60.3"/><rect class="cls-32" x="2012.93" y="1582.64" width="104.62" height="60.3"/><rect class="cls-32" x="1663.62" y="1234.24" width="104.62" height="60.3"/><rect class="cls-32" x="1930.07" y="1256.51" width="46.52" height="96.83"/><rect class="cls-32" x="1986.76" y="1256.51" width="46.52" height="96.83"/><rect class="cls-32" x="2043.45" y="1256.51" width="46.52" height="96.83"/><rect class="cls-32" x="2100.14" y="1256.51" width="46.52" height="96.83"/><rect class="cls-32" x="1691.72" y="1110.91" width="46.52" height="96.83"/><rect class="cls-32" x="1748.41" y="1110.91" width="46.52" height="96.83"/><rect class="cls-32" x="1805.11" y="1110.91" width="46.52" height="96.83"/><rect class="cls-32" x="1861.8" y="1110.91" width="46.52" height="96.83"/><rect class="cls-32" x="1546.05" y="1547.7" width="46.52" height="96.83"/><rect class="cls-32" x="1602.74" y="1547.7" width="46.52" height="96.83"/><rect class="cls-32" x="1659.43" y="1547.7" width="46.52" height="96.83"/><path class="cls-14" d="M2146.38,1701.77l-160.08,87.8-207.16,18.27-6.51,28.87s194.46,38.75,234.63,31.29c52.58-8.7,223-79.85,223-79.85C2254.91,1722.26,2177.78,1683.27,2146.38,1701.77Z" transform="translate(-578.32 -323.34)"/><path class="cls-33" d="M2174.73,1679.9s-57.54,11.95-101.69,57.63c6.91,61.6,61,104.74,61,104.74s97-9.72,116.19-79.21S2174.73,1679.9,2174.73,1679.9Z" transform="translate(-578.32 -323.34)"/><path class="cls-2" d="M2338.81,1984.33l-7.44,105.89-.75,10.75-2.23,31.51H2192.15l-4-60.05-1.68-25.26,0,0-3.94-59.16,117.21-2.71Z" transform="translate(-578.32 -323.34)"/><polygon class="cls-2" points="1860.64 1809.14 1744.11 1809.14 1736.41 1758.93 1721.56 1661.91 1717.67 1636.52 1847.54 1616.3 1856.24 1744.39 1860.64 1809.14"/><path class="cls-33" d="M2436.07,2002c-10.18-172.83-56-310.7-85.36-332.66-54.73-40.9-213.26-7.91-213.44,58.8-.12,46.64,29.89,212.33,43.34,272.14C2251,2020.59,2335.43,2022.2,2436.07,2002Z" transform="translate(-578.32 -323.34)"/><path class="cls-17" d="M2436.26,2009.92c-53.27,19.07-206.08,23.22-259,6l-.55-23c91,14.74,171.84,19,259.14-1.48Z" transform="translate(-578.32 -323.34)"/><polygon class="cls-2" points="1591.28 1487.64 1603.3 1558.08 1673.51 1551.86 1663.33 1476.04 1591.28 1487.64"/><path class="cls-14" d="M2484.9,1824.64c-31.58-49.75-60-84.47-83.42-108.62-18,24-35.89,48.14-54.65,71.58l67.62,59.14,7.77,202.86,35.37,4.22S2509.16,1908.14,2484.9,1824.64Z" transform="translate(-578.32 -323.34)"/><path class="cls-33" d="M2329,1658.35s59.81,5.93,109.46,96.94c-12.08,38.62-68,67.62-68,67.62s-100.89-67.25-74.4-133.67C2308.78,1656.91,2329,1658.35,2329,1658.35Z" transform="translate(-578.32 -323.34)"/><path class="cls-14" d="M2291.34,1660c-11.82,22.64-82.62,48.06-89.06,34.86l-10.87-18.56-23.82-40.57,48.73-36.27,11.07-8.26Z" transform="translate(-578.32 -323.34)"/><path class="cls-2" d="M2270.1,1640s-2.31,35.87-49.72,57.78c20,.66,43.21,23.43,43.21,23.43s36.77-27.22,33.32-70.31C2285.73,1633.73,2270.1,1640,2270.1,1640Z" transform="translate(-578.32 -323.34)"/><path class="cls-2" d="M2187.42,1669.54s-30.77,8.11-3.31,55.3c6.18-15.48,31.59-26.52,31.59-26.52S2207.88,1695,2187.42,1669.54Z" transform="translate(-578.32 -323.34)"/><path class="cls-34" d="M2196.19,1680c-9.2-10-18.84-26.29-28.6-44.28l61.87-33.39C2229.85,1622.47,2219.19,1663.78,2196.19,1680Z" transform="translate(-578.32 -323.34)"/><path class="cls-14" d="M2235.71,1618.65c-15.19,22.09-54.76,48.39-92.3,49.13-29.56.59-53.24-37.22-64.4-84.35a262.56,262.56,0,0,1-5.84-35.55,187,187,0,0,1-.13-36.63c4.94-47.94,31.9-75.49,78.58-80.34,57.51-6,99.21,16.86,106.76,87.35C2262.05,1552.55,2248.49,1600.1,2235.71,1618.65Z" transform="translate(-578.32 -323.34)"/><path class="cls-35" d="M2210.71,1476.71S2197.38,1560,2079,1583.43a262.56,262.56,0,0,1-5.84-35.55,187,187,0,0,1-.13-36.63C2125.61,1480.87,2191.27,1457.4,2210.71,1476.71Z" transform="translate(-578.32 -323.34)"/><path class="cls-36" d="M2086.19,1537.65a1.66,1.66,0,0,1,.8-2.22,1.7,1.7,0,0,1,2.25.79,1.66,1.66,0,0,1-.8,2.22A1.7,1.7,0,0,1,2086.19,1537.65Z" transform="translate(-578.32 -323.34)"/><path class="cls-17" d="M2215.73,1479.6s-44.62,80-169,69.09c-9.35-41.62,19.27-86.13,47.34-103.36,42.86-26.31,101.62-21.75,120.87-11.25C2237,1446.12,2243.61,1461.06,2215.73,1479.6Z" transform="translate(-578.32 -323.34)"/><path class="cls-17" d="M2239.22,1451.65c-3.16-.75-22.51,5-35.15,38.78,1,42.11,32,76.9,61.25,62C2284.54,1500.2,2273.64,1459.81,2239.22,1451.65Z" transform="translate(-578.32 -323.34)"/><ellipse class="cls-14" cx="1665.16" cy="1244.4" rx="26.83" ry="26.45"/><path class="cls-2" d="M2069.15,1468.05s-87.1,15.1-68.55,38.52,144.57,6.42,188-17.81C2188.58,1488.76,2131,1463.46,2069.15,1468.05Z" transform="translate(-578.32 -323.34)"/><ellipse class="cls-2" cx="2206.73" cy="1413.08" rx="6.71" ry="14.82" transform="translate(-471.71 2656.88) rotate(-69.36)"/><path class="cls-33" d="M2205.05,1413.37c-1.64-.62-3.29-1.24-5-1.85-47.9-17.25-116.2-6-130.91,56.53,0,0,26.19.65,66.93,8.54C2145.56,1419.19,2205.05,1413.37,2205.05,1413.37Z" transform="translate(-578.32 -323.34)"/><path class="cls-33" d="M2205.05,1413.37c.66.44,53.19,36.9,30,91.24,13.2,5,26.77,10.58,40.58,17C2283.43,1465.21,2268.82,1437.42,2205.05,1413.37Z" transform="translate(-578.32 -323.34)"/><path class="cls-37" d="M2205.05,1413.37s-59.49,5.82-69,63.22a615.52,615.52,0,0,1,99,28C2258.24,1450.27,2205.71,1413.81,2205.05,1413.37Z" transform="translate(-578.32 -323.34)"/><path class="cls-38" d="M2438.77,2132.48H2192.15l-4-60.05c5.79,9.05,27.12,37.47,66.82,41.91,36.67,4.14,53.75-11.52,59.58-18.79A26.25,26.25,0,0,0,2317,2092a88,88,0,0,0,13.62,9,6,6,0,0,0,.75.42c11.65,6.25,29.35,13,49.38,10.87,35.56-3.63,54.92-28.22,54.92-28.22Z" transform="translate(-578.32 -323.34)"/><polygon class="cls-39" points="1187.01 1393.72 1201.65 1562.89 1106.38 1570.9 1091.69 1401.15 1091.72 1401.11 1099.1 1406.95 1105.4 1399.96 1112.82 1405.8 1119.09 1398.81 1126.5 1404.65 1132.81 1397.65 1139.85 1403.21 1140.19 1403.5 1146.49 1396.51 1153.91 1402.34 1160.18 1395.35 1164.16 1398.48 1167.59 1401.19 1173.9 1394.2 1181.31 1400.04 1187.01 1393.72"/><polygon class="cls-40" points="1187.01 1393.72 1201.65 1562.89 1154.02 1566.9 1139.85 1403.21 1140.19 1403.5 1146.49 1396.51 1153.91 1402.34 1160.18 1395.35 1164.16 1398.48 1167.59 1401.19 1173.9 1394.2 1181.31 1400.04 1187.01 1393.72"/><polygon class="cls-41" points="1164.16 1398.48 1175.26 1535.41 1154.02 1566.9 1139.85 1403.21 1140.19 1403.5 1146.49 1396.51 1153.91 1402.34 1160.18 1395.35 1164.16 1398.48"/><path class="cls-14" d="M1800.69,1802.48s-49.35-35.65-64-42.85c-7.55,10.93-2.59,19.19,10.09,22.76s6.51,46.68,37.9,49.23S1819.35,1808,1800.69,1802.48Z" transform="translate(-578.32 -323.34)"/><polygon class="cls-42" points="2259.74 1685.15 2288.84 1517.63 1985.1 1517.63 1956 1685.15 2259.74 1685.15"/><polygon class="cls-17" points="2274.24 1685.15 2303.34 1517.63 1999.6 1517.63 1970.5 1685.15 2274.24 1685.15"/><polygon class="cls-17" points="2151.82 1807.85 2110.36 1807.85 2093.02 1677.27 2134.48 1677.27 2151.82 1807.85"/><polygon class="cls-42" points="1977.75 1807.85 1931.77 1807.85 1931.77 1772.74 1977.75 1754.22 1977.75 1807.85"/><rect class="cls-17" x="1977.75" y="1754.22" width="298.38" height="53.64"/><polygon class="cls-40" points="1579.04 1653.36 1579.04 1806.68 1492.7 1806.68 1492.7 1652.83 1492.73 1652.8 1498.91 1658.61 1505.13 1652.8 1511.35 1658.61 1517.53 1652.8 1523.75 1658.61 1529.97 1652.8 1535.87 1658.33 1536.15 1658.61 1542.37 1652.8 1548.59 1658.61 1554.78 1652.8 1558.12 1655.91 1560.99 1658.61 1567.21 1652.8 1573.43 1658.61 1579.04 1653.36"/><polygon class="cls-39" points="1579.04 1653.36 1579.04 1806.68 1535.87 1806.68 1535.87 1658.33 1536.15 1658.61 1542.37 1652.8 1548.59 1658.61 1554.78 1652.8 1558.12 1655.91 1560.99 1658.61 1567.21 1652.8 1573.43 1658.61 1579.04 1653.36"/><polygon class="cls-43" points="1558.12 1655.91 1557.44 1779.96 1535.87 1806.68 1535.87 1658.33 1536.15 1658.61 1542.37 1652.8 1548.59 1658.61 1554.78 1652.8 1558.12 1655.91"/><polygon class="cls-40" points="1469.42 1653.36 1469.42 1806.68 1383.07 1806.68 1383.07 1652.83 1383.11 1652.8 1389.29 1658.61 1395.51 1652.8 1401.72 1658.61 1407.91 1652.8 1414.13 1658.61 1420.35 1652.8 1426.24 1658.33 1426.53 1658.61 1432.75 1652.8 1438.96 1658.61 1445.15 1652.8 1448.49 1655.91 1451.37 1658.61 1457.59 1652.8 1463.8 1658.61 1469.42 1653.36"/><polygon class="cls-39" points="1469.42 1653.36 1469.42 1806.68 1426.24 1806.68 1426.24 1658.33 1426.53 1658.61 1432.75 1652.8 1438.96 1658.61 1445.15 1652.8 1448.49 1655.91 1451.37 1658.61 1457.59 1652.8 1463.8 1658.61 1469.42 1653.36"/><polygon class="cls-43" points="1448.49 1655.91 1447.81 1779.96 1426.24 1806.68 1426.24 1658.33 1426.53 1658.61 1432.75 1652.8 1438.96 1658.61 1445.15 1652.8 1448.49 1655.91"/><polygon class="cls-17" points="1868.51 1750.84 1868.93 1763.38 1744.5 1783.58 1744.09 1771.04 1868.51 1750.84"/><ellipse class="cls-17" cx="2307.21" cy="2103.15" rx="32.55" ry="18.74" transform="translate(-989.9 245.33) rotate(-12.91)"/><polygon class="cls-44" points="1868.66 1755.46 1868.25 1742.92 1742.75 1730.8 1743.16 1743.34 1868.66 1755.46"/><ellipse class="cls-44" cx="2305.74" cy="2058.92" rx="18.73" ry="32.56" transform="translate(-675.39 3680.32) rotate(-80.75)"/><ellipse class="cls-44" cx="2446.9" cy="2076.52" rx="3.12" ry="10.19" transform="translate(-646.26 -240.52) rotate(-1.91)"/><path class="cls-14" d="M2419.73,2042.28s-28.46,18.94-10.07,22.13c7,4.65,5.16,20.88,5.16,20.88s-8.74,12.81,17,17.9,45.37-9.75,45.54-24-15.33-47.45-15.33-47.45Z" transform="translate(-578.32 -323.34)"/><rect class="cls-45" x="1448.51" y="1918.79" width="780.32" height="345.55"/><rect class="cls-16" x="1849.01" y="1975.62" width="53.66" height="27.03"/><rect class="cls-16" x="1491.12" y="1975.62" width="299.82" height="27.03"/><rect class="cls-16" x="1491.12" y="2042.63" width="299.82" height="27.03"/><rect class="cls-16" x="1849.01" y="2042.63" width="53.66" height="27.03"/><rect class="cls-16" x="1491.12" y="2109.63" width="299.82" height="27.03"/><rect class="cls-16" x="1849.01" y="2109.63" width="53.66" height="27.03"/><rect class="cls-16" x="1491.12" y="2176.64" width="299.82" height="27.03"/><rect class="cls-16" x="1849.01" y="2176.64" width="53.66" height="27.03"/><rect class="cls-16" x="1953" y="1963.77" width="114.81" height="113.15"/><rect class="cls-16" x="2067.81" y="2109.63" width="114.81" height="113.15"/><polygon class="cls-17" points="2606.83 1819.94 2481.94 2493.02 2508.66 2493.02 2618.41 1918.44 2606.83 1819.94"/><polygon class="cls-44" points="2602.48 2492.7 3047.64 2492.34 2986.42 1689.08 2541.26 1689.44 2602.48 2492.7"/><polygon class="cls-24" points="3012.65 2460.47 2956.29 1720.99 2576.25 1721.3 2632.61 2460.78 3012.65 2460.47"/><polygon class="cls-46" points="2701.75 2007.94 2951.04 2007.94 2953.11 2034.76 2703.82 2034.76 2701.75 2007.94"/><polygon class="cls-46" points="2666.04 2007.94 2668.11 2034.76 2632.39 2034.76 2630.32 2007.94 2666.04 2007.94"/><polygon class="cls-46" points="2707.49 2082.21 2956.77 2082.21 2958.84 2109.03 2709.56 2109.03 2707.49 2082.21"/><polygon class="cls-46" points="2671.77 2082.21 2673.84 2109.03 2638.13 2109.03 2636.06 2082.21 2671.77 2082.21"/><polygon class="cls-46" points="2677.51 2156.48 2679.58 2183.3 2643.87 2183.3 2641.8 2156.48 2677.51 2156.48"/><polygon class="cls-46" points="2713.22 2156.48 2962.51 2156.48 2964.58 2183.3 2715.3 2183.3 2713.22 2156.48"/><polygon class="cls-46" points="2718.96 2230.75 2968.24 2230.75 2970.32 2257.57 2721.03 2257.57 2718.96 2230.75"/><polygon class="cls-46" points="2683.24 2230.75 2685.32 2257.57 2649.6 2257.57 2647.53 2230.75 2683.24 2230.75"/><polygon class="cls-46" points="2836.91 2409.42 2969.43 2409.42 2960.9 2299.08 2828.39 2299.08 2836.91 2409.42"/><polygon class="cls-46" points="2666.5 2409.42 2799.01 2409.42 2790.49 2299.08 2657.98 2299.08 2666.5 2409.42"/><ellipse class="cls-46" cx="3355.48" cy="2190.45" rx="96.83" ry="104.68" transform="translate(-1026.96 3126.48) rotate(-51.45)"/><path class="cls-17" d="M4919.57,1760.82c-25-62.55-95.31-46.32-95.31-46.32s16.39-37-11.7-65.12-65.31-16.32-65.31-16.32-15.64-32.7-43.9-31-28.54,41.7-28.54,41.7-.62-.17-1.72-.4c.53,6.83,1.34,13.64,2.51,20.37,9.36,54,53.89,94.78,65.72,148.21,7.79,35.19-5.71,71.51,3.69,106.23a84.43,84.43,0,0,0,11.39,24.74c13.36,9.17,77.57,49.12,120.23,1.63,47.82-53.23,10.62-96.46,10.62-96.46S4944.59,1823.37,4919.57,1760.82Z" transform="translate(-578.32 -323.34)"/><ellipse class="cls-47" cx="4648.52" cy="1671.57" rx="103.32" ry="83.95" transform="translate(1694.14 5679.18) rotate(-81.03)"/><path class="cls-17" d="M4627.7,1604.51c.57-2,7.8,63.84,107.16,72.08,40.17-53.93-14.31-161.18-101.66-105.51-18.68-16.22-77.34-8.06-76.82,47.19-42.48,21.19-26.58,62.69,1.9,50.26C4558.28,1668.53,4613,1656,4627.7,1604.51Z" transform="translate(-578.32 -323.34)"/><ellipse class="cls-47" cx="4147.58" cy="1354.75" rx="17.32" ry="17.07"/><path class="cls-47" d="M4928.15,2138l-20.33-37.23,41.32-17.16c8.78,28.2,9.33,35.82,9.33,35.82C4968.85,2153,4939.37,2157.7,4928.15,2138Z" transform="translate(-578.32 -323.34)"/><path class="cls-48" d="M4837.13,1965.36l-135.65-102.8c-52.74-57.08,26.39-106.13,65.22-74.08,0,0,116.15,96.07,128.31,127.34,8.14,20.93,36.36,110.73,54.13,167.83l-41.32,17.16Z" transform="translate(-578.32 -323.34)"/><path class="cls-13" d="M4784,1984.25s79.45,47,93.75,112.76,1.53,278,1.53,278L5065.38,2691l-38.45,28.86S4782.45,2451,4749.08,2382c-17.07-81.43-39.73-379-39.73-379Z" transform="translate(-578.32 -323.34)"/><path class="cls-13" d="M4665.86,2037l-159.73,729.38c2.88,11.16,38.88,19.61,45.77,10.4,0,0,270.54-613.73,270.38-709.28S4688.7,1968.59,4665.86,2037Z" transform="translate(-578.32 -323.34)"/><path class="cls-16" d="M4551.9,2776.78c-77.87-8.62-76.48-55.51-122.67-32.57-4.16,13.33,35.75,69.7,116.87,69.7C4556.68,2797,4551.9,2776.78,4551.9,2776.78Z" transform="translate(-578.32 -323.34)"/><path class="cls-48" d="M4621.69,1874.46a584.26,584.26,0,0,0,17.62,59.58c9.28,26.47,18.86,49.21,27.42,75.63,3.22,10,6.3,20.5,9.15,31.94,0,.13.07.27.1.4s64.38,9.37,130.3-26.43c-1.6-10.52-2.88-20.66-3.93-30.47-12-112.56,6.79-178.7-58.65-215-36.36,9.25-46.9,14.47-83.24,23.39C4645.91,1813,4623.9,1847.17,4621.69,1874.46Z" transform="translate(-578.32 -323.34)"/><path class="cls-47" d="M4660.46,1793.54c.31-2.17-11.75-88.57-11.75-88.57l59.71-21.12,35.29,86.3C4715.83,1777.49,4688.13,1785.46,4660.46,1793.54Z" transform="translate(-578.32 -323.34)"/><path class="cls-48" d="M4641,2150.6c77.94,57,241.32,8.55,241.32,8.55,16.82-98.41-80-174-80-174h0L4698.19,2004l-31.46,5.7-.23,0-12.42,68.69Z" transform="translate(-578.32 -323.34)"/><path class="cls-49" d="M4666.5,2009.71l-12.42,68.69c28.78-48.55,95.61-161.35,125.25-211.35-53.15-17.46-104.07,24.26-140,67,9.28,26.47,18.86,49.21,27.42,75.63Z" transform="translate(-578.32 -323.34)"/><path d="M4698.49,2077.39l2.64-.42c-.42-2.6-41.94-260.8,21.88-282.18,15.27-5.11,27.94-4.3,38.73,2.5,33.28,20.94,41.24,94.29,48.94,165.23,3.71,34.12,7.2,66.35,13.42,91.82l2.6-.62c-6.17-25.3-9.66-57.45-13.36-91.48-7.76-71.56-15.8-145.55-50.16-167.18-11.36-7.15-25.17-8.08-41-2.77-27.85,9.33-40.26,60.26-36.9,151.37C4687.73,2011.12,4698.38,2076.74,4698.49,2077.39Z" transform="translate(-578.32 -323.34)"/><path class="cls-50" d="M4705.21,2165.72c24,13.8,132.6-5,147.27-25.44-2.67-34-11.47-63-25.73-87.55-44.12-1.27-86.57,6.44-127.56,22C4693.55,2100.34,4696.11,2139.81,4705.21,2165.72Z" transform="translate(-578.32 -323.34)"/><path class="cls-51" d="M4826.75,2052.73s.51,51.6-58.66,61.46-68.9-39.42-68.9-39.42S4757.24,2049.66,4826.75,2052.73Z" transform="translate(-578.32 -323.34)"/><path class="cls-16" d="M4775,2131.31h0a5.79,5.79,0,0,0,4.76-6.68l-3.67-20.6a5.85,5.85,0,0,0-6.77-4.69h0a5.79,5.79,0,0,0-4.76,6.68l3.67,20.6A5.85,5.85,0,0,0,4775,2131.31Z" transform="translate(-578.32 -323.34)"/><path class="cls-47" d="M4413.16,2023.36l40.53-13.83,10.6,42.94c-29.64,4-37.36,3.36-37.36,3.36C4391.68,2060.58,4391.68,2031.15,4413.16,2023.36Z" transform="translate(-578.32 -323.34)"/><path class="cls-48" d="M4600.64,1962.34l92.61-141.81c53.32-56.56,109.51,17.06,80.35,57.87,0,0-99.31,141.32-132.57,148.17-22.27,4.57-116.71,17.71-176.74,25.9l-10.6-42.94Z" transform="translate(-578.32 -323.34)"/><path class="cls-16" d="M5090.2,2716.63,5063.91,2818h-83.1c-4.35-17.52,9.44-39.43,44.82-44.18,0,0,7.24-27.19-2.72-53.94s41-30.77,41-30.77Z" transform="translate(-578.32 -323.34)"/><path class="cls-47" d="M4442.64,2012.75s-55.16-20.17-58.34-12.21-.89,16.75-.89,16.75-39.93-3.7-42.61,5.37,1.36,70.26,111.66,30.87C4436.11,2028.69,4442.64,2012.75,4442.64,2012.75Z" transform="translate(-578.32 -323.34)"/><path class="cls-47" d="M4925.89,2133.91c-.11.81,7.13,24,21,34.64s35.1,15.11,35.1,15.11c13.62,0,45.63-32,21.64-38.61-19.7-5.44-29.23-8.5-29.23-8.5l-14.83-13.1S4930.1,2103.18,4925.89,2133.91Z" transform="translate(-578.32 -323.34)"/><rect class="cls-24" x="1678.02" y="2386.04" width="310.62" height="23.39"/><rect class="cls-23" x="156.8" y="2492.45" width="4501.59" height="6.38"/><path class="cls-16" d="M3768.49,1423.14c-34.48-.26-102.49-.59-228.67-.59-19.6,0-35.52-15.66-35.52-35v-59.4c0-19.32,15.89-35,35.5-35h224.82c19.6,0,35.49,15.66,35.49,35v64A31.15,31.15,0,0,1,3768.49,1423.14Z" transform="translate(-578.32 -323.34)"/><ellipse class="cls-44" cx="2979.47" cy="1034.82" rx="12.05" ry="11.88"/><ellipse class="cls-44" cx="3042.42" cy="1034.82" rx="12.05" ry="11.88"/><ellipse class="cls-44" cx="3105.37" cy="1034.82" rx="12.05" ry="11.88"/><ellipse class="cls-44" cx="3168.32" cy="1034.82" rx="12.05" ry="11.88"/><polygon class="cls-16" points="3100.11 1076.52 3100.11 1130.51 3030.36 1078.54 3100.11 1076.52"/><ellipse class="cls-16" cx="2556.63" cy="203.8" rx="37.43" ry="36.89"/><path class="cls-16" d="M3311.75,534.4l24-2c-2.16-124.42-104.51-217-230.42-208.54l.08,23.73C3218.08,340.22,3309.64,423.06,3311.75,534.4Z" transform="translate(-578.32 -323.34)"/><path class="cls-16" d="M3261.94,538.51l24-2c-2.06-97.25-82-169.6-180.44-163.38l.08,23.73C3190.78,391.74,3259.93,454.34,3261.94,538.51Z" transform="translate(-578.32 -323.34)"/><path class="cls-16" d="M3213.71,542.5l24-2c-2-71-60.19-123.69-132-119.65l.08,23.72C3164.36,441.62,3211.81,484.61,3213.71,542.5Z" transform="translate(-578.32 -323.34)"/></g></svg>