<svg id="icons" enable-background="new 0 0 64 64" height="512" viewBox="0 0 64 64" width="512" xmlns="http://www.w3.org/2000/svg"><path d="m1 43.5c-.553 0-1 .447-1 1v18c0 .553.447 1 1 1h18c.553 0 1-.447 1-1v-18c0-.553-.447-1-1-1zm8 2h2v1.983h-2zm9 16h-16v-16h5v2.983c0 .553.447 1 1 1h4c.553 0 1-.447 1-1v-2.983h5z"/><path d="m55 .5c-4.963 0-9 4.037-9 9 0 7.22 7.993 14.442 8.334 14.746.189.169.428.254.666.254s.477-.085.666-.254c.341-.304 8.334-7.526 8.334-14.746 0-4.963-4.037-9-9-9zm-.001 21.617c-1.865-1.847-6.999-7.407-6.999-12.617 0-3.859 3.141-7 7-7s7 3.141 7 7c0 5.2-5.136 10.768-7.001 12.617z"/><path d="m51.519 52.503h-27.522c-.553 0-1 .447-1 1s.447 1 1 1h27.521c4.688 0 8.502-3.813 8.502-8.502s-3.813-8.502-8.502-8.502h-39.03c-3.585 0-6.502-2.917-6.502-6.502s2.917-6.502 6.502-6.502c.084 0 .159-.028.237-.048.085.023.168.053.261.053h35.015c.553 0 1-.447 1-1s-.447-1-1-1h-35.015c-.084 0-.159.028-.237.048-.085-.023-.168-.053-.261-.053-4.688 0-8.502 3.813-8.502 8.502s3.813 8.502 8.502 8.502h39.03c3.585 0 6.502 2.917 6.502 6.502s-2.916 6.502-6.501 6.502z"/><path d="m54.994 5.5c-2.206 0-4 1.794-4 3.999 0 2.206 1.794 4.001 4 4.001s4-1.795 4-4.001c0-2.205-1.794-3.999-4-3.999zm0 6c-1.103 0-2-.897-2-2.001 0-1.103.897-1.999 2-1.999s2 .896 2 1.999c0 1.104-.897 2.001-2 2.001z"/><path d="m10 55.499h-6c-.553 0-1 .447-1 1s.447 1 1 1h6c.553 0 1-.447 1-1s-.447-1-1-1z"/><path d="m7 58.499h-3c-.553 0-1 .447-1 1s.447 1 1 1h3c.553 0 1-.447 1-1s-.447-1-1-1z"/></svg>